<svg xmlns="http://www.w3.org/2000/svg" width="333" height="174" viewBox="0 0 333 174"><g transform="translate(-30 -464)"><rect width="333" height="167" rx="15" transform="translate(30 471)" fill="#eaeff7"/><g transform="translate(111.75 556.094)"><path d="M11.28,0Q8.688,0,8.688-2.832v-24.24L5.232-24.816q-2.4,1.632-3.744-.576Q.1-27.6,2.5-29.088l5.76-3.6a6.369,6.369,0,0,1,1.68-.744,7.341,7.341,0,0,1,1.872-.216q2.016,0,2.016,2.832V-2.832Q13.824,0,11.28,0ZM27.84,0a2.09,2.09,0,0,1-1.8-.816,2.779,2.779,0,0,1-.312-2.256q.576-2.736,1.44-6.072t1.92-6.864q1.056-3.528,2.16-6.84t2.16-6H22.992q-2.88,0-2.88-2.4,0-2.352,2.88-2.352H36.24a3.841,3.841,0,0,1,2.088.48,1.514,1.514,0,0,1,.744,1.344,8.206,8.206,0,0,1-.168,1.7,10.826,10.826,0,0,1-.552,1.752q-1.008,2.544-2.064,5.832t-2.064,6.864q-1.008,3.576-1.872,6.96t-1.44,6.12A2.819,2.819,0,0,1,27.84,0ZM44.064,7.008a3.455,3.455,0,0,1-2.016.5,1.6,1.6,0,0,1-1.2-.744.929.929,0,0,1,.192-1.176,10.385,10.385,0,0,1,1.68-1.32,6.53,6.53,0,0,0,1.944-2.04,4.622,4.622,0,0,0,.7-2.376q0-.288-.024-.528a3.035,3.035,0,0,0-.072-.432,4.257,4.257,0,0,1-1.2,1.056,2.855,2.855,0,0,1-1.488.432A3.36,3.36,0,0,1,40.248-.5a3.1,3.1,0,0,1-.984-2.424A2.788,2.788,0,0,1,40.392-5.3a4.586,4.586,0,0,1,2.664-.888,4.875,4.875,0,0,1,3.912,1.7A6.565,6.565,0,0,1,48.528.048a6.892,6.892,0,0,1-1.2,4.032A10.022,10.022,0,0,1,44.064,7.008ZM63.168.48a8.719,8.719,0,0,1-6-1.92A10.681,10.681,0,0,1,54.12-7.2a43.54,43.54,0,0,1-.888-9.6,43.875,43.875,0,0,1,.888-9.624,10.7,10.7,0,0,1,3.048-5.784,8.719,8.719,0,0,1,6-1.92,8.626,8.626,0,0,1,5.976,1.92,10.787,10.787,0,0,1,3.024,5.784,43.875,43.875,0,0,1,.888,9.624,43.54,43.54,0,0,1-.888,9.6,10.769,10.769,0,0,1-3.024,5.76A8.626,8.626,0,0,1,63.168.48Zm0-4.9a3.617,3.617,0,0,0,2.808-1.128A7.707,7.707,0,0,0,67.488-9.36a44.658,44.658,0,0,0,.48-7.44,45.04,45.04,0,0,0-.48-7.488A7.707,7.707,0,0,0,65.976-28.1a3.617,3.617,0,0,0-2.808-1.128A3.694,3.694,0,0,0,60.336-28.1a7.42,7.42,0,0,0-1.512,3.816,47.37,47.37,0,0,0-.456,7.488,46.969,46.969,0,0,0,.456,7.44,7.42,7.42,0,0,0,1.512,3.816A3.694,3.694,0,0,0,63.168-4.416ZM85.824.288A10.836,10.836,0,0,1,78-2.88a2.375,2.375,0,0,1-.912-2.04,2.256,2.256,0,0,1,1.2-1.656,2.591,2.591,0,0,1,1.968-.456A5.426,5.426,0,0,1,82.176-6a6.892,6.892,0,0,0,1.68,1.008,5.019,5.019,0,0,0,1.968.384A5.029,5.029,0,0,0,89.88-6.216,6.717,6.717,0,0,0,91.248-10.7a7.068,7.068,0,0,0-1.176-4.536,4.038,4.038,0,0,0-3.288-1.416,4.3,4.3,0,0,0-1.368.216,5.3,5.3,0,0,0-1.176.552,18.439,18.439,0,0,0-1.68,1.032,3.107,3.107,0,0,1-1.824.5q-2.64,0-2.64-2.832V-30.768q0-2.832,2.88-2.832H92.352q2.832,0,2.832,2.352T92.352-28.9h-9.12v8.832A7.836,7.836,0,0,1,85.008-21a5.435,5.435,0,0,1,1.92-.36,9.677,9.677,0,0,1,4.824,1.2,8.7,8.7,0,0,1,3.408,3.552,12.31,12.31,0,0,1,1.272,5.9q0,5.232-2.928,8.112A10.481,10.481,0,0,1,85.824.288Zm24,.192a8.719,8.719,0,0,1-6-1.92,10.681,10.681,0,0,1-3.048-5.76,43.54,43.54,0,0,1-.888-9.6,43.876,43.876,0,0,1,.888-9.624,10.7,10.7,0,0,1,3.048-5.784,8.719,8.719,0,0,1,6-1.92,8.626,8.626,0,0,1,5.976,1.92,10.787,10.787,0,0,1,3.024,5.784,43.875,43.875,0,0,1,.888,9.624,43.54,43.54,0,0,1-.888,9.6A10.769,10.769,0,0,1,115.8-1.44,8.626,8.626,0,0,1,109.824.48Zm0-4.9a3.617,3.617,0,0,0,2.808-1.128,7.707,7.707,0,0,0,1.512-3.816,44.659,44.659,0,0,0,.48-7.44,45.04,45.04,0,0,0-.48-7.488,7.707,7.707,0,0,0-1.512-3.816,3.617,3.617,0,0,0-2.808-1.128,3.694,3.694,0,0,0-2.832,1.128,7.42,7.42,0,0,0-1.512,3.816,47.37,47.37,0,0,0-.456,7.488,46.969,46.969,0,0,0,.456,7.44,7.42,7.42,0,0,0,1.512,3.816A3.694,3.694,0,0,0,109.824-4.416ZM125.849,2.05a1.435,1.435,0,0,1-1.075-.438,1.564,1.564,0,0,1-.425-1.137V-13.75a13.165,13.165,0,0,1,.325-3.225,3.737,3.737,0,0,1,1.113-1.937,4.5,4.5,0,0,1,2.15-.95,18.827,18.827,0,0,1,3.463-.263h5.825a18.827,18.827,0,0,1,3.462.263,4.5,4.5,0,0,1,2.15.95,3.738,3.738,0,0,1,1.113,1.938,13.165,13.165,0,0,1,.325,3.225V-2.975a7.623,7.623,0,0,1-.463,2.963,2.774,2.774,0,0,1-1.462,1.5A7.5,7.5,0,0,1,139.724,2a2.055,2.055,0,0,1-1.288-.337,1.438,1.438,0,0,1-.587-1.088,1.628,1.628,0,0,1,.363-1.212,1.455,1.455,0,0,1,1.113-.512,4.1,4.1,0,0,0,1.25-.225.98.98,0,0,0,.575-.65,4.592,4.592,0,0,0,.15-1.325V-8.125H127.324v8.6a1.591,1.591,0,0,1-.412,1.137A1.4,1.4,0,0,1,125.849,2.05Zm9.925-12.925H141.3V-13.75a6.542,6.542,0,0,0-.312-2.337,1.672,1.672,0,0,0-1.187-1,10.63,10.63,0,0,0-2.6-.238h-1.425Zm-8.45,0h5.5v-6.45h-1.4a10.654,10.654,0,0,0-2.587.238,1.676,1.676,0,0,0-1.2,1,6.542,6.542,0,0,0-.312,2.337Zm22.14,4.187c1.386-1.5,2.4-2.024,3.828-2.024,1.166,0,1.848.264,3.784,1.5a11.243,11.243,0,0,0,3.014,1.628,6.259,6.259,0,0,0,1.936.308,6.178,6.178,0,0,0,3.806-1.254,9.606,9.606,0,0,0,2.09-2.134l-1.76-1.76a5.9,5.9,0,0,1-2.288,2,4.348,4.348,0,0,1-1.628.418,7.46,7.46,0,0,1-3.894-1.54,15.793,15.793,0,0,0-2-1.21,6.173,6.173,0,0,0-2.838-.66,6.269,6.269,0,0,0-3.608,1.144,7.565,7.565,0,0,0-2.178,1.958Z" transform="translate(0.25 55.907)" fill="#000979"/><path d="M8.36.74A2.913,2.913,0,0,1,7.445.625a.785.785,0,0,1-.475-.4,1.837,1.837,0,0,1-.14-.8V-2.98H6.4A5.565,5.565,0,0,1,5.86-.795,3.538,3.538,0,0,1,4.38.72a.7.7,0,0,1-.465.1A.553.553,0,0,1,3.52.55.509.509,0,0,1,3.465.125.528.528,0,0,1,3.75-.22,2.586,2.586,0,0,0,4.92-1.36a4.489,4.489,0,0,0,.43-1.7,1.164,1.164,0,0,1-.8-.49A2.075,2.075,0,0,1,4.34-4.6v-.21A1.932,1.932,0,0,1,4.6-5.925a1.361,1.361,0,0,1,.99-.455.875.875,0,0,1-.17-.1.471.471,0,0,1-.13-.15q-.06-.1-.165-.27t-.21-.35q-.105-.18-.185-.29a.489.489,0,0,1-.065-.4.541.541,0,0,1,.245-.33.667.667,0,0,1,.45-.095.5.5,0,0,1,.36.235q.08.11.195.3l.225.36a2.359,2.359,0,0,1,.15.265.539.539,0,0,1,.065.445.528.528,0,0,1-.285.345h.8q.11-.22.255-.555T7.41-7.63l.21-.48a.527.527,0,0,1,.315-.305.558.558,0,0,1,.455.025.534.534,0,0,1,.305.29.526.526,0,0,1,0,.42q-.06.15-.17.385t-.24.485l-.24.46a1.176,1.176,0,0,1,.845.47A2.046,2.046,0,0,1,9.11-4.81v.21a2,2,0,0,1-.245,1.105,1.3,1.3,0,0,1-.945.465V-.84a.559.559,0,0,0,.09.385A.607.607,0,0,0,8.4-.37a.36.36,0,0,0,.3-.1A1.1,1.1,0,0,0,8.85-.89.465.465,0,0,1,9.1-1.24a.6.6,0,0,1,.445-.03.507.507,0,0,1,.39.66A1.731,1.731,0,0,1,9.44.445,1.677,1.677,0,0,1,8.36.74ZM2.46.87A.557.557,0,0,1,2.065.715.53.53,0,0,1,1.9.31V-2.77q-.19.37-.385.72t-.355.59a.578.578,0,0,1-.35.24.507.507,0,0,1-.44-.09.471.471,0,0,1-.205-.335A.488.488,0,0,1,.26-2.01q.18-.24.405-.6T1.12-3.36q.23-.4.43-.785t.32-.675H.86a.511.511,0,0,1-.375-.155A.511.511,0,0,1,.33-5.35a.511.511,0,0,1,.155-.375A.511.511,0,0,1,.86-5.88H1.9v-.84l-.415.08q-.2.04-.4.07Q.5-6.48.41-6.98A.474.474,0,0,1,.5-7.37a.586.586,0,0,1,.395-.2q.36-.05.835-.15t.94-.23a8.292,8.292,0,0,0,.795-.26.691.691,0,0,1,.44-.015.437.437,0,0,1,.28.3.491.491,0,0,1-.01.4.523.523,0,0,1-.31.27q-.18.07-.395.135L3.02-6.99v1.11H3.8a.511.511,0,0,1,.375.155.511.511,0,0,1,.155.375.511.511,0,0,1-.155.375A.511.511,0,0,1,3.8-4.82H3.02v.45q.15.16.4.415t.485.49q.24.235.37.345a.48.48,0,0,1,.175.36.561.561,0,0,1-.135.38.49.49,0,0,1-.375.18.5.5,0,0,1-.395-.15q-.09-.1-.23-.26t-.29-.35V.31a.53.53,0,0,1-.165.405A.557.557,0,0,1,2.46.87ZM6.32-3.99h.8a1.322,1.322,0,0,0,.7-.12.59.59,0,0,0,.16-.49v-.21a.575.575,0,0,0-.16-.48,1.322,1.322,0,0,0-.7-.12h-.8a1.294,1.294,0,0,0-.69.12.575.575,0,0,0-.16.48v.21a.59.59,0,0,0,.16.49A1.294,1.294,0,0,0,6.32-3.99ZM18.56-1.24a7.509,7.509,0,0,1-1.3-1.495A7.367,7.367,0,0,1,16.35-4.69a10.219,10.219,0,0,1-.94,1.905A7.071,7.071,0,0,1,14.13-1.25a.611.611,0,0,1-.46.155.565.565,0,0,1-.43-.215.491.491,0,0,1-.1-.395.6.6,0,0,1,.2-.365,6.259,6.259,0,0,0,1.125-1.31,10.015,10.015,0,0,0,.85-1.61,12.369,12.369,0,0,0,.565-1.66.769.769,0,0,0-.48-.12h-.99a.542.542,0,0,1-.415-.165.569.569,0,0,1-.155-.405.557.557,0,0,1,.155-.395A.542.542,0,0,1,14.41-7.9h1.11a1.646,1.646,0,0,1,1.065.275,1.435,1.435,0,0,1,.4.985A6.418,6.418,0,0,0,17.4-4.925a7.058,7.058,0,0,0,.83,1.53A7.3,7.3,0,0,0,19.36-2.14a.583.583,0,0,1,.21.39.5.5,0,0,1-.12.41.7.7,0,0,1-.43.23A.55.55,0,0,1,18.56-1.24ZM16.09.61A9.977,9.977,0,0,1,13.78.4,2.9,2.9,0,0,1,12.39-.34q-.13.1-.335.25l-.4.29q-.19.14-.29.21a.62.62,0,0,1-.465.1A.526.526,0,0,1,10.51.25a.579.579,0,0,1-.075-.45.529.529,0,0,1,.275-.36l.465-.26.535-.3V-3.25a.527.527,0,0,0-.08-.34.426.426,0,0,0-.32-.09h-.42a.491.491,0,0,1-.39-.16.558.558,0,0,1-.14-.38A.54.54,0,0,1,10.5-4.6a.5.5,0,0,1,.39-.155h.87a.946.946,0,0,1,1.07,1.07v2.33a2.151,2.151,0,0,0,.63.5,3.117,3.117,0,0,0,.995.285,11.928,11.928,0,0,0,1.635.09q.85,0,1.585-.03T18.96-.58a.679.679,0,0,1,.5.14.517.517,0,0,1,.195.42.616.616,0,0,1-.16.44.672.672,0,0,1-.51.17q-.44,0-.98,0l-1.05.01Q16.44.61,16.09.61ZM12.17-6.17a4.552,4.552,0,0,0-.355-.335q-.215-.185-.43-.365T11-7.17a.455.455,0,0,1-.185-.365.581.581,0,0,1,.135-.395.57.57,0,0,1,.365-.205.567.567,0,0,1,.425.105q.19.14.42.32t.445.36q.215.18.355.31a.507.507,0,0,1,.19.4.581.581,0,0,1-.18.425.558.558,0,0,1-.395.2A.5.5,0,0,1,12.17-6.17Z" transform="translate(124.251 30.906)" fill="#000979"/></g><g transform="translate(1 3)"><rect width="72" height="23" rx="11.5" transform="translate(59 536)" fill="#ffd801"/><rect width="61" height="23" rx="11.5" transform="translate(151 536.43)" fill="#ffd801"/><rect width="100" height="23" rx="11.5" transform="translate(232 536)" fill="#ffd801"/><path d="M-22.633.416a.753.753,0,0,1-.26-.553.791.791,0,0,1,.208-.578,11.4,11.4,0,0,0,1.736-2.463,13.374,13.374,0,0,0,1.124-2.97l-1.358.071q-.63.032-.826.046a.77.77,0,0,1-.572-.215.768.768,0,0,1-.26-.552.8.8,0,0,1,.208-.585.746.746,0,0,1,.546-.26q.156-.013.559-.026l.943-.032q.54-.02,1.085-.046a16.71,16.71,0,0,0,.195-2.015.781.781,0,0,1,.26-.566.727.727,0,0,1,.572-.2.791.791,0,0,1,.566.253.725.725,0,0,1,.2.578q-.013.481-.065.949t-.117.936l.377-.013a4.427,4.427,0,0,1,2.184.351,1.925,1.925,0,0,1,.988,1.339,6.771,6.771,0,0,1-.026,2.509,8.124,8.124,0,0,1-.6,2.158,3.413,3.413,0,0,1-.923,1.254,2.484,2.484,0,0,1-1.209.52A4.821,4.821,0,0,1-18.564.273a.766.766,0,0,1-.52-.325.781.781,0,0,1-.143-.6.8.8,0,0,1,.332-.526A.734.734,0,0,1-18.3-1.3a2.744,2.744,0,0,0,.787.039,1.191,1.191,0,0,0,.65-.286,2.054,2.054,0,0,0,.52-.812,7.875,7.875,0,0,0,.4-1.554,5.6,5.6,0,0,0,.1-1.54.8.8,0,0,0-.455-.683,2.756,2.756,0,0,0-1.15-.143q-.195,0-.741.039a17.022,17.022,0,0,1-1.326,3.679A12.8,12.8,0,0,1-21.5.377a.731.731,0,0,1-.553.254A.815.815,0,0,1-22.633.416Zm8.515-7.748q-.169-.182-.423-.422t-.474-.423a.478.478,0,0,1-.149-.325.493.493,0,0,1,.124-.377.523.523,0,0,1,.344-.175.588.588,0,0,1,.384.1,5.509,5.509,0,0,1,.5.364,4.668,4.668,0,0,1,.488.442.543.543,0,0,1,.169.4.613.613,0,0,1-.156.41.537.537,0,0,1-.4.175A.536.536,0,0,1-14.118-7.332Zm1.092-1.209q-.182-.169-.455-.39t-.494-.39a.452.452,0,0,1-.175-.312.513.513,0,0,1,.1-.39.462.462,0,0,1,.318-.2.57.57,0,0,1,.384.071,5.616,5.616,0,0,1,.533.332,5.714,5.714,0,0,1,.52.4.534.534,0,0,1,.195.39.6.6,0,0,1-.13.416.5.5,0,0,1-.37.208A.535.535,0,0,1-13.026-8.541ZM-4.68.572A.753.753,0,0,1-5.239.331a.785.785,0,0,1-.234-.565v-5.2q-.832.728-1.716,1.4T-8.957-2.8a.781.781,0,0,1-.6.091.8.8,0,0,1-.5-.364.794.794,0,0,1-.091-.611.757.757,0,0,1,.364-.494Q-8.97-4.68-8.08-5.356T-6.337-6.8q.851-.767,1.573-1.541A13.54,13.54,0,0,0-3.562-9.8a.815.815,0,0,1,.52-.338.739.739,0,0,1,.6.13.77.77,0,0,1,.338.514.751.751,0,0,1-.13.6A20.025,20.025,0,0,1-3.874-6.981V-.234a.785.785,0,0,1-.234.565A.767.767,0,0,1-4.68.572Zm9.217,0A.753.753,0,0,1,3.978.331a.785.785,0,0,1-.234-.565V-9.217a.757.757,0,0,1,.234-.566.774.774,0,0,1,.559-.227.79.79,0,0,1,.572.227.757.757,0,0,1,.234.566v3.133a.8.8,0,0,1,.468-.345.753.753,0,0,1,.585.072q.767.4,1.566.916A13.248,13.248,0,0,1,9.347-4.433a.771.771,0,0,1,.292.553.784.784,0,0,1-.189.6A.783.783,0,0,1,8.9-3a.8.8,0,0,1-.6-.175q-.364-.286-.838-.611t-.949-.631q-.474-.305-.865-.526a.836.836,0,0,1-.312-.286V-.234a.785.785,0,0,1-.234.565A.767.767,0,0,1,4.537.572Zm5.07-7.306a.52.52,0,0,1-.41.117.526.526,0,0,1-.384-.221q-.13-.195-.351-.481t-.4-.494a.486.486,0,0,1-.1-.351.485.485,0,0,1,.182-.351.466.466,0,0,1,.357-.13.571.571,0,0,1,.358.156A4.856,4.856,0,0,1,9.3-8.04q.247.279.416.5a.558.558,0,0,1,.11.422A.6.6,0,0,1,9.607-6.734Zm1.261-1.1a.515.515,0,0,1-.41.156.5.5,0,0,1-.384-.2q-.156-.182-.39-.442t-.429-.468a.52.52,0,0,1-.137-.344A.492.492,0,0,1,9.282-9.5a.493.493,0,0,1,.344-.149A.563.563,0,0,1,10-9.529q.2.156.468.416a5.555,5.555,0,0,1,.455.481.544.544,0,0,1,.13.4A.593.593,0,0,1,10.868-7.839ZM21.307.234A7.671,7.671,0,0,1,19.753-2.1,14.337,14.337,0,0,1,18.72-5.8L17-5.629a.725.725,0,0,1-.572-.156.71.71,0,0,1-.26-.507.711.711,0,0,1,.143-.546.692.692,0,0,1,.52-.26l1.7-.169q-.052-.663-.091-1.378t-.039-1.495a.727.727,0,0,1,.221-.566.78.78,0,0,1,.546-.2.822.822,0,0,1,.566.2.732.732,0,0,1,.227.578q-.013.728.013,1.411t.078,1.293l3.211-.312a.739.739,0,0,1,.572.15.689.689,0,0,1,.26.5.7.7,0,0,1-.15.553.767.767,0,0,1-.526.266l-3.185.312a12.34,12.34,0,0,0,.864,3.107A5.942,5.942,0,0,0,22.347-.962q.4.39.6-.13.065-.169.124-.377t.111-.377a.713.713,0,0,1,.39-.468.73.73,0,0,1,.572-.026.777.777,0,0,1,.442.371.8.8,0,0,1,.039.592q-.078.247-.176.572t-.2.6Q23.816.9,23.016,1A2.151,2.151,0,0,1,21.307.234Zm-6.149.884a.763.763,0,0,1-.533-.2A.71.71,0,0,1,14.4.364V-5.772q-.468.637-.936,1.17a.728.728,0,0,1-.527.26.827.827,0,0,1-.566-.2.705.705,0,0,1-.24-.468.646.646,0,0,1,.175-.52q.416-.468.858-1.072t.852-1.261q.409-.656.741-1.3a11.79,11.79,0,0,0,.54-1.189.727.727,0,0,1,.416-.449.781.781,0,0,1,.585.007.693.693,0,0,1,.41.377.746.746,0,0,1-.02.585q-.143.39-.344.806t-.423.845V.364A.71.71,0,0,1,15.7.917.78.78,0,0,1,15.158,1.118Zm8.034-9.347a.7.7,0,0,1-.514.208.719.719,0,0,1-.527-.221q-.13-.143-.345-.338l-.429-.39L21.021-9.3a.607.607,0,0,1-.215-.462.691.691,0,0,1,.176-.487.712.712,0,0,1,.488-.247.74.74,0,0,1,.539.169q.143.117.384.319t.475.4a4.035,4.035,0,0,1,.351.332.661.661,0,0,1,.215.526A.782.782,0,0,1,23.192-8.229Z" transform="translate(95 552.5)" fill="#000979"/><path d="M-13.013,1.209A.734.734,0,0,1-13.533,1a.7.7,0,0,1-.221-.533V-1.963a11.79,11.79,0,0,1-1.19.955q-.669.475-1.391.891a14.443,14.443,0,0,1-1.437.728,1.1,1.1,0,0,1-.65.1A.653.653,0,0,1-18.9.338a.73.73,0,0,1-.026-.572.7.7,0,0,1,.442-.416A16.235,16.235,0,0,0-16.5-1.631,15.6,15.6,0,0,0-14.742-2.8h-3.107a.639.639,0,0,1-.462-.182.591.591,0,0,1-.189-.442.613.613,0,0,1,.189-.449.613.613,0,0,1,.448-.188h1.352v-.949h-1.924a.576.576,0,0,1-.423-.175.576.576,0,0,1-.175-.422.576.576,0,0,1,.175-.423.576.576,0,0,1,.423-.176h1.924v-.975h-1.209a.587.587,0,0,1-.429-.182.587.587,0,0,1-.182-.429.581.581,0,0,1,.182-.436.6.6,0,0,1,.429-.176h3.965v-.754q-.728.052-1.45.091t-1.372.052q-.754.026-.793-.624a.565.565,0,0,1,.188-.468.824.824,0,0,1,.54-.195q.819-.013,1.729-.065t1.833-.143q.923-.091,1.748-.2t1.463-.241a1.017,1.017,0,0,1,.624.033.55.55,0,0,1,.312.422.644.644,0,0,1-.078.514.669.669,0,0,1-.429.28q-1.235.234-2.821.416V-8.4h3.978a.591.591,0,0,1,.436.176.591.591,0,0,1,.175.436.6.6,0,0,1-.175.429.581.581,0,0,1-.436.182H-9.529V-6.2h1.95a.57.57,0,0,1,.429.176.587.587,0,0,1,.169.423.587.587,0,0,1-.169.422.57.57,0,0,1-.429.175h-1.95v.949h1.352a.591.591,0,0,1,.442.188.624.624,0,0,1,.182.449.6.6,0,0,1-.182.442.587.587,0,0,1-.429.182h-3.081A15.425,15.425,0,0,0-9.523-1.658a16.213,16.213,0,0,0,1.97.969.732.732,0,0,1,.435.4A.653.653,0,0,1-7.15.273a.725.725,0,0,1-.448.4.909.909,0,0,1-.63-.033A14.2,14.2,0,0,1-9.64-.091q-.734-.429-1.417-.917a13.725,13.725,0,0,1-1.2-.955V.468A.7.7,0,0,1-12.48,1,.75.75,0,0,1-13.013,1.209ZM-15.041-6.2h1.287v-.975h-1.287Zm2.782,0H-11v-.975h-1.261Zm-2.782,2.145h1.287v-.949h-1.287Zm2.782,0H-11v-.949h-1.261Zm9.776,5.1a.666.666,0,0,1-.741-.6.668.668,0,0,1,.1-.52.609.609,0,0,1,.429-.26,1.383,1.383,0,0,0,.507-.143q.143-.091.143-.429V-4.537l-.481.039v2.925a.483.483,0,0,1-.156.383.553.553,0,0,1-.377.137.585.585,0,0,1-.377-.137A.465.465,0,0,1-3.6-1.573V-4.407l-.39.039a16.276,16.276,0,0,1-.137,2.061A10.1,10.1,0,0,1-4.459-.754,8.831,8.831,0,0,1-4.966.533.706.706,0,0,1-5.349.89.673.673,0,0,1-5.876.9.586.586,0,0,1-6.227.546.615.615,0,0,1-6.2.052a7.656,7.656,0,0,0,.488-1.157,8.511,8.511,0,0,0,.319-1.378,13.057,13.057,0,0,0,.13-1.781l-.273.026a.782.782,0,0,1-.5-.13.583.583,0,0,1-.227-.455.6.6,0,0,1,.156-.462.63.63,0,0,1,.442-.188q.1-.013.208-.02t.208-.006v-2.34a2.032,2.032,0,0,1,.286-1.19,1.354,1.354,0,0,1,.975-.487q.065-.221.169-.559t.156-.481a.684.684,0,0,1,.338-.429.811.811,0,0,1,.559-.065.686.686,0,0,1,.442.273.5.5,0,0,1,.065.455q-.026.091-.11.332t-.15.448a1.911,1.911,0,0,1,1.352.4A1.832,1.832,0,0,1-.793-7.839v2L-.6-5.85a.47.47,0,0,1,.3.039A12.442,12.442,0,0,0,.325-7.124,8.184,8.184,0,0,0,.754-8.437a.711.711,0,0,1,.325-.448.63.63,0,0,1,.52-.071.657.657,0,0,1,.429.306.707.707,0,0,1,.052.539A8.569,8.569,0,0,1,1.742-7q-.221.592-.487,1.157T.728-4.836A.707.707,0,0,1,.3-4.5.722.722,0,0,1-.247-4.55a.907.907,0,0,1-.182-.156.181.181,0,0,0-.078.013l-.286.026V-.624A1.668,1.668,0,0,1-1.209.624,1.811,1.811,0,0,1-2.483,1.04ZM2.808.871a4.529,4.529,0,0,1-1.489-.2A1.309,1.309,0,0,1,.559.052,2.511,2.511,0,0,1,.338-1.092V-2.275A2.545,2.545,0,0,1,.559-3.432a1.309,1.309,0,0,1,.76-.624,4.529,4.529,0,0,1,1.489-.195A4.529,4.529,0,0,1,4.3-4.056a1.309,1.309,0,0,1,.76.624,2.545,2.545,0,0,1,.221,1.157v1.183A2.511,2.511,0,0,1,5.057.052,1.309,1.309,0,0,1,4.3.676,4.529,4.529,0,0,1,2.808.871Zm3.12-5.616a.68.68,0,0,1-.559.162.764.764,0,0,1-.507-.293,9.045,9.045,0,0,1-.748-1.157A10.631,10.631,0,0,1,3.49-7.384,7.814,7.814,0,0,1,3.107-8.71.819.819,0,0,0,2.9-9.184a.978.978,0,0,0-.533-.1H1.924a.6.6,0,0,1-.461-.189.636.636,0,0,1-.176-.449.636.636,0,0,1,.176-.448.6.6,0,0,1,.461-.188h.884a1.645,1.645,0,0,1,1.04.28,1.379,1.379,0,0,1,.442.929,6.087,6.087,0,0,0,.63,1.97,8.668,8.668,0,0,0,1.1,1.658.642.642,0,0,1,.156.5A.667.667,0,0,1,5.928-4.745ZM-3.991-5.59q.481-.026.981-.065l.969-.078V-7.644A.756.756,0,0,0-2.2-8.2a.885.885,0,0,0-.585-.143h-.481a.856.856,0,0,0-.579.143.778.778,0,0,0-.149.559Zm6.8,5.135a1.262,1.262,0,0,0,.838-.188,1.006,1.006,0,0,0,.189-.709v-.676a1.006,1.006,0,0,0-.189-.708,1.262,1.262,0,0,0-.838-.188,1.262,1.262,0,0,0-.839.188,1.006,1.006,0,0,0-.188.708v.676a1.006,1.006,0,0,0,.188.709A1.262,1.262,0,0,0,2.808-.455ZM-2.717-5.889a.7.7,0,0,1-.462-.026.48.48,0,0,1-.279-.351q-.052-.2-.15-.526t-.162-.5a.489.489,0,0,1,.039-.455.565.565,0,0,1,.351-.247.544.544,0,0,1,.754.39q.052.169.156.487t.156.488A.551.551,0,0,1-2.717-5.889Zm12.9,7.007a.735.735,0,0,1-.5-.188A.649.649,0,0,1,9.464.416V-3.263q-.325.481-.669.936a8.749,8.749,0,0,1-.644.767.786.786,0,0,1-.5.234.638.638,0,0,1-.514-.182.641.641,0,0,1-.214-.468.616.616,0,0,1,.188-.468,9.182,9.182,0,0,0,.721-.839q.41-.527.806-1.092T9.3-5.382H7.722a.638.638,0,0,1-.468-.195.654.654,0,0,1-.195-.481.638.638,0,0,1,.195-.468.638.638,0,0,1,.468-.2H9.464v-3.523a.669.669,0,0,1,.215-.52.721.721,0,0,1,.5-.195.691.691,0,0,1,.5.195.69.69,0,0,1,.2.52v3.523h1.4a.638.638,0,0,1,.468.2.638.638,0,0,1,.195.468.654.654,0,0,1-.195.481.638.638,0,0,1-.468.195h-1.4V-5.3l.559.591q.325.345.65.663t.52.488a.719.719,0,0,1,.208.39.616.616,0,0,1,.325-.117q.611-.091,1.437-.241t1.657-.319v-6.383a.684.684,0,0,1,.215-.533.737.737,0,0,1,.514-.195.761.761,0,0,1,.52.195.674.674,0,0,1,.221.533v6.1l.416-.1.364-.084a.686.686,0,0,1,.54.091.642.642,0,0,1,.292.442.788.788,0,0,1-.078.533.61.61,0,0,1-.429.3q-.247.052-.527.117t-.579.13V.39a.679.679,0,0,1-.221.527.747.747,0,0,1-.52.2.724.724,0,0,1-.514-.2A.689.689,0,0,1,16.237.39V-2.392q-.754.156-1.508.292t-1.365.241a.78.78,0,0,1-.572-.11.643.643,0,0,1-.286-.487L12.493-2.5a.57.57,0,0,1-.41.1.652.652,0,0,1-.4-.195q-.156-.143-.371-.377t-.435-.494V.416a.669.669,0,0,1-.2.514A.7.7,0,0,1,10.179,1.118Zm4.758-8.567q-.117-.117-.338-.3t-.442-.37q-.221-.188-.364-.293a.628.628,0,0,1-.221-.462.667.667,0,0,1,.169-.488.74.74,0,0,1,.475-.247.728.728,0,0,1,.514.156q.143.1.37.286t.462.364a4.022,4.022,0,0,1,.364.312A.623.623,0,0,1,16.146-8a.726.726,0,0,1-.208.513.724.724,0,0,1-.494.221A.694.694,0,0,1,14.937-7.449Zm-.325,2.808q-.13-.117-.351-.293l-.448-.358q-.227-.182-.371-.286a.579.579,0,0,1-.234-.455.705.705,0,0,1,.156-.494.723.723,0,0,1,.468-.254.712.712,0,0,1,.52.149q.143.1.377.28L15.2-6q.234.175.364.292a.665.665,0,0,1,.234.488.721.721,0,0,1-.2.526.7.7,0,0,1-.481.227A.671.671,0,0,1,14.612-4.641ZM11.6-7.124a.617.617,0,0,1-.344-.332.554.554,0,0,1,.006-.462q.091-.182.208-.481T11.7-8.99q.117-.292.169-.474a.655.655,0,0,1,.351-.384.632.632,0,0,1,.494-.019.693.693,0,0,1,.371.3.557.557,0,0,1,.019.494q-.065.208-.189.52t-.247.611q-.124.3-.214.494a.622.622,0,0,1-.351.319A.7.7,0,0,1,11.6-7.124ZM8.723-7.163a.711.711,0,0,1-.507.02.57.57,0,0,1-.338-.371q-.052-.182-.163-.462t-.227-.566Q7.371-8.827,7.293-9a.6.6,0,0,1,.013-.475.594.594,0,0,1,.351-.319A.664.664,0,0,1,8.164-9.8a.613.613,0,0,1,.338.358q.078.156.2.448t.241.585q.117.292.169.462a.52.52,0,0,1-.013.468A.719.719,0,0,1,8.723-7.163Z" transform="translate(181 552.5)" fill="#000979"/><path d="M-32.942-1.313a3.716,3.716,0,0,1-2.827.1A2.175,2.175,0,0,1-36.8-3.38V-7.839a.767.767,0,0,1,.241-.572A.785.785,0,0,1-36-8.645a.778.778,0,0,1,.572.234.778.778,0,0,1,.234.572v4.29q0,.689.39.865A2.01,2.01,0,0,0-33.5-2.8a14.168,14.168,0,0,0,2.542-1.1,18.508,18.508,0,0,0,2.294-1.476.838.838,0,0,1,.6-.156.768.768,0,0,1,.54.312.774.774,0,0,1,.149.591.807.807,0,0,1-.306.539,15.571,15.571,0,0,1-1.54,1.034q-.865.514-1.82.962A18.878,18.878,0,0,1-32.942-1.313Zm10.348.806a.767.767,0,0,1-.618-.026.793.793,0,0,1-.423-.455.767.767,0,0,1,.026-.618.793.793,0,0,1,.455-.423,17.652,17.652,0,0,0,2.1-.9,21.064,21.064,0,0,0,2.028-1.164,18.31,18.31,0,0,0,1.768-1.3,9.724,9.724,0,0,0,1.306-1.293.83.83,0,0,1,.553-.3.707.707,0,0,1,.578.182.783.783,0,0,1,.3.539.744.744,0,0,1-.182.592A10.574,10.574,0,0,1-16.12-4.283,21.638,21.638,0,0,1-18.1-2.834q-1.092.715-2.249,1.326A17.274,17.274,0,0,1-22.594-.507Zm1.118-5.122q-.494-.416-1.1-.865a12.421,12.421,0,0,0-1.105-.734.8.8,0,0,1-.364-.5.781.781,0,0,1,.091-.6.828.828,0,0,1,.5-.371.732.732,0,0,1,.6.1q.351.221.8.539t.871.631q.423.312.7.533a.807.807,0,0,1,.306.54.747.747,0,0,1-.163.591.807.807,0,0,1-.54.306A.747.747,0,0,1-21.476-5.629ZM-9.815.559a.8.8,0,0,1-.617.013.792.792,0,0,1-.449-.429.768.768,0,0,1-.006-.611.772.772,0,0,1,.422-.442A13.523,13.523,0,0,0-6.058-3.848q-.286-.286-.546-.52t-.442-.377a.874.874,0,0,1-.293-.546.7.7,0,0,1,.163-.572.83.83,0,0,1,.552-.3.707.707,0,0,1,.579.182q.221.169.474.4t.539.488q.234-.338.442-.689T-4.2-6.5a.714.714,0,0,0,.085-.643q-.123-.215-.63-.214H-6.513a14.937,14.937,0,0,1-1.456,1.67A13.732,13.732,0,0,1-9.5-4.355a.771.771,0,0,1-.6.136.747.747,0,0,1-.514-.331.759.759,0,0,1-.136-.6.79.79,0,0,1,.331-.52A12.368,12.368,0,0,0-8.976-6.9,12.267,12.267,0,0,0-7.722-8.352a9.027,9.027,0,0,0,.9-1.476.824.824,0,0,1,.449-.422.752.752,0,0,1,.6.007.771.771,0,0,1,.423.448.748.748,0,0,1-.02.618q-.026.065-.059.136A1.354,1.354,0,0,1-5.5-8.9h1a2.67,2.67,0,0,1,1.54.377,1.38,1.38,0,0,1,.6,1.046,2.852,2.852,0,0,1-.364,1.528,10.524,10.524,0,0,1-1.2,1.937q.3.286.546.546T-2.951-3a.754.754,0,0,1,.182.6.817.817,0,0,1-.312.559.747.747,0,0,1-.592.163.879.879,0,0,1-.552-.292q-.13-.156-.325-.364t-.416-.429A14.831,14.831,0,0,1-9.815.559ZM9.828-1.69a4.843,4.843,0,0,1-1.976.377A1.781,1.781,0,0,1,6.532-1.93,2.543,2.543,0,0,1,6.058-3.6V-7.735a.768.768,0,0,1,.24-.572.785.785,0,0,1,.565-.234.757.757,0,0,1,.566.234.79.79,0,0,1,.227.572v3.887q0,1.235,1.5.689.585-.221,1.28-.52t1.241-.559a.81.81,0,0,1,.611-.045.771.771,0,0,1,.468.4.768.768,0,0,1,.058.611.727.727,0,0,1-.4.468q-.6.286-1.287.592T9.828-1.69ZM1.313-.858A.806.806,0,0,1,.7-.838a.772.772,0,0,1-.455-.41.822.822,0,0,1-.019-.617.726.726,0,0,1,.409-.449A4.909,4.909,0,0,0,2.3-3.516a4.231,4.231,0,0,0,.871-1.612,7,7,0,0,0,.26-1.944.778.778,0,0,1,.234-.572.763.763,0,0,1,.559-.234.757.757,0,0,1,.565.234.79.79,0,0,1,.228.572A7.319,7.319,0,0,1,4.043-3.25,6.032,6.032,0,0,1,1.313-.858ZM16.835.884a2.482,2.482,0,0,1-1.69-.455,2.032,2.032,0,0,1-.494-1.547,3.077,3.077,0,0,1,.143-.975l-.292.1-.293.1a.829.829,0,0,1-.578,0,.625.625,0,0,1-.37-.39.673.673,0,0,1,.026-.579.724.724,0,0,1,.468-.357,9.083,9.083,0,0,0,1.664-.67,7.972,7.972,0,0,0,1.4-.929H14.131A.6.6,0,0,1,13.7-5a.6.6,0,0,1-.189-.436.591.591,0,0,1,.189-.442.608.608,0,0,1,.435-.182h3.848a5,5,0,0,0,.611-1.118.823.823,0,0,1,.39-.442.723.723,0,0,1,.572-.026.627.627,0,0,1,.416.364.7.7,0,0,1,.013.546q-.065.169-.149.338t-.176.338h5.213a.6.6,0,0,1,.442.182.6.6,0,0,1,.182.442A.608.608,0,0,1,25.311-5a.591.591,0,0,1-.442.188H22.152a6.945,6.945,0,0,0,1.508.962,12.725,12.725,0,0,0,1.651.637.688.688,0,0,1,.435.37.7.7,0,0,1,.032.566.682.682,0,0,1-.435.435.9.9,0,0,1-.63-.007q-.117-.052-.241-.1t-.24-.1a3.23,3.23,0,0,1,.117.923A2.032,2.032,0,0,1,23.855.429a2.482,2.482,0,0,1-1.69.455,2.478,2.478,0,0,1-1.7-.455,2.049,2.049,0,0,1-.488-1.547,2.049,2.049,0,0,1,.488-1.547,2.478,2.478,0,0,1,1.7-.455h.052a7.551,7.551,0,0,1-.988-.767,7.067,7.067,0,0,1-.845-.923h-1.6a8.213,8.213,0,0,1-.917.9A9.9,9.9,0,0,1,16.8-3.12h.039a2.478,2.478,0,0,1,1.7.455,2.049,2.049,0,0,1,.488,1.547A2.049,2.049,0,0,1,18.531.429,2.478,2.478,0,0,1,16.835.884ZM16.757-6.76a2.555,2.555,0,0,1-1.71-.442,1.982,1.982,0,0,1-.488-1.521,2.005,2.005,0,0,1,.488-1.528,2.528,2.528,0,0,1,1.71-.449,2.525,2.525,0,0,1,1.716.449,2.022,2.022,0,0,1,.481,1.528A2,2,0,0,1,18.473-7.2,2.552,2.552,0,0,1,16.757-6.76Zm5.486,0A2.555,2.555,0,0,1,20.534-7.2a1.982,1.982,0,0,1-.488-1.521,2.005,2.005,0,0,1,.488-1.528,2.528,2.528,0,0,1,1.709-.449,2.528,2.528,0,0,1,1.709.449,2.005,2.005,0,0,1,.487,1.528A1.982,1.982,0,0,1,23.952-7.2,2.555,2.555,0,0,1,22.243-6.76ZM16.835-.325A.781.781,0,0,0,17.4-.481a.959.959,0,0,0,.149-.637.93.93,0,0,0-.149-.63.8.8,0,0,0-.566-.15.808.808,0,0,0-.559.15.9.9,0,0,0-.156.63.929.929,0,0,0,.156.637A.784.784,0,0,0,16.835-.325Zm5.33,0a.784.784,0,0,0,.559-.156.929.929,0,0,0,.156-.637.9.9,0,0,0-.156-.63.808.808,0,0,0-.559-.15.808.808,0,0,0-.559.15.9.9,0,0,0-.156.63.929.929,0,0,0,.156.637A.784.784,0,0,0,22.165-.325ZM16.757-7.969a.781.781,0,0,0,.566-.156.881.881,0,0,0,.149-.6.878.878,0,0,0-.149-.6.8.8,0,0,0-.566-.149.808.808,0,0,0-.559.149.852.852,0,0,0-.156.6.854.854,0,0,0,.156.6A.784.784,0,0,0,16.757-7.969Zm5.486,0a.781.781,0,0,0,.565-.156.881.881,0,0,0,.15-.6.878.878,0,0,0-.15-.6.8.8,0,0,0-.565-.149.808.808,0,0,0-.559.149.852.852,0,0,0-.156.6.854.854,0,0,0,.156.6A.784.784,0,0,0,22.243-7.969ZM34.736,1.053a.93.93,0,0,1-.631-.208.83.83,0,0,1-.279-.559.724.724,0,0,1,.188-.592.947.947,0,0,1,.591-.306,1.229,1.229,0,0,0,.585-.163.627.627,0,0,0,.13-.475V-4.992q-.6.923-1.319,1.833a13.287,13.287,0,0,1-1.449,1.573.855.855,0,0,1-.592.24.744.744,0,0,1-.578-.24.739.739,0,0,1-.208-.572.71.71,0,0,1,.26-.507,11.754,11.754,0,0,0,.91-.871q.481-.507.949-1.092T34.177-5.8q.416-.592.728-1.1H33.189a.654.654,0,0,1-.481-.195.654.654,0,0,1-.195-.481.654.654,0,0,1,.195-.481.654.654,0,0,1,.481-.195h2.132v-1.9a.715.715,0,0,1,.221-.546.75.75,0,0,1,.533-.208.766.766,0,0,1,.546.208.715.715,0,0,1,.221.546v1.9h1.092a.675.675,0,0,1,.488.195.643.643,0,0,1,.2.481.643.643,0,0,1-.2.481.675.675,0,0,1-.488.195H36.842V-.884Q36.842,1.053,34.736,1.053Zm-5.07.078a.763.763,0,0,1-.533-.2.694.694,0,0,1-.221-.54V-3.835q-.273.481-.552.929t-.514.76a.761.761,0,0,1-.527.306.774.774,0,0,1-.591-.15.636.636,0,0,1-.26-.488.825.825,0,0,1,.169-.539q.247-.312.566-.786t.644-1.014q.325-.539.6-1.059t.462-.91V-6.9H27.248a.66.66,0,0,1-.474-.195.643.643,0,0,1-.2-.481.649.649,0,0,1,.2-.475.649.649,0,0,1,.474-.2h1.664v-1.911a.715.715,0,0,1,.221-.546.75.75,0,0,1,.533-.208.75.75,0,0,1,.533.208.715.715,0,0,1,.221.546v1.911H31.6a.649.649,0,0,1,.474.2.649.649,0,0,1,.2.475.643.643,0,0,1-.2.481A.66.66,0,0,1,31.6-6.9H30.42v.429q.195.221.526.585t.683.721q.351.357.572.579a.615.615,0,0,1,.208.494.8.8,0,0,1-.208.507.649.649,0,0,1-.507.214.759.759,0,0,1-.52-.214q-.143-.156-.344-.4l-.41-.488V.39A.694.694,0,0,1,30.2.93.763.763,0,0,1,29.666,1.131Z" transform="translate(282 552.5)" fill="#000979"/><g transform="translate(135.157 542)"><path d="M12,1H0A1,1,0,0,1-1,0,1,1,0,0,1,0-1H12a1,1,0,0,1,1,1A1,1,0,0,1,12,1Z" transform="translate(-0.157 6.001)" fill="#ffd801"/><path d="M0,13a1,1,0,0,1-1-1V0A1,1,0,0,1,0-1,1,1,0,0,1,1,0V12A1,1,0,0,1,0,13Z" transform="translate(5.843 0.001)" fill="#ffd801"/></g><g transform="translate(215.845 542)"><path d="M12,1H0A1,1,0,0,1-1,0,1,1,0,0,1,0-1H12a1,1,0,0,1,1,1A1,1,0,0,1,12,1Z" transform="translate(0.156 6.001)" fill="#ffd801"/><path d="M0,13a1,1,0,0,1-1-1V0A1,1,0,0,1,0-1,1,1,0,0,1,1,0V12A1,1,0,0,1,0,13Z" transform="translate(6.156 0.001)" fill="#ffd801"/></g></g><g transform="translate(-4 11.43)"><path d="M-154.623.315a1.265,1.265,0,0,1-1,.01,1.325,1.325,0,0,1-.745-.683,1.3,1.3,0,0,1-.021-1,1.208,1.208,0,0,1,.672-.725,20.851,20.851,0,0,0,5.544-3.549,13.264,13.264,0,0,0,3.3-4.473,1.789,1.789,0,0,0,.126-1.575q-.315-.546-1.554-.546h-7.938a1.267,1.267,0,0,1-.913-.378,1.216,1.216,0,0,1-.389-.9,1.24,1.24,0,0,1,.389-.924,1.267,1.267,0,0,1,.913-.378h8.064a5.345,5.345,0,0,1,2.971.7,2.777,2.777,0,0,1,1.26,1.953,5.324,5.324,0,0,1-.514,2.908,15.927,15.927,0,0,1-3.833,5.418A22.539,22.539,0,0,1-154.623.315Zm21.063.966a1.249,1.249,0,0,1-.84.241,1.1,1.1,0,0,1-.777-.388,1.119,1.119,0,0,1-.252-.84,1.017,1.017,0,0,1,.4-.756,7.06,7.06,0,0,0,2.341-3.066,7.855,7.855,0,0,0,.452-3.864,1.1,1.1,0,0,1,.221-.851,1.094,1.094,0,0,1,.745-.43,1.126,1.126,0,0,1,.84.21.994.994,0,0,1,.42.756l.021.231a11.972,11.972,0,0,0,1.922-.241,2.226,2.226,0,0,0,.871-.357.555.555,0,0,0,.231-.41.513.513,0,0,0-.178-.42,1.176,1.176,0,0,0-.7-.147h-8.421a1.127,1.127,0,0,1-.8-.315,1.023,1.023,0,0,1-.336-.777,1.014,1.014,0,0,1,.336-.787,1.148,1.148,0,0,1,.8-.3h8.421a3.725,3.725,0,0,1,2.478.7,2.525,2.525,0,0,1,.819,2.026,2.4,2.4,0,0,1-1.354,2.247,10.178,10.178,0,0,1-4.085.9A10.424,10.424,0,0,1-131.1-1.617,8.341,8.341,0,0,1-133.56,1.281Zm17.682-2.1a1.239,1.239,0,0,1-1-.042,1.281,1.281,0,0,1-.683-.735,1.239,1.239,0,0,1,.042-1,1.281,1.281,0,0,1,.735-.683,28.515,28.515,0,0,0,3.392-1.449,34.026,34.026,0,0,0,3.276-1.88,29.579,29.579,0,0,0,2.856-2.1,15.707,15.707,0,0,0,2.111-2.089,1.341,1.341,0,0,1,.893-.483,1.142,1.142,0,0,1,.934.294,1.265,1.265,0,0,1,.483.872,1.2,1.2,0,0,1-.294.955,17.08,17.08,0,0,1-2.289,2.237,34.953,34.953,0,0,1-3.192,2.341q-1.764,1.155-3.633,2.142A27.9,27.9,0,0,1-115.878-.819Zm1.806-8.274q-.8-.672-1.785-1.4a20.064,20.064,0,0,0-1.785-1.186,1.3,1.3,0,0,1-.588-.809,1.262,1.262,0,0,1,.147-.976,1.337,1.337,0,0,1,.809-.6,1.183,1.183,0,0,1,.977.157q.567.357,1.291.872t1.407,1.018q.682.5,1.123.861a1.3,1.3,0,0,1,.493.872,1.207,1.207,0,0,1-.262.955,1.3,1.3,0,0,1-.871.493A1.207,1.207,0,0,1-114.072-9.093ZM-96.285.924a1.215,1.215,0,0,1-.976.011,1.33,1.33,0,0,1-.725-.683A1.24,1.24,0,0,1-98-.735a1.246,1.246,0,0,1,.682-.714,21.53,21.53,0,0,0,7.119-4.767q-.462-.441-.882-.819t-.714-.63a1.257,1.257,0,0,1-.483-.861A1.224,1.224,0,0,1-92-9.471a1.236,1.236,0,0,1,.882-.473,1.226,1.226,0,0,1,.945.284q.336.273.756.651t.882.8q.378-.546.714-1.113t.63-1.155q.672-1.386-.882-1.386H-90.93a28.988,28.988,0,0,1-2.363,2.688,20.043,20.043,0,0,1-2.488,2.163,1.184,1.184,0,0,1-.956.22,1.281,1.281,0,0,1-.85-.536,1.274,1.274,0,0,1-.2-.966,1.276,1.276,0,0,1,.535-.84A19.98,19.98,0,0,0-94.91-11.13a19.091,19.091,0,0,0,2.016-2.342,14.528,14.528,0,0,0,1.438-2.4,1.327,1.327,0,0,1,.735-.683,1.185,1.185,0,0,1,.987.031,1.245,1.245,0,0,1,.683.725,1.209,1.209,0,0,1-.032,1,2.063,2.063,0,0,1-.105.22,2.063,2.063,0,0,0-.1.22h1.617a4.313,4.313,0,0,1,2.489.609,2.23,2.23,0,0,1,.977,1.69A4.608,4.608,0,0,1-84.8-9.6q-.4.819-.882,1.607a17.3,17.3,0,0,1-1.05,1.523q.483.462.882.882t.672.756a1.186,1.186,0,0,1,.284.966,1.391,1.391,0,0,1-.493.9,1.207,1.207,0,0,1-.955.263,1.42,1.42,0,0,1-.893-.472,7.124,7.124,0,0,0-.525-.6q-.315-.325-.672-.7a23.334,23.334,0,0,1-3.6,3.045A25.288,25.288,0,0,1-96.285.924Zm14.469-13.545a.874.874,0,0,1-.661.2.839.839,0,0,1-.619-.326q-.231-.315-.6-.756t-.661-.777a.76.76,0,0,1-.2-.557.8.8,0,0,1,.284-.578.723.723,0,0,1,.557-.22,1.016,1.016,0,0,1,.6.22,7.719,7.719,0,0,1,.735.693,9.938,9.938,0,0,1,.693.8.981.981,0,0,1,.2.682A.891.891,0,0,1-81.816-12.621Zm1.974-1.827a.8.8,0,0,1-.64.263.868.868,0,0,1-.641-.284q-.252-.294-.641-.7t-.724-.745a.762.762,0,0,1-.221-.536.861.861,0,0,1,.221-.6.839.839,0,0,1,.556-.252.92.92,0,0,1,.6.168,7.088,7.088,0,0,1,.777.64,10.276,10.276,0,0,1,.735.746.82.82,0,0,1,.252.651A1.014,1.014,0,0,1-79.842-14.448ZM-69.51.924a1.216,1.216,0,0,1-.9-.389,1.267,1.267,0,0,1-.378-.913v-8.4Q-72.135-7.6-73.563-6.51t-2.856,2a1.262,1.262,0,0,1-.977.147,1.3,1.3,0,0,1-.808-.588,1.283,1.283,0,0,1-.147-.987,1.222,1.222,0,0,1,.588-.8Q-76.44-7.56-75-8.652t2.814-2.331q1.375-1.239,2.541-2.489A21.873,21.873,0,0,0-67.7-15.834a1.316,1.316,0,0,1,.84-.546,1.194,1.194,0,0,1,.966.21,1.244,1.244,0,0,1,.546.83,1.213,1.213,0,0,1-.21.976,32.348,32.348,0,0,1-2.646,3.087v10.9a1.267,1.267,0,0,1-.378.913A1.24,1.24,0,0,1-69.51.924Zm24.4-1.575a31.21,31.21,0,0,1-6.331.535,5.985,5.985,0,0,1-3.623-1.123,3.652,3.652,0,0,1-1.229-1.869A10.266,10.266,0,0,1-56.616-5.9v-8.526a1.257,1.257,0,0,1,.378-.924,1.232,1.232,0,0,1,.9-.378,1.257,1.257,0,0,1,.924.378,1.257,1.257,0,0,1,.378.924v4.641q1.722-.42,3.56-.976t3.307-1.123a1.233,1.233,0,0,1,1.008.01,1.245,1.245,0,0,1,.672.746,1.3,1.3,0,0,1-.021,1,1.135,1.135,0,0,1-.714.661q-1.785.651-3.864,1.218t-3.948.987V-5.9a5.882,5.882,0,0,0,.189,1.774,1.829,1.829,0,0,0,.588.851,3.27,3.27,0,0,0,1.375.514,10.585,10.585,0,0,0,2.436.053q1.543-.105,3.938-.5a1.152,1.152,0,0,1,.966.22,1.313,1.313,0,0,1,.5.872,1.118,1.118,0,0,1-.221.945A1.386,1.386,0,0,1-45.108-.651Zm2.31-10.458a.8.8,0,0,1-.641.262.939.939,0,0,1-.661-.283q-.252-.294-.651-.714t-.714-.735A.736.736,0,0,1-45.7-13.1a.8.8,0,0,1,.231-.609.85.85,0,0,1,.567-.252.879.879,0,0,1,.609.189,5.822,5.822,0,0,1,.788.62,9.308,9.308,0,0,1,.745.745.888.888,0,0,1,.242.651A.927.927,0,0,1-42.8-11.109Zm.546-1.911q-.273-.294-.7-.672t-.788-.672A.813.813,0,0,1-44-14.889a.762.762,0,0,1,.189-.609.809.809,0,0,1,.535-.294.969.969,0,0,1,.619.126,7.3,7.3,0,0,1,.83.588q.472.378.808.693a.916.916,0,0,1,.284.641.946.946,0,0,1-.242.661.868.868,0,0,1-.619.3A.8.8,0,0,1-42.252-13.02Zm6.594,12.2a1.239,1.239,0,0,1-1-.042,1.281,1.281,0,0,1-.683-.735,1.239,1.239,0,0,1,.042-1,1.281,1.281,0,0,1,.735-.683A28.515,28.515,0,0,0-33.17-4.725,34.026,34.026,0,0,0-29.894-6.6a29.579,29.579,0,0,0,2.856-2.1,15.707,15.707,0,0,0,2.11-2.089,1.341,1.341,0,0,1,.892-.483,1.142,1.142,0,0,1,.934.294,1.265,1.265,0,0,1,.483.872,1.2,1.2,0,0,1-.294.955A17.081,17.081,0,0,1-25.2-6.919a34.952,34.952,0,0,1-3.192,2.341q-1.764,1.155-3.633,2.142A27.9,27.9,0,0,1-35.658-.819Zm1.806-8.274q-.8-.672-1.785-1.4a20.065,20.065,0,0,0-1.785-1.186,1.3,1.3,0,0,1-.588-.809,1.262,1.262,0,0,1,.147-.976,1.337,1.337,0,0,1,.808-.6,1.183,1.183,0,0,1,.977.157q.567.357,1.292.872t1.407,1.018q.683.5,1.124.861a1.3,1.3,0,0,1,.493.872,1.207,1.207,0,0,1-.262.955,1.3,1.3,0,0,1-.872.493A1.207,1.207,0,0,1-33.852-9.093ZM-15.771.735a1.27,1.27,0,0,1-.987.021,1.2,1.2,0,0,1-.714-.693,1.24,1.24,0,0,1-.01-.987,1.246,1.246,0,0,1,.683-.714,22.542,22.542,0,0,0,6.016-3.78A17.336,17.336,0,0,0-6.762-10.6q.672-1.344-.966-1.344H-10.5a25.869,25.869,0,0,1-2.257,2.615A19.589,19.589,0,0,1-15.33-7.119a1.245,1.245,0,0,1-.976.22,1.207,1.207,0,0,1-.83-.536,1.245,1.245,0,0,1-.221-.976,1.207,1.207,0,0,1,.536-.83,17.357,17.357,0,0,0,2.289-1.922,20.481,20.481,0,0,0,2.026-2.331,12.824,12.824,0,0,0,1.438-2.4,1.279,1.279,0,0,1,.725-.693,1.3,1.3,0,0,1,1,.021,1.245,1.245,0,0,1,.682.725,1.209,1.209,0,0,1-.031,1q-.042.084-.105.189a1.469,1.469,0,0,0-.1.21h1.428q2.52,0,3.339,1.292t-.231,3.476a18.963,18.963,0,0,1-2.793,4.21A22.975,22.975,0,0,1-11.078-1.9,23.6,23.6,0,0,1-15.771.735ZM-.9-14.847q-.273-.273-.693-.661t-.777-.661a.824.824,0,0,1-.252-.535.778.778,0,0,1,.189-.619.769.769,0,0,1,.536-.284,1.023,1.023,0,0,1,.619.137,8.014,8.014,0,0,1,.83.578q.473.367.808.682a.916.916,0,0,1,.284.64A.946.946,0,0,1,.4-14.91a.868.868,0,0,1-.62.3A.862.862,0,0,1-.9-14.847Zm-.546,1.911a.853.853,0,0,1-.651.262.9.9,0,0,1-.651-.3q-.252-.294-.651-.7t-.714-.725a.8.8,0,0,1-.231-.535.785.785,0,0,1,.231-.6.774.774,0,0,1,.567-.262.989.989,0,0,1,.609.178,8.541,8.541,0,0,1,.788.63,6.8,6.8,0,0,1,.746.756.875.875,0,0,1,.242.64A.992.992,0,0,1-1.449-12.936Z" transform="translate(228 512)" fill="#000126"/><path d="M6,1.5A4.505,4.505,0,0,0,1.5,6V18A4.505,4.505,0,0,0,6,22.5H95A4.505,4.505,0,0,0,99.5,18V6A4.505,4.505,0,0,0,95,1.5H6M6,0H95a6,6,0,0,1,6,6V18a6,6,0,0,1-6,6H6a6,6,0,0,1-6-6V6A6,6,0,0,1,6,0Z" transform="translate(234 493)" fill="#000126"/><path d="M-35.555-.364a13.43,13.43,0,0,1-3.5.4,6,6,0,0,1-2.561-.592,2.95,2.95,0,0,1-1.424-1.508.72.72,0,0,1,0-.6.75.75,0,0,1,.429-.416.705.705,0,0,1,.591,0,.752.752,0,0,1,.41.429,1.706,1.706,0,0,0,1.014.858A5.409,5.409,0,0,0-38.63-1.5a11.718,11.718,0,0,0,2.724-.383.718.718,0,0,1,.585.1.788.788,0,0,1,.351.487.774.774,0,0,1-.1.585A.763.763,0,0,1-35.555-.364Zm-1.2-7.111a11.562,11.562,0,0,0-1.5-.28,15.124,15.124,0,0,0-1.58-.111,12.991,12.991,0,0,0-1.456.052.765.765,0,0,1-.578-.156.741.741,0,0,1-.292-.52A.765.765,0,0,1-42-9.068a.741.741,0,0,1,.52-.293,12.846,12.846,0,0,1,1.716-.045q.936.032,1.826.137A11.989,11.989,0,0,1-36.387-9a.822.822,0,0,1,.481.357.714.714,0,0,1,.091.578.733.733,0,0,1-.345.488A.735.735,0,0,1-36.751-7.475ZM-26.1.312a.766.766,0,0,1-.247-.546.74.74,0,0,1,.208-.559,6.8,6.8,0,0,0,.988-1.281,11.294,11.294,0,0,0,.793-1.566A15.861,15.861,0,0,0-26.4-4.03a6.935,6.935,0,0,1-1.092,1.69,3.386,3.386,0,0,1-1.3.936,2.489,2.489,0,0,1-1.274.176,1.731,1.731,0,0,1-1.034-.5,1.6,1.6,0,0,1-.409-1.17,2.147,2.147,0,0,1,.429-1.3,2.937,2.937,0,0,1,1.333-.942A6.426,6.426,0,0,1-27.417-5.5a16.541,16.541,0,0,0,.507-1.768q.182-.754-.065-1.007a1.147,1.147,0,0,0-.962-.163q-.247.039-.637.091t-.611.078a.808.808,0,0,1-.572-.2A.748.748,0,0,1-30.03-9a.786.786,0,0,1,.2-.566.758.758,0,0,1,.533-.267l.676-.065q.4-.039.663-.052a2.743,2.743,0,0,1,2.255.572,2.54,2.54,0,0,1,.319,2.236q-.091.468-.208.9t-.247.839q.468.052.962.149t.975.214q.1-.442.169-.865a6.849,6.849,0,0,0,.078-.812.827.827,0,0,1,.228-.553.754.754,0,0,1,.539-.241.752.752,0,0,1,.552.228.709.709,0,0,1,.215.552,7.777,7.777,0,0,1-.1,1.034,10.523,10.523,0,0,1-.228,1.059q.4.13.787.267t.747.279a.775.775,0,0,1,.423.429.737.737,0,0,1-.007.6.754.754,0,0,1-.416.416.72.72,0,0,1-.6,0q-.338-.156-.689-.293t-.7-.267a13.089,13.089,0,0,1-.942,1.95A7.67,7.67,0,0,1-25,.273a.782.782,0,0,1-.539.234A.8.8,0,0,1-26.1.312Zm-3.237-3.081a2.121,2.121,0,0,0,.637-.442,3.8,3.8,0,0,0,.637-.858,3.193,3.193,0,0,0-1.462.39.868.868,0,0,0-.449.663.3.3,0,0,0,.163.292A.579.579,0,0,0-29.341-2.769ZM-9.555-.364a13.43,13.43,0,0,1-3.5.4A6,6,0,0,1-15.62-.559a2.95,2.95,0,0,1-1.423-1.508.72.72,0,0,1,0-.6.75.75,0,0,1,.429-.416.705.705,0,0,1,.592,0,.752.752,0,0,1,.409.429,1.706,1.706,0,0,0,1.014.858,5.409,5.409,0,0,0,1.97.292,11.717,11.717,0,0,0,2.723-.383.718.718,0,0,1,.585.1A.788.788,0,0,1-8.97-1.3a.774.774,0,0,1-.1.585A.763.763,0,0,1-9.555-.364Zm-1.2-7.111a11.562,11.562,0,0,0-1.5-.28,15.124,15.124,0,0,0-1.58-.111,12.991,12.991,0,0,0-1.456.052.765.765,0,0,1-.578-.156.741.741,0,0,1-.293-.52A.765.765,0,0,1-16-9.068a.741.741,0,0,1,.52-.293,12.846,12.846,0,0,1,1.716-.045q.936.032,1.826.137A11.989,11.989,0,0,1-10.387-9a.822.822,0,0,1,.481.357.714.714,0,0,1,.091.578.733.733,0,0,1-.345.488A.735.735,0,0,1-10.751-7.475ZM-.1.312A.766.766,0,0,1-.351-.234.74.74,0,0,1-.143-.793,6.8,6.8,0,0,0,.845-2.074,11.294,11.294,0,0,0,1.638-3.64,15.861,15.861,0,0,0-.4-4.03,6.935,6.935,0,0,1-1.495-2.34,3.386,3.386,0,0,1-2.8-1.4a2.489,2.489,0,0,1-1.274.176,1.731,1.731,0,0,1-1.033-.5,1.6,1.6,0,0,1-.41-1.17,2.147,2.147,0,0,1,.429-1.3A2.937,2.937,0,0,1-3.75-5.141,6.426,6.426,0,0,1-1.417-5.5,16.541,16.541,0,0,0-.91-7.267q.182-.754-.065-1.007a1.147,1.147,0,0,0-.962-.163q-.247.039-.637.091t-.611.078a.808.808,0,0,1-.572-.2A.748.748,0,0,1-4.03-9a.786.786,0,0,1,.195-.566A.758.758,0,0,1-3.3-9.828l.676-.065q.4-.039.663-.052a2.743,2.743,0,0,1,2.255.572A2.54,2.54,0,0,1,.611-7.137q-.091.468-.208.9t-.247.839q.468.052.962.149t.975.214q.1-.442.169-.865a6.849,6.849,0,0,0,.078-.812.827.827,0,0,1,.227-.553.754.754,0,0,1,.54-.241.752.752,0,0,1,.552.228.709.709,0,0,1,.214.552,7.777,7.777,0,0,1-.1,1.034,10.523,10.523,0,0,1-.227,1.059q.4.13.787.267t.747.279a.775.775,0,0,1,.423.429.737.737,0,0,1-.007.6.754.754,0,0,1-.416.416.72.72,0,0,1-.6,0Q4.147-2.8,3.8-2.931t-.7-.267a13.089,13.089,0,0,1-.943,1.95A7.67,7.67,0,0,1,1,.273a.782.782,0,0,1-.54.234A.8.8,0,0,1-.1.312ZM-3.341-2.769A2.121,2.121,0,0,0-2.7-3.211a3.8,3.8,0,0,0,.637-.858,3.193,3.193,0,0,0-1.463.39.868.868,0,0,0-.448.663.3.3,0,0,0,.162.292A.579.579,0,0,0-3.341-2.769Zm11.648.637a.792.792,0,0,1-.6.143.769.769,0,0,1-.526-.325.771.771,0,0,1-.136-.6.793.793,0,0,1,.332-.526,9.438,9.438,0,0,0,1.287-1.1A12.427,12.427,0,0,0,9.815-5.889a9.972,9.972,0,0,0,.832-1.3.848.848,0,0,1,.468-.416.719.719,0,0,1,.6.026.771.771,0,0,1,.41.461.751.751,0,0,1-.045.618A11.407,11.407,0,0,1,11.1-4.966,15.2,15.2,0,0,1,9.783-3.419,11.4,11.4,0,0,1,8.307-2.132ZM18.33-2.2a.774.774,0,0,1-.611.085.78.78,0,0,1-.494-.371q-.234-.39-.6-.9t-.8-1.04q-.435-.533-.89-1.021t-.845-.839a.759.759,0,0,1-.26-.559.8.8,0,0,1,.208-.585.77.77,0,0,1,.566-.234.84.84,0,0,1,.578.221q.429.4.923.923t.969,1.086q.474.565.877,1.118A11,11,0,0,1,18.616-3.3a.794.794,0,0,1,.091.611A.748.748,0,0,1,18.33-2.2Zm-.78-4.849a1.266,1.266,0,0,1-.929-.384,1.266,1.266,0,0,1-.384-.93,1.266,1.266,0,0,1,.384-.929,1.266,1.266,0,0,1,.929-.384,1.266,1.266,0,0,1,.93.384,1.266,1.266,0,0,1,.383.929,1.266,1.266,0,0,1-.383.93A1.266,1.266,0,0,1,17.55-7.046Zm0-.754a.539.539,0,0,0,.4-.162.539.539,0,0,0,.163-.4.539.539,0,0,0-.163-.4.539.539,0,0,0-.4-.163.539.539,0,0,0-.4.163.539.539,0,0,0-.162.4.539.539,0,0,0,.162.4A.539.539,0,0,0,17.55-7.8ZM24.6.546a.685.685,0,0,1-.54.013.672.672,0,0,1-.4-.364.7.7,0,0,1-.013-.546.673.673,0,0,1,.364-.39A8.483,8.483,0,0,0,26.188-2.1a5.615,5.615,0,0,0,1.333-1.755,7.687,7.687,0,0,0,.663-2.282.65.65,0,0,1,.28-.468.717.717,0,0,1,.526-.13.669.669,0,0,1,.462.273.663.663,0,0,1,.124.533,8.389,8.389,0,0,1-1.554,3.854A8.612,8.612,0,0,1,24.6.546Zm1.716-4.238a.685.685,0,0,1-.533-.033.706.706,0,0,1-.351-.4q-.143-.377-.358-.858t-.358-.767a.778.778,0,0,1-.065-.54.635.635,0,0,1,.312-.422.7.7,0,0,1,.546-.084.609.609,0,0,1,.416.331q.195.364.435.891a10.076,10.076,0,0,1,.4.994.622.622,0,0,1-.032.533A.7.7,0,0,1,26.312-3.692ZM24.18-3.2a.638.638,0,0,1-.527.007.753.753,0,0,1-.4-.37q-.208-.429-.436-.839t-.409-.7a.714.714,0,0,1-.124-.533.67.67,0,0,1,.28-.455.686.686,0,0,1,.526-.123.674.674,0,0,1,.462.28,9.067,9.067,0,0,1,.533.878q.286.527.455.93a.621.621,0,0,1,.019.533A.692.692,0,0,1,24.18-3.2ZM35.854.442a.784.784,0,0,1-.618.006.824.824,0,0,1-.448-.422.768.768,0,0,1-.007-.611.772.772,0,0,1,.422-.442A14.035,14.035,0,0,0,38.935-3.38a10.838,10.838,0,0,0,2.483-3.2q.221-.416.084-.624t-.669-.208H39.1a16.5,16.5,0,0,1-1.391,1.619,10.729,10.729,0,0,1-1.6,1.358.733.733,0,0,1-.591.136A.793.793,0,0,1,35-4.628a.8.8,0,0,1-.123-.6.747.747,0,0,1,.331-.513,9.768,9.768,0,0,0,1.417-1.183,13.125,13.125,0,0,0,1.255-1.45,7.938,7.938,0,0,0,.89-1.488.772.772,0,0,1,.442-.422.734.734,0,0,1,.611.019.772.772,0,0,1,.423.442.734.734,0,0,1-.02.611,1.819,1.819,0,0,1-.13.26h.9a2.286,2.286,0,0,1,2.061.793,2.154,2.154,0,0,1-.136,2.145,11.757,11.757,0,0,1-1.736,2.613,14.408,14.408,0,0,1-2.424,2.216A14.437,14.437,0,0,1,35.854.442Z" transform="translate(284 510)" fill="#000126"/></g><g transform="translate(21130 -12113.5) rotate(-90)"><rect width="23" height="187" rx="4" transform="translate(-12600.5 -21027)" fill="#ffd801"/><path d="M5.592-1.212a3.43,3.43,0,0,1-2.61.09,2.008,2.008,0,0,1-.954-2V-7.236a.708.708,0,0,1,.222-.528.724.724,0,0,1,.522-.216.718.718,0,0,1,.528.216.718.718,0,0,1,.216.528v3.96q0,.636.36.8a1.856,1.856,0,0,0,1.2-.1A13.078,13.078,0,0,0,7.422-3.594,17.084,17.084,0,0,0,9.54-4.956.774.774,0,0,1,10.1-5.1a.708.708,0,0,1,.5.288.714.714,0,0,1,.138.546.745.745,0,0,1-.282.5,14.373,14.373,0,0,1-1.422.954q-.8.474-1.68.888A17.426,17.426,0,0,1,5.592-1.212Zm9.552.744a.708.708,0,0,1-.57-.024.732.732,0,0,1-.39-.42.708.708,0,0,1,.024-.57.732.732,0,0,1,.42-.39A16.294,16.294,0,0,0,16.566-2.7a19.443,19.443,0,0,0,1.872-1.074,16.9,16.9,0,0,0,1.632-1.2,8.976,8.976,0,0,0,1.206-1.194.766.766,0,0,1,.51-.276.652.652,0,0,1,.534.168.723.723,0,0,1,.276.5.687.687,0,0,1-.168.546A9.761,9.761,0,0,1,21.12-3.954,19.972,19.972,0,0,1,19.3-2.616q-1.008.66-2.076,1.224A15.945,15.945,0,0,1,15.144-.468ZM16.176-5.2q-.456-.384-1.02-.8a11.466,11.466,0,0,0-1.02-.678.74.74,0,0,1-.336-.462.721.721,0,0,1,.084-.558.764.764,0,0,1,.462-.342.676.676,0,0,1,.558.09q.324.2.738.5t.8.582q.39.288.642.492a.745.745,0,0,1,.282.5.69.69,0,0,1-.15.546.745.745,0,0,1-.5.282A.69.69,0,0,1,16.176-5.2ZM26.94.516a.742.742,0,0,1-.57.012.731.731,0,0,1-.414-.4.709.709,0,0,1-.006-.564.712.712,0,0,1,.39-.408,12.482,12.482,0,0,0,4.068-2.712q-.264-.264-.5-.48T29.5-4.38a.807.807,0,0,1-.27-.5.646.646,0,0,1,.15-.528.766.766,0,0,1,.51-.276.652.652,0,0,1,.534.168q.2.156.438.366l.5.45q.216-.312.408-.636t.36-.66a.659.659,0,0,0,.078-.594q-.114-.2-.582-.2H29.988A13.788,13.788,0,0,1,28.644-5.25a12.676,12.676,0,0,1-1.416,1.23.711.711,0,0,1-.558.126A.69.69,0,0,1,26.2-4.2a.7.7,0,0,1-.126-.552.729.729,0,0,1,.306-.48,11.417,11.417,0,0,0,1.338-1.14A11.323,11.323,0,0,0,28.872-7.71,8.333,8.333,0,0,0,29.7-9.072a.76.76,0,0,1,.414-.39.694.694,0,0,1,.558.006.711.711,0,0,1,.39.414.691.691,0,0,1-.018.57q-.024.06-.054.126a1.25,1.25,0,0,1-.066.126h.924a2.464,2.464,0,0,1,1.422.348,1.274,1.274,0,0,1,.558.966,2.633,2.633,0,0,1-.336,1.41,9.715,9.715,0,0,1-1.1,1.788q.276.264.5.5t.384.432a.7.7,0,0,1,.168.552.754.754,0,0,1-.288.516.69.69,0,0,1-.546.15.811.811,0,0,1-.51-.27q-.12-.144-.3-.336t-.384-.4A13.69,13.69,0,0,1,26.94.516ZM45.072-1.56a4.47,4.47,0,0,1-1.824.348,1.644,1.644,0,0,1-1.218-.57,2.347,2.347,0,0,1-.438-1.542V-7.14a.708.708,0,0,1,.222-.528.724.724,0,0,1,.522-.216.7.7,0,0,1,.522.216.729.729,0,0,1,.21.528v3.588q0,1.14,1.38.636.54-.2,1.182-.48t1.146-.516a.747.747,0,0,1,.564-.042.711.711,0,0,1,.432.366.709.709,0,0,1,.054.564.671.671,0,0,1-.366.432q-.552.264-1.188.546T45.072-1.56Zm-7.86.768a.744.744,0,0,1-.564.018.712.712,0,0,1-.42-.378.759.759,0,0,1-.018-.57.67.67,0,0,1,.378-.414,4.531,4.531,0,0,0,1.536-1.11,3.906,3.906,0,0,0,.8-1.488,6.462,6.462,0,0,0,.24-1.794.718.718,0,0,1,.216-.528.7.7,0,0,1,.516-.216.7.7,0,0,1,.522.216.729.729,0,0,1,.21.528A6.756,6.756,0,0,1,39.732-3,5.568,5.568,0,0,1,37.212-.792Zm21.06-.7a9.01,9.01,0,0,1-1.554-1.794,8.84,8.84,0,0,1-1.1-2.346,12.263,12.263,0,0,1-1.128,2.286A8.485,8.485,0,0,1,52.956-1.5a.734.734,0,0,1-.552.186.678.678,0,0,1-.516-.258.589.589,0,0,1-.126-.474.726.726,0,0,1,.246-.438,7.511,7.511,0,0,0,1.35-1.572,12.018,12.018,0,0,0,1.02-1.932,14.843,14.843,0,0,0,.678-1.992.923.923,0,0,0-.576-.144H53.292a.651.651,0,0,1-.5-.2.683.683,0,0,1-.186-.486.668.668,0,0,1,.186-.474.651.651,0,0,1,.5-.2h1.332a1.975,1.975,0,0,1,1.278.33,1.722,1.722,0,0,1,.474,1.182,7.7,7.7,0,0,0,.5,2.058,8.47,8.47,0,0,0,1,1.836,8.764,8.764,0,0,0,1.362,1.506.7.7,0,0,1,.252.468.6.6,0,0,1-.144.492.843.843,0,0,1-.516.276A.661.661,0,0,1,58.272-1.488ZM55.308.732A11.972,11.972,0,0,1,52.536.474a3.48,3.48,0,0,1-1.668-.882q-.156.12-.4.3L49.992.24q-.228.168-.348.252a.744.744,0,0,1-.558.12A.631.631,0,0,1,48.612.3a.694.694,0,0,1-.09-.54.634.634,0,0,1,.33-.432l.558-.312.642-.36V-3.9a.633.633,0,0,0-.1-.408.512.512,0,0,0-.384-.108h-.5a.589.589,0,0,1-.468-.192.67.67,0,0,1-.168-.456.648.648,0,0,1,.168-.45.6.6,0,0,1,.468-.186h1.044A1.135,1.135,0,0,1,51.4-4.416v2.8a2.581,2.581,0,0,0,.756.594,3.741,3.741,0,0,0,1.194.342,14.313,14.313,0,0,0,1.962.108q1.02,0,1.9-.036T58.752-.7a.815.815,0,0,1,.594.168.62.62,0,0,1,.234.5A.739.739,0,0,1,59.388.5a.807.807,0,0,1-.612.2q-.528,0-1.176.006L56.34.726Q55.728.732,55.308.732ZM50.6-7.4a5.462,5.462,0,0,0-.426-.4q-.258-.222-.516-.438T49.2-8.6a.546.546,0,0,1-.222-.438.7.7,0,0,1,.162-.474.684.684,0,0,1,.438-.246.68.68,0,0,1,.51.126q.228.168.5.384t.534.432q.258.216.426.372a.608.608,0,0,1,.228.486.7.7,0,0,1-.216.51.67.67,0,0,1-.474.234A.605.605,0,0,1,50.6-7.4ZM65.9.288a.707.707,0,0,1-.228-.5.683.683,0,0,1,.192-.516,6.276,6.276,0,0,0,.912-1.182,10.426,10.426,0,0,0,.732-1.446,14.641,14.641,0,0,0-1.884-.36A6.4,6.4,0,0,1,64.62-2.16a3.126,3.126,0,0,1-1.2.864,2.3,2.3,0,0,1-1.176.162A1.6,1.6,0,0,1,61.29-1.6a1.474,1.474,0,0,1-.378-1.08,1.982,1.982,0,0,1,.4-1.2,2.712,2.712,0,0,1,1.23-.87,5.932,5.932,0,0,1,2.154-.33,15.269,15.269,0,0,0,.468-1.632q.168-.7-.06-.93a1.059,1.059,0,0,0-.888-.15q-.228.036-.588.084t-.564.072a.746.746,0,0,1-.528-.18A.691.691,0,0,1,62.28-8.3a.726.726,0,0,1,.18-.522.7.7,0,0,1,.492-.246l.624-.06q.372-.036.612-.048a2.532,2.532,0,0,1,2.082.528,2.345,2.345,0,0,1,.294,2.064q-.084.432-.192.834t-.228.774q.432.048.888.138t.9.2q.1-.408.156-.8a6.323,6.323,0,0,0,.072-.75.763.763,0,0,1,.21-.51.7.7,0,0,1,.5-.222.694.694,0,0,1,.51.21.655.655,0,0,1,.2.51,7.179,7.179,0,0,1-.09.954,9.714,9.714,0,0,1-.21.978q.372.12.726.246t.69.258a.715.715,0,0,1,.39.4.68.68,0,0,1-.006.552.7.7,0,0,1-.384.384.665.665,0,0,1-.552,0q-.312-.144-.636-.27t-.648-.246a12.082,12.082,0,0,1-.87,1.8,7.08,7.08,0,0,1-1.062,1.4.722.722,0,0,1-.5.216A.738.738,0,0,1,65.9.288ZM62.916-2.556a1.958,1.958,0,0,0,.588-.408,3.508,3.508,0,0,0,.588-.792,2.948,2.948,0,0,0-1.35.36.8.8,0,0,0-.414.612.279.279,0,0,0,.15.27A.534.534,0,0,0,62.916-2.556ZM79.284-.036A.733.733,0,0,1,78.72-.12a.7.7,0,0,1-.336-.444.692.692,0,0,1,.084-.546.7.7,0,0,1,.444-.33,3.6,3.6,0,0,0,1.962-1.128,3.05,3.05,0,0,0,.63-1.98A2.727,2.727,0,0,0,81.168-5.9a2.614,2.614,0,0,0-.954-.972,3.494,3.494,0,0,0-1.482-.456,15.863,15.863,0,0,1-.726,3.486,6.946,6.946,0,0,1-1.2,2.268,1.942,1.942,0,0,1-1.446.8A1.977,1.977,0,0,1,74.2-1.152a2.5,2.5,0,0,1-.834-1.068,4.127,4.127,0,0,1-.306-1.668,4.631,4.631,0,0,1,.378-1.866,4.634,4.634,0,0,1,1.074-1.53,5.046,5.046,0,0,1,1.638-1.032,5.588,5.588,0,0,1,2.07-.372,5.439,5.439,0,0,1,2.43.522A4.146,4.146,0,0,1,82.32-6.714a3.85,3.85,0,0,1,.612,2.166A4.481,4.481,0,0,1,82-1.65,4.91,4.91,0,0,1,79.284-.036Zm-3.912-2.22q.216,0,.5-.366a4.891,4.891,0,0,0,.57-1.038,11.371,11.371,0,0,0,.528-1.59,13.969,13.969,0,0,0,.36-2.034,3.533,3.533,0,0,0-1.572.69,3.331,3.331,0,0,0-.96,1.212,3.605,3.605,0,0,0-.336,1.47,2.391,2.391,0,0,0,.258,1.236A.756.756,0,0,0,75.372-2.256ZM91.14.5a.739.739,0,0,1-.51-.222.655.655,0,0,1-.2-.51.7.7,0,0,1,.216-.522.673.673,0,0,1,.516-.2,2.744,2.744,0,0,0,1.494-.312,1.086,1.086,0,0,0,.51-.984,1.071,1.071,0,0,0-.558-.972,3.1,3.1,0,0,0-1.59-.336q-.408,0-.78.036t-.72.1v1.512A2.532,2.532,0,0,1,88.956-.09a2.169,2.169,0,0,1-1.632.582,2.289,2.289,0,0,1-1.44-.444,1.675,1.675,0,0,1-.576-1.416,2.534,2.534,0,0,1,.75-1.788A4.979,4.979,0,0,1,88.1-4.392V-6.18q-.516.048-1,.072t-.906.036a.725.725,0,0,1-.516-.2.666.666,0,0,1-.216-.5.675.675,0,0,1,.21-.5.7.7,0,0,1,.51-.2q.42-.012.912-.036t1.008-.06V-9.06a.72.72,0,0,1,.2-.522.675.675,0,0,1,.5-.21.675.675,0,0,1,.5.21.72.72,0,0,1,.2.522V-7.7q.276-.024.516-.06t.468-.06a.742.742,0,0,1,.54.108.638.638,0,0,1,.288.456.617.617,0,0,1-.132.516.757.757,0,0,1-.48.264q-.252.048-.558.084t-.642.084v1.584a10.276,10.276,0,0,1,1.524-.108,5.269,5.269,0,0,1,1.908.312,2.753,2.753,0,0,1,1.242.894,2.239,2.239,0,0,1,.438,1.386A2.482,2.482,0,0,1,93.708-.18,3.847,3.847,0,0,1,91.14.5Zm2.616-5.832q-.192-.144-.468-.318t-.552-.336q-.276-.162-.48-.258a.77.77,0,0,1-.378-.408.652.652,0,0,1,.006-.54.684.684,0,0,1,.426-.372.72.72,0,0,1,.546.048q.252.12.576.312t.642.39q.318.2.522.354A.63.63,0,0,1,94.872-6a.733.733,0,0,1-.132.528.7.7,0,0,1-.462.27A.7.7,0,0,1,93.756-5.328ZM87.324-.876a.783.783,0,0,0,.57-.2,1.179,1.179,0,0,0,.21-.828v-1.08a2.892,2.892,0,0,0-1,.714,1.31,1.31,0,0,0-.354.858Q86.748-.876,87.324-.876ZM103.908.984A.793.793,0,0,1,103.362.8a.656.656,0,0,1-.222-.486.683.683,0,0,1,.162-.5.719.719,0,0,1,.474-.234,1.122,1.122,0,0,0,.522-.132q.126-.1.126-.432V-2.328h-3.936a.542.542,0,0,1-.4-.168.542.542,0,0,1-.168-.4.536.536,0,0,1,.168-.4.552.552,0,0,1,.4-.162h3.936v-.576h-3.756a.522.522,0,0,1-.39-.168.552.552,0,0,1-.162-.4.546.546,0,0,1,.162-.4.532.532,0,0,1,.39-.162h6.264a.526.526,0,0,1,.4.162.557.557,0,0,1,.156.4.563.563,0,0,1-.156.4.517.517,0,0,1-.4.168h-1.116v.576H107.1a.546.546,0,0,1,.4.162.546.546,0,0,1,.162.4.552.552,0,0,1-.162.4.536.536,0,0,1-.4.168h-1.284V-.78a1.747,1.747,0,0,1-.45,1.38A2.233,2.233,0,0,1,103.908.984Zm-.7-6.636a4.968,4.968,0,0,1-1.488-.174A1.158,1.158,0,0,1,101-6.408a2.56,2.56,0,0,1-.2-1.1v-.372A2.594,2.594,0,0,1,101-9a1.158,1.158,0,0,1,.726-.582,4.968,4.968,0,0,1,1.488-.174h1.116a4.958,4.958,0,0,1,1.494.174,1.156,1.156,0,0,1,.72.582,2.594,2.594,0,0,1,.2,1.116v.372a2.56,2.56,0,0,1-.2,1.1,1.156,1.156,0,0,1-.72.582,4.958,4.958,0,0,1-1.494.174Zm-4.464,6.7a.657.657,0,0,1-.474-.192.655.655,0,0,1-.2-.492V-3.708q-.132.12-.258.246t-.258.234a.92.92,0,0,1-.534.216.578.578,0,0,1-.51-.216.723.723,0,0,1-.186-.492.552.552,0,0,1,.21-.432A12.119,12.119,0,0,0,97.4-5q.468-.5.9-1.044a10.371,10.371,0,0,0,.708-.984.648.648,0,0,1,.426-.306.678.678,0,0,1,.522.078.664.664,0,0,1,.312.4.612.612,0,0,1-.072.5q-.156.264-.354.546t-.414.558V.36a.655.655,0,0,1-.2.492A.671.671,0,0,1,98.748,1.044Zm-.984-7.872a.912.912,0,0,1-.54.18.638.638,0,0,1-.5-.264.623.623,0,0,1-.144-.5.637.637,0,0,1,.264-.45q.324-.228.72-.558t.768-.69q.372-.36.624-.636a.641.641,0,0,1,.474-.234.6.6,0,0,1,.486.174.692.692,0,0,1,.228.45.627.627,0,0,1-.156.474q-.264.312-.642.69t-.786.732Q98.148-7.1,97.764-6.828Zm4.188,6.5q-.1-.108-.276-.282l-.36-.348q-.18-.174-.3-.27a.564.564,0,0,1-.186-.414.564.564,0,0,1,.15-.414.619.619,0,0,1,.432-.222.625.625,0,0,1,.456.15,3.122,3.122,0,0,1,.318.27l.39.366q.192.18.288.276a.561.561,0,0,1,.2.432.643.643,0,0,1-.21.444.63.63,0,0,1-.462.192A.572.572,0,0,1,101.952-.324Zm.3-7.836h3.024a.607.607,0,0,0-.228-.5,1.557,1.557,0,0,0-.72-.114h-1.116a1.6,1.6,0,0,0-.726.114A.6.6,0,0,0,102.252-8.16Zm.96,1.536h1.116a1.488,1.488,0,0,0,.72-.12.613.613,0,0,0,.228-.492h-3.024a.6.6,0,0,0,.234.492A1.528,1.528,0,0,0,103.212-6.624ZM113.652.792A2.38,2.38,0,0,1,112.146.33a1.62,1.62,0,0,1-.594-1.362,1.61,1.61,0,0,1,.582-1.3,2.327,2.327,0,0,1,1.542-.486,6.533,6.533,0,0,1,.7.036V-5.052a.7.7,0,0,1,.2-.516.685.685,0,0,1,.5-.2.685.685,0,0,1,.5.2.7.7,0,0,1,.2.516V-2.46a8.151,8.151,0,0,1,1.23.5,8.279,8.279,0,0,1,1.026.606.717.717,0,0,1,.288.474.675.675,0,0,1-.132.534.674.674,0,0,1-.462.288.7.7,0,0,1-.534-.12,5.309,5.309,0,0,0-.654-.438q-.366-.21-.762-.39A1.879,1.879,0,0,1,115.176.33,2.275,2.275,0,0,1,113.652.792ZM110.46-2.532a.787.787,0,0,1-.522.192.678.678,0,0,1-.5-.2.711.711,0,0,1-.216-.522.621.621,0,0,1,.228-.5,7.325,7.325,0,0,0,1.206-1.392,8.754,8.754,0,0,0,.858-1.62q-.324.048-.63.072l-.582.048a.722.722,0,0,1-.528-.18.706.706,0,0,1-.228-.528.647.647,0,0,1,.18-.5.74.74,0,0,1,.528-.21q.384-.024.81-.072t.858-.108A3.753,3.753,0,0,0,112-8.616q.018-.288.018-.552a.7.7,0,0,1,.2-.51.675.675,0,0,1,.5-.21.714.714,0,0,1,.516.21.646.646,0,0,1,.2.51,8.162,8.162,0,0,1-.072.852q.084-.024.162-.042t.15-.03a.73.73,0,0,1,.552.072.634.634,0,0,1,.312.456.687.687,0,0,1-.1.54.741.741,0,0,1-.45.312q-.192.048-.438.1t-.51.1a10.318,10.318,0,0,1-1.038,2.376A8.08,8.08,0,0,1,110.46-2.532Zm6.924-3.18a9.58,9.58,0,0,0-.906-.492,6.5,6.5,0,0,0-.918-.372.823.823,0,0,1-.432-.336.643.643,0,0,1-.084-.528.657.657,0,0,1,.318-.444.657.657,0,0,1,.546-.072,6.309,6.309,0,0,1,.792.276q.432.18.834.384a6.1,6.1,0,0,1,.666.384.657.657,0,0,1,.294.456.728.728,0,0,1-.114.552.654.654,0,0,1-.45.294A.747.747,0,0,1,117.384-5.712ZM113.64-.528a.745.745,0,0,0,.564-.18.786.786,0,0,0,.168-.552v-.2a2.584,2.584,0,0,0-.378-.066q-.186-.018-.354-.018a.876.876,0,0,0-.546.138.456.456,0,0,0-.174.378.45.45,0,0,0,.168.366A.873.873,0,0,0,113.64-.528Zm9.756,1.56a.678.678,0,0,1-.462-.174.6.6,0,0,1-.2-.474v-3.4q-.3.444-.618.864a8.076,8.076,0,0,1-.594.708.725.725,0,0,1-.462.216.589.589,0,0,1-.474-.168.592.592,0,0,1-.2-.432.569.569,0,0,1,.174-.432,8.477,8.477,0,0,0,.666-.774q.378-.486.744-1.008t.606-.93h-1.452a.589.589,0,0,1-.432-.18.6.6,0,0,1-.18-.444.589.589,0,0,1,.18-.432.589.589,0,0,1,.432-.18h1.608V-9.456a.617.617,0,0,1,.2-.48.665.665,0,0,1,.462-.18.638.638,0,0,1,.462.18.637.637,0,0,1,.186.48V-6.2h1.3a.589.589,0,0,1,.432.18.589.589,0,0,1,.18.432.6.6,0,0,1-.18.444.589.589,0,0,1-.432.18h-1.3V-4.9l.516.546q.3.318.6.612t.48.45a.664.664,0,0,1,.192.36.569.569,0,0,1,.3-.108q.564-.084,1.326-.222t1.53-.294V-9.444a.632.632,0,0,1,.2-.492.68.68,0,0,1,.474-.18.7.7,0,0,1,.48.18.622.622,0,0,1,.2.492v5.628l.384-.09.336-.078a.633.633,0,0,1,.5.084.593.593,0,0,1,.27.408A.728.728,0,0,1,131.76-3a.563.563,0,0,1-.4.276q-.228.048-.486.108t-.534.12V.36a.627.627,0,0,1-.2.486.689.689,0,0,1-.48.186.668.668,0,0,1-.474-.186.636.636,0,0,1-.2-.486V-2.208q-.7.144-1.392.27t-1.26.222a.72.72,0,0,1-.528-.1.593.593,0,0,1-.264-.45l-.012-.036a.526.526,0,0,1-.378.1.6.6,0,0,1-.366-.18q-.144-.132-.342-.348t-.4-.456V.384a.618.618,0,0,1-.186.474A.65.65,0,0,1,123.4,1.032Zm4.392-7.908q-.108-.108-.312-.276t-.408-.342q-.2-.174-.336-.27a.58.58,0,0,1-.2-.426.616.616,0,0,1,.156-.45.683.683,0,0,1,.438-.228.672.672,0,0,1,.474.144q.132.1.342.264t.426.336a3.713,3.713,0,0,1,.336.288.575.575,0,0,1,.2.45.67.67,0,0,1-.192.474.668.668,0,0,1-.456.2A.64.64,0,0,1,127.788-6.876Zm-.3,2.592q-.12-.108-.324-.27l-.414-.33q-.21-.168-.342-.264a.534.534,0,0,1-.216-.42.651.651,0,0,1,.144-.456.668.668,0,0,1,.432-.234.657.657,0,0,1,.48.138q.132.1.348.258l.432.324q.216.162.336.27a.614.614,0,0,1,.216.45.665.665,0,0,1-.18.486.648.648,0,0,1-.444.21A.619.619,0,0,1,127.488-4.284ZM124.7-6.576a.57.57,0,0,1-.318-.306.511.511,0,0,1,.006-.426q.084-.168.192-.444T124.8-8.3q.108-.27.156-.438a.6.6,0,0,1,.324-.354.583.583,0,0,1,.456-.018.64.64,0,0,1,.342.276.514.514,0,0,1,.018.456q-.06.192-.174.48t-.228.564q-.114.276-.2.456a.574.574,0,0,1-.324.294A.651.651,0,0,1,124.7-6.576Zm-2.652-.036a.656.656,0,0,1-.468.018.526.526,0,0,1-.312-.342q-.048-.168-.15-.426t-.21-.522q-.108-.264-.18-.42a.554.554,0,0,1,.012-.438.548.548,0,0,1,.324-.294.613.613,0,0,1,.468-.006.565.565,0,0,1,.312.33q.072.144.186.414t.222.54q.108.27.156.426a.48.48,0,0,1-.012.432A.664.664,0,0,1,122.052-6.612ZM133.4.564a.594.594,0,0,1-.456-.18.611.611,0,0,1-.168-.432.626.626,0,0,1,.168-.444.594.594,0,0,1,.456-.18h2.064a.31.31,0,0,1-.066-.06.841.841,0,0,1-.054-.072q-.1-.156-.258-.39t-.33-.456q-.168-.222-.264-.342a.61.61,0,0,1-.138-.474.6.6,0,0,1,.234-.426.75.75,0,0,1,.528-.156.681.681,0,0,1,.48.252q.1.12.27.354l.342.462q.168.228.252.36a.644.644,0,0,1,.126.5.712.712,0,0,1-.258.45h.912v-2.4h-3.1a.589.589,0,0,1-.468-.192.67.67,0,0,1-.168-.456.648.648,0,0,1,.168-.45.6.6,0,0,1,.468-.186h3.1V-5.3H135.78a.594.594,0,0,1-.456-.18.626.626,0,0,1-.168-.444.64.64,0,0,1,.132-.408q-.5.36-1,.69t-.93.582a.865.865,0,0,1-.594.1.7.7,0,0,1-.474-.324.651.651,0,0,1-.078-.558.682.682,0,0,1,.342-.414q.552-.288,1.164-.684t1.212-.852q.6-.456,1.122-.912t.906-.864A1.527,1.527,0,0,1,138-10.1a1.355,1.355,0,0,1,1.02.45,12.279,12.279,0,0,0,.93.828q.546.444,1.158.888t1.212.816q.6.372,1.092.612a.7.7,0,0,1,.372.468.739.739,0,0,1-.072.612.828.828,0,0,1-.516.378.84.84,0,0,1-.636-.1q-.456-.264-1.026-.642t-1.152-.816q-.582-.438-1.1-.876a9.244,9.244,0,0,1-.864-.822.441.441,0,0,0-.732-.012,12.04,12.04,0,0,1-.948.864q-.564.468-1.2.936a.534.534,0,0,1,.24-.048h4.4a.6.6,0,0,1,.462.186.635.635,0,0,1,.174.45.614.614,0,0,1-.174.444.613.613,0,0,1-.462.18h-1.428v.948h3.06a.6.6,0,0,1,.462.186.635.635,0,0,1,.174.45.656.656,0,0,1-.174.456.593.593,0,0,1-.462.192h-3.06v2.4h.876a.682.682,0,0,1-.216-.408.592.592,0,0,1,.108-.444q.084-.12.228-.354t.288-.474l.216-.36a.658.658,0,0,1,.42-.324.713.713,0,0,1,.528.06.618.618,0,0,1,.324.408.678.678,0,0,1-.06.516l-.228.39q-.144.246-.288.48t-.24.366a.3.3,0,0,1-.054.078l-.066.066H142.5a.594.594,0,0,1,.456.18.626.626,0,0,1,.168.444.611.611,0,0,1-.168.432.594.594,0,0,1-.456.18Z" transform="translate(-12593.5 -21005.5) rotate(90)" fill="#000664"/><path d="M5.492,1.494a1.024,1.024,0,0,1,1.769,0l4.616,7.919h-11Z" transform="translate(-12609.915 -20927.123) rotate(-90)" fill="#ffd801"/></g></g></svg>