<svg xmlns="http://www.w3.org/2000/svg" width="290" height="190.67" viewBox="0 0 290 190.67"><g transform="translate(-870 -567)"><g transform="translate(860.728 673.049)"><path d="M15.98,0q-3.672,0-3.672-4.012v-34.34l-4.9,3.2q-3.4,2.312-5.3-.816Q.136-39.1,3.536-41.208l8.16-5.1a9.023,9.023,0,0,1,2.38-1.054,10.4,10.4,0,0,1,2.652-.306q2.856,0,2.856,4.012V-4.012Q19.584,0,15.98,0ZM39.44,0a2.961,2.961,0,0,1-2.55-1.156,3.936,3.936,0,0,1-.442-3.2q.816-3.876,2.04-8.6t2.72-9.724q1.5-5,3.06-9.69t3.06-8.5H32.572q-4.08,0-4.08-3.4,0-3.332,4.08-3.332H51.34a5.441,5.441,0,0,1,2.958.68,2.145,2.145,0,0,1,1.054,1.9,11.625,11.625,0,0,1-.238,2.414,15.337,15.337,0,0,1-.782,2.482q-1.428,3.6-2.924,8.262t-2.924,9.724q-1.428,5.066-2.652,9.86T43.792-3.6A3.994,3.994,0,0,1,39.44,0ZM62.424,9.928a4.895,4.895,0,0,1-2.856.714,2.266,2.266,0,0,1-1.7-1.054,1.316,1.316,0,0,1,.272-1.666,14.712,14.712,0,0,1,2.38-1.87,9.25,9.25,0,0,0,2.754-2.89A6.547,6.547,0,0,0,64.26-.2q0-.408-.034-.748a4.3,4.3,0,0,0-.1-.612,6.031,6.031,0,0,1-1.7,1.5,4.045,4.045,0,0,1-2.108.612,4.76,4.76,0,0,1-3.3-1.258,4.393,4.393,0,0,1-1.394-3.434,3.95,3.95,0,0,1,1.6-3.366A6.5,6.5,0,0,1,61-8.772a6.906,6.906,0,0,1,5.542,2.414A9.3,9.3,0,0,1,68.748.068a9.764,9.764,0,0,1-1.7,5.712A14.2,14.2,0,0,1,62.424,9.928ZM89.488.68q-5.44,0-8.5-2.72T76.67-10.2a61.681,61.681,0,0,1-1.258-13.6A62.156,62.156,0,0,1,76.67-37.434q1.258-5.474,4.318-8.194t8.5-2.72q5.44,0,8.466,2.72t4.284,8.194A62.156,62.156,0,0,1,103.5-23.8a61.681,61.681,0,0,1-1.258,13.6q-1.258,5.44-4.284,8.16T89.488.68Zm0-6.936a5.125,5.125,0,0,0,3.978-1.6,10.919,10.919,0,0,0,2.142-5.406,63.267,63.267,0,0,0,.68-10.54,63.807,63.807,0,0,0-.68-10.608,10.919,10.919,0,0,0-2.142-5.406,5.125,5.125,0,0,0-3.978-1.6,5.233,5.233,0,0,0-4.012,1.6q-1.5,1.6-2.142,5.406A67.107,67.107,0,0,0,82.688-23.8a66.539,66.539,0,0,0,.646,10.54q.646,3.808,2.142,5.406A5.233,5.233,0,0,0,89.488-6.256Zm32.1,6.664A15.351,15.351,0,0,1,110.5-4.08a3.365,3.365,0,0,1-1.292-2.89,3.2,3.2,0,0,1,1.7-2.346,3.67,3.67,0,0,1,2.788-.646,7.687,7.687,0,0,1,2.72,1.462,9.764,9.764,0,0,0,2.38,1.428,7.111,7.111,0,0,0,2.788.544,7.124,7.124,0,0,0,5.746-2.278,9.516,9.516,0,0,0,1.938-6.358q0-4.42-1.666-6.426a5.721,5.721,0,0,0-4.658-2.006,6.088,6.088,0,0,0-1.938.306,7.514,7.514,0,0,0-1.666.782,26.121,26.121,0,0,0-2.38,1.462,4.4,4.4,0,0,1-2.584.714q-3.74,0-3.74-4.012V-43.588q0-4.012,4.08-4.012h16.116q4.012,0,4.012,3.332t-4.012,3.332h-12.92v12.512a11.1,11.1,0,0,1,2.516-1.326,7.7,7.7,0,0,1,2.72-.51,13.709,13.709,0,0,1,6.834,1.7,12.324,12.324,0,0,1,4.828,5.032,17.439,17.439,0,0,1,1.8,8.364q0,7.412-4.148,11.492A14.848,14.848,0,0,1,121.584.408Zm34,.272q-5.44,0-8.5-2.72t-4.318-8.16a61.681,61.681,0,0,1-1.258-13.6,62.156,62.156,0,0,1,1.258-13.634q1.258-5.474,4.318-8.194t8.5-2.72q5.44,0,8.466,2.72t4.284,8.194A62.156,62.156,0,0,1,169.592-23.8a61.681,61.681,0,0,1-1.258,13.6q-1.258,5.44-4.284,8.16T155.584.68Zm0-6.936a5.125,5.125,0,0,0,3.978-1.6A10.919,10.919,0,0,0,161.7-13.26a63.265,63.265,0,0,0,.68-10.54,63.806,63.806,0,0,0-.68-10.608,10.919,10.919,0,0,0-2.142-5.406,5.125,5.125,0,0,0-3.978-1.6,5.233,5.233,0,0,0-4.012,1.6q-1.5,1.6-2.142,5.406a67.108,67.108,0,0,0-.646,10.608,66.54,66.54,0,0,0,.646,10.54q.646,3.808,2.142,5.406A5.233,5.233,0,0,0,155.584-6.256Zm22.8,9.208a2.067,2.067,0,0,1-1.548-.63A2.252,2.252,0,0,1,176.22.684V-19.8a18.957,18.957,0,0,1,.468-4.644,5.382,5.382,0,0,1,1.6-2.79,6.481,6.481,0,0,1,3.1-1.368,27.112,27.112,0,0,1,4.986-.378h8.388a27.112,27.112,0,0,1,4.986.378,6.481,6.481,0,0,1,3.1,1.368,5.382,5.382,0,0,1,1.6,2.79,18.957,18.957,0,0,1,.468,4.644V-4.284a10.977,10.977,0,0,1-.666,4.266,4,4,0,0,1-2.106,2.16,10.806,10.806,0,0,1-3.78.738,2.96,2.96,0,0,1-1.854-.486A2.071,2.071,0,0,1,195.66.828a2.345,2.345,0,0,1,.522-1.746,2.1,2.1,0,0,1,1.6-.738,5.9,5.9,0,0,0,1.8-.324,1.412,1.412,0,0,0,.828-.936,6.611,6.611,0,0,0,.216-1.908V-11.7H180.5V.684a2.291,2.291,0,0,1-.594,1.638A2.009,2.009,0,0,1,178.38,2.952ZM192.672-15.66h7.956V-19.8a9.421,9.421,0,0,0-.45-3.366,2.407,2.407,0,0,0-1.71-1.44,15.307,15.307,0,0,0-3.744-.342h-2.052Zm-12.168,0h7.92v-9.288h-2.016a15.342,15.342,0,0,0-3.726.342,2.414,2.414,0,0,0-1.728,1.44,9.421,9.421,0,0,0-.45,3.366Zm31.68,6.54c1.89-2.04,3.27-2.76,5.22-2.76,1.59,0,2.52.36,5.16,2.04a15.332,15.332,0,0,0,4.11,2.22,8.535,8.535,0,0,0,2.64.42,8.425,8.425,0,0,0,5.19-1.71,13.1,13.1,0,0,0,2.85-2.91l-2.4-2.4a8.041,8.041,0,0,1-3.12,2.73,5.929,5.929,0,0,1-2.22.57c-1.44,0-3.03-.63-5.31-2.1a21.534,21.534,0,0,0-2.73-1.65,8.418,8.418,0,0,0-3.87-.9,8.549,8.549,0,0,0-4.92,1.56,10.316,10.316,0,0,0-2.97,2.67Z" transform="translate(10.272 73.952)" fill="#ffd800"/><path d="M11.7,1.036A4.078,4.078,0,0,1,10.423.875a1.1,1.1,0,0,1-.665-.56A2.572,2.572,0,0,1,9.562-.8V-4.172h-.6A7.791,7.791,0,0,1,8.2-1.113,4.954,4.954,0,0,1,6.132,1.008a.975.975,0,0,1-.651.133A.774.774,0,0,1,4.928.77.712.712,0,0,1,4.851.175a.739.739,0,0,1,.4-.483A3.62,3.62,0,0,0,6.888-1.9a6.285,6.285,0,0,0,.6-2.38A1.629,1.629,0,0,1,6.377-4.97a2.905,2.905,0,0,1-.3-1.47v-.294A2.7,2.7,0,0,1,6.44-8.3a1.906,1.906,0,0,1,1.386-.637,1.224,1.224,0,0,1-.238-.14.659.659,0,0,1-.182-.21q-.084-.14-.231-.378t-.294-.49q-.147-.252-.259-.406a.684.684,0,0,1-.091-.56.758.758,0,0,1,.343-.462.934.934,0,0,1,.63-.133.7.7,0,0,1,.5.329q.112.154.273.413l.315.5a3.3,3.3,0,0,1,.21.371.755.755,0,0,1,.091.623.739.739,0,0,1-.4.483h1.12q.154-.308.357-.777t.4-.917l.294-.672a.738.738,0,0,1,.441-.427.781.781,0,0,1,.637.035.748.748,0,0,1,.427.406.737.737,0,0,1-.007.588q-.084.21-.238.539t-.336.679l-.336.644a1.647,1.647,0,0,1,1.183.658,2.864,2.864,0,0,1,.315,1.5v.294a2.8,2.8,0,0,1-.343,1.547,1.816,1.816,0,0,1-1.323.651v3.066a.782.782,0,0,0,.126.539.85.85,0,0,0,.546.119.5.5,0,0,0,.413-.147,1.547,1.547,0,0,0,.217-.581.651.651,0,0,1,.357-.49.839.839,0,0,1,.623-.042.709.709,0,0,1,.546.924,2.423,2.423,0,0,1-.7,1.477A2.347,2.347,0,0,1,11.7,1.036Zm-8.26.182A.779.779,0,0,1,2.891,1,.742.742,0,0,1,2.66.434V-3.878q-.266.518-.539,1.008t-.5.826a.81.81,0,0,1-.49.336.709.709,0,0,1-.616-.126A.66.66,0,0,1,.231-2.3a.683.683,0,0,1,.133-.511q.252-.336.567-.833T1.568-4.7q.322-.56.6-1.1t.448-.945H1.2a.715.715,0,0,1-.525-.217A.715.715,0,0,1,.462-7.49a.715.715,0,0,1,.217-.525A.715.715,0,0,1,1.2-8.232H2.66V-9.408L2.079-9.3q-.287.056-.567.1Q.7-9.072.574-9.772a.663.663,0,0,1,.119-.546.82.82,0,0,1,.553-.28q.5-.07,1.169-.21t1.316-.322a11.609,11.609,0,0,0,1.113-.364.968.968,0,0,1,.616-.021.611.611,0,0,1,.392.413.687.687,0,0,1-.014.56.732.732,0,0,1-.434.378q-.252.1-.553.189l-.623.189v1.554H5.32a.715.715,0,0,1,.525.217.715.715,0,0,1,.217.525.715.715,0,0,1-.217.525.715.715,0,0,1-.525.217H4.228v.63q.21.224.553.581t.679.686q.336.329.518.483a.673.673,0,0,1,.245.5.785.785,0,0,1-.189.532.686.686,0,0,1-.525.252.706.706,0,0,1-.553-.21q-.126-.14-.322-.364t-.406-.49V.434A.742.742,0,0,1,4,1,.779.779,0,0,1,3.444,1.218Zm5.4-6.8h1.12a1.851,1.851,0,0,0,.98-.168.826.826,0,0,0,.224-.686v-.294a.805.805,0,0,0-.224-.672,1.851,1.851,0,0,0-.98-.168H8.848a1.812,1.812,0,0,0-.966.168.805.805,0,0,0-.224.672v.294a.826.826,0,0,0,.224.686A1.812,1.812,0,0,0,8.848-5.586Zm17.136,3.85a10.512,10.512,0,0,1-1.813-2.093A10.313,10.313,0,0,1,22.89-6.566,14.307,14.307,0,0,1,21.574-3.9,9.9,9.9,0,0,1,19.782-1.75a.856.856,0,0,1-.644.217.791.791,0,0,1-.6-.3.688.688,0,0,1-.147-.553.846.846,0,0,1,.287-.511,8.763,8.763,0,0,0,1.575-1.834,14.021,14.021,0,0,0,1.19-2.254,17.317,17.317,0,0,0,.791-2.324,1.077,1.077,0,0,0-.672-.168H20.174a.759.759,0,0,1-.581-.231.8.8,0,0,1-.217-.567.779.779,0,0,1,.217-.553.759.759,0,0,1,.581-.231h1.554a2.3,2.3,0,0,1,1.491.385A2.009,2.009,0,0,1,23.772-9.3a8.986,8.986,0,0,0,.581,2.4,9.882,9.882,0,0,0,1.162,2.142A10.224,10.224,0,0,0,27.1-3a.816.816,0,0,1,.294.546.7.7,0,0,1-.168.574.983.983,0,0,1-.6.322A.771.771,0,0,1,25.984-1.736ZM22.526.854a13.968,13.968,0,0,1-3.234-.3A4.06,4.06,0,0,1,17.346-.476q-.182.14-.469.35L16.324.28q-.266.2-.406.294a.868.868,0,0,1-.651.14A.736.736,0,0,1,14.714.35a.81.81,0,0,1-.1-.63.74.74,0,0,1,.385-.5l.651-.364.749-.42V-4.55a.738.738,0,0,0-.112-.476.6.6,0,0,0-.448-.126h-.588a.687.687,0,0,1-.546-.224.781.781,0,0,1-.2-.532.756.756,0,0,1,.2-.525.7.7,0,0,1,.546-.217h1.218a1.324,1.324,0,0,1,1.5,1.5V-1.89a3.011,3.011,0,0,0,.882.693,4.364,4.364,0,0,0,1.393.4,16.7,16.7,0,0,0,2.289.126q1.19,0,2.219-.042t1.8-.1a.951.951,0,0,1,.693.2.724.724,0,0,1,.273.588.862.862,0,0,1-.224.616.941.941,0,0,1-.714.238q-.616,0-1.372.007L23.73.847Q23.016.854,22.526.854ZM17.038-8.638a6.373,6.373,0,0,0-.5-.469q-.3-.259-.6-.511t-.539-.42a.637.637,0,0,1-.259-.511.814.814,0,0,1,.189-.553.8.8,0,0,1,.511-.287.793.793,0,0,1,.6.147q.266.2.588.448t.623.5q.3.252.5.434a.71.71,0,0,1,.266.567.814.814,0,0,1-.252.6.782.782,0,0,1-.553.273A.706.706,0,0,1,17.038-8.638Z" transform="translate(187.272 37.951)" fill="#ffd800"/></g><path d="M-109.291.465a1.868,1.868,0,0,1-1.472.015,1.956,1.956,0,0,1-1.1-1.007A1.912,1.912,0,0,1-111.895-2a1.783,1.783,0,0,1,.992-1.07,30.779,30.779,0,0,0,8.184-5.239,19.58,19.58,0,0,0,4.867-6.6,2.641,2.641,0,0,0,.186-2.325q-.465-.806-2.294-.806h-11.718a1.871,1.871,0,0,1-1.348-.558,1.8,1.8,0,0,1-.574-1.333,1.83,1.83,0,0,1,.574-1.364,1.871,1.871,0,0,1,1.348-.558h11.9a7.89,7.89,0,0,1,4.386,1.038,4.1,4.1,0,0,1,1.86,2.883,7.86,7.86,0,0,1-.759,4.293,23.512,23.512,0,0,1-5.658,8A33.271,33.271,0,0,1-109.291.465ZM-78.2,1.891a1.843,1.843,0,0,1-1.24.356,1.627,1.627,0,0,1-1.147-.573,1.651,1.651,0,0,1-.372-1.24,1.5,1.5,0,0,1,.589-1.116,10.423,10.423,0,0,0,3.456-4.526,11.6,11.6,0,0,0,.666-5.7,1.631,1.631,0,0,1,.326-1.256,1.615,1.615,0,0,1,1.1-.635,1.662,1.662,0,0,1,1.24.31,1.468,1.468,0,0,1,.62,1.116l.031.341a17.673,17.673,0,0,0,2.837-.356A3.286,3.286,0,0,0-68.8-11.92a.82.82,0,0,0,.341-.6.758.758,0,0,0-.264-.62,1.736,1.736,0,0,0-1.038-.217H-82.2a1.664,1.664,0,0,1-1.178-.465,1.51,1.51,0,0,1-.5-1.147,1.5,1.5,0,0,1,.5-1.162,1.7,1.7,0,0,1,1.178-.45h12.431a5.5,5.5,0,0,1,3.658,1.039A3.728,3.728,0,0,1-64.9-12.555a3.542,3.542,0,0,1-2,3.317A15.025,15.025,0,0,1-72.928-7.9a15.388,15.388,0,0,1-1.643,5.518A12.313,12.313,0,0,1-78.2,1.891Zm26.1-3.1a1.829,1.829,0,0,1-1.472-.062,1.891,1.891,0,0,1-1.008-1.085,1.829,1.829,0,0,1,.062-1.472,1.891,1.891,0,0,1,1.085-1.008,42.094,42.094,0,0,0,5.006-2.139A50.229,50.229,0,0,0-43.586-9.75a43.664,43.664,0,0,0,4.216-3.1,23.187,23.187,0,0,0,3.116-3.085,1.979,1.979,0,0,1,1.317-.713,1.686,1.686,0,0,1,1.38.434,1.867,1.867,0,0,1,.713,1.286,1.775,1.775,0,0,1-.434,1.411,25.214,25.214,0,0,1-3.379,3.3A51.6,51.6,0,0,1-41.37-6.758q-2.6,1.705-5.363,3.162A41.191,41.191,0,0,1-52.1-1.209Zm2.666-12.214q-1.178-.992-2.635-2.061A29.621,29.621,0,0,0-54.7-17.236a1.911,1.911,0,0,1-.868-1.194,1.863,1.863,0,0,1,.217-1.441,1.974,1.974,0,0,1,1.194-.884,1.746,1.746,0,0,1,1.441.233q.837.527,1.907,1.286t2.077,1.5q1.007.744,1.659,1.271a1.925,1.925,0,0,1,.729,1.287,1.782,1.782,0,0,1-.388,1.41,1.925,1.925,0,0,1-1.287.728A1.782,1.782,0,0,1-49.43-13.423ZM-23.173,1.364a1.794,1.794,0,0,1-1.441.016A1.964,1.964,0,0,1-25.684.372,1.831,1.831,0,0,1-25.7-1.085a1.84,1.84,0,0,1,1.008-1.054A31.783,31.783,0,0,0-14.183-9.176q-.682-.651-1.3-1.209t-1.054-.93a1.856,1.856,0,0,1-.713-1.271,1.807,1.807,0,0,1,.4-1.4,1.825,1.825,0,0,1,1.3-.7,1.81,1.81,0,0,1,1.395.418q.5.4,1.116.961t1.3,1.178q.558-.806,1.054-1.643t.93-1.705q.992-2.046-1.3-2.046h-4.216a42.792,42.792,0,0,1-3.488,3.968,29.587,29.587,0,0,1-3.674,3.193,1.748,1.748,0,0,1-1.41.325,1.891,1.891,0,0,1-1.256-.79,1.88,1.88,0,0,1-.294-1.426,1.883,1.883,0,0,1,.79-1.24,29.494,29.494,0,0,0,3.457-2.945,28.183,28.183,0,0,0,2.976-3.457,21.446,21.446,0,0,0,2.124-3.549,1.96,1.96,0,0,1,1.085-1.008A1.75,1.75,0,0,1-13.5-24.4a1.838,1.838,0,0,1,1.008,1.069,1.784,1.784,0,0,1-.046,1.472,3.046,3.046,0,0,1-.155.325,3.046,3.046,0,0,0-.155.326h2.387a6.367,6.367,0,0,1,3.674.9,3.291,3.291,0,0,1,1.442,2.5,6.8,6.8,0,0,1-.868,3.643q-.589,1.209-1.3,2.372a25.531,25.531,0,0,1-1.55,2.247q.713.682,1.3,1.3t.992,1.116A1.751,1.751,0,0,1-6.355-5.7a2.053,2.053,0,0,1-.728,1.333,1.782,1.782,0,0,1-1.41.388,2.1,2.1,0,0,1-1.318-.7,10.516,10.516,0,0,0-.775-.884q-.465-.48-.992-1.039a34.445,34.445,0,0,1-5.317,4.5A37.33,37.33,0,0,1-23.173,1.364Zm21.359-20a1.29,1.29,0,0,1-.977.295,1.239,1.239,0,0,1-.915-.48q-.341-.465-.883-1.116t-.977-1.147a1.121,1.121,0,0,1-.295-.822,1.188,1.188,0,0,1,.419-.853,1.068,1.068,0,0,1,.822-.325,1.5,1.5,0,0,1,.883.325,11.4,11.4,0,0,1,1.085,1.023,14.672,14.672,0,0,1,1.023,1.178,1.448,1.448,0,0,1,.294,1.007A1.316,1.316,0,0,1-1.814-18.631Zm2.914-2.7a1.184,1.184,0,0,1-.945.388,1.281,1.281,0,0,1-.946-.419q-.372-.434-.945-1.038t-1.069-1.1a1.125,1.125,0,0,1-.326-.79,1.271,1.271,0,0,1,.326-.883,1.239,1.239,0,0,1,.821-.372A1.358,1.358,0,0,1-1.1-25.3a10.464,10.464,0,0,1,1.147.945,15.168,15.168,0,0,1,1.085,1.1,1.21,1.21,0,0,1,.372.961A1.5,1.5,0,0,1,1.1-21.328ZM16.352,1.364A1.8,1.8,0,0,1,15.019.79a1.871,1.871,0,0,1-.558-1.348v-12.4q-1.984,1.736-4.092,3.348T6.153-6.665a1.863,1.863,0,0,1-1.441.217,1.912,1.912,0,0,1-1.194-.868A1.894,1.894,0,0,1,3.3-8.773a1.8,1.8,0,0,1,.868-1.178q1.953-1.209,4.077-2.821T12.4-16.213q2.03-1.829,3.751-3.674a32.288,32.288,0,0,0,2.868-3.488,1.943,1.943,0,0,1,1.24-.806,1.763,1.763,0,0,1,1.426.31,1.837,1.837,0,0,1,.806,1.224,1.79,1.79,0,0,1-.31,1.441,47.752,47.752,0,0,1-3.906,4.557V-.558A1.871,1.871,0,0,1,17.716.79,1.83,1.83,0,0,1,16.352,1.364ZM52.374-.961a46.072,46.072,0,0,1-9.347.79A8.834,8.834,0,0,1,37.68-1.829a5.391,5.391,0,0,1-1.813-2.759,15.154,15.154,0,0,1-.48-4.123V-21.3a1.855,1.855,0,0,1,.558-1.364,1.819,1.819,0,0,1,1.333-.558,1.855,1.855,0,0,1,1.364.558A1.855,1.855,0,0,1,39.2-21.3v6.851q2.542-.62,5.254-1.441t4.883-1.658a1.82,1.82,0,0,1,1.488.015,1.838,1.838,0,0,1,.992,1.1,1.914,1.914,0,0,1-.031,1.472,1.675,1.675,0,0,1-1.054.976q-2.635.961-5.7,1.8T39.2-10.726v2.015a8.684,8.684,0,0,0,.279,2.619,2.7,2.7,0,0,0,.868,1.256,4.827,4.827,0,0,0,2.031.76,15.625,15.625,0,0,0,3.6.078q2.278-.155,5.813-.744a1.7,1.7,0,0,1,1.426.326,1.938,1.938,0,0,1,.744,1.286,1.65,1.65,0,0,1-.326,1.395A2.046,2.046,0,0,1,52.374-.961ZM55.785-16.4a1.184,1.184,0,0,1-.946.388,1.386,1.386,0,0,1-.977-.418q-.372-.434-.961-1.054t-1.054-1.085a1.086,1.086,0,0,1-.341-.775,1.178,1.178,0,0,1,.341-.9,1.255,1.255,0,0,1,.837-.372,1.3,1.3,0,0,1,.9.279,8.6,8.6,0,0,1,1.163.914,13.741,13.741,0,0,1,1.1,1.1,1.311,1.311,0,0,1,.356.961A1.369,1.369,0,0,1,55.785-16.4Zm.806-2.821q-.4-.434-1.039-.992T54.389-21.2a1.2,1.2,0,0,1-.372-.775,1.125,1.125,0,0,1,.279-.9,1.194,1.194,0,0,1,.791-.434,1.43,1.43,0,0,1,.914.186,10.777,10.777,0,0,1,1.225.868q.7.558,1.194,1.023a1.352,1.352,0,0,1,.418.945,1.4,1.4,0,0,1-.356.976,1.281,1.281,0,0,1-.915.45A1.184,1.184,0,0,1,56.59-19.22ZM66.324-1.209a1.829,1.829,0,0,1-1.473-.062,1.891,1.891,0,0,1-1.007-1.085,1.829,1.829,0,0,1,.062-1.472,1.891,1.891,0,0,1,1.085-1.008A42.094,42.094,0,0,0,70-6.975,50.229,50.229,0,0,0,74.834-9.75a43.664,43.664,0,0,0,4.216-3.1,23.187,23.187,0,0,0,3.116-3.085,1.979,1.979,0,0,1,1.318-.713,1.686,1.686,0,0,1,1.379.434,1.867,1.867,0,0,1,.713,1.286,1.775,1.775,0,0,1-.434,1.411,25.215,25.215,0,0,1-3.379,3.3A51.6,51.6,0,0,1,77.05-6.758q-2.6,1.705-5.363,3.162A41.191,41.191,0,0,1,66.324-1.209ZM68.99-13.423q-1.178-.992-2.635-2.061a29.621,29.621,0,0,0-2.635-1.752,1.911,1.911,0,0,1-.868-1.194,1.863,1.863,0,0,1,.217-1.441,1.974,1.974,0,0,1,1.194-.884,1.746,1.746,0,0,1,1.441.233q.837.527,1.907,1.286t2.077,1.5q1.008.744,1.659,1.271a1.925,1.925,0,0,1,.729,1.287,1.782,1.782,0,0,1-.387,1.41,1.925,1.925,0,0,1-1.286.728A1.782,1.782,0,0,1,68.99-13.423ZM95.682,1.085a1.875,1.875,0,0,1-1.457.031A1.776,1.776,0,0,1,93.171.093a1.831,1.831,0,0,1-.016-1.457,1.84,1.84,0,0,1,1.007-1.054A33.276,33.276,0,0,0,103.044-8a25.591,25.591,0,0,0,5.937-7.657q.992-1.984-1.426-1.984h-4.092a38.188,38.188,0,0,1-3.332,3.859,28.917,28.917,0,0,1-3.8,3.271,1.838,1.838,0,0,1-1.442.325,1.782,1.782,0,0,1-1.224-.79,1.838,1.838,0,0,1-.326-1.441,1.782,1.782,0,0,1,.79-1.225,25.622,25.622,0,0,0,3.379-2.836,30.233,30.233,0,0,0,2.992-3.441,18.931,18.931,0,0,0,2.124-3.55,1.889,1.889,0,0,1,1.069-1.023,1.916,1.916,0,0,1,1.473.031,1.838,1.838,0,0,1,1.007,1.069,1.784,1.784,0,0,1-.047,1.472q-.062.124-.155.279a2.169,2.169,0,0,0-.155.31h2.108q3.72,0,4.929,1.906t-.341,5.131a27.993,27.993,0,0,1-4.123,6.215,33.916,33.916,0,0,1-5.782,5.27A34.831,34.831,0,0,1,95.682,1.085Zm21.948-23q-.4-.4-1.023-.976t-1.147-.976a1.217,1.217,0,0,1-.372-.791,1.148,1.148,0,0,1,.279-.914,1.135,1.135,0,0,1,.79-.419,1.51,1.51,0,0,1,.915.2,11.831,11.831,0,0,1,1.225.853q.7.542,1.193,1.007a1.352,1.352,0,0,1,.419.946,1.4,1.4,0,0,1-.357.976,1.281,1.281,0,0,1-.914.449A1.273,1.273,0,0,1,117.63-21.917Zm-.806,2.821a1.259,1.259,0,0,1-.961.388,1.321,1.321,0,0,1-.961-.449q-.372-.434-.961-1.038t-1.054-1.069a1.184,1.184,0,0,1-.341-.791,1.159,1.159,0,0,1,.341-.884,1.143,1.143,0,0,1,.837-.387,1.46,1.46,0,0,1,.9.263,12.609,12.609,0,0,1,1.163.93,10.038,10.038,0,0,1,1.1,1.116,1.291,1.291,0,0,1,.357.945A1.464,1.464,0,0,1,116.824-19.1Z" transform="translate(989 597)" fill="#fff"/><rect width="64" height="25" rx="12.5" transform="translate(871 653)" fill="#ffd801"/><rect width="54" height="25" rx="12.5" transform="translate(950 653)" fill="#ffd801"/><rect width="90" height="25" rx="12.5" transform="translate(1019 653)" fill="#ffd801"/><path d="M-20.892.384a.7.7,0,0,1-.24-.51A.73.73,0,0,1-20.94-.66a10.521,10.521,0,0,0,1.6-2.274A12.345,12.345,0,0,0-18.3-5.676l-1.254.066q-.582.03-.762.042a.711.711,0,0,1-.528-.2.709.709,0,0,1-.24-.51.738.738,0,0,1,.192-.54.689.689,0,0,1,.5-.24q.144-.012.516-.024l.87-.03q.5-.018,1-.042a15.425,15.425,0,0,0,.18-1.86.721.721,0,0,1,.24-.522.671.671,0,0,1,.528-.186.73.73,0,0,1,.522.234.669.669,0,0,1,.186.534q-.012.444-.06.876t-.108.864l.348-.012a4.086,4.086,0,0,1,2.016.324,1.777,1.777,0,0,1,.912,1.236,6.25,6.25,0,0,1-.024,2.316,7.5,7.5,0,0,1-.552,1.992A3.151,3.151,0,0,1-14.664-.2a2.293,2.293,0,0,1-1.116.48,4.45,4.45,0,0,1-1.356-.03.707.707,0,0,1-.48-.3A.721.721,0,0,1-17.748-.6a.743.743,0,0,1,.306-.486A.678.678,0,0,1-16.9-1.2a2.533,2.533,0,0,0,.726.036,1.1,1.1,0,0,0,.6-.264,1.9,1.9,0,0,0,.48-.75,7.269,7.269,0,0,0,.366-1.434,5.168,5.168,0,0,0,.09-1.422.738.738,0,0,0-.42-.63A2.544,2.544,0,0,0-16.116-5.8q-.18,0-.684.036a15.712,15.712,0,0,1-1.224,3.4A11.814,11.814,0,0,1-19.848.348a.675.675,0,0,1-.51.234A.752.752,0,0,1-20.892.384Zm7.86-7.152q-.156-.168-.39-.39t-.438-.39a.442.442,0,0,1-.138-.3.455.455,0,0,1,.114-.348.483.483,0,0,1,.318-.162.543.543,0,0,1,.354.09,5.085,5.085,0,0,1,.462.336,4.308,4.308,0,0,1,.45.408.5.5,0,0,1,.156.366.566.566,0,0,1-.144.378.5.5,0,0,1-.366.162A.5.5,0,0,1-13.032-6.768Zm1.008-1.116q-.168-.156-.42-.36T-12.9-8.6a.418.418,0,0,1-.162-.288.474.474,0,0,1,.09-.36.427.427,0,0,1,.294-.186.526.526,0,0,1,.354.066,5.184,5.184,0,0,1,.492.306,5.275,5.275,0,0,1,.48.366.493.493,0,0,1,.18.36.552.552,0,0,1-.12.384.46.46,0,0,1-.342.192A.494.494,0,0,1-12.024-7.884ZM-4.32.528A.7.7,0,0,1-4.836.306a.724.724,0,0,1-.216-.522v-4.8q-.768.672-1.584,1.3T-8.268-2.58a.721.721,0,0,1-.558.084.74.74,0,0,1-.462-.336A.733.733,0,0,1-9.372-3.4a.7.7,0,0,1,.336-.456q.756-.468,1.578-1.092T-5.85-6.276Q-5.064-6.984-4.4-7.7a12.5,12.5,0,0,0,1.11-1.35.752.752,0,0,1,.48-.312.683.683,0,0,1,.552.12.711.711,0,0,1,.312.474.693.693,0,0,1-.12.558A18.485,18.485,0,0,1-3.576-6.444V-.216a.724.724,0,0,1-.216.522A.708.708,0,0,1-4.32.528Zm8.508,0A.7.7,0,0,1,3.672.306a.724.724,0,0,1-.216-.522V-8.508a.7.7,0,0,1,.216-.522.714.714,0,0,1,.516-.21.729.729,0,0,1,.528.21.7.7,0,0,1,.216.522v2.892a.739.739,0,0,1,.432-.318.7.7,0,0,1,.54.066q.708.372,1.446.846a12.229,12.229,0,0,1,1.278.93.711.711,0,0,1,.27.51.723.723,0,0,1-.174.558.723.723,0,0,1-.5.258.738.738,0,0,1-.552-.162q-.336-.264-.774-.564t-.876-.582q-.438-.282-.8-.486a.772.772,0,0,1-.288-.264V-.216a.724.724,0,0,1-.216.522A.708.708,0,0,1,4.188.528Zm4.68-6.744a.48.48,0,0,1-.378.108.486.486,0,0,1-.354-.2q-.12-.18-.324-.444T7.44-7.212a.448.448,0,0,1-.1-.324.448.448,0,0,1,.168-.324.431.431,0,0,1,.33-.12.527.527,0,0,1,.33.144,4.483,4.483,0,0,1,.408.414q.228.258.384.462a.515.515,0,0,1,.1.39A.558.558,0,0,1,8.868-6.216Zm1.164-1.02a.476.476,0,0,1-.378.144.461.461,0,0,1-.354-.18q-.144-.168-.36-.408t-.4-.432a.48.48,0,0,1-.126-.318.454.454,0,0,1,.15-.342.455.455,0,0,1,.318-.138.52.52,0,0,1,.342.114q.18.144.432.384a5.127,5.127,0,0,1,.42.444.5.5,0,0,1,.12.366A.548.548,0,0,1,10.032-7.236ZM19.668.216a7.081,7.081,0,0,1-1.434-2.154,13.234,13.234,0,0,1-.954-3.414L15.7-5.2a.67.67,0,0,1-.528-.144.656.656,0,0,1-.24-.468.656.656,0,0,1,.132-.5.638.638,0,0,1,.48-.24l1.572-.156q-.048-.612-.084-1.272t-.036-1.38a.671.671,0,0,1,.2-.522.72.72,0,0,1,.5-.186.759.759,0,0,1,.522.186.676.676,0,0,1,.21.534q-.012.672.012,1.3t.072,1.194L21.48-7.14A.682.682,0,0,1,22.008-7a.636.636,0,0,1,.24.462.645.645,0,0,1-.138.51.708.708,0,0,1-.486.246l-2.94.288a11.391,11.391,0,0,0,.8,2.868,5.485,5.485,0,0,0,1.146,1.74q.372.36.552-.12.06-.156.114-.348t.1-.348a.658.658,0,0,1,.36-.432.674.674,0,0,1,.528-.024.717.717,0,0,1,.408.342.741.741,0,0,1,.036.546q-.072.228-.162.528t-.186.552q-.4,1.02-1.134,1.116A1.986,1.986,0,0,1,19.668.216Zm-5.676.816A.7.7,0,0,1,13.5.846a.656.656,0,0,1-.2-.51V-5.328q-.432.588-.864,1.08a.672.672,0,0,1-.486.24.763.763,0,0,1-.522-.18A.651.651,0,0,1,11.2-4.62a.6.6,0,0,1,.162-.48q.384-.432.792-.99t.786-1.164q.378-.606.684-1.2a10.883,10.883,0,0,0,.5-1.1.671.671,0,0,1,.384-.414.721.721,0,0,1,.54.006.64.64,0,0,1,.378.348.689.689,0,0,1-.018.54q-.132.36-.318.744t-.39.78V.336a.656.656,0,0,1-.2.51A.72.72,0,0,1,13.992,1.032ZM21.408-7.6a.644.644,0,0,1-.474.192.664.664,0,0,1-.486-.2q-.12-.132-.318-.312l-.4-.36-.33-.3a.56.56,0,0,1-.2-.426.638.638,0,0,1,.162-.45.657.657,0,0,1,.45-.228.683.683,0,0,1,.5.156q.132.108.354.294t.438.372a3.725,3.725,0,0,1,.324.306.61.61,0,0,1,.2.486A.722.722,0,0,1,21.408-7.6Z" transform="translate(903 670)" fill="#000979"/><path d="M-12.012,1.116a.677.677,0,0,1-.48-.192.646.646,0,0,1-.2-.492V-1.812a10.883,10.883,0,0,1-1.1.882q-.618.438-1.284.822A13.332,13.332,0,0,1-16.4.564a1.015,1.015,0,0,1-.6.1.6.6,0,0,1-.444-.348.674.674,0,0,1-.024-.528A.651.651,0,0,1-17.064-.6a14.986,14.986,0,0,0,1.836-.906,14.4,14.4,0,0,0,1.62-1.074h-2.868a.59.59,0,0,1-.426-.168.546.546,0,0,1-.174-.408A.565.565,0,0,1-16.9-3.57a.565.565,0,0,1,.414-.174h1.248V-4.62h-1.776a.532.532,0,0,1-.39-.162.532.532,0,0,1-.162-.39.532.532,0,0,1,.162-.39.532.532,0,0,1,.39-.162h1.776v-.9h-1.116a.542.542,0,0,1-.4-.168.542.542,0,0,1-.168-.4.536.536,0,0,1,.168-.4.552.552,0,0,1,.4-.162h3.66v-.7q-.672.048-1.338.084t-1.266.048q-.7.024-.732-.576a.521.521,0,0,1,.174-.432.761.761,0,0,1,.5-.18q.756-.012,1.6-.06t1.692-.132q.852-.084,1.614-.186t1.35-.222a.938.938,0,0,1,.576.03.508.508,0,0,1,.288.39.594.594,0,0,1-.072.474.618.618,0,0,1-.4.258q-1.14.216-2.6.384v.816h3.672a.546.546,0,0,1,.4.162.546.546,0,0,1,.162.4.552.552,0,0,1-.162.4.536.536,0,0,1-.4.168H-8.8v.9H-7a.526.526,0,0,1,.4.162.542.542,0,0,1,.156.39.542.542,0,0,1-.156.39A.526.526,0,0,1-7-4.62H-8.8v.876h1.248a.546.546,0,0,1,.408.174.576.576,0,0,1,.168.414.555.555,0,0,1-.168.408.542.542,0,0,1-.4.168H-10.38A14.239,14.239,0,0,0-8.79-1.53a14.966,14.966,0,0,0,1.818.894.676.676,0,0,1,.4.372A.6.6,0,0,1-6.6.252a.669.669,0,0,1-.414.366A.839.839,0,0,1-7.6.588,13.105,13.105,0,0,1-8.9-.084q-.678-.4-1.308-.846a12.669,12.669,0,0,1-1.11-.882V.432a.646.646,0,0,1-.2.492A.692.692,0,0,1-12.012,1.116Zm-1.872-6.84H-12.7v-.9h-1.188Zm2.568,0h1.164v-.9h-1.164Zm-2.568,1.98H-12.7V-4.62h-1.188Zm2.568,0h1.164V-4.62h-1.164ZM-2.292.96A.615.615,0,0,1-2.976.408a.617.617,0,0,1,.1-.48.562.562,0,0,1,.4-.24,1.277,1.277,0,0,0,.468-.132q.132-.084.132-.4V-4.188l-.444.036v2.7a.445.445,0,0,1-.144.354.51.51,0,0,1-.348.126A.54.54,0,0,1-3.168-1.1a.429.429,0,0,1-.156-.354V-4.068l-.36.036a15.024,15.024,0,0,1-.126,1.9A9.324,9.324,0,0,1-4.116-.7,8.152,8.152,0,0,1-4.584.492a.652.652,0,0,1-.354.33.622.622,0,0,1-.486.006A.541.541,0,0,1-5.748.5.568.568,0,0,1-5.724.048a7.067,7.067,0,0,0,.45-1.068A7.856,7.856,0,0,0-4.98-2.292a12.053,12.053,0,0,0,.12-1.644l-.252.024a.722.722,0,0,1-.462-.12.538.538,0,0,1-.21-.42.55.55,0,0,1,.144-.426.581.581,0,0,1,.408-.174q.1-.012.192-.018t.192-.006v-2.16a1.876,1.876,0,0,1,.264-1.1,1.25,1.25,0,0,1,.9-.45q.06-.2.156-.516t.144-.444a.632.632,0,0,1,.312-.4.749.749,0,0,1,.516-.06.633.633,0,0,1,.408.252.461.461,0,0,1,.06.42q-.024.084-.1.306t-.138.414a1.764,1.764,0,0,1,1.248.366A1.691,1.691,0,0,1-.732-7.236v1.848l.18-.012a.434.434,0,0,1,.276.036A11.485,11.485,0,0,0,.3-6.576,7.555,7.555,0,0,0,.7-7.788.656.656,0,0,1,1-8.2a.582.582,0,0,1,.48-.066.607.607,0,0,1,.4.282.653.653,0,0,1,.048.5,7.91,7.91,0,0,1-.312,1.026q-.2.546-.45,1.068t-.486.93a.653.653,0,0,1-.4.306.667.667,0,0,1-.5-.042A.837.837,0,0,1-.4-4.344a.167.167,0,0,0-.072.012l-.264.024V-.576A1.54,1.54,0,0,1-1.116.576,1.672,1.672,0,0,1-2.292.96ZM2.592.8A4.181,4.181,0,0,1,1.218.624a1.208,1.208,0,0,1-.7-.576,2.318,2.318,0,0,1-.2-1.056V-2.1a2.35,2.35,0,0,1,.2-1.068,1.208,1.208,0,0,1,.7-.576,4.181,4.181,0,0,1,1.374-.18,4.181,4.181,0,0,1,1.374.18,1.208,1.208,0,0,1,.7.576,2.35,2.35,0,0,1,.2,1.068v1.092a2.318,2.318,0,0,1-.2,1.056,1.208,1.208,0,0,1-.7.576A4.181,4.181,0,0,1,2.592.8ZM5.472-4.38a.628.628,0,0,1-.516.15.706.706,0,0,1-.468-.27A8.349,8.349,0,0,1,3.8-5.568a9.813,9.813,0,0,1-.576-1.248A7.213,7.213,0,0,1,2.868-8.04a.756.756,0,0,0-.192-.438.9.9,0,0,0-.492-.09H1.776a.555.555,0,0,1-.426-.174.587.587,0,0,1-.162-.414A.587.587,0,0,1,1.35-9.57a.555.555,0,0,1,.426-.174h.816a1.518,1.518,0,0,1,.96.258,1.273,1.273,0,0,1,.408.858A5.618,5.618,0,0,0,4.542-6.81,8,8,0,0,0,5.556-5.28a.593.593,0,0,1,.144.462A.615.615,0,0,1,5.472-4.38Zm-9.156-.78q.444-.024.906-.06l.894-.072V-7.056a.7.7,0,0,0-.144-.516.817.817,0,0,0-.54-.132h-.444a.79.79,0,0,0-.534.132.718.718,0,0,0-.138.516ZM2.592-.42a1.165,1.165,0,0,0,.774-.174.929.929,0,0,0,.174-.654v-.624a.929.929,0,0,0-.174-.654A1.165,1.165,0,0,0,2.592-2.7a1.165,1.165,0,0,0-.774.174.929.929,0,0,0-.174.654v.624a.929.929,0,0,0,.174.654A1.165,1.165,0,0,0,2.592-.42Zm-5.1-5.016a.644.644,0,0,1-.426-.024.443.443,0,0,1-.258-.324q-.048-.18-.138-.486t-.15-.462a.451.451,0,0,1,.036-.42A.522.522,0,0,1-3.12-7.38a.5.5,0,0,1,.7.36q.048.156.144.45t.144.45A.509.509,0,0,1-2.508-5.436ZM9.4,1.032A.678.678,0,0,1,8.934.858a.6.6,0,0,1-.2-.474v-3.4q-.3.444-.618.864a8.076,8.076,0,0,1-.594.708.725.725,0,0,1-.462.216.589.589,0,0,1-.474-.168.592.592,0,0,1-.2-.432.569.569,0,0,1,.174-.432A8.475,8.475,0,0,0,7.23-3.03q.378-.486.744-1.008t.606-.93H7.128a.589.589,0,0,1-.432-.18.6.6,0,0,1-.18-.444.589.589,0,0,1,.18-.432.589.589,0,0,1,.432-.18H8.736V-9.456a.617.617,0,0,1,.2-.48.665.665,0,0,1,.462-.18.638.638,0,0,1,.462.18.637.637,0,0,1,.186.48V-6.2h1.3a.589.589,0,0,1,.432.18.589.589,0,0,1,.18.432.6.6,0,0,1-.18.444.589.589,0,0,1-.432.18h-1.3V-4.9l.516.546q.3.318.6.612t.48.45a.664.664,0,0,1,.192.36.569.569,0,0,1,.3-.108q.564-.084,1.326-.222t1.53-.294V-9.444a.632.632,0,0,1,.2-.492.68.68,0,0,1,.474-.18.7.7,0,0,1,.48.18.622.622,0,0,1,.2.492v5.628l.384-.09.336-.078a.633.633,0,0,1,.5.084.593.593,0,0,1,.27.408A.728.728,0,0,1,17.76-3a.563.563,0,0,1-.4.276q-.228.048-.486.108t-.534.12V.36a.627.627,0,0,1-.2.486.689.689,0,0,1-.48.186.668.668,0,0,1-.474-.186.636.636,0,0,1-.2-.486V-2.208q-.7.144-1.392.27t-1.26.222a.72.72,0,0,1-.528-.1.593.593,0,0,1-.264-.45L11.532-2.3a.526.526,0,0,1-.378.1.6.6,0,0,1-.366-.18q-.144-.132-.342-.348t-.4-.456V.384a.618.618,0,0,1-.186.474A.65.65,0,0,1,9.4,1.032Zm4.392-7.908q-.108-.108-.312-.276t-.408-.342q-.2-.174-.336-.27a.58.58,0,0,1-.2-.426.616.616,0,0,1,.156-.45.683.683,0,0,1,.438-.228.672.672,0,0,1,.474.144q.132.1.342.264t.426.336a3.713,3.713,0,0,1,.336.288.575.575,0,0,1,.2.45.67.67,0,0,1-.192.474.668.668,0,0,1-.456.2A.64.64,0,0,1,13.788-6.876Zm-.3,2.592q-.12-.108-.324-.27l-.414-.33q-.21-.168-.342-.264a.534.534,0,0,1-.216-.42.651.651,0,0,1,.144-.456.668.668,0,0,1,.432-.234.657.657,0,0,1,.48.138q.132.1.348.258l.432.324q.216.162.336.27a.614.614,0,0,1,.216.45.665.665,0,0,1-.18.486.648.648,0,0,1-.444.21A.619.619,0,0,1,13.488-4.284ZM10.7-6.576a.57.57,0,0,1-.318-.306.511.511,0,0,1,.006-.426q.084-.168.192-.444T10.8-8.3q.108-.27.156-.438a.6.6,0,0,1,.324-.354.583.583,0,0,1,.456-.018.64.64,0,0,1,.342.276.514.514,0,0,1,.018.456q-.06.192-.174.48t-.228.564q-.114.276-.2.456a.574.574,0,0,1-.324.294A.651.651,0,0,1,10.7-6.576ZM8.052-6.612a.656.656,0,0,1-.468.018.526.526,0,0,1-.312-.342q-.048-.168-.15-.426t-.21-.522q-.108-.264-.18-.42a.554.554,0,0,1,.012-.438.548.548,0,0,1,.324-.294.613.613,0,0,1,.468-.006.565.565,0,0,1,.312.33q.072.144.186.414t.222.54q.108.27.156.426A.48.48,0,0,1,8.4-6.9.664.664,0,0,1,8.052-6.612Z" transform="translate(977 670)" fill="#000979"/><path d="M-30.408-1.212a3.43,3.43,0,0,1-2.61.09,2.008,2.008,0,0,1-.954-2V-7.236a.708.708,0,0,1,.222-.528.724.724,0,0,1,.522-.216.718.718,0,0,1,.528.216.718.718,0,0,1,.216.528v3.96q0,.636.36.8a1.856,1.856,0,0,0,1.2-.1,13.078,13.078,0,0,0,2.346-1.014A17.084,17.084,0,0,0-26.46-4.956.774.774,0,0,1-25.9-5.1a.708.708,0,0,1,.5.288.714.714,0,0,1,.138.546.745.745,0,0,1-.282.5,14.373,14.373,0,0,1-1.422.954q-.8.474-1.68.888A17.426,17.426,0,0,1-30.408-1.212Zm9.552.744a.708.708,0,0,1-.57-.024.732.732,0,0,1-.39-.42.708.708,0,0,1,.024-.57.732.732,0,0,1,.42-.39A16.294,16.294,0,0,0-19.434-2.7a19.443,19.443,0,0,0,1.872-1.074,16.9,16.9,0,0,0,1.632-1.2,8.976,8.976,0,0,0,1.206-1.194.766.766,0,0,1,.51-.276.652.652,0,0,1,.534.168.723.723,0,0,1,.276.5.687.687,0,0,1-.168.546A9.76,9.76,0,0,1-14.88-3.954,19.973,19.973,0,0,1-16.7-2.616q-1.008.66-2.076,1.224A15.945,15.945,0,0,1-20.856-.468ZM-19.824-5.2q-.456-.384-1.02-.8a11.466,11.466,0,0,0-1.02-.678.74.74,0,0,1-.336-.462.721.721,0,0,1,.084-.558.764.764,0,0,1,.462-.342.676.676,0,0,1,.558.09q.324.2.738.5t.8.582q.39.288.642.492a.745.745,0,0,1,.282.5.69.69,0,0,1-.15.546.745.745,0,0,1-.5.282A.69.69,0,0,1-19.824-5.2ZM-9.06.516a.742.742,0,0,1-.57.012.731.731,0,0,1-.414-.4.709.709,0,0,1-.006-.564A.712.712,0,0,1-9.66-.84,12.482,12.482,0,0,0-5.592-3.552q-.264-.264-.5-.48T-6.5-4.38a.807.807,0,0,1-.27-.5.646.646,0,0,1,.15-.528.766.766,0,0,1,.51-.276.652.652,0,0,1,.534.168q.2.156.438.366l.5.45q.216-.312.408-.636t.36-.66A.659.659,0,0,0-3.8-6.594q-.114-.2-.582-.2H-6.012A13.788,13.788,0,0,1-7.356-5.25,12.676,12.676,0,0,1-8.772-4.02a.711.711,0,0,1-.558.126A.69.69,0,0,1-9.8-4.2a.7.7,0,0,1-.126-.552.729.729,0,0,1,.306-.48,11.417,11.417,0,0,0,1.338-1.14A11.323,11.323,0,0,0-7.128-7.71,8.333,8.333,0,0,0-6.3-9.072a.76.76,0,0,1,.414-.39.694.694,0,0,1,.558.006.711.711,0,0,1,.39.414.691.691,0,0,1-.018.57q-.024.06-.054.126a1.25,1.25,0,0,1-.066.126h.924a2.464,2.464,0,0,1,1.422.348,1.274,1.274,0,0,1,.558.966A2.633,2.633,0,0,1-2.508-5.5a9.715,9.715,0,0,1-1.1,1.788q.276.264.5.5t.384.432a.7.7,0,0,1,.168.552.754.754,0,0,1-.288.516.69.69,0,0,1-.546.15.811.811,0,0,1-.51-.27q-.12-.144-.3-.336t-.384-.4A13.69,13.69,0,0,1-9.06.516ZM9.072-1.56a4.47,4.47,0,0,1-1.824.348,1.644,1.644,0,0,1-1.218-.57,2.347,2.347,0,0,1-.438-1.542V-7.14a.708.708,0,0,1,.222-.528.724.724,0,0,1,.522-.216.7.7,0,0,1,.522.216.729.729,0,0,1,.21.528v3.588q0,1.14,1.38.636.54-.2,1.182-.48t1.146-.516a.747.747,0,0,1,.564-.042.711.711,0,0,1,.432.366.709.709,0,0,1,.054.564.671.671,0,0,1-.366.432q-.552.264-1.188.546T9.072-1.56Zm-7.86.768a.744.744,0,0,1-.564.018.712.712,0,0,1-.42-.378.759.759,0,0,1-.018-.57.67.67,0,0,1,.378-.414,4.531,4.531,0,0,0,1.536-1.11,3.905,3.905,0,0,0,.8-1.488,6.462,6.462,0,0,0,.24-1.794.718.718,0,0,1,.216-.528A.7.7,0,0,1,3.9-7.272a.7.7,0,0,1,.522.216.729.729,0,0,1,.21.528A6.756,6.756,0,0,1,3.732-3,5.568,5.568,0,0,1,1.212-.792ZM15.54.816A2.291,2.291,0,0,1,13.98.4a1.876,1.876,0,0,1-.456-1.428,2.84,2.84,0,0,1,.132-.9l-.27.1-.27.1a.766.766,0,0,1-.534,0,.577.577,0,0,1-.342-.36.621.621,0,0,1,.024-.534.669.669,0,0,1,.432-.33,8.384,8.384,0,0,0,1.536-.618,7.358,7.358,0,0,0,1.3-.858H13.044a.552.552,0,0,1-.4-.174.552.552,0,0,1-.174-.4.546.546,0,0,1,.174-.408.562.562,0,0,1,.4-.168H16.6a4.618,4.618,0,0,0,.564-1.032.76.76,0,0,1,.36-.408.667.667,0,0,1,.528-.024.579.579,0,0,1,.384.336.649.649,0,0,1,.012.5q-.06.156-.138.312t-.162.312h4.812a.555.555,0,0,1,.408.168.555.555,0,0,1,.168.408.562.562,0,0,1-.168.4.546.546,0,0,1-.408.174H20.448a6.411,6.411,0,0,0,1.392.888,11.746,11.746,0,0,0,1.524.588.635.635,0,0,1,.4.342.644.644,0,0,1,.03.522.629.629,0,0,1-.4.4.833.833,0,0,1-.582-.006q-.108-.048-.222-.09t-.222-.09a2.982,2.982,0,0,1,.108.852A1.876,1.876,0,0,1,22.02.4a2.291,2.291,0,0,1-1.56.42A2.288,2.288,0,0,1,18.894.4a1.891,1.891,0,0,1-.45-1.428,1.891,1.891,0,0,1,.45-1.428,2.288,2.288,0,0,1,1.566-.42h.048a6.97,6.97,0,0,1-.912-.708,6.523,6.523,0,0,1-.78-.852H17.34a7.581,7.581,0,0,1-.846.834,9.136,9.136,0,0,1-.99.726h.036a2.288,2.288,0,0,1,1.566.42,1.891,1.891,0,0,1,.45,1.428A1.891,1.891,0,0,1,17.106.4,2.288,2.288,0,0,1,15.54.816ZM15.468-6.24a2.359,2.359,0,0,1-1.578-.408,1.83,1.83,0,0,1-.45-1.4,1.851,1.851,0,0,1,.45-1.41,2.334,2.334,0,0,1,1.578-.414,2.331,2.331,0,0,1,1.584.414,1.867,1.867,0,0,1,.444,1.41,1.845,1.845,0,0,1-.444,1.4A2.356,2.356,0,0,1,15.468-6.24Zm5.064,0a2.359,2.359,0,0,1-1.578-.408,1.83,1.83,0,0,1-.45-1.4,1.851,1.851,0,0,1,.45-1.41,2.334,2.334,0,0,1,1.578-.414,2.334,2.334,0,0,1,1.578.414,1.851,1.851,0,0,1,.45,1.41,1.83,1.83,0,0,1-.45,1.4A2.359,2.359,0,0,1,20.532-6.24ZM15.54-.3a.721.721,0,0,0,.522-.144.885.885,0,0,0,.138-.588.858.858,0,0,0-.138-.582.743.743,0,0,0-.522-.138.745.745,0,0,0-.516.138.832.832,0,0,0-.144.582.857.857,0,0,0,.144.588A.723.723,0,0,0,15.54-.3Zm4.92,0a.723.723,0,0,0,.516-.144.857.857,0,0,0,.144-.588.832.832,0,0,0-.144-.582.745.745,0,0,0-.516-.138.745.745,0,0,0-.516.138.832.832,0,0,0-.144.582.857.857,0,0,0,.144.588A.723.723,0,0,0,20.46-.3ZM15.468-7.356A.721.721,0,0,0,15.99-7.5a.813.813,0,0,0,.138-.552.811.811,0,0,0-.138-.558.743.743,0,0,0-.522-.138.745.745,0,0,0-.516.138.786.786,0,0,0-.144.558.789.789,0,0,0,.144.552A.723.723,0,0,0,15.468-7.356Zm5.064,0a.721.721,0,0,0,.522-.144.813.813,0,0,0,.138-.552.811.811,0,0,0-.138-.558.743.743,0,0,0-.522-.138.745.745,0,0,0-.516.138.786.786,0,0,0-.144.558.789.789,0,0,0,.144.552A.723.723,0,0,0,20.532-7.356ZM32.064.972A.858.858,0,0,1,31.482.78a.766.766,0,0,1-.258-.516A.669.669,0,0,1,31.4-.282a.874.874,0,0,1,.546-.282,1.134,1.134,0,0,0,.54-.15.579.579,0,0,0,.12-.438V-4.608q-.552.852-1.218,1.692a12.265,12.265,0,0,1-1.338,1.452.789.789,0,0,1-.546.222.687.687,0,0,1-.534-.222.682.682,0,0,1-.192-.528.656.656,0,0,1,.24-.468,10.85,10.85,0,0,0,.84-.8q.444-.468.876-1.008t.816-1.086q.384-.546.672-1.014H30.636a.6.6,0,0,1-.444-.18A.6.6,0,0,1,30.012-7a.6.6,0,0,1,.18-.444.6.6,0,0,1,.444-.18H32.6V-9.372a.66.66,0,0,1,.2-.5.692.692,0,0,1,.492-.192.707.707,0,0,1,.5.192.66.66,0,0,1,.2.5V-7.62h1.008a.623.623,0,0,1,.45.18A.593.593,0,0,1,35.652-7a.593.593,0,0,1-.186.444.623.623,0,0,1-.45.18H34.008V-.816Q34.008.972,32.064.972Zm-4.68.072a.7.7,0,0,1-.492-.186.641.641,0,0,1-.2-.5v-3.9q-.252.444-.51.858t-.474.7a.7.7,0,0,1-.486.282.714.714,0,0,1-.546-.138.587.587,0,0,1-.24-.45.762.762,0,0,1,.156-.5q.228-.288.522-.726t.594-.936q.3-.5.558-.978t.426-.84v-.108H25.152a.609.609,0,0,1-.438-.18A.593.593,0,0,1,24.528-7a.6.6,0,0,1,.186-.438.6.6,0,0,1,.438-.186h1.536V-9.384a.66.66,0,0,1,.2-.5.692.692,0,0,1,.492-.192.692.692,0,0,1,.492.192.66.66,0,0,1,.2.5V-7.62h1.092a.6.6,0,0,1,.438.186A.6.6,0,0,1,29.8-7a.593.593,0,0,1-.186.444.609.609,0,0,1-.438.18H28.08v.4q.18.2.486.54t.63.666q.324.33.528.534a.567.567,0,0,1,.192.456.74.74,0,0,1-.192.468.6.6,0,0,1-.468.2.7.7,0,0,1-.48-.2q-.132-.144-.318-.366l-.378-.45V.36a.641.641,0,0,1-.2.5A.7.7,0,0,1,27.384,1.044Z" transform="translate(1064 670)" fill="#000979"/><g transform="translate(939 662)"><path d="M7,.5H0A.5.5,0,0,1-.5,0,.5.5,0,0,1,0-.5H7a.5.5,0,0,1,.5.5A.5.5,0,0,1,7,.5Z" transform="translate(0.001 3.501)" fill="#ffd801"/><path d="M0,7.5A.5.5,0,0,1-.5,7V0A.5.5,0,0,1,0-.5.5.5,0,0,1,.5,0V7A.5.5,0,0,1,0,7.5Z" transform="translate(3.501 0.001)" fill="#ffd801"/></g><g transform="translate(1008 662)"><path d="M7,.5H0A.5.5,0,0,1-.5,0,.5.5,0,0,1,0-.5H7a.5.5,0,0,1,.5.5A.5.5,0,0,1,7,.5Z" transform="translate(0 3.501)" fill="#ffd801"/><path d="M0,7.5A.5.5,0,0,1-.5,7V0A.5.5,0,0,1,0-.5.5.5,0,0,1,.5,0V7A.5.5,0,0,1,0,7.5Z" transform="translate(3.5 0.001)" fill="#ffd801"/></g><path d="M6,1.5A4.505,4.505,0,0,0,1.5,6V24A4.505,4.505,0,0,0,6,28.5H233a4.505,4.505,0,0,0,4.5-4.5V6A4.505,4.505,0,0,0,233,1.5H6M6,0H233a6,6,0,0,1,6,6V24a6,6,0,0,1-6,6H6a6,6,0,0,1-6-6V6A6,6,0,0,1,6,0Z" transform="translate(870 611)" fill="#fff"/><path d="M-43.76-.448A16.529,16.529,0,0,1-48.072.04a7.386,7.386,0,0,1-3.152-.728,3.631,3.631,0,0,1-1.752-1.856.886.886,0,0,1,0-.736.923.923,0,0,1,.528-.512.868.868,0,0,1,.728,0,.926.926,0,0,1,.5.528,2.1,2.1,0,0,0,1.248,1.056,6.658,6.658,0,0,0,2.424.36,14.421,14.421,0,0,0,3.352-.472.883.883,0,0,1,.72.12.97.97,0,0,1,.432.6.952.952,0,0,1-.128.72A.94.94,0,0,1-43.76-.448ZM-45.232-9.2a14.23,14.23,0,0,0-1.848-.344,18.614,18.614,0,0,0-1.944-.136,15.989,15.989,0,0,0-1.792.064.941.941,0,0,1-.712-.192.912.912,0,0,1-.36-.64.941.941,0,0,1,.192-.712.912.912,0,0,1,.64-.36,15.81,15.81,0,0,1,2.112-.056q1.152.04,2.248.168a14.756,14.756,0,0,1,1.912.336,1.012,1.012,0,0,1,.592.44.879.879,0,0,1,.112.712.9.9,0,0,1-.424.6A.905.905,0,0,1-45.232-9.2Zm13.1,9.584a.942.942,0,0,1-.3-.672.911.911,0,0,1,.256-.688A8.368,8.368,0,0,0-30.96-2.552a13.9,13.9,0,0,0,.976-1.928A19.521,19.521,0,0,0-32.5-4.96,8.535,8.535,0,0,1-33.84-2.88a4.168,4.168,0,0,1-1.6,1.152,3.063,3.063,0,0,1-1.568.216,2.13,2.13,0,0,1-1.272-.616,1.965,1.965,0,0,1-.5-1.44,2.642,2.642,0,0,1,.528-1.6,3.615,3.615,0,0,1,1.64-1.16,7.909,7.909,0,0,1,2.872-.44,20.358,20.358,0,0,0,.624-2.176q.224-.928-.08-1.24a1.412,1.412,0,0,0-1.184-.2q-.3.048-.784.112t-.752.1a1,1,0,0,1-.7-.24.921.921,0,0,1-.336-.656.967.967,0,0,1,.24-.7.932.932,0,0,1,.656-.328l.832-.08q.5-.048.816-.064a3.376,3.376,0,0,1,2.776.7,3.126,3.126,0,0,1,.392,2.752q-.112.576-.256,1.112t-.3,1.032q.576.064,1.184.184t1.2.264q.128-.544.208-1.064a8.43,8.43,0,0,0,.1-1,1.017,1.017,0,0,1,.28-.68.928.928,0,0,1,.664-.3.926.926,0,0,1,.68.28.873.873,0,0,1,.264.68A9.571,9.571,0,0,1-27.352-7a12.951,12.951,0,0,1-.28,1.3q.5.16.968.328t.92.344a.953.953,0,0,1,.52.528.907.907,0,0,1-.008.736.928.928,0,0,1-.512.512.886.886,0,0,1-.736,0q-.416-.192-.848-.36t-.864-.328a16.109,16.109,0,0,1-1.16,2.4A9.44,9.44,0,0,1-30.768.336a.962.962,0,0,1-.664.288A.984.984,0,0,1-32.128.384Zm-3.984-3.792a2.611,2.611,0,0,0,.784-.544,4.677,4.677,0,0,0,.784-1.056,3.93,3.93,0,0,0-1.8.48,1.068,1.068,0,0,0-.552.816.372.372,0,0,0,.2.36A.712.712,0,0,0-36.112-3.408ZM-11.76-.448A16.529,16.529,0,0,1-16.072.04a7.386,7.386,0,0,1-3.152-.728,3.631,3.631,0,0,1-1.752-1.856.886.886,0,0,1,0-.736.923.923,0,0,1,.528-.512.868.868,0,0,1,.728,0,.926.926,0,0,1,.5.528,2.1,2.1,0,0,0,1.248,1.056,6.658,6.658,0,0,0,2.424.36,14.421,14.421,0,0,0,3.352-.472.883.883,0,0,1,.72.12.97.97,0,0,1,.432.6.952.952,0,0,1-.128.72A.94.94,0,0,1-11.76-.448ZM-13.232-9.2a14.23,14.23,0,0,0-1.848-.344,18.614,18.614,0,0,0-1.944-.136,15.989,15.989,0,0,0-1.792.064.941.941,0,0,1-.712-.192.912.912,0,0,1-.36-.64.941.941,0,0,1,.192-.712.912.912,0,0,1,.64-.36,15.81,15.81,0,0,1,2.112-.056q1.152.04,2.248.168a14.756,14.756,0,0,1,1.912.336,1.012,1.012,0,0,1,.592.44.879.879,0,0,1,.112.712.9.9,0,0,1-.424.6A.905.905,0,0,1-13.232-9.2ZM-.128.384a.942.942,0,0,1-.3-.672A.911.911,0,0,1-.176-.976,8.368,8.368,0,0,0,1.04-2.552,13.9,13.9,0,0,0,2.016-4.48,19.521,19.521,0,0,0-.5-4.96,8.535,8.535,0,0,1-1.84-2.88a4.168,4.168,0,0,1-1.6,1.152,3.063,3.063,0,0,1-1.568.216A2.13,2.13,0,0,1-6.28-2.128a1.965,1.965,0,0,1-.5-1.44,2.642,2.642,0,0,1,.528-1.6,3.615,3.615,0,0,1,1.64-1.16,7.909,7.909,0,0,1,2.872-.44A20.358,20.358,0,0,0-1.12-8.944q.224-.928-.08-1.24a1.412,1.412,0,0,0-1.184-.2q-.3.048-.784.112t-.752.1a1,1,0,0,1-.7-.24.921.921,0,0,1-.336-.656.968.968,0,0,1,.24-.7.932.932,0,0,1,.656-.328l.832-.08q.5-.048.816-.064a3.376,3.376,0,0,1,2.776.7A3.126,3.126,0,0,1,.752-8.784Q.64-8.208.5-7.672T.192-6.64q.576.064,1.184.184t1.2.264q.128-.544.208-1.064a8.429,8.429,0,0,0,.1-1,1.017,1.017,0,0,1,.28-.68.928.928,0,0,1,.664-.3.926.926,0,0,1,.68.28.873.873,0,0,1,.264.68A9.571,9.571,0,0,1,4.648-7a12.951,12.951,0,0,1-.28,1.3q.5.16.968.328t.92.344a.953.953,0,0,1,.52.528.907.907,0,0,1-.008.736.928.928,0,0,1-.512.512.886.886,0,0,1-.736,0q-.416-.192-.848-.36t-.864-.328a16.109,16.109,0,0,1-1.16,2.4A9.44,9.44,0,0,1,1.232.336.962.962,0,0,1,.568.624.984.984,0,0,1-.128.384ZM-4.112-3.408a2.611,2.611,0,0,0,.784-.544,4.677,4.677,0,0,0,.784-1.056,3.93,3.93,0,0,0-1.8.48,1.068,1.068,0,0,0-.552.816.372.372,0,0,0,.2.36A.712.712,0,0,0-4.112-3.408Zm14.336.784a.975.975,0,0,1-.744.176.947.947,0,0,1-.648-.4.948.948,0,0,1-.168-.744.976.976,0,0,1,.408-.648,11.616,11.616,0,0,0,1.584-1.352A15.294,15.294,0,0,0,12.08-7.248a12.273,12.273,0,0,0,1.024-1.6,1.044,1.044,0,0,1,.576-.512.885.885,0,0,1,.736.032.949.949,0,0,1,.5.568.924.924,0,0,1-.056.76,14.039,14.039,0,0,1-1.2,1.888,18.707,18.707,0,0,1-1.624,1.9A14.032,14.032,0,0,1,10.224-2.624ZM22.56-2.7a.952.952,0,0,1-.752.1.96.96,0,0,1-.608-.456q-.288-.48-.736-1.1T19.48-5.44q-.536-.656-1.1-1.256t-1.04-1.032a.935.935,0,0,1-.32-.688.984.984,0,0,1,.256-.72.948.948,0,0,1,.7-.288,1.034,1.034,0,0,1,.712.272q.528.5,1.136,1.136T21.016-6.68q.584.7,1.08,1.376a13.543,13.543,0,0,1,.816,1.24.978.978,0,0,1,.112.752A.921.921,0,0,1,22.56-2.7ZM21.6-8.672a1.558,1.558,0,0,1-1.144-.472,1.558,1.558,0,0,1-.472-1.144,1.558,1.558,0,0,1,.472-1.144A1.558,1.558,0,0,1,21.6-11.9a1.558,1.558,0,0,1,1.144.472,1.558,1.558,0,0,1,.472,1.144,1.558,1.558,0,0,1-.472,1.144A1.558,1.558,0,0,1,21.6-8.672Zm0-.928a.664.664,0,0,0,.488-.2.664.664,0,0,0,.2-.488.664.664,0,0,0-.2-.488.664.664,0,0,0-.488-.2.664.664,0,0,0-.488.2.664.664,0,0,0-.2.488.664.664,0,0,0,.2.488A.664.664,0,0,0,21.6-9.6ZM30.272.672a.843.843,0,0,1-.664.016A.827.827,0,0,1,29.12.24.865.865,0,0,1,29.1-.432a.828.828,0,0,1,.448-.48,10.44,10.44,0,0,0,2.68-1.672,6.911,6.911,0,0,0,1.64-2.16,9.461,9.461,0,0,0,.816-2.808.8.8,0,0,1,.344-.576.883.883,0,0,1,.648-.16.824.824,0,0,1,.568.336A.816.816,0,0,1,36.4-7.3a10.325,10.325,0,0,1-1.912,4.744A10.6,10.6,0,0,1,30.272.672Zm2.112-5.216a.843.843,0,0,1-.656-.04.869.869,0,0,1-.432-.488q-.176-.464-.44-1.056t-.44-.944a.958.958,0,0,1-.08-.664.781.781,0,0,1,.384-.52.856.856,0,0,1,.672-.1.749.749,0,0,1,.512.408q.24.448.536,1.1a12.4,12.4,0,0,1,.488,1.224.766.766,0,0,1-.04.656A.858.858,0,0,1,32.384-4.544Zm-2.624.608a.785.785,0,0,1-.648.008.926.926,0,0,1-.488-.456q-.256-.528-.536-1.032t-.5-.856a.879.879,0,0,1-.152-.656.825.825,0,0,1,.344-.56.844.844,0,0,1,.648-.152.83.83,0,0,1,.568.344,11.159,11.159,0,0,1,.656,1.08q.352.648.56,1.144a.764.764,0,0,1,.024.656A.852.852,0,0,1,29.76-3.936ZM44.128.544a.965.965,0,0,1-.76.008,1.014,1.014,0,0,1-.552-.52.945.945,0,0,1-.008-.752.95.95,0,0,1,.52-.544,17.274,17.274,0,0,0,4.592-2.9A13.339,13.339,0,0,0,50.976-8.1q.272-.512.1-.768t-.824-.256H48.128a20.311,20.311,0,0,1-1.712,1.992,13.205,13.205,0,0,1-1.968,1.672.9.9,0,0,1-.728.168.976.976,0,0,1-.648-.408.985.985,0,0,1-.152-.744.92.92,0,0,1,.408-.632,12.023,12.023,0,0,0,1.744-1.456,16.154,16.154,0,0,0,1.544-1.784,9.771,9.771,0,0,0,1.1-1.832.95.95,0,0,1,.544-.52.9.9,0,0,1,.752.024.95.95,0,0,1,.52.544.9.9,0,0,1-.024.752,2.239,2.239,0,0,1-.16.32h1.1a2.814,2.814,0,0,1,2.536.976,2.651,2.651,0,0,1-.168,2.64A14.47,14.47,0,0,1,50.68-4.192,17.733,17.733,0,0,1,47.7-1.464,17.769,17.769,0,0,1,44.128.544Z" transform="translate(990 632.5)" fill="#fff"/><rect width="30" height="187" rx="4" transform="translate(1130 567)" fill="#ffd801"/><path d="M6.524-1.414a4,4,0,0,1-3.045.105A2.342,2.342,0,0,1,2.366-3.64v-4.8a.827.827,0,0,1,.259-.616.845.845,0,0,1,.609-.252.838.838,0,0,1,.616.252.838.838,0,0,1,.252.616v4.62q0,.742.42.931a2.165,2.165,0,0,0,1.4-.119A15.258,15.258,0,0,0,8.659-4.193,19.931,19.931,0,0,0,11.13-5.782a.9.9,0,0,1,.651-.168.827.827,0,0,1,.581.336.833.833,0,0,1,.161.637.87.87,0,0,1-.329.581,16.768,16.768,0,0,1-1.659,1.113Q9.6-2.73,8.575-2.247A20.331,20.331,0,0,1,6.524-1.414ZM3.668,13.454A.826.826,0,0,1,3,13.426a.854.854,0,0,1-.455-.49.826.826,0,0,1,.028-.665.854.854,0,0,1,.49-.455,19.01,19.01,0,0,0,2.261-.966A22.684,22.684,0,0,0,7.511,9.6a19.719,19.719,0,0,0,1.9-1.4A10.472,10.472,0,0,0,10.822,6.8a.894.894,0,0,1,.595-.322.761.761,0,0,1,.623.2.843.843,0,0,1,.322.581.8.8,0,0,1-.2.637A11.387,11.387,0,0,1,10.64,9.387a23.3,23.3,0,0,1-2.128,1.561q-1.176.77-2.422,1.428A18.6,18.6,0,0,1,3.668,13.454Zm1.2-5.516q-.532-.448-1.19-.931a13.377,13.377,0,0,0-1.19-.791A.863.863,0,0,1,2.1,5.677a.841.841,0,0,1,.1-.651.891.891,0,0,1,.539-.4.789.789,0,0,1,.651.105q.378.238.861.581t.938.679q.455.336.749.574a.87.87,0,0,1,.329.581.8.8,0,0,1-.175.637.87.87,0,0,1-.581.329A.8.8,0,0,1,4.872,7.938ZM3.43,28.6a.865.865,0,0,1-.665.014.853.853,0,0,1-.483-.462A.873.873,0,0,1,2.73,27.02a14.563,14.563,0,0,0,4.746-3.164q-.308-.308-.588-.56t-.476-.406A.942.942,0,0,1,6.1,22.3a.754.754,0,0,1,.175-.616.894.894,0,0,1,.595-.322.761.761,0,0,1,.623.2q.238.182.511.427t.581.525q.252-.364.476-.742t.42-.77a.768.768,0,0,0,.091-.693q-.133-.231-.679-.231h-1.9a16.086,16.086,0,0,1-1.568,1.8A14.788,14.788,0,0,1,3.766,23.31a.83.83,0,0,1-.651.147.8.8,0,0,1-.553-.357.818.818,0,0,1-.147-.644.85.85,0,0,1,.357-.56,13.32,13.32,0,0,0,1.561-1.33,13.21,13.21,0,0,0,1.351-1.561,9.721,9.721,0,0,0,.966-1.589.887.887,0,0,1,.483-.455.81.81,0,0,1,.651.007.83.83,0,0,1,.455.483.806.806,0,0,1-.021.665q-.028.07-.063.147a1.458,1.458,0,0,1-.077.147H9.156a2.875,2.875,0,0,1,1.659.406,1.486,1.486,0,0,1,.651,1.127,3.072,3.072,0,0,1-.392,1.645,11.334,11.334,0,0,1-1.288,2.086q.322.308.588.588t.448.5a.812.812,0,0,1,.2.644.879.879,0,0,1-.336.6.8.8,0,0,1-.637.175.947.947,0,0,1-.6-.315q-.14-.168-.35-.392t-.448-.462A15.972,15.972,0,0,1,3.43,28.6ZM10.584,40.18a5.215,5.215,0,0,1-2.128.406,1.918,1.918,0,0,1-1.421-.665,2.739,2.739,0,0,1-.511-1.8V33.67a.827.827,0,0,1,.259-.616.845.845,0,0,1,.609-.252A.815.815,0,0,1,8,33.054a.85.85,0,0,1,.245.616v4.186q0,1.33,1.61.742.63-.238,1.379-.56t1.337-.6a.872.872,0,0,1,.658-.049.877.877,0,0,1,.567,1.085.783.783,0,0,1-.427.5q-.644.308-1.386.637T10.584,40.18Zm-9.17.9a.868.868,0,0,1-.658.021.831.831,0,0,1-.49-.441.885.885,0,0,1-.021-.665.782.782,0,0,1,.441-.483,5.286,5.286,0,0,0,1.792-1.295,4.556,4.556,0,0,0,.938-1.736,7.539,7.539,0,0,0,.28-2.093.838.838,0,0,1,.252-.616.853.853,0,0,1,1.211,0,.85.85,0,0,1,.245.616A7.882,7.882,0,0,1,4.354,38.5,6.5,6.5,0,0,1,1.414,41.076Zm10.57,13.188a10.512,10.512,0,0,1-1.813-2.093A10.313,10.313,0,0,1,8.89,49.434,14.307,14.307,0,0,1,7.574,52.1,9.9,9.9,0,0,1,5.782,54.25a.856.856,0,0,1-.644.217.791.791,0,0,1-.6-.3.688.688,0,0,1-.147-.553.846.846,0,0,1,.287-.511,8.763,8.763,0,0,0,1.575-1.834,14.021,14.021,0,0,0,1.19-2.254,17.317,17.317,0,0,0,.791-2.324,1.077,1.077,0,0,0-.672-.168H6.174a.759.759,0,0,1-.581-.231.8.8,0,0,1-.217-.567.779.779,0,0,1,.217-.553.759.759,0,0,1,.581-.231H7.728a2.3,2.3,0,0,1,1.491.385A2.009,2.009,0,0,1,9.772,46.7a8.986,8.986,0,0,0,.581,2.4,9.882,9.882,0,0,0,1.162,2.142A10.224,10.224,0,0,0,13.1,53a.816.816,0,0,1,.294.546.7.7,0,0,1-.168.574.983.983,0,0,1-.6.322A.771.771,0,0,1,11.984,54.264Zm-3.458,2.59a13.968,13.968,0,0,1-3.234-.3,4.06,4.06,0,0,1-1.946-1.029q-.182.14-.469.35l-.553.406q-.266.2-.406.294a.868.868,0,0,1-.651.14.736.736,0,0,1-.553-.364.81.81,0,0,1-.105-.63.74.74,0,0,1,.385-.5l.651-.364.749-.42V51.45a.738.738,0,0,0-.112-.476.6.6,0,0,0-.448-.126H1.246A.687.687,0,0,1,.7,50.624a.781.781,0,0,1-.2-.532.756.756,0,0,1,.2-.525.7.7,0,0,1,.546-.217H2.464a1.324,1.324,0,0,1,1.5,1.5V54.11a3.011,3.011,0,0,0,.882.693,4.364,4.364,0,0,0,1.393.4,16.7,16.7,0,0,0,2.289.126q1.19,0,2.219-.042t1.8-.1a.951.951,0,0,1,.693.2.724.724,0,0,1,.273.588.862.862,0,0,1-.224.616.941.941,0,0,1-.714.238q-.616,0-1.372.007l-1.47.014Q9.016,56.854,8.526,56.854ZM3.038,47.362a6.373,6.373,0,0,0-.5-.469q-.3-.259-.6-.511t-.539-.42a.637.637,0,0,1-.259-.511A.814.814,0,0,1,1.33,44.9a.814.814,0,0,1,1.106-.14q.266.2.588.448t.623.5q.3.252.5.434a.71.71,0,0,1,.266.567.814.814,0,0,1-.252.6.782.782,0,0,1-.553.273A.706.706,0,0,1,3.038,47.362Zm3.85,22.974a.825.825,0,0,1-.266-.588.8.8,0,0,1,.224-.6A7.322,7.322,0,0,0,7.91,67.767a12.163,12.163,0,0,0,.854-1.687,17.081,17.081,0,0,0-2.2-.42A7.469,7.469,0,0,1,5.39,67.48a3.647,3.647,0,0,1-1.4,1.008,2.68,2.68,0,0,1-1.372.189A1.864,1.864,0,0,1,1.5,68.138a1.72,1.72,0,0,1-.441-1.26,2.312,2.312,0,0,1,.462-1.4,3.163,3.163,0,0,1,1.435-1.015,6.921,6.921,0,0,1,2.513-.385,17.813,17.813,0,0,0,.546-1.9q.2-.812-.07-1.085a1.236,1.236,0,0,0-1.036-.175q-.266.042-.686.1T3.57,61.1a.871.871,0,0,1-.616-.21.806.806,0,0,1-.294-.574.847.847,0,0,1,.21-.609.816.816,0,0,1,.574-.287l.728-.07q.434-.042.714-.056a2.954,2.954,0,0,1,2.429.616,2.735,2.735,0,0,1,.343,2.408q-.1.5-.224.973t-.266.9q.5.056,1.036.161t1.05.231q.112-.476.182-.931a7.376,7.376,0,0,0,.084-.875.89.89,0,0,1,.245-.6.812.812,0,0,1,1.176-.014.764.764,0,0,1,.231.6,8.375,8.375,0,0,1-.105,1.113,11.332,11.332,0,0,1-.245,1.141q.434.14.847.287t.8.3a.834.834,0,0,1,.455.462.794.794,0,0,1-.007.644.812.812,0,0,1-.448.448.776.776,0,0,1-.644,0q-.364-.168-.742-.315t-.756-.287a14.1,14.1,0,0,1-1.015,2.1,8.26,8.26,0,0,1-1.239,1.638.842.842,0,0,1-.581.252A.861.861,0,0,1,6.888,70.336ZM3.4,67.018a2.284,2.284,0,0,0,.686-.476,4.092,4.092,0,0,0,.686-.924,3.439,3.439,0,0,0-1.575.42.935.935,0,0,0-.483.714.325.325,0,0,0,.175.315A.623.623,0,0,0,3.4,67.018Zm5.1,16.94a.855.855,0,0,1-.658-.1.841.841,0,0,1,.224-1.54A4.2,4.2,0,0,0,10.353,81a3.559,3.559,0,0,0,.735-2.31,3.182,3.182,0,0,0-.392-1.582,3.05,3.05,0,0,0-1.113-1.134,4.076,4.076,0,0,0-1.729-.532,18.507,18.507,0,0,1-.847,4.067,8.1,8.1,0,0,1-1.4,2.646,2.265,2.265,0,0,1-1.687.931,2.306,2.306,0,0,1-1.358-.434,2.91,2.91,0,0,1-.973-1.246,4.815,4.815,0,0,1-.357-1.946A5.378,5.378,0,0,1,2.926,75.5a5.887,5.887,0,0,1,1.911-1.2,6.52,6.52,0,0,1,2.415-.434,6.346,6.346,0,0,1,2.835.609,4.837,4.837,0,0,1,1.953,1.694,4.491,4.491,0,0,1,.714,2.527,5.227,5.227,0,0,1-1.085,3.381A5.729,5.729,0,0,1,8.5,83.958Zm-4.564-2.59q.252,0,.581-.427A5.705,5.705,0,0,0,5.18,79.73,13.265,13.265,0,0,0,5.8,77.875a16.3,16.3,0,0,0,.42-2.373,4.122,4.122,0,0,0-1.834.805,3.886,3.886,0,0,0-1.12,1.414,4.206,4.206,0,0,0-.392,1.715,2.79,2.79,0,0,0,.3,1.442A.882.882,0,0,0,3.934,81.368Zm4.4,17.22a.862.862,0,0,1-.595-.259.764.764,0,0,1-.231-.6.815.815,0,0,1,.252-.609.785.785,0,0,1,.6-.231A3.2,3.2,0,0,0,10.1,96.53a1.267,1.267,0,0,0,.6-1.148,1.249,1.249,0,0,0-.651-1.134,3.621,3.621,0,0,0-1.855-.392q-.476,0-.91.042t-.84.112v1.764a2.954,2.954,0,0,1-.658,2.121,2.531,2.531,0,0,1-1.9.679,2.67,2.67,0,0,1-1.68-.518A1.955,1.955,0,0,1,1.526,96.4,2.957,2.957,0,0,1,2.4,94.318a5.809,5.809,0,0,1,2.387-1.442V90.79q-.6.056-1.169.084t-1.057.042a.846.846,0,0,1-.6-.238.777.777,0,0,1-.252-.588.787.787,0,0,1,.245-.588.822.822,0,0,1,.595-.238q.49-.014,1.064-.042t1.176-.07V87.43a.84.84,0,0,1,.238-.609.828.828,0,0,1,1.176,0,.84.84,0,0,1,.238.609v1.582q.322-.028.6-.07t.546-.07a.866.866,0,0,1,.63.126.744.744,0,0,1,.336.532.72.72,0,0,1-.154.6.883.883,0,0,1-.56.308q-.294.056-.651.1t-.749.1v1.848a11.988,11.988,0,0,1,1.778-.126,6.147,6.147,0,0,1,2.226.364,3.212,3.212,0,0,1,1.449,1.043,2.613,2.613,0,0,1,.511,1.617,2.9,2.9,0,0,1-1.078,2.408A4.489,4.489,0,0,1,8.33,98.588Zm3.052-6.8q-.224-.168-.546-.371t-.644-.392q-.322-.189-.56-.3a.9.9,0,0,1-.441-.476.761.761,0,0,1,.007-.63.8.8,0,0,1,.5-.434.84.84,0,0,1,.637.056q.294.14.672.364t.749.455q.371.231.609.413a.735.735,0,0,1,.322.532.855.855,0,0,1-.154.616.837.837,0,0,1-1.148.168Zm-7.5,5.194a.914.914,0,0,0,.665-.238,1.376,1.376,0,0,0,.245-.966v-1.26a3.374,3.374,0,0,0-1.169.833,1.529,1.529,0,0,0-.413,1Q3.206,96.978,3.878,96.978Zm5.348,16.17a.925.925,0,0,1-.637-.217.765.765,0,0,1-.259-.567.8.8,0,0,1,.189-.581.839.839,0,0,1,.553-.273,1.308,1.308,0,0,0,.609-.154q.147-.112.147-.5v-1.568H5.236a.67.67,0,0,1-.658-.658.625.625,0,0,1,.2-.469.644.644,0,0,1,.462-.189H9.828V107.3H5.446a.609.609,0,0,1-.455-.2.644.644,0,0,1-.189-.462.637.637,0,0,1,.189-.469.62.62,0,0,1,.455-.189h7.308a.614.614,0,0,1,.462.189.65.65,0,0,1,.182.469.657.657,0,0,1-.182.462.6.6,0,0,1-.462.2h-1.3v.672h1.5a.646.646,0,0,1,.658.658.644.644,0,0,1-.189.462.625.625,0,0,1-.469.2h-1.5v1.806a2.038,2.038,0,0,1-.525,1.61A2.605,2.605,0,0,1,9.226,113.148Zm-.812-7.742a5.8,5.8,0,0,1-1.736-.2,1.351,1.351,0,0,1-.847-.679,2.986,2.986,0,0,1-.231-1.288V102.8a3.026,3.026,0,0,1,.231-1.3,1.351,1.351,0,0,1,.847-.679,5.8,5.8,0,0,1,1.736-.2h1.3a5.784,5.784,0,0,1,1.743.2,1.349,1.349,0,0,1,.84.679,3.026,3.026,0,0,1,.231,1.3v.434a2.986,2.986,0,0,1-.231,1.288,1.349,1.349,0,0,1-.84.679,5.784,5.784,0,0,1-1.743.2Zm-5.208,7.812a.777.777,0,0,1-.784-.8v-4.746q-.154.14-.3.287t-.3.273a1.073,1.073,0,0,1-.623.252.674.674,0,0,1-.6-.252.843.843,0,0,1-.217-.574.644.644,0,0,1,.245-.5,14.138,14.138,0,0,0,1.008-.994q.546-.588,1.05-1.218a12.1,12.1,0,0,0,.826-1.148.756.756,0,0,1,.5-.357.791.791,0,0,1,.609.091.775.775,0,0,1,.364.469.714.714,0,0,1-.084.581q-.182.308-.413.637T4,105.868v6.552a.765.765,0,0,1-.231.574A.783.783,0,0,1,3.206,113.218Zm-1.148-9.184a1.064,1.064,0,0,1-.63.21.744.744,0,0,1-.588-.308.727.727,0,0,1-.168-.581.744.744,0,0,1,.308-.525q.378-.266.84-.651t.9-.805q.434-.42.728-.742A.748.748,0,0,1,4,100.359a.7.7,0,0,1,.567.2.807.807,0,0,1,.266.525.732.732,0,0,1-.182.553q-.308.364-.749.805t-.917.854Q2.506,103.712,2.058,104.034Zm4.886,7.588q-.112-.126-.322-.329l-.42-.406q-.21-.2-.35-.315a.695.695,0,0,1-.042-.966.73.73,0,0,1,1.036-.084,3.643,3.643,0,0,1,.371.315l.455.427q.224.21.336.322a.654.654,0,0,1,.231.5.75.75,0,0,1-.245.518.735.735,0,0,1-.539.224A.667.667,0,0,1,6.944,111.622Zm.35-9.142h3.528a.709.709,0,0,0-.266-.581,1.816,1.816,0,0,0-.84-.133h-1.3a1.865,1.865,0,0,0-.847.133A.7.7,0,0,0,7.294,102.48Zm1.12,1.792h1.3a1.736,1.736,0,0,0,.84-.14.715.715,0,0,0,.266-.574H7.294a.7.7,0,0,0,.273.574A1.782,1.782,0,0,0,8.414,104.272Zm-1.82,22.652a2.777,2.777,0,0,1-1.757-.539,2.1,2.1,0,0,1-.014-3.108,2.715,2.715,0,0,1,1.8-.567,7.622,7.622,0,0,1,.812.042v-2.646a.816.816,0,0,1,.238-.6.845.845,0,0,1,1.176,0,.816.816,0,0,1,.238.6v3.024a9.509,9.509,0,0,1,1.435.581,9.659,9.659,0,0,1,1.2.707.836.836,0,0,1,.336.553.849.849,0,0,1-.693.959.818.818,0,0,1-.623-.14,6.2,6.2,0,0,0-.763-.511q-.427-.245-.889-.455a2.192,2.192,0,0,1-.714,1.561A2.654,2.654,0,0,1,6.594,126.924ZM2.87,123.046a.919.919,0,0,1-.609.224.79.79,0,0,1-.581-.238.83.83,0,0,1-.252-.609.724.724,0,0,1,.266-.581A8.546,8.546,0,0,0,3.1,120.218a10.213,10.213,0,0,0,1-1.89q-.378.056-.735.084l-.679.056a.842.842,0,0,1-.616-.21.824.824,0,0,1-.266-.616.755.755,0,0,1,.21-.581.864.864,0,0,1,.616-.245q.448-.028.945-.084t1-.126a4.379,4.379,0,0,0,.091-.658q.021-.336.021-.644a.822.822,0,0,1,.238-.6.787.787,0,0,1,.588-.245.833.833,0,0,1,.6.245.754.754,0,0,1,.238.6,9.521,9.521,0,0,1-.084.994q.1-.028.189-.049t.175-.035a.852.852,0,0,1,.644.084.739.739,0,0,1,.364.532.8.8,0,0,1-.119.63.864.864,0,0,1-.525.364q-.224.056-.511.112t-.595.112a12.038,12.038,0,0,1-1.211,2.772A9.426,9.426,0,0,1,2.87,123.046Zm8.078-3.71a11.175,11.175,0,0,0-1.057-.574,7.586,7.586,0,0,0-1.071-.434.96.96,0,0,1-.5-.392.75.75,0,0,1-.1-.616.8.8,0,0,1,1.008-.6,7.361,7.361,0,0,1,.924.322q.5.21.973.448a7.116,7.116,0,0,1,.777.448.767.767,0,0,1,.343.532.849.849,0,0,1-.133.644.763.763,0,0,1-.525.343A.872.872,0,0,1,10.948,119.336ZM6.58,125.384a.869.869,0,0,0,.658-.21.917.917,0,0,0,.2-.644v-.238a3.015,3.015,0,0,0-.441-.077q-.217-.021-.413-.021a1.022,1.022,0,0,0-.637.161.532.532,0,0,0-.2.441.525.525,0,0,0,.2.427A1.018,1.018,0,0,0,6.58,125.384ZM3.962,141.2a.791.791,0,0,1-.539-.2.7.7,0,0,1-.231-.553v-3.962q-.35.518-.721,1.008a9.426,9.426,0,0,1-.693.826.846.846,0,0,1-.539.252.687.687,0,0,1-.553-.2.691.691,0,0,1-.231-.5.664.664,0,0,1,.2-.5,9.887,9.887,0,0,0,.777-.9q.441-.567.868-1.176T3.01,134.2H1.316a.687.687,0,0,1-.5-.21.7.7,0,0,1-.21-.518.687.687,0,0,1,.21-.5.687.687,0,0,1,.5-.21H3.192v-3.794a.72.72,0,0,1,.231-.56.776.776,0,0,1,.539-.21.731.731,0,0,1,.756.77v3.794H6.23a.717.717,0,0,1,.714.714.7.7,0,0,1-.21.518.687.687,0,0,1-.5.21H4.718v.084l.6.637q.35.371.7.714t.56.525a.774.774,0,0,1,.224.42.663.663,0,0,1,.35-.126q.658-.1,1.547-.259t1.785-.343v-6.874a.737.737,0,0,1,.231-.574.794.794,0,0,1,.553-.21.819.819,0,0,1,.56.21.726.726,0,0,1,.238.574v6.566l.448-.105.392-.091a.738.738,0,0,1,.581.1.692.692,0,0,1,.315.476.849.849,0,0,1-.084.574.657.657,0,0,1-.462.322q-.266.056-.567.126t-.623.14v3.332a.731.731,0,0,1-.238.567.8.8,0,0,1-.56.217.779.779,0,0,1-.553-.217.742.742,0,0,1-.231-.567v-3q-.812.168-1.624.315T7.392,138a.84.84,0,0,1-.616-.119.692.692,0,0,1-.308-.525l-.014-.042a.614.614,0,0,1-.441.112.7.7,0,0,1-.427-.21q-.168-.154-.4-.406t-.469-.532v4.172A.721.721,0,0,1,4.5,141,.759.759,0,0,1,3.962,141.2Zm5.124-9.226q-.126-.126-.364-.322t-.476-.4q-.238-.2-.392-.315a.676.676,0,0,1-.238-.5.718.718,0,0,1,.182-.525.8.8,0,0,1,.511-.266.784.784,0,0,1,.553.168q.154.112.4.308t.5.392a4.33,4.33,0,0,1,.392.336.671.671,0,0,1,.238.525.79.79,0,0,1-.756.791A.747.747,0,0,1,9.086,131.978ZM8.736,135q-.14-.126-.378-.315l-.483-.385q-.245-.2-.4-.308a.623.623,0,0,1-.252-.49.76.76,0,0,1,.168-.532.779.779,0,0,1,.5-.273.767.767,0,0,1,.56.161q.154.112.406.3l.5.378q.252.189.392.315a.716.716,0,0,1,.252.525.776.776,0,0,1-.21.567.756.756,0,0,1-.518.245A.722.722,0,0,1,8.736,135Zm-3.248-2.674a.664.664,0,0,1-.371-.357.6.6,0,0,1,.007-.5q.1-.2.224-.518t.252-.637q.126-.315.182-.511a.7.7,0,0,1,.378-.413.681.681,0,0,1,.532-.021.746.746,0,0,1,.4.322.6.6,0,0,1,.021.532q-.07.224-.2.56t-.266.658q-.133.322-.231.532a.67.67,0,0,1-.378.343A.759.759,0,0,1,5.488,132.328Zm-3.094-.042a.766.766,0,0,1-.546.021.613.613,0,0,1-.364-.4q-.056-.2-.175-.5t-.245-.609q-.126-.308-.21-.49a.647.647,0,0,1,.014-.511.64.64,0,0,1,.378-.343.715.715,0,0,1,.546-.007.66.66,0,0,1,.364.385q.084.168.217.483t.259.63q.126.315.182.5a.56.56,0,0,1-.014.5A.774.774,0,0,1,2.394,132.286Zm-.756,22.372a.692.692,0,0,1-.532-.21.713.713,0,0,1-.2-.5.731.731,0,0,1,.2-.518.692.692,0,0,1,.532-.21H4.046a.361.361,0,0,1-.077-.07.985.985,0,0,1-.063-.084q-.112-.182-.3-.455t-.385-.532q-.2-.259-.308-.4a.712.712,0,0,1-.161-.553.694.694,0,0,1,.273-.5.876.876,0,0,1,.616-.182.794.794,0,0,1,.56.294q.112.14.315.413l.4.539q.2.266.294.42a.751.751,0,0,1,.147.581.83.83,0,0,1-.3.525H6.118v-2.8H2.506a.687.687,0,0,1-.546-.224.781.781,0,0,1-.2-.532.756.756,0,0,1,.2-.525.7.7,0,0,1,.546-.217H6.118v-1.106H4.41a.692.692,0,0,1-.532-.21.731.731,0,0,1-.2-.518.747.747,0,0,1,.154-.476q-.588.42-1.169.8t-1.085.679a1.009,1.009,0,0,1-.693.112.817.817,0,0,1-.553-.378.759.759,0,0,1-.091-.651.8.8,0,0,1,.4-.483q.644-.336,1.358-.8t1.414-.994q.7-.532,1.309-1.064t1.057-1.008A1.782,1.782,0,0,1,7,142.219a1.581,1.581,0,0,1,1.19.525,14.328,14.328,0,0,0,1.085.966q.637.518,1.351,1.036t1.414.952q.7.434,1.274.714a.816.816,0,0,1,.434.546.862.862,0,0,1-.084.714.966.966,0,0,1-.6.441.98.98,0,0,1-.742-.119q-.532-.308-1.2-.749t-1.344-.952q-.679-.511-1.281-1.022a10.784,10.784,0,0,1-1.008-.959.515.515,0,0,0-.854-.014,14.045,14.045,0,0,1-1.106,1.008q-.658.546-1.4,1.092a.623.623,0,0,1,.28-.056H9.548a.7.7,0,0,1,.539.217.741.741,0,0,1,.2.525.707.707,0,0,1-.742.728H7.882v1.106h3.57a.7.7,0,0,1,.539.217.741.741,0,0,1,.2.525.766.766,0,0,1-.2.532.692.692,0,0,1-.539.224H7.882v2.8H8.9a.8.8,0,0,1-.252-.476.691.691,0,0,1,.126-.518q.1-.14.266-.413t.336-.553l.252-.42a.768.768,0,0,1,.49-.378.832.832,0,0,1,.616.07.721.721,0,0,1,.378.476.791.791,0,0,1-.07.6l-.266.455q-.168.287-.336.56t-.28.427a.347.347,0,0,1-.063.091l-.077.077H12.25a.692.692,0,0,1,.532.21.731.731,0,0,1,.2.518.713.713,0,0,1-.2.5.692.692,0,0,1-.532.21Z" transform="translate(1138.5 588.5)" fill="#000664"/><path d="M5.492,1.494a1.024,1.024,0,0,1,1.769,0l4.616,7.919h-11Z" transform="translate(1121.015 730.877) rotate(-90)" fill="#ffd801"/></g></svg>