<svg xmlns="http://www.w3.org/2000/svg" width="179.854" height="192.558" viewBox="0 0 179.854 192.558"><g transform="matrix(0.996, -0.087, 0.087, 0.996, 0, 14.371)"><g transform="translate(1.732 15.939)"><path d="M222.7,119.261a8.142,8.142,0,0,0-3.69-.412l-9.724.377a.823.823,0,0,1-.167.126,4.47,4.47,0,0,0-1.534,4.327,5.55,5.55,0,0,0,3,3.371,11.931,11.931,0,0,0,4.878,1.052,12.513,12.513,0,0,0,5.462-.783,6.044,6.044,0,0,0,3.517-3.6,3.811,3.811,0,0,0-1.373-4.269.336.336,0,0,1-.065-.038.849.849,0,0,1-.3-.155" transform="translate(-89.216 -66.04)" fill="#fff"/><path d="M71.614,120.985a4.189,4.189,0,0,0-.064-1.978,7.424,7.424,0,0,1-.168-2,26.487,26.487,0,0,1-4.606-.637,8.225,8.225,0,0,0,.206,3.27,3.531,3.531,0,0,0,2.206,2.407,2.02,2.02,0,0,0,2.426-1.062" transform="translate(-29.858 -65.006)" fill="#fff"/><path d="M59.91,107.651a.87.87,0,0,1-.789-.823L53.2,102.334a2.417,2.417,0,0,0-1.225-.631,1.206,1.206,0,0,0-.854.571,5.756,5.756,0,0,0-.6,1.348l-.01.021A23.744,23.744,0,0,0,72.843,108l-1.763-3.489a16.93,16.93,0,0,1-11.169,3.136" transform="translate(-23.032 -58.821)" fill="#fff"/><path d="M138.13,117.435a22.2,22.2,0,0,0,13.172-12.27,26.772,26.772,0,0,0-13.172,12.27" transform="translate(-59.973 -60.282)" fill="#fff"/><path d="M103.656,118.665a56.474,56.474,0,0,0-5.339-5.291.76.76,0,0,0-.213-.145.843.843,0,0,0-.855.079,25.925,25.925,0,0,0-6.339,6.719.856.856,0,0,0,.062,1.025,39.116,39.116,0,0,0,4.919,4.443l.761.611a.849.849,0,0,0,1.215-.153,40.211,40.211,0,0,1,5.11-5.526l.619-.585a.861.861,0,0,0,.06-1.179m-3.2,1.824c-.994.908-1.8,1.666-2.6,2.427a.95.95,0,0,1-1.049.167,1.025,1.025,0,0,1-.266-.182,33.279,33.279,0,0,1-2.558-2.775.955.955,0,0,1-.032-1.146,19.6,19.6,0,0,1,2.455-2.733.942.942,0,0,1,1.3-.016c1.015.942,1.923,1.948,2.81,2.919a.955.955,0,0,1-.058,1.339" transform="translate(-40.004 -63.648)" fill="#fff"/><path d="M125.7,77.111c-5.22-5.26-10.344-10.424-15.436-15.548a1.172,1.172,0,0,1-.143.086A26.347,26.347,0,0,0,96.883,76.444l15.135,15.222A38.486,38.486,0,0,1,125.7,77.111" transform="translate(-42.582 -41.897)" fill="#fff"/><path d="M5.638,79.9a3.5,3.5,0,0,1,2.433-.081,8.725,8.725,0,0,1,1.446.69,10.57,10.57,0,0,1-.189-1.532,4.49,4.49,0,0,1-1.566-.394,3.48,3.48,0,0,1-.52-.294c-1.246-.858-1.883-2.51-1.8-4.644a13.428,13.428,0,0,1,1.155-4.894c-.087.036-.169.074-.251.112A6.506,6.506,0,0,0,3.9,70.642a5.519,5.519,0,0,0-.581,4.977A15.724,15.724,0,0,0,5.638,79.9" transform="translate(-2.995 -44.927)" fill="#fff"/><path d="M204.207,123.335a.868.868,0,0,1,.334.692.878.878,0,0,1-.353.685c-.068.051-.129.112-.2.168a4.472,4.472,0,0,1,.527.566,13.2,13.2,0,0,0,6.87,4.341l.688-2.628,0-.006-.005,0c.007-.028.025-.052.029-.076s.022-.06.034-.086a.453.453,0,0,1,.047-.073c.015-.019.027-.045.045-.069s.038-.039.056-.063.038-.04.061-.061.038-.027.058-.043.048-.035.076-.054a.389.389,0,0,1,.064-.028.917.917,0,0,1,.09-.041c.023-.008.043-.012.066-.02a.858.858,0,0,0,.093-.02l.078,0a.527.527,0,0,1,.09,0,.489.489,0,0,1,.089.016.185.185,0,0,1,.083.014c0-.006,0-.006.008,0a89.708,89.708,0,0,0,20.957,2.883,12.07,12.07,0,0,0,5.055-.609,13.008,13.008,0,0,0,4.151-3.491c.385-.427.884-1.042.767-1.448-.082-.275-.5-.611-2.047-.633a30.4,30.4,0,0,1-12.044-2.7.9.9,0,0,1-.505-.748.862.862,0,0,1,.422-.792,18.3,18.3,0,0,1,6.28-1.9,17.5,17.5,0,0,0,5.368-1.522c2.99-1.627,4.684-4.889,6.182-8.5a38,38,0,0,0-25.523,6.474,5.743,5.743,0,0,1,1.348,5.631,7.463,7.463,0,0,1-3.237,4.021,77.378,77.378,0,0,0,12.048,2.243.866.866,0,1,1-.18,1.722,78.388,78.388,0,0,1-13.926-2.746,1.048,1.048,0,0,1-.126-.046,1.258,1.258,0,0,1-.168-.117,15.444,15.444,0,0,1-5.12.527,13.305,13.305,0,0,1-5.581-1.227,7.225,7.225,0,0,1-3.906-4.479,6.52,6.52,0,0,1,.8-4.665,4.134,4.134,0,0,0-1.043.6,4.245,4.245,0,0,0-1.647,2.754c-.277,2.3,1.236,4.372,2.749,5.559" transform="translate(-86.661 -60.997)" fill="#fff"/><path d="M17.854,62.047a1.13,1.13,0,0,0,.282-.124l-.049-.061c-.081.064-.154.126-.233.184" transform="translate(-9.26 -42.024)" fill="#fff"/><path d="M10.228,76.631a3.209,3.209,0,0,0,1.046,2.54,2.59,2.59,0,0,0,1.179.386,9.2,9.2,0,0,1,.263-1.326c.1-.357.217-.71.338-1.062a7.158,7.158,0,0,0,.489-2.025,3.74,3.74,0,0,0-.08-.906,4.494,4.494,0,0,0-3.217,2.357l-.017.036" transform="translate(-6.044 -47.241)" fill="#fff"/><path d="M66.457,29.836a2.6,2.6,0,0,0,.018.4A1.989,1.989,0,0,1,65.8,32.21a1.927,1.927,0,0,1-.96.291l-.142.017a1.222,1.222,0,0,0-.979.972,1.209,1.209,0,0,0,.655,1.207l.005,0a6.045,6.045,0,0,0,4.531.608.885.885,0,0,1,.653.038.828.828,0,0,1,.258.185,62.225,62.225,0,0,1,4.242,5.154.878.878,0,0,1,.014,1.035,9.223,9.223,0,0,0-.589,9.291,17.963,17.963,0,0,0,2.622,4.043,31.2,31.2,0,0,1,13.3-14.718,10.236,10.236,0,0,0-4.195-2.73,9.312,9.312,0,0,0-3.1-.233,21.493,21.493,0,0,0-5.15.961.849.849,0,0,1-.69-.068,5.4,5.4,0,0,1-1.713-1.677,2.335,2.335,0,0,0-.763-.8,2.2,2.2,0,0,0-.5-.127,4.118,4.118,0,0,1-.6-.129,1.81,1.81,0,0,1-1.4-1.692,2.012,2.012,0,0,1,.286-.926,1.355,1.355,0,0,0,.091-.194.245.245,0,0,0-.139-.18,1.632,1.632,0,0,0-.51.228l-2.578,1.456a.857.857,0,0,1-.874-.014.866.866,0,0,1-.419-.771,3.683,3.683,0,0,1,1.888-3.171,6.851,6.851,0,0,1,.783-.323,1.968,1.968,0,0,0,.813-.411c.235-.286.071-.874-.227-1.249a1.729,1.729,0,0,0-1.748-.671,3.558,3.558,0,0,0-1.046.692c-.547.459-1.131,1-1.151,1.53" transform="translate(-28.594 -27.561)" fill="#fff"/><path d="M12.264,68.358a1.154,1.154,0,0,0-.283-.146,12.411,12.411,0,0,0-1.139,2.857A6.2,6.2,0,0,1,13.2,70.031c-.031-.072-.056-.141-.086-.213a3.154,3.154,0,0,0-.855-1.46" transform="translate(-6.303 -44.7)" fill="#fff"/><path d="M38.77,57.579a.8.8,0,0,1-.156.317c-.333.412-.664.845-1,1.3a20.467,20.467,0,0,1,9.963-2.526l-.142-1.644L46.42,54.06a16.415,16.415,0,0,0-7.651,3.519" transform="translate(-17.593 -38.733)" fill="#fff"/><path d="M173.365,198.416a19.594,19.594,0,0,0-1.861,9.334c.446-.079.9-.147,1.35-.211a.118.118,0,0,0,.051,0c.031,0,.06,0,.091,0a.514.514,0,0,1,.091.01.3.3,0,0,1,.07.014.639.639,0,0,1,.091.023c.026.012.05.017.071.027a.613.613,0,0,1,.082.045c.021.01.039.025.065.037s.045.04.069.058a.386.386,0,0,1,.058.053c.021.023.04.05.061.073a.132.132,0,0,1,.027.038.244.244,0,0,1,.035.049,6.362,6.362,0,0,1,1.229,4.317,22.257,22.257,0,0,1-.515,2.722c-.115.489-.226.973-.322,1.465-.695,3.653-.23,7.46.223,11.146,1.194,9.78,2.545,20.861,8.278,29.663a4.875,4.875,0,0,0,2,2.021,5.387,5.387,0,0,0,3.044-.05,5.807,5.807,0,0,0,2.5-.887c1.22-.968,1.245-2.917,1.149-4-.278-3.145-1.623-6.067-3.04-9.164-1.686-3.669-3.424-7.459-3.21-11.625a.861.861,0,0,1,.434-.71.874.874,0,0,1,.833-.019,46.264,46.264,0,0,1,18.38,17.47l.046.079a4.388,4.388,0,0,0,1.087,1.416.872.872,0,0,0,.973.091c.341-.333-.074-1.261-.537-1.95a164.223,164.223,0,0,1-8.411-14.744,164.567,164.567,0,0,0-8.491-14.857,6.5,6.5,0,0,1-3.263,4.3,4.615,4.615,0,0,1-4.077-.063,5.749,5.749,0,0,1-1.791-1.3,10.317,10.317,0,0,1-2.281-5.289,29.687,29.687,0,0,1-.409-3.231.355.355,0,0,1-.015-.09.184.184,0,0,1,0-.057,77.169,77.169,0,0,1-.043-8.092c.062-2.014.221-3.939,1.517-5.382a4.583,4.583,0,0,1,3.445-1.452,5.115,5.115,0,0,1,2.815.833,3.866,3.866,0,0,0-5.306-4.6.867.867,0,0,1-.951-.164.837.837,0,0,1-.19-.166c-.377-.451-1.334-.248-1.964.211a10.282,10.282,0,0,0-.981.882,7.813,7.813,0,0,1-1.759,1.411,4.956,4.956,0,0,1-.744.322m2.219.649a.868.868,0,0,1,1.39,1.04,6.705,6.705,0,0,0-1.313,4.468.864.864,0,0,1-.8.929.876.876,0,0,1-.437-.076.861.861,0,0,1-.492-.722,8.491,8.491,0,0,1,1.65-5.639" transform="translate(-74.036 -98.302)" fill="#fff"/><path d="M190.089,223.951l-4.481-.221a6.96,6.96,0,0,0,1.477,2.806,3.409,3.409,0,0,0,3.8,1,4.7,4.7,0,0,0,2.431-4.743l-1.5-11.654c-.223-1.733-.479-3.245-1.4-4.275a2.906,2.906,0,0,0-.942-.69,3.45,3.45,0,0,0-1.46-.319,2.857,2.857,0,0,0-2.151.87,5.562,5.562,0,0,0-1.042,3.439l5.367.527a.868.868,0,0,1-.171,1.728l-5.254-.519c-.027.792-.048,1.587-.056,2.382l4.891.138a.868.868,0,1,1-.046,1.734l-4.842-.134c0,.73.028,1.456.069,2.184l5.087-.09a.869.869,0,1,1,.029,1.738l-4.976.084c.072.678.162,1.359.28,2.034l4.963.242a.869.869,0,1,1-.084,1.736" transform="translate(-79.617 -102.737)" fill="#fff"/></g><g transform="translate(0 0)"><path d="M20.4,8.091a10.808,10.808,0,0,0-8.509.02L3.985.527A1.89,1.89,0,1,0,1.367,3.254l7.5,7.188a8.636,8.636,0,0,0-1.982,5.228c-.015.414.008.815.023,1.2A8.675,8.675,0,0,1,6.87,18.6a8.6,8.6,0,0,1-.492,1.6,11.438,11.438,0,0,0-.522,1.607A5.818,5.818,0,0,0,7.011,26.8a5.884,5.884,0,0,0,3.382,1.9,6.787,6.787,0,0,0-.6.81,4.464,4.464,0,0,0-.741,3.069,4.033,4.033,0,0,0,.33,1.042,3.91,3.91,0,0,0-.95,1.005A2.348,2.348,0,0,0,8.1,35.655a13.783,13.783,0,0,0-1.62,2,6.568,6.568,0,0,0-2.149.648A8.389,8.389,0,0,0,1.26,40.595,7.248,7.248,0,0,0,.4,47.145a18.4,18.4,0,0,0,2.74,5.032,1.529,1.529,0,0,0-.061.157,3.364,3.364,0,0,0,.324,2.24L9.3,68.619a17.6,17.6,0,0,0,2.444,4.49,7.318,7.318,0,0,0,2.5,1.977,5.482,5.482,0,0,0,2.335.537c2.492-.015,4.459-1.859,5.72-3.242a33.838,33.838,0,0,0,6.27-9.913,23.873,23.873,0,0,0,4.889,3.061,25.126,25.126,0,0,0,3.5,1.33,10.2,10.2,0,0,0,.252,4.237,5.451,5.451,0,0,0,2.769,3.321,4.861,4.861,0,0,0,.606.232,3.75,3.75,0,0,0,4.555-2.172,5.568,5.568,0,0,0,0-2.843c-.034-.2-.075-.4-.1-.59a25.376,25.376,0,0,0,5.764,3.375,2.574,2.574,0,0,0,.607,2.072,32.882,32.882,0,0,0,4.005,3.734,8.1,8.1,0,0,0-1.612,1.1,4.275,4.275,0,0,0-1.527,2.989,3,3,0,0,0,2,3.012,3.558,3.558,0,0,0,3.192-.83c.327-.262.617-.541.9-.813a8.374,8.374,0,0,1,1-.866,1.637,1.637,0,0,1,1.535-.29,2.5,2.5,0,0,1,.7.768c1.4,1.98,2.859,4.028,4.389,5.944L74.9,117.511c.975,3.075,2.183,6.9,5.17,9.267a9.921,9.921,0,0,0,1.951,1.194,15.681,15.681,0,0,0,8.592.976,51.7,51.7,0,0,0,5.114-1.035c1.474-.351,2.991-.7,4.5-.931a4.4,4.4,0,0,1,.684,2.754,21.113,21.113,0,0,1-.479,2.509c-.124.51-.242,1.023-.335,1.535-.75,3.921-.265,7.865.2,11.676,1.222,9.966,2.6,21.263,8.553,30.4a6.668,6.668,0,0,0,2.613,2.6l.173.081a7.063,7.063,0,0,0,4.045.048,7.317,7.317,0,0,0,3.239-1.23c1.374-1.094,2.009-3.05,1.8-5.513-.3-3.435-1.77-6.64-3.19-9.731-1.458-3.173-2.848-6.193-3.044-9.4a44.534,44.534,0,0,1,16.407,16.118l.046.079a5.765,5.765,0,0,0,1.587,1.957,2.537,2.537,0,0,0,3.186-.093c.555-.545,1.247-1.8-.307-4.147a161.846,161.846,0,0,1-8.324-14.588,145.942,145.942,0,0,0-10.04-17.128l-1.38-10.788a10.751,10.751,0,0,0-1.355-4.594,5.588,5.588,0,0,0-4.97-8.017,5.663,5.663,0,0,0-1.859.26,3.4,3.4,0,0,0-3.957.268,10.619,10.619,0,0,0-1.171,1.042,6.478,6.478,0,0,1-1.368,1.122c-1.378.747-3.234.236-4.869-.363l-.126-.046a11.173,11.173,0,0,0-5-1,190.234,190.234,0,0,1-1.123-22.781C95,95.094,100.355,100.224,106.479,104.3a23.924,23.924,0,0,0,3.113,1.809,10.342,10.342,0,0,0,4.33,1.076c3.219.025,6.549-1.972,8.7-5.218,1.888-2.846,2.778-6.273,3.562-9.3l2.42-9.3A92.712,92.712,0,0,0,149.112,86.1a13.426,13.426,0,0,0,5.792-.75,14.346,14.346,0,0,0,4.755-3.923c.463-.511,1.55-1.714,1.139-3.1-.536-1.829-2.9-1.863-3.684-1.872a28.566,28.566,0,0,1-9.534-1.8,25.637,25.637,0,0,1,3.959-.9,18.872,18.872,0,0,0,5.9-1.71c3.789-2.051,5.659-6.1,7.393-10.416a.864.864,0,0,0-.053-.759.886.886,0,0,0-.632-.423,39.7,39.7,0,0,0-28.45,7.038,10.355,10.355,0,0,0-4.232-.468l-10.716.411A5.11,5.11,0,0,0,117.1,68.6a6.048,6.048,0,0,0-2.3,3.912,7.83,7.83,0,0,0,2.584,6.415,17.721,17.721,0,0,0-5.235,7.786L93.092,64.656l-.04-.038a22.961,22.961,0,0,0,2.225-4.738.863.863,0,0,0-.209-.89C88.99,52.862,83.1,46.924,77.284,41.066a6.138,6.138,0,0,0-.68-7.291,12.232,12.232,0,0,0-4.77-2.892L64.005,27.7,63.99,27.7a12.446,12.446,0,0,0-5.172-3.385,10.909,10.909,0,0,0-3.671-.289,23.168,23.168,0,0,0-5.172.912,4.779,4.779,0,0,1-.879-.987,3.447,3.447,0,0,0-1.456-1.364,3.6,3.6,0,0,0-.911-.248,3.027,3.027,0,0,1-.4-.083A.631.631,0,0,1,46.2,22.2a.7.7,0,0,1,.049-.092,3.094,3.094,0,0,0,.206-.466,1.839,1.839,0,0,0-.307-1.677,1.872,1.872,0,0,0-1.217-.755c.06-.061.119-.117.176-.186a2.781,2.781,0,0,0-.211-3.438,3.471,3.471,0,0,0-3.634-1.241,5.063,5.063,0,0,0-1.63,1.012,4.009,4.009,0,0,0-1.775,2.8c-.006.189.008.393.02.6a3.548,3.548,0,0,1,.024.4,1.006,1.006,0,0,0-.1.01l-.2.021a2.946,2.946,0,0,0-2.457,2.438,2.9,2.9,0,0,0,.229,1.57,10.48,10.48,0,0,1-2.7-.477L31.77,21a56.7,56.7,0,0,0-3.765-6.431A17.713,17.713,0,0,0,20.4,8.091m21.391,7.9a1.729,1.729,0,0,1,1.748.672c.3.375.462.964.226,1.249a1.958,1.958,0,0,1-.812.412,6.85,6.85,0,0,0-.784.323,3.683,3.683,0,0,0-1.887,3.172.865.865,0,0,0,.418.77.856.856,0,0,0,.875.014l2.578-1.456a1.622,1.622,0,0,1,.509-.228.244.244,0,0,1,.139.18,1.3,1.3,0,0,1-.091.194,2.021,2.021,0,0,0-.287.926,1.81,1.81,0,0,0,1.4,1.692,4.113,4.113,0,0,0,.6.13,2.147,2.147,0,0,1,.5.127,2.329,2.329,0,0,1,.763.8,5.4,5.4,0,0,0,1.712,1.676.845.845,0,0,0,.69.068,21.531,21.531,0,0,1,5.15-.961,9.344,9.344,0,0,1,3.1.233,10.242,10.242,0,0,1,4.194,2.73,31.2,31.2,0,0,0-13.3,14.718,17.96,17.96,0,0,1-2.622-4.044,9.224,9.224,0,0,1,.588-9.291.877.877,0,0,0-.013-1.035,62.127,62.127,0,0,0-4.242-5.153.832.832,0,0,0-.259-.185.89.89,0,0,0-.653-.038,6.045,6.045,0,0,1-4.53-.607l-.005,0a1.207,1.207,0,0,1-.655-1.206,1.221,1.221,0,0,1,.979-.972l.142-.017a1.924,1.924,0,0,0,.96-.291,1.989,1.989,0,0,0,.676-1.976,2.529,2.529,0,0,1-.018-.4c.02-.534.6-1.071,1.15-1.53a3.576,3.576,0,0,1,1.046-.692m38.1,57.1a26.773,26.773,0,0,1,13.172-12.27,22.2,22.2,0,0,1-13.172,12.27m-14.565-.957-.619.585a40.174,40.174,0,0,0-5.11,5.526.85.85,0,0,1-1.215.153l-.761-.611a39.121,39.121,0,0,1-4.92-4.443.857.857,0,0,1-.062-1.025A25.918,25.918,0,0,1,58.976,65.6a.84.84,0,0,1,.854-.079.76.76,0,0,1,.213.145,56.474,56.474,0,0,1,5.339,5.291.861.861,0,0,1-.06,1.179m-9.29-21.65A26.344,26.344,0,0,1,69.269,35.692a1.169,1.169,0,0,0,.142-.087C74.5,40.729,79.628,45.893,84.847,51.153A38.492,38.492,0,0,0,71.168,65.708Zm-4.49,14.636A23.747,23.747,0,0,1,29.216,60.76l.01-.021a5.8,5.8,0,0,1,.6-1.348,1.2,1.2,0,0,1,.855-.57,2.412,2.412,0,0,1,1.224.63l5.917,4.494a.871.871,0,0,0,.79.824,16.932,16.932,0,0,0,11.169-3.136ZM38.856,70.574a8.225,8.225,0,0,1-.206-3.27,26.487,26.487,0,0,0,4.606.637,7.454,7.454,0,0,0,.168,2,4.186,4.186,0,0,1,.064,1.977,2.019,2.019,0,0,1-2.425,1.061,3.531,3.531,0,0,1-2.207-2.407m-7.28-38.341.143,1.644A20.484,20.484,0,0,0,21.755,36.4c.335-.456.666-.889,1-1.3a.8.8,0,0,0,.155-.317,16.422,16.422,0,0,1,7.651-3.519ZM2.636,41.654a6.507,6.507,0,0,1,2.443-1.781c.082-.038.164-.077.25-.113a13.442,13.442,0,0,0-1.154,4.894c-.08,2.134.558,3.787,1.8,4.645a3.585,3.585,0,0,0,.52.294,4.489,4.489,0,0,0,1.565.394,10.561,10.561,0,0,0,.19,1.532,8.7,8.7,0,0,0-1.446-.689,3.5,3.5,0,0,0-2.433.08,15.729,15.729,0,0,1-2.32-4.279,5.52,5.52,0,0,1,.581-4.978m3.634.654a12.387,12.387,0,0,1,1.14-2.857,1.179,1.179,0,0,1,.283.145,3.151,3.151,0,0,1,.855,1.46c.031.072.056.141.086.213a6.221,6.221,0,0,0-2.364,1.039m2.88.627a3.711,3.711,0,0,1,.08.906,7.129,7.129,0,0,1-.489,2.025c-.12.352-.241.705-.337,1.062a9.276,9.276,0,0,0-.264,1.326,2.586,2.586,0,0,1-1.179-.386,3.21,3.21,0,0,1-1.046-2.54l.017-.036A4.494,4.494,0,0,1,9.15,42.935M9.8,49.943a17.564,17.564,0,0,0,5.33-1.4q-.918,4.312-1.44,8.707c-1.064-1.533-2.165-2.987-3.287-4.355a.877.877,0,0,0-.051-.394A8.052,8.052,0,0,1,9.8,49.943m9.262-13.672c.347-.182.687-.362,1.027-.516-.854,1.2-1.722,2.547-2.657,4.121l0,.005a1.007,1.007,0,0,0-.078.167l-.005.01c-.647,2.079-1.227,4.19-1.731,6.317A15.686,15.686,0,0,1,9.9,48.186a7.568,7.568,0,0,1,.168-.8c.093-.32.206-.644.312-.965a8.675,8.675,0,0,0,.582-2.525,8.685,8.685,0,0,0-.8-3.465A4.634,4.634,0,0,0,8.7,38.186a3.627,3.627,0,0,0-.331-.206c.16-.206.326-.409.5-.608a2.151,2.151,0,0,0,.286.166,2.3,2.3,0,0,0,1.63.105,4.522,4.522,0,0,0,1.645-1.031,5.972,5.972,0,0,0,3.689.782,8.977,8.977,0,0,0,2.934-1.123m-8.733-.308c.079-.059.152-.12.233-.184l.048.061a1.1,1.1,0,0,1-.281.124m107.85,34a4.151,4.151,0,0,1,1.043-.6,6.52,6.52,0,0,0-.8,4.665,7.225,7.225,0,0,0,3.906,4.479,13.306,13.306,0,0,0,5.581,1.228,15.458,15.458,0,0,0,5.12-.528,1.255,1.255,0,0,0,.168.117.954.954,0,0,0,.125.046,78.338,78.338,0,0,0,13.926,2.746.866.866,0,1,0,.18-1.722,77.378,77.378,0,0,1-12.048-2.243,7.463,7.463,0,0,0,3.237-4.021,5.743,5.743,0,0,0-1.348-5.631,38,38,0,0,1,25.523-6.474c-1.5,3.61-3.192,6.871-6.182,8.5a17.492,17.492,0,0,1-5.368,1.523,18.275,18.275,0,0,0-6.28,1.9.862.862,0,0,0-.422.792.894.894,0,0,0,.506.748,30.4,30.4,0,0,0,12.044,2.7c1.548.022,1.965.358,2.047.633.116.406-.383,1.021-.768,1.448a13,13,0,0,1-4.151,3.491,12.07,12.07,0,0,1-5.055.609,89.677,89.677,0,0,1-20.957-2.883c-.005,0-.005,0-.008,0a.184.184,0,0,0-.083-.013.49.49,0,0,0-.088-.016.529.529,0,0,0-.09,0l-.078,0a.853.853,0,0,1-.093.02c-.023.009-.043.012-.067.02a.8.8,0,0,0-.09.041.346.346,0,0,0-.064.027c-.028.019-.048.035-.076.054s-.038.027-.058.043-.04.045-.061.061-.038.04-.055.064-.03.05-.045.068a.5.5,0,0,0-.047.073c-.012.026-.019.055-.034.086s-.022.047-.029.076l.005,0,0,.005-.688,2.628a13.2,13.2,0,0,1-6.87-4.341,4.511,4.511,0,0,0-.527-.566c.071-.056.132-.117.2-.168a.862.862,0,0,0,.019-1.377c-1.513-1.187-3.026-3.262-2.749-5.559a4.246,4.246,0,0,1,1.647-2.754m17.407-.611a3.811,3.811,0,0,1,1.373,4.27,6.043,6.043,0,0,1-3.517,3.6,12.506,12.506,0,0,1-5.463.783,11.935,11.935,0,0,1-4.878-1.051,5.553,5.553,0,0,1-3-3.372,4.47,4.47,0,0,1,1.534-4.327.842.842,0,0,0,.167-.126l9.724-.378a8.142,8.142,0,0,1,3.69.412.858.858,0,0,0,.3.155.333.333,0,0,0,.065.037m-31.038,44.086c.63-.459,1.587-.662,1.964-.211a.835.835,0,0,0,.19.165.868.868,0,0,0,.951.165,3.866,3.866,0,0,1,5.306,4.6,5.11,5.11,0,0,0-2.815-.833,4.581,4.581,0,0,0-3.445,1.453c-1.3,1.443-1.455,3.367-1.517,5.382a77.01,77.01,0,0,0,.043,8.092.185.185,0,0,0,0,.057.355.355,0,0,0,.015.09,29.686,29.686,0,0,0,.409,3.231,10.319,10.319,0,0,0,2.281,5.29,5.756,5.756,0,0,0,1.791,1.3,4.614,4.614,0,0,0,4.076.063,6.5,6.5,0,0,0,3.264-4.3,164.579,164.579,0,0,1,8.491,14.858,164.292,164.292,0,0,0,8.411,14.743c.463.689.877,1.618.537,1.95a.871.871,0,0,1-.973-.091,4.388,4.388,0,0,1-1.087-1.416l-.046-.079a46.258,46.258,0,0,0-18.38-17.469.873.873,0,0,0-.833.018.862.862,0,0,0-.434.71c-.213,4.165,1.525,7.955,3.21,11.624,1.418,3.1,2.763,6.02,3.041,9.164.095,1.079.07,3.028-1.149,4a5.81,5.81,0,0,1-2.5.887,5.382,5.382,0,0,1-3.044.05,4.872,4.872,0,0,1-2-2.021c-5.733-8.8-7.084-19.882-8.278-29.663-.452-3.686-.918-7.493-.223-11.146.1-.492.208-.976.322-1.466a22.38,22.38,0,0,0,.515-2.722,6.364,6.364,0,0,0-1.229-4.318.24.24,0,0,0-.035-.048.128.128,0,0,0-.027-.038c-.021-.023-.04-.051-.061-.073a.381.381,0,0,0-.058-.053c-.024-.018-.045-.04-.069-.058s-.045-.027-.065-.037a.528.528,0,0,0-.082-.045c-.021-.01-.045-.014-.071-.027a.566.566,0,0,0-.091-.024.306.306,0,0,0-.07-.014.513.513,0,0,0-.091-.01c-.031,0-.06,0-.091,0a.11.11,0,0,1-.051,0c-.451.064-.9.132-1.35.211a19.594,19.594,0,0,1,1.861-9.334,5.011,5.011,0,0,0,.744-.322,7.812,7.812,0,0,0,1.759-1.411,10.212,10.212,0,0,1,.981-.882m8.569,22.89a.876.876,0,0,0-.825-.91l-4.964-.242c-.118-.675-.208-1.356-.28-2.035l4.976-.084a.869.869,0,1,0-.029-1.738l-5.087.09c-.042-.729-.066-1.455-.069-2.184l4.841.134a.868.868,0,1,0,.046-1.734l-4.891-.138c.008-.795.029-1.589.055-2.382l5.256.519a.868.868,0,0,0,.17-1.728l-5.367-.527a5.562,5.562,0,0,1,1.042-3.439,2.86,2.86,0,0,1,2.151-.87,3.449,3.449,0,0,1,1.46.32,2.911,2.911,0,0,1,.942.689c.917,1.029,1.173,2.542,1.4,4.275l1.5,11.654A4.7,4.7,0,0,1,113,140.739a3.408,3.408,0,0,1-3.8-1,6.973,6.973,0,0,1-1.477-2.805l4.482.22a.873.873,0,0,0,.91-.825" transform="translate(0 0)" fill="#14b4f0"/><path d="M176.2,207.892a.882.882,0,0,0,.437.077.864.864,0,0,0,.8-.929,6.707,6.707,0,0,1,1.313-4.468.868.868,0,0,0-1.39-1.041,8.5,8.5,0,0,0-1.651,5.639.861.861,0,0,0,.492.722" transform="translate(-74.076 -84.828)" fill="#14b4f0"/><path d="M102.707,121.211c-.887-.97-1.795-1.977-2.81-2.918a.942.942,0,0,0-1.3.015,19.565,19.565,0,0,0-2.455,2.734.955.955,0,0,0,.032,1.145,33.279,33.279,0,0,0,2.558,2.775,1.028,1.028,0,0,0,.266.182.949.949,0,0,0,1.049-.167c.8-.761,1.612-1.519,2.605-2.427a.956.956,0,0,0,.058-1.339" transform="translate(-40.462 -49.77)" fill="#14b4f0"/></g></g></svg>