<svg xmlns="http://www.w3.org/2000/svg" width="182.021" height="87.024" viewBox="0 0 182.021 87.024"><g transform="translate(-60 -3541.749)"><g transform="translate(62.329 3542)"><g transform="translate(1.048 1.044)"><path d="M58.133,35.269c1.564-1.348,2.407-3.329,3.3-5.427,1.06-2.494,2.156-5.07,4.577-6.48a2.22,2.22,0,0,1,.475-.2l.252-.074c.944-.277,2.237-.658,2.324-1.4a2.2,2.2,0,0,1,.762-1.448c.488-.409.461-.728.4-.936-.233-.768-1.658-1.649-2.881-1.784a2.319,2.319,0,0,1-.426-.078,14.2,14.2,0,0,1-7.858-6.081,1.353,1.353,0,0,1-.083-.143,8.116,8.116,0,0,0-2.974-3.177c-.85-.535-1.674-1.129-2.468-1.7a25.259,25.259,0,0,0-4.513-2.8,1.267,1.267,0,0,0-.219-.075c-.38-.095-.771-.173-1.173-.239-4.18-.684-9.7.117-15.713,2.3a3.359,3.359,0,0,1-.383.13,24.11,24.11,0,0,0-3.056.934,19.222,19.222,0,0,1-4.345,1.162,1.2,1.2,0,0,0-.4.1c-3.019,1.482-4.313,5.291-5.558,8.975-.381,1.121-.773,2.28-1.207,3.355a1.223,1.223,0,0,0-.057.818,1.669,1.669,0,0,1-.143,1.424,1.265,1.265,0,0,0-.147.455c-.076.572-.235,1.258-.4,1.982-.364,1.56-.817,3.5-.485,4.705a2.186,2.186,0,0,1-.4,1.953,2.363,2.363,0,0,1-1.928.886l-.036,0a1.108,1.108,0,0,0-.244.03,10.881,10.881,0,0,1-4.182-.185c-.32-.061-.64-.129-.957-.195a15.4,15.4,0,0,0-3.826-.477,1.2,1.2,0,0,0-.851.428,1.252,1.252,0,0,0-.286.948,11.012,11.012,0,0,0,.212,1.232,5.313,5.313,0,0,1,.948-.206,8.275,8.275,0,0,1,1.072-.039c.132,0,.264,0,.4,0a18.912,18.912,0,0,0,3.531-.488c.079-.013.158-.03.236-.046a.523.523,0,0,1,.211,1.025h0a21.213,21.213,0,0,1-3.962.557c-.139,0-.278,0-.417,0a7.846,7.846,0,0,0-.945.034,4.107,4.107,0,0,0-.784.172,18.348,18.348,0,0,0,1.056,2.4,21.4,21.4,0,0,1,1.247,2.83A9.752,9.752,0,0,0,7.48,43.429,7.936,7.936,0,0,1,9,46.193a3.622,3.622,0,0,0,1.337,2.037,1.222,1.222,0,0,0,.952.207,1.258,1.258,0,0,0,.814-.556,11.307,11.307,0,0,0,1.024-2.411A8.584,8.584,0,0,1,15.3,41.556a5.4,5.4,0,0,0,1.5-2.371A4.967,4.967,0,0,1,18.06,37.1a.532.532,0,0,1,.2-.157,4.451,4.451,0,0,1,2.2-.743.527.527,0,0,1,.576.467.537.537,0,0,1-.1.363.546.546,0,0,1-.369.213,3.428,3.428,0,0,0-1.672.529c-1.083,2.773,1.485,5.208,3.556,7.173l.1.094a2.19,2.19,0,0,1,.174.185q.286.341.575.649C29.416,52.3,38.6,47.809,46.927,42.5c1.55-.989,3.071-2,4.537-2.984,2.351-1.574,4.571-3.06,6.466-4.106a1.068,1.068,0,0,0,.2-.135M50.59,11.885a3.23,3.23,0,0,1,.062-1.282A2.766,2.766,0,0,1,52,8.937a2.856,2.856,0,0,1,.779-.281,3.685,3.685,0,0,1,1.185-.045,3.364,3.364,0,0,1,2.356,5.278,2.972,2.972,0,0,1-.882.841,2.779,2.779,0,0,1-.86.337,3.15,3.15,0,0,1-2.366-.467,3.909,3.909,0,0,1-1.622-2.715M19.215,30.3a.525.525,0,0,1-.325.218.511.511,0,0,1-.4-.08.521.521,0,0,1-.139-.727,12.239,12.239,0,0,0,1.37-3.275l1.875-6.084c.02-.061.036-.118.056-.176A23.353,23.353,0,0,1,18.411,22.3a.535.535,0,0,1-.139.051.526.526,0,0,1-.569-.266.483.483,0,0,1-.062-.226.524.524,0,0,1,.273-.482A24.281,24.281,0,0,0,22.282,18.3q.131-.343.285-.68a21.536,21.536,0,0,1,4.658-6.044l.439-.438c-.2.078-.406.156-.6.244-.108.047-.211.1-.319.145a6.269,6.269,0,0,1-1.325.5c-.2.042-.4.066-.587.091a3.96,3.96,0,0,0-.623.106,4.081,4.081,0,0,0-1.11.607,4.526,4.526,0,0,1-1.586.786l-.044.009a.522.522,0,0,1-.611-.414.532.532,0,0,1,.413-.615,3.486,3.486,0,0,0,1.24-.634,5.04,5.04,0,0,1,1.409-.745,4.62,4.62,0,0,1,.784-.14c.173-.022.34-.043.494-.075a5.541,5.541,0,0,0,1.106-.425c.114-.052.224-.1.335-.152a21.39,21.39,0,0,1,4.748-1.3c.274-.157.544-.328.824-.508.263-.173.54-.352.823-.515a15.531,15.531,0,0,1,3.66-1.385A82.175,82.175,0,0,1,47.435,4.514a.523.523,0,1,1,.139,1.037,81.236,81.236,0,0,0-10.6,2.179,15.025,15.025,0,0,0-3.417,1.284c-.261.151-.508.314-.776.484s-.543.353-.829.516a.444.444,0,0,1-.2.105,6.177,6.177,0,0,1-.574.274c-.233.1-.464.169-.687.24a6.473,6.473,0,0,0-.779.281,6.584,6.584,0,0,0-1.745,1.4,20.749,20.749,0,0,0-4.448,5.736,21.65,21.65,0,0,0-.923,2.6l-1.878,6.085a13,13,0,0,1-1.5,3.557M46.424,41.713a21.092,21.092,0,0,1-5.834,2.526c-.234.06-.491.125-.768.183a8.444,8.444,0,0,1-1.951.2,8.59,8.59,0,0,1-1.839-.284c-2.16.9-4.367,1.772-6.557,2.581a.6.6,0,0,1-.078.02.523.523,0,0,1-.285-1c1.781-.655,3.567-1.355,5.33-2.074-.622-.212-1.207-.432-1.759-.669a76.522,76.522,0,0,0-8.251,2.548.56.56,0,0,1-.077.023.522.522,0,0,1-.554-.244c-.017-.029-.03-.058-.044-.087a.523.523,0,0,1,.308-.671c2.335-.871,4.736-1.629,7.148-2.267-.076-.041-.156-.081-.233-.126A14.07,14.07,0,0,1,27.9,39.943,7.263,7.263,0,0,0,23.7,37.478a.521.521,0,0,1-.439-.6.51.51,0,0,1,.2-.334.5.5,0,0,1,.4-.1,8.183,8.183,0,0,1,4.763,2.748,13.288,13.288,0,0,0,2.86,2.263,21.1,21.1,0,0,0,3.973,1.634,9.357,9.357,0,0,0,2.444.485,8.724,8.724,0,0,0,2.423-.348,19.992,19.992,0,0,0,5.547-2.4.524.524,0,0,1,.554.889m5.157-12.382a.516.516,0,0,1-.357.271.524.524,0,0,1-.349-.048,2.342,2.342,0,0,0-1.64.052,4.805,4.805,0,0,1-1.483.208.356.356,0,0,1-.084-.011l-.176-.038a8.346,8.346,0,0,1-4.472-2.024c-1.93-1.652-2.765-3.93-3.573-6.136-.149-.407-.3-.811-.453-1.21-.717-1.258-2.366-5.326-1.3-7.205a1.935,1.935,0,0,1,1.653-.978,1.569,1.569,0,0,1,.937-.157,6.071,6.071,0,0,1,3.252,1.514c2.513,2.578,5.11,5.235,7.524,7.987a.523.523,0,1,1-.786.689c-2.4-2.737-5-5.394-7.5-7.963a.5.5,0,0,1-.052-.064,4.606,4.606,0,0,0-2.841-1.1.485.485,0,0,1-.347.133.936.936,0,0,0-.924.457c-.751,1.317.576,4.939,1.311,6.2a.768.768,0,0,1,.033.072c.163.419.319.842.477,1.269.8,2.179,1.553,4.242,3.292,5.713.014.015.028.03.04.041a7.365,7.365,0,0,0,3.96,1.743l.135.029a4.142,4.142,0,0,0,1.124-.183,3.207,3.207,0,0,1,2.375.036.522.522,0,0,1,.223.706m-2.428-3.381c-1.98-1.192-3.947-2.463-5.846-3.779a.523.523,0,1,1,.6-.86c1.881,1.3,3.829,2.562,5.788,3.742a.521.521,0,0,1,.179.719.527.527,0,0,1-.341.243.539.539,0,0,1-.377-.064m.584,1.66a.525.525,0,0,1-.415.469.451.451,0,0,1-.152.007,13.278,13.278,0,0,1-2.776-.551.522.522,0,1,1,.312-1,12.3,12.3,0,0,0,2.555.5.524.524,0,0,1,.476.567m3.1-2.077a2.28,2.28,0,0,0-1.548,1.78.526.526,0,0,1-.409.432.554.554,0,0,1-.187.007.523.523,0,0,1-.439-.6,3.316,3.316,0,0,1,2.28-2.625.524.524,0,0,1,.3,1m0-3.5a10,10,0,0,1-.878-.853c-.516-.541-1.048-1.1-1.658-1.667a.537.537,0,0,1-.164-.458.529.529,0,0,1,.284-.395.315.315,0,0,0,.127-.262,1.888,1.888,0,0,0-.161-.612l-.549-1.429a1.42,1.42,0,0,1,.172-1.659.536.536,0,0,1,.472-.127,6.191,6.191,0,0,1,2.438,1.353c.114.087.225.174.34.26.657.5,1.377.955,2.072,1.4l1.514.962A17.6,17.6,0,0,0,59.869,20.2a.524.524,0,1,1-.376.977,18.316,18.316,0,0,1-3.2-1.745l-1.511-.963c-.715-.452-1.452-.922-2.147-1.446-.115-.09-.23-.18-.349-.269a6.932,6.932,0,0,0-1.54-1,2,2,0,0,0,.077.233l.55,1.432a2.669,2.669,0,0,1,.229,1.007,1.451,1.451,0,0,1-.193.693c.474.457.9.906,1.317,1.346a9.691,9.691,0,0,0,.789.769c1.366,1.14,3.355,1.478,5.112,1.776l.484.08a3.332,3.332,0,0,0,.674-.134,2.9,2.9,0,0,1,1.109-.154.524.524,0,0,1,.02,1.03.5.5,0,0,1-.192,0,3.67,3.67,0,0,0-.674.138,2.983,2.983,0,0,1-1.112.155l-.485-.084c-1.793-.3-4.023-.685-5.605-2" transform="translate(-3.002 -2.993)" fill="#fff"/><path d="M145.561,26.217a2.036,2.036,0,0,0,.573-.548c.019-.029.037-.065.055-.094a1.59,1.59,0,0,1-.646.3,2.084,2.084,0,0,1-1.427-.257,1.758,1.758,0,0,1-1-2.034,1.437,1.437,0,0,1,1.05-.912,2.3,2.3,0,0,1,2.169.686,2.353,2.353,0,0,0-1.83-1.331,2.7,2.7,0,0,0-.846.031,1.819,1.819,0,0,0-.494.178,1.712,1.712,0,0,0-.838,1.021,2.157,2.157,0,0,0-.032.866,2.839,2.839,0,0,0,1.162,1.985,2.024,2.024,0,0,0,2.1.1" transform="translate(-93.67 -15.375)" fill="#fff"/></g><g transform="translate(0 -0.001)"><path d="M64.58,22.319a1.034,1.034,0,0,1,.245-.105l.248-.073c1.155-.339,2.9-.851,3.066-2.277a1.16,1.16,0,0,1,.4-.768,1.859,1.859,0,0,0,.73-2.043c-.4-1.3-2.271-2.358-3.77-2.521a1.531,1.531,0,0,1-.252-.044A13.192,13.192,0,0,1,57.978,8.85c-.016-.025-.029-.051-.045-.076A9.109,9.109,0,0,0,54.587,5.2c-.813-.511-1.62-1.093-2.4-1.657A25.955,25.955,0,0,0,47.479.638,2.217,2.217,0,0,0,47.094.5C42.6-.609,36.387.135,29.6,2.6c-.136.05-.229.084-.241.09a24.914,24.914,0,0,0-3.19.973,18.441,18.441,0,0,1-4.108,1.1,2.236,2.236,0,0,0-.746.2c-3.414,1.672-4.777,5.7-6.093,9.584-.374,1.105-.762,2.249-1.184,3.294a2.266,2.266,0,0,0-.088,1.519.6.6,0,0,1-.044.587,2.261,2.261,0,0,0-.279.847c-.072.522-.225,1.185-.389,1.886-.412,1.759-.874,3.753-.477,5.217a1.134,1.134,0,0,1-.212,1.029,1.322,1.322,0,0,1-1.067.488l-.051,0a2.094,2.094,0,0,0-.475.05,12.085,12.085,0,0,1-4.722-.378,16.229,16.229,0,0,0-4.094-.5,2.237,2.237,0,0,0-1.595.795,2.3,2.3,0,0,0-.529,1.744A12.01,12.01,0,0,0,.387,33.02a.059.059,0,0,0,.008.023,16.779,16.779,0,0,0,1.279,3.069,21.111,21.111,0,0,1,1.191,2.7,10.653,10.653,0,0,0,1.869,3.351A6.945,6.945,0,0,1,6.067,44.6a4.629,4.629,0,0,0,1.711,2.529,2.277,2.277,0,0,0,1.763.382A2.312,2.312,0,0,0,11.035,46.5a12.247,12.247,0,0,0,1.134-2.634,7.68,7.68,0,0,1,1.859-3.46,5.92,5.92,0,0,0,1.666-2.475c.384,2.319,2.453,4.281,4.082,5.825l.1.094a.966.966,0,0,1,.088.1c3.313,3.994,7.535,4.744,12.023,3.8,6.1-1.28,12.681-5.681,18.106-9.312,2.332-1.559,4.534-3.03,6.39-4.058a2.058,2.058,0,0,0,.38-.262c1.748-1.508,2.677-3.692,3.577-5.807,1.042-2.444,2.023-4.75,4.142-5.986M44.972,40.547c-8.33,5.314-17.511,9.8-23.627,3.376q-.289-.308-.575-.649a2.2,2.2,0,0,0-.174-.185l-.1-.094c-2.071-1.965-4.639-4.4-3.556-7.173a3.429,3.429,0,0,1,1.672-.529.526.526,0,0,0,.468-.576.528.528,0,0,0-.576-.468,4.453,4.453,0,0,0-2.2.743.525.525,0,0,0-.2.157,4.971,4.971,0,0,0-1.266,2.088,5.406,5.406,0,0,1-1.5,2.371,8.582,8.582,0,0,0-2.167,3.913,11.328,11.328,0,0,1-1.024,2.411,1.257,1.257,0,0,1-.814.556,1.222,1.222,0,0,1-.953-.207A3.622,3.622,0,0,1,7.05,44.245,7.942,7.942,0,0,0,5.525,41.48a9.758,9.758,0,0,1-1.668-3,21.469,21.469,0,0,0-1.247-2.83,18.307,18.307,0,0,1-1.056-2.4,4.17,4.17,0,0,1,.784-.172,7.989,7.989,0,0,1,.945-.034c.14,0,.278,0,.417,0a21.177,21.177,0,0,0,3.962-.557h0a.523.523,0,0,0-.211-1.025c-.079.017-.157.033-.237.046a18.851,18.851,0,0,1-3.531.488c-.135,0-.267,0-.4,0a8.341,8.341,0,0,0-1.072.04,5.3,5.3,0,0,0-.948.206,11.07,11.07,0,0,1-.213-1.232,1.253,1.253,0,0,1,.286-.948,1.2,1.2,0,0,1,.851-.429,15.4,15.4,0,0,1,3.826.477c.317.066.638.134.957.2a10.9,10.9,0,0,0,4.182.185,1.084,1.084,0,0,1,.243-.03l.036,0a2.363,2.363,0,0,0,1.929-.886,2.189,2.189,0,0,0,.4-1.953c-.332-1.207.121-3.146.485-4.705.169-.724.328-1.41.4-1.982a1.281,1.281,0,0,1,.147-.455,1.683,1.683,0,0,0,.2-.494,1.705,1.705,0,0,0-.056-.93,1.221,1.221,0,0,1,.057-.818c.434-1.075.825-2.234,1.207-3.356,1.245-3.684,2.539-7.493,5.558-8.975a1.194,1.194,0,0,1,.4-.1,19.221,19.221,0,0,0,4.345-1.161,24.11,24.11,0,0,1,3.056-.934,3.468,3.468,0,0,0,.383-.13C35.972,1.4,41.487.6,45.667,1.282c.4.065.793.144,1.173.239a1.235,1.235,0,0,1,.219.075,25.212,25.212,0,0,1,4.513,2.8c.794.572,1.617,1.166,2.468,1.7a8.114,8.114,0,0,1,2.974,3.177,1.386,1.386,0,0,0,.083.143,14.2,14.2,0,0,0,7.859,6.081,2.318,2.318,0,0,0,.426.078c1.223.135,2.649,1.017,2.881,1.784.061.208.089.527-.4.936a2.2,2.2,0,0,0-.762,1.447c-.088.739-1.38,1.121-2.324,1.4l-.252.074a2.206,2.206,0,0,0-.475.2c-2.421,1.41-3.517,3.987-4.577,6.48-.89,2.1-1.733,4.079-3.3,5.427a1.053,1.053,0,0,1-.2.135c-1.895,1.047-4.115,2.532-6.466,4.106-1.466.982-2.986,2-4.537,2.985" transform="translate(0 0)" fill="#14b4f0"/><path d="M28.683,48.359a11.367,11.367,0,0,1-4.746-.982A11.79,11.79,0,0,1,19.77,44.1l-.008-.011a.581.581,0,0,0-.047-.05l-.015-.016-.1-.091c-1.5-1.422-3.328-3.155-3.979-5.227a5.6,5.6,0,0,1-1.435,1.886,7.505,7.505,0,0,0-1.784,3.351,12.545,12.545,0,0,1-1.16,2.687,2.56,2.56,0,0,1-1.656,1.13,2.586,2.586,0,0,1-.489.047,2.522,2.522,0,0,1-1.467-.471,4.884,4.884,0,0,1-1.8-2.638l0-.009A6.707,6.707,0,0,0,4.545,42.33,10.873,10.873,0,0,1,2.629,38.9a20.915,20.915,0,0,0-1.178-2.671,17.256,17.256,0,0,1-1.29-3.091.321.321,0,0,1-.017-.054,12.334,12.334,0,0,1-.378-1.925,2.554,2.554,0,0,1,.586-1.934,2.487,2.487,0,0,1,1.772-.882c.145-.008.3-.012.447-.012a18.493,18.493,0,0,1,3.711.513,17.263,17.263,0,0,0,3.433.487,6.067,6.067,0,0,0,1.189-.11,2.335,2.335,0,0,1,.529-.054l.058,0a1.073,1.073,0,0,0,.859-.395.888.888,0,0,0,.166-.805c-.416-1.536.057-3.558.475-5.341.153-.658.312-1.339.385-1.863a2.5,2.5,0,0,1,.311-.939c.081-.139.084-.182.021-.386a2.514,2.514,0,0,1,.1-1.689c.422-1.044.807-2.18,1.179-3.279,1.333-3.938,2.711-8.009,6.22-9.728a2.486,2.486,0,0,1,.828-.227,18.019,18.019,0,0,0,4-1.074l.051-.018a25.157,25.157,0,0,1,3.2-.977l.176-.065.053-.02A39.422,39.422,0,0,1,42.564-.25a19.185,19.185,0,0,1,4.591.512,2.469,2.469,0,0,1,.426.148,26.138,26.138,0,0,1,4.751,2.931l.017.012c.772.557,1.571,1.133,2.371,1.636a9.339,9.339,0,0,1,3.429,3.659l.025.042.015.026a12.939,12.939,0,0,0,7.124,5.531,1.278,1.278,0,0,0,.208.035,5.861,5.861,0,0,1,2.407.87,3.54,3.54,0,0,1,1.576,1.827,2.1,2.1,0,0,1-.809,2.307.916.916,0,0,0-.308.606c-.187,1.59-2.027,2.13-3.244,2.487l-.248.073a.793.793,0,0,0-.188.08c-2.047,1.195-3.014,3.461-4.037,5.861l-.008.018c-.91,2.136-1.85,4.345-3.64,5.889a2.3,2.3,0,0,1-.423.291c-1.85,1.025-4.047,2.493-6.372,4.047-5.363,3.59-12.038,8.058-18.194,9.349A16.418,16.418,0,0,1,28.683,48.359Zm-8.525-4.572a11.293,11.293,0,0,0,3.986,3.135,10.871,10.871,0,0,0,4.539.937,15.919,15.919,0,0,0,3.251-.36c6.061-1.272,12.691-5.71,18.018-9.276,2.334-1.56,4.539-3.034,6.408-4.069a1.82,1.82,0,0,0,.336-.23c1.7-1.47,2.621-3.624,3.509-5.708l.008-.018c1.057-2.478,2.055-4.818,4.242-6.1a1.284,1.284,0,0,1,.3-.129L65,21.9c1.092-.32,2.74-.8,2.889-2.066a1.412,1.412,0,0,1,.484-.931,1.608,1.608,0,0,0,.65-1.778c-.361-1.193-2.165-2.194-3.558-2.345a1.72,1.72,0,0,1-.293-.052,13.446,13.446,0,0,1-7.409-5.744c-.011-.017-.02-.033-.029-.05l-.015-.027-.01-.017a8.852,8.852,0,0,0-3.254-3.477c-.818-.513-1.623-1.094-2.4-1.656l-.017-.012A25.749,25.749,0,0,0,47.379.867l0,0a1.965,1.965,0,0,0-.341-.118,18.687,18.687,0,0,0-4.47-.5,38.922,38.922,0,0,0-12.88,2.582l-.052.019-.171.063-.022.011-.03.006A24.622,24.622,0,0,0,26.25,3.9l-.051.018a18.39,18.39,0,0,1-4.114,1.1,2,2,0,0,0-.662.179c-3.322,1.627-4.666,5.6-5.966,9.439-.374,1.105-.761,2.248-1.189,3.307a2.014,2.014,0,0,0-.08,1.352.845.845,0,0,1-.068.787,2.009,2.009,0,0,0-.247.754c-.076.547-.237,1.239-.393,1.909-.4,1.726-.862,3.682-.48,5.095a1.377,1.377,0,0,1-.257,1.249,1.578,1.578,0,0,1-1.271.583l-.055,0a1.87,1.87,0,0,0-.411.045,6.563,6.563,0,0,1-1.289.12,17.616,17.616,0,0,1-3.535-.5,18.123,18.123,0,0,0-3.609-.5c-.143,0-.284,0-.42.011a1.991,1.991,0,0,0-1.418.707A2.052,2.052,0,0,0,.263,31.1,11.664,11.664,0,0,0,.62,32.926l0,0,.013.047A16.54,16.54,0,0,0,1.9,36a21.319,21.319,0,0,1,1.2,2.733A10.337,10.337,0,0,0,4.923,42,7.22,7.22,0,0,1,6.3,44.52l0,.008a4.357,4.357,0,0,0,1.619,2.4,2.024,2.024,0,0,0,1.177.378,2.083,2.083,0,0,0,.393-.038,2.058,2.058,0,0,0,1.33-.908,11.99,11.99,0,0,0,1.108-2.58,7.85,7.85,0,0,1,1.931-3.568,5.711,5.711,0,0,0,1.6-2.38l.334-.822.145.875c.37,2.236,2.387,4.148,4.007,5.684l.122.117A.986.986,0,0,1,20.158,43.786Zm8.6,3.556a10.543,10.543,0,0,1-4.023-.757,10.377,10.377,0,0,1-3.574-2.492c-.2-.21-.394-.432-.585-.661a1.923,1.923,0,0,0-.153-.162l-.1-.1c-2.119-2.011-4.756-4.513-3.613-7.441l.027-.07.061-.043a3.66,3.66,0,0,1,1.791-.574.277.277,0,0,0,.245-.3.278.278,0,0,0-.3-.244,4.235,4.235,0,0,0-2.075.7l-.022.016-.024.011a.277.277,0,0,0-.106.082l-.015.019-.019.016a4.692,4.692,0,0,0-1.191,1.974l-.007.017A5.606,5.606,0,0,1,13.506,39.8a8.318,8.318,0,0,0-2.079,3.766l-.013.039a11.52,11.52,0,0,1-1.049,2.464,1.5,1.5,0,0,1-.971.666,1.467,1.467,0,0,1-1.15-.246,3.865,3.865,0,0,1-1.427-2.156,7.684,7.684,0,0,0-1.48-2.687A10.073,10.073,0,0,1,3.62,38.557a21.185,21.185,0,0,0-1.233-2.8,18.631,18.631,0,0,1-1.07-2.432l-.081-.242.243-.076a4.436,4.436,0,0,1,.831-.182,7.229,7.229,0,0,1,.821-.036h.152l.247,0H3.7a21.159,21.159,0,0,0,3.912-.552h.005a.272.272,0,0,0,.21-.32.276.276,0,0,0-.321-.215c-.076.016-.158.033-.242.047a19.011,19.011,0,0,1-3.573.492c-.132,0-.269,0-.4,0H3.054a6.716,6.716,0,0,0-.807.039,5.074,5.074,0,0,0-.9.2l-.257.079-.06-.263a11.318,11.318,0,0,1-.217-1.259A1.5,1.5,0,0,1,1.151,29.9a1.451,1.451,0,0,1,1.027-.517c.127-.007.257-.01.388-.01a17.562,17.562,0,0,1,3.5.492l.183.038c.253.053.515.107.771.156a14.482,14.482,0,0,0,2.7.314,7,7,0,0,0,1.383-.129,1.346,1.346,0,0,1,.281-.035l.06,0a2.119,2.119,0,0,0,1.719-.791,1.937,1.937,0,0,0,.358-1.732c-.349-1.268.112-3.242.483-4.828.159-.682.324-1.388.4-1.958a1.532,1.532,0,0,1,.178-.548,1.44,1.44,0,0,0,.171-.423v-.006a1.462,1.462,0,0,0-.052-.8,1.472,1.472,0,0,1,.064-.985c.411-1.017.785-2.118,1.148-3.183l.054-.158c1.26-3.73,2.563-7.587,5.684-9.119a1.431,1.431,0,0,1,.484-.126,18.98,18.98,0,0,0,4.273-1.144l.05-.018a24.039,24.039,0,0,1,3.045-.929,3.353,3.353,0,0,0,.353-.121A38.354,38.354,0,0,1,42.549.794a19.651,19.651,0,0,1,3.159.241c.423.069.814.148,1.193.243a1.515,1.515,0,0,1,.262.09A25.4,25.4,0,0,1,51.718,4.19l.029.021c.782.563,1.591,1.146,2.424,1.669a8.362,8.362,0,0,1,3.062,3.271l0,.006a1.143,1.143,0,0,0,.068.117l0,0a13.945,13.945,0,0,0,7.717,5.975,2.06,2.06,0,0,0,.381.07c1.333.148,2.836,1.1,3.1,1.961a1.1,1.1,0,0,1-.478,1.2,1.947,1.947,0,0,0-.675,1.285c-.107.906-1.491,1.312-2.5,1.608l-.251.074a1.95,1.95,0,0,0-.42.18C61.827,23,60.748,25.537,59.7,27.991c-.9,2.123-1.751,4.129-3.364,5.519a1.29,1.29,0,0,1-.248.166c-1.887,1.042-4.1,2.525-6.445,4.094-1.518,1.017-3.008,2.01-4.541,2.988a61.706,61.706,0,0,1-8.272,4.583A20.317,20.317,0,0,1,28.761,47.343ZM17.148,35.984c-.949,2.587,1.526,4.935,3.518,6.825l.1.1a2.432,2.432,0,0,1,.192.2c.187.224.377.439.567.641a9.513,9.513,0,0,0,7.233,3.092,19.839,19.839,0,0,0,7.873-1.96,61.237,61.237,0,0,0,8.2-4.547c1.529-.975,3.016-1.967,4.532-2.982,2.354-1.576,4.578-3.064,6.484-4.117l.005,0a.808.808,0,0,0,.155-.1c1.525-1.314,2.354-3.268,3.231-5.336,1.075-2.53,2.187-5.146,4.681-6.6a2.454,2.454,0,0,1,.53-.227l.252-.074c.777-.228,2.078-.609,2.146-1.187A2.444,2.444,0,0,1,67.7,18.1c.415-.347.35-.567.319-.673a3.547,3.547,0,0,0-2.669-1.606,2.5,2.5,0,0,1-.469-.087,14.45,14.45,0,0,1-8-6.185,1.643,1.643,0,0,1-.1-.163,7.867,7.867,0,0,0-2.881-3.078l0,0c-.847-.532-1.662-1.12-2.451-1.688L51.426,4.6a25.008,25.008,0,0,0-4.467-2.77l-.009,0a1.033,1.033,0,0,0-.174-.059c-.363-.091-.74-.167-1.149-.234a19.152,19.152,0,0,0-3.079-.235A37.853,37.853,0,0,0,30.04,3.816a3.679,3.679,0,0,1-.406.137l-.011,0a23.627,23.627,0,0,0-2.987.912l-.05.018A19.36,19.36,0,0,1,22.2,6.055a.962.962,0,0,0-.318.079c-2.933,1.44-4.2,5.2-5.429,8.83l-.054.159c-.365,1.071-.742,2.179-1.158,3.21a.974.974,0,0,0-.05.65,1.954,1.954,0,0,1,.061,1.06,1.93,1.93,0,0,1-.227.564,1.034,1.034,0,0,0-.115.365c-.078.59-.246,1.308-.408,2-.358,1.531-.8,3.436-.487,4.582a2.432,2.432,0,0,1-.448,2.175,2.623,2.623,0,0,1-2.133.98l-.039,0a.912.912,0,0,0-.181.024,7.5,7.5,0,0,1-1.483.139,14.937,14.937,0,0,1-2.8-.323c-.26-.05-.524-.1-.778-.158l-.182-.038a17.208,17.208,0,0,0-3.4-.481c-.122,0-.243,0-.36.009a.954.954,0,0,0-.674.341,1,1,0,0,0-.228.757c.036.313.086.625.152.947a5.294,5.294,0,0,1,.731-.141,7.169,7.169,0,0,1,.867-.042H3.29c.13,0,.259,0,.391,0a18.631,18.631,0,0,0,3.487-.483l.01,0c.075-.012.152-.028.225-.044a.773.773,0,0,1,.315,1.514H7.712a21.537,21.537,0,0,1-4.007.562H3.531l-.253,0H3.132a6.786,6.786,0,0,0-.765.033,3.619,3.619,0,0,0-.489.091,19.911,19.911,0,0,0,.956,2.12,21.587,21.587,0,0,1,1.259,2.861,9.516,9.516,0,0,0,1.62,2.922A8.218,8.218,0,0,1,7.285,44.16a3.382,3.382,0,0,0,1.247,1.918.978.978,0,0,0,.758.165,1.009,1.009,0,0,0,.652-.444,11.173,11.173,0,0,0,1-2.358l.014-.04a8.692,8.692,0,0,1,2.225-3.981,5.2,5.2,0,0,0,1.426-2.272l.008-.02a5.18,5.18,0,0,1,1.312-2.153.775.775,0,0,1,.256-.2,4.738,4.738,0,0,1,2.3-.775c.027,0,.053,0,.078,0a.778.778,0,0,1,.773.692.787.787,0,0,1-.144.536l0,.006a.794.794,0,0,1-.54.31A3.369,3.369,0,0,0,17.148,35.984Z" transform="translate(0 0)" fill="#13b4f0"/><path d="M145.99,45.707a3,3,0,0,0,1.112-.155,3.669,3.669,0,0,1,.673-.138.5.5,0,0,0,.192,0,.524.524,0,0,0-.02-1.03,2.892,2.892,0,0,0-1.109.154,3.366,3.366,0,0,1-.674.134l-.484-.08c-1.756-.3-3.746-.637-5.112-1.776a9.75,9.75,0,0,1-.789-.769c-.417-.44-.843-.889-1.316-1.346a1.456,1.456,0,0,0,.193-.693A2.674,2.674,0,0,0,138.429,39l-.55-1.432a2.043,2.043,0,0,1-.077-.233,6.942,6.942,0,0,1,1.54,1c.119.089.234.179.349.269.695.525,1.432.994,2.147,1.446l1.511.963a18.315,18.315,0,0,0,3.2,1.745.524.524,0,1,0,.376-.977,17.609,17.609,0,0,1-3.018-1.652L142.4,39.17c-.7-.442-1.415-.9-2.072-1.4-.114-.087-.225-.174-.34-.26a6.2,6.2,0,0,0-2.438-1.353.538.538,0,0,0-.473.128,1.42,1.42,0,0,0-.172,1.659l.549,1.429a1.888,1.888,0,0,1,.161.612.315.315,0,0,1-.127.262.529.529,0,0,0-.284.395.537.537,0,0,0,.164.458c.61.564,1.142,1.126,1.658,1.666a10,10,0,0,0,.878.854c1.582,1.319,3.812,1.7,5.605,2Z" transform="translate(-89.014 -23.532)" fill="#14b4f0"/><path d="M146.171,45.971h0a1.369,1.369,0,0,1-.221-.017l-.487-.084c-1.82-.309-4.086-.694-5.723-2.058a10.219,10.219,0,0,1-.9-.875l-.1-.109c-.481-.5-.979-1.025-1.542-1.545a.791.791,0,0,1-.243-.672V40.6a.781.781,0,0,1,.395-.568.176.176,0,0,0,.014-.058,1.81,1.81,0,0,0-.144-.517l-.549-1.427A1.63,1.63,0,0,1,136.9,36.1l0,0a.786.786,0,0,1,.692-.186,6.355,6.355,0,0,1,2.525,1.389l.014.011.169.13.168.129c.65.491,1.365.946,2.056,1.386l1.551.986a17.2,17.2,0,0,0,2.936,1.607.775.775,0,0,1,.446,1,.777.777,0,0,1-1,.444,18.443,18.443,0,0,1-3.24-1.761l-.009-.006-1.511-.963c-.783-.5-1.488-.947-2.163-1.458l-.034-.027c-.1-.081-.207-.162-.314-.242a11.508,11.508,0,0,0-.934-.681l.413,1.075a2.837,2.837,0,0,1,.238,1.082,1.741,1.741,0,0,1-.138.636c.436.427.836.849,1.193,1.226a9.641,9.641,0,0,0,.768.749c1.315,1.1,3.269,1.429,4.993,1.722l.47.078a4.666,4.666,0,0,0,.573-.125l.011,0a4.056,4.056,0,0,1,.985-.176,1.394,1.394,0,0,1,.227.018.777.777,0,0,1,.636.891v0a.776.776,0,0,1-.6.625.753.753,0,0,1-.268.006,5.185,5.185,0,0,0-.586.13l-.043.011A4.038,4.038,0,0,1,146.171,45.971Zm-8.723-5.3a.285.285,0,0,0,.087.242c.573.529,1.076,1.056,1.563,1.566l.105.11a9.805,9.805,0,0,0,.857.834c1.533,1.278,3.725,1.65,5.487,1.95l.485.084a.866.866,0,0,0,.138.01h0A3.719,3.719,0,0,0,147,45.32l.041-.01a3.608,3.608,0,0,1,.719-.146h.035l.028,0a.256.256,0,0,0,.095,0,.274.274,0,0,0-.009-.539.894.894,0,0,0-.145-.011,3.729,3.729,0,0,0-.859.16l-.012,0a3.646,3.646,0,0,1-.7.141.456.456,0,0,1-.055,0h-.01l-.484-.08c-1.788-.3-3.812-.648-5.231-1.831a10.024,10.024,0,0,1-.81-.788c-.389-.411-.829-.876-1.309-1.338l-.141-.136.1-.169a1.2,1.2,0,0,0,.159-.575,2.4,2.4,0,0,0-.206-.894l-.007-.019-.55-1.431a2.271,2.271,0,0,1-.085-.258l-.133-.491.47.194a7.193,7.193,0,0,1,1.6,1.037c.106.08.213.163.317.244l.031.024c.658.5,1.353.943,2.127,1.432l1.521.969a18.062,18.062,0,0,0,3.151,1.717.277.277,0,0,0,.356-.157.275.275,0,0,0-.159-.354,17.575,17.575,0,0,1-3.025-1.651l-1.552-.986c-.7-.445-1.423-.906-2.089-1.41L140,37.84l-.168-.129-.016-.013a5.969,5.969,0,0,0-2.324-1.3.28.28,0,0,0-.057-.006.29.29,0,0,0-.192.074c-.317.3-.352.752-.108,1.384l.549,1.429a2.082,2.082,0,0,1,.177.7v.008a.556.556,0,0,1-.266.476A.277.277,0,0,0,137.448,40.675Z" transform="translate(-89.014 -23.532)" fill="#13b4f0"/><path d="M143.291,25.5a2.769,2.769,0,0,0,.86-.337,2.977,2.977,0,0,0,.883-.841,3.364,3.364,0,0,0-2.356-5.278,3.683,3.683,0,0,0-1.185.045,2.858,2.858,0,0,0-.779.281,2.766,2.766,0,0,0-1.347,1.666,3.217,3.217,0,0,0-.062,1.282,3.908,3.908,0,0,0,1.622,2.715,3.149,3.149,0,0,0,2.366.466m-2.947-3.321a2.163,2.163,0,0,1,.032-.866,1.711,1.711,0,0,1,.838-1.021,1.812,1.812,0,0,1,.494-.179,2.685,2.685,0,0,1,.846-.031,2.353,2.353,0,0,1,1.83,1.331,2.3,2.3,0,0,0-2.169-.686,1.436,1.436,0,0,0-1.049.912,1.756,1.756,0,0,0,1,2.033,2.081,2.081,0,0,0,1.427.257,1.588,1.588,0,0,0,.646-.3c-.019.029-.036.065-.055.094a1.867,1.867,0,0,1-2.674.443,2.839,2.839,0,0,1-1.162-1.985" transform="translate(-90.668 -12.376)" fill="#14b4f0"/><path d="M142.676,25.808h0a3.446,3.446,0,0,1-1.889-.571,4.163,4.163,0,0,1-1.731-2.889,3.465,3.465,0,0,1,.069-1.383,3.012,3.012,0,0,1,1.468-1.819,3.109,3.109,0,0,1,.848-.307,3.788,3.788,0,0,1,.777-.079,4.046,4.046,0,0,1,.49.03,3.614,3.614,0,0,1,2.53,5.671,3.229,3.229,0,0,1-.955.91,3,3,0,0,1-.94.369A3.245,3.245,0,0,1,142.676,25.808Zm-.458-6.548a3.288,3.288,0,0,0-.674.068,2.609,2.609,0,0,0-.711.256,2.509,2.509,0,0,0-1.226,1.513,2.971,2.971,0,0,0-.056,1.183,3.657,3.657,0,0,0,1.513,2.541,2.941,2.941,0,0,0,1.612.487,2.678,2.678,0,0,0,.563-.058,2.537,2.537,0,0,0,.782-.307,2.731,2.731,0,0,0,.806-.77,3.114,3.114,0,0,0-2.18-4.887A3.55,3.55,0,0,0,142.218,19.26Zm.46,5.5a2.4,2.4,0,0,1-1.31-.392,3.088,3.088,0,0,1-1.271-2.16,2.4,2.4,0,0,1,.038-.964,1.96,1.96,0,0,1,.96-1.176,2.054,2.054,0,0,1,.561-.2,2.761,2.761,0,0,1,.565-.056,3.029,3.029,0,0,1,.362.022A2.616,2.616,0,0,1,144.61,21.3l-.414.271a2.067,2.067,0,0,0-1.508-.656,1.8,1.8,0,0,0-.416.048,1.186,1.186,0,0,0-.87.749,1.516,1.516,0,0,0,.883,1.735,1.969,1.969,0,0,0,.946.262,1.5,1.5,0,0,0,.307-.031,1.338,1.338,0,0,0,.544-.256l.362.334c-.007.01-.013.021-.019.033s-.024.042-.036.061l-.007.01a2.286,2.286,0,0,1-.646.615A2.024,2.024,0,0,1,142.678,24.759Zm-.456-4.452a2.26,2.26,0,0,0-.462.045,1.556,1.556,0,0,0-.425.153,1.473,1.473,0,0,0-.716.867,1.913,1.913,0,0,0-.026.765,2.584,2.584,0,0,0,1.053,1.812,1.891,1.891,0,0,0,1.033.309,1.686,1.686,0,0,0,.423-.052,2.513,2.513,0,0,1-1.059-.321,2,2,0,0,1-1.112-2.334,1.682,1.682,0,0,1,1.227-1.073,2.372,2.372,0,0,1,.822-.044,1.972,1.972,0,0,0-.454-.109A2.526,2.526,0,0,0,142.221,20.307Z" transform="translate(-90.668 -12.376)" fill="#13b4f0"/><path d="M140.677,64.673A3.315,3.315,0,0,0,138.4,67.3a.523.523,0,0,0,.439.6.566.566,0,0,0,.188-.007.525.525,0,0,0,.408-.432,2.281,2.281,0,0,1,1.549-1.78.524.524,0,0,0-.3-1" transform="translate(-90.097 -42.09)" fill="#14b4f0"/><path d="M138.907,68.149a.821.821,0,0,1-.1-.007H138.8a.773.773,0,0,1-.648-.882,3.569,3.569,0,0,1,2.455-2.826.77.77,0,0,1,.222-.033.774.774,0,0,1,.225,1.514,2.025,2.025,0,0,0-1.374,1.579.778.778,0,0,1-.6.638A.817.817,0,0,1,138.907,68.149Zm-.038-.5a.317.317,0,0,0,.1,0,.275.275,0,0,0,.213-.226,2.54,2.54,0,0,1,1.724-1.98.272.272,0,0,0,.181-.339.276.276,0,0,0-.262-.2.271.271,0,0,0-.078.012,3.06,3.06,0,0,0-2.105,2.423.273.273,0,0,0,.226.311Z" transform="translate(-90.097 -42.09)" fill="#13b4f0"/><path d="M49.905,23.486a21.644,21.644,0,0,1,.923-2.6,20.744,20.744,0,0,1,4.448-5.737,6.575,6.575,0,0,1,1.745-1.4,6.441,6.441,0,0,1,.779-.281c.224-.072.454-.145.687-.241a6.09,6.09,0,0,0,.574-.274.449.449,0,0,0,.2-.105c.287-.164.563-.343.829-.516s.515-.333.775-.484a15.018,15.018,0,0,1,3.417-1.284,81.179,81.179,0,0,1,10.6-2.179.523.523,0,1,0-.139-1.037A82.119,82.119,0,0,0,64,9.553a15.5,15.5,0,0,0-3.66,1.385c-.283.163-.559.342-.823.515-.28.18-.551.351-.824.508a21.393,21.393,0,0,0-4.748,1.3c-.111.048-.222.1-.335.153a5.528,5.528,0,0,1-1.105.424c-.154.032-.321.053-.494.075a4.619,4.619,0,0,0-.784.139,5.065,5.065,0,0,0-1.409.745,3.483,3.483,0,0,1-1.24.635.532.532,0,0,0-.413.614.522.522,0,0,0,.611.414l.045-.009a4.519,4.519,0,0,0,1.586-.786,4.085,4.085,0,0,1,1.11-.607,3.926,3.926,0,0,1,.623-.106c.187-.025.386-.049.587-.091a6.271,6.271,0,0,0,1.325-.5c.107-.047.211-.1.319-.146.2-.087.4-.166.6-.244-.151.149-.3.3-.439.438a21.528,21.528,0,0,0-4.658,6.044q-.154.338-.285.68a24.293,24.293,0,0,1-4.368,3.078.523.523,0,0,0-.273.482.483.483,0,0,0,.062.226.525.525,0,0,0,.569.266.534.534,0,0,0,.139-.05A23.357,23.357,0,0,0,48.959,23c-.02.058-.036.115-.056.176l-1.875,6.084a12.241,12.241,0,0,1-1.37,3.276.521.521,0,0,0,.138.727.509.509,0,0,0,.4.08.526.526,0,0,0,.325-.218,13,13,0,0,0,1.5-3.557Z" transform="translate(-29.263 -4.778)" fill="#14b4f0"/><path d="M46.086,33.607a.752.752,0,0,1-.434-.137.771.771,0,0,1-.2-1.074,12.04,12.04,0,0,0,1.336-3.2l1.7-5.524a22.6,22.6,0,0,1-2.652,1.685.792.792,0,0,1-.208.075.764.764,0,0,1-.156.016.773.773,0,0,1-.682-.406A.737.737,0,0,1,44.7,24.7a.776.776,0,0,1,.4-.708,23.96,23.96,0,0,0,4.276-3.006c.083-.213.173-.426.268-.636a20.133,20.133,0,0,1,4.234-5.635,5.438,5.438,0,0,1-1.1.389c-.185.039-.361.062-.531.084l-.076.01a3.744,3.744,0,0,0-.588.1,3.916,3.916,0,0,0-1.038.573l-.02.014a4.66,4.66,0,0,1-1.653.81l-.049.01a.77.77,0,0,1-.906-.614.779.779,0,0,1,.608-.9h.006a3.232,3.232,0,0,0,1.118-.578l.047-.032a5.2,5.2,0,0,1,1.459-.765,4.892,4.892,0,0,1,.826-.148l.028,0c.158-.02.308-.04.442-.068a5.181,5.181,0,0,0,1.02-.392l.065-.03c.105-.049.2-.095.308-.14A21.42,21.42,0,0,1,58.6,11.723c.269-.156.532-.323.777-.481.263-.172.545-.356.833-.521a15.668,15.668,0,0,1,3.718-1.409A82.389,82.389,0,0,1,74.71,7.1a.773.773,0,1,1,.207,1.533A80.916,80.916,0,0,0,64.346,10.8a14.826,14.826,0,0,0-3.36,1.26c-.2.117-.4.243-.606.376l-.158.1c-.246.16-.527.343-.817.51a.7.7,0,0,1-.248.134,6.252,6.252,0,0,1-.573.272c-.233.1-.461.169-.681.239l-.025.008a6.225,6.225,0,0,0-.751.27,6.374,6.374,0,0,0-1.672,1.352,20.567,20.567,0,0,0-4.4,5.665,21.633,21.633,0,0,0-.912,2.57l-1.883,6.1a13.155,13.155,0,0,1-1.531,3.61.771.771,0,0,1-.481.322A.788.788,0,0,1,46.086,33.607Zm3.381-11.314-.272.792c-.012.034-.022.068-.033.1l-.022.069-1.874,6.082a12.421,12.421,0,0,1-1.4,3.342.268.268,0,0,0-.044.2.272.272,0,0,0,.116.176.26.26,0,0,0,.21.042.277.277,0,0,0,.171-.114,12.774,12.774,0,0,0,1.467-3.476l0-.014,1.878-6.085a22.013,22.013,0,0,1,.935-2.63,20.959,20.959,0,0,1,4.5-5.809,6.743,6.743,0,0,1,1.816-1.454,6.591,6.591,0,0,1,.811-.294l.023-.007c.211-.068.429-.138.644-.226a5.828,5.828,0,0,0,.55-.263l.027-.014L59,12.708a.2.2,0,0,0,.087-.046l.021-.02.025-.014c.286-.163.568-.347.817-.509l.159-.1c.213-.136.414-.265.627-.389a15.244,15.244,0,0,1,3.476-1.309A81.418,81.418,0,0,1,74.849,8.134a.273.273,0,1,0-.072-.542,81.887,81.887,0,0,0-10.71,2.2,15.245,15.245,0,0,0-3.6,1.361c-.276.158-.551.337-.81.507s-.546.348-.837.516l-.037.021-.041.008a21.206,21.206,0,0,0-4.693,1.282c-.1.043-.2.088-.3.136l-.065.03a5.534,5.534,0,0,1-1.125.427c-.156.033-.315.053-.484.075l-.032,0a4.415,4.415,0,0,0-.746.131,4.809,4.809,0,0,0-1.319.7l-.045.03a3.582,3.582,0,0,1-1.3.655.281.281,0,0,0-.217.321.273.273,0,0,0,.267.222.262.262,0,0,0,.051,0l.037-.008h.005a4.271,4.271,0,0,0,1.479-.736l.019-.013a4.251,4.251,0,0,1,1.181-.64,4.094,4.094,0,0,1,.663-.114l.072-.01c.161-.021.327-.043.492-.078a6.061,6.061,0,0,0,1.266-.479l.009,0,.161-.074.157-.072c.188-.084.383-.16.572-.233l.04-.016.266.411-.223.222-.217.216a21.285,21.285,0,0,0-4.606,5.97c-.1.22-.194.444-.279.666l-.022.059-.048.041a24.533,24.533,0,0,1-4.413,3.109.274.274,0,0,0-.142.251.24.24,0,0,0,.029.113l0,.005a.274.274,0,0,0,.242.144.267.267,0,0,0,.055-.006.289.289,0,0,0,.076-.027,22.979,22.979,0,0,0,3.2-2.107Z" transform="translate(-29.263 -4.778)" fill="#13b4f0"/><path d="M113.057,45.477a4.142,4.142,0,0,1-1.124.183l-.135-.029a7.365,7.365,0,0,1-3.96-1.743.573.573,0,0,1-.04-.041c-1.739-1.472-2.493-3.535-3.292-5.713-.157-.427-.314-.851-.477-1.269a.7.7,0,0,0-.033-.072c-.735-1.258-2.062-4.88-1.311-6.2a.936.936,0,0,1,.924-.458.485.485,0,0,0,.347-.133,4.606,4.606,0,0,1,2.841,1.1.5.5,0,0,0,.052.064c2.508,2.569,5.1,5.226,7.5,7.963a.523.523,0,1,0,.786-.689c-2.414-2.753-5.011-5.41-7.524-7.988a6.071,6.071,0,0,0-3.252-1.514,1.569,1.569,0,0,0-.937.157,1.935,1.935,0,0,0-1.653.978c-1.071,1.879.578,5.947,1.295,7.205.155.4.3.8.453,1.21.809,2.205,1.643,4.483,3.573,6.136a8.349,8.349,0,0,0,4.472,2.025l.176.038a.4.4,0,0,0,.084.011,4.806,4.806,0,0,0,1.483-.208,2.342,2.342,0,0,1,1.64-.052.524.524,0,0,0,.349.048.515.515,0,0,0,.357-.271.522.522,0,0,0-.223-.706,3.207,3.207,0,0,0-2.375-.036" transform="translate(-66.029 -18.835)" fill="#14b4f0"/><path d="M112,46.957c-.066,0-.131,0-.195-.007a.626.626,0,0,1-.124-.017l-.186-.041a8.543,8.543,0,0,1-4.577-2.084c-1.971-1.692-2.816-4-3.633-6.225l0-.006c-.141-.384-.292-.793-.445-1.188a15.949,15.949,0,0,1-1.333-3.414c-.468-1.792-.452-3.146.048-4.023a2.165,2.165,0,0,1,1.8-1.1,1.864,1.864,0,0,1,1.031-.161,6.3,6.3,0,0,1,3.418,1.6l.192.2c2.448,2.511,4.979,5.107,7.333,7.792a.771.771,0,0,1-.067,1.089.775.775,0,0,1-1.094-.07c-2.409-2.742-5-5.392-7.5-7.954a.732.732,0,0,1-.077-.093,5.029,5.029,0,0,0-2.457-1.029.419.419,0,0,0-.054,0,.729.729,0,0,1-.47.163c-.525,0-.654.233-.709.33a4.478,4.478,0,0,0,.122,2.933,13.893,13.893,0,0,0,1.187,3.015l.006.012a.916.916,0,0,1,.045.1c.161.413.317.837.477,1.27l.007.019c.786,2.142,1.529,4.165,3.212,5.59l.024.023c.007.008.015.016.022.023l.016.016a7.179,7.179,0,0,0,3.832,1.67l.11.024A4.109,4.109,0,0,0,113,45.234l.012,0a5.661,5.661,0,0,1,1.364-.219,2.476,2.476,0,0,1,1.176.279.774.774,0,0,1,.383.459.774.774,0,0,1-.581.984.783.783,0,0,1-.515-.071,1,1,0,0,0-.469-.1,4.445,4.445,0,0,0-.994.175l-.025.006A5.527,5.527,0,0,1,112,46.957Zm-7.86-17.775a1.17,1.17,0,0,0-.592.133l-.051.03-.059,0a1.7,1.7,0,0,0-1.451.852c-1.007,1.767.621,5.775,1.295,6.958l.009.016.007.017c.157.405.311.822.455,1.214l0,.006c.8,2.172,1.62,4.417,3.5,6.025l.019.018a8.14,8.14,0,0,0,4.334,1.95l.194.042.034,0c.057,0,.111.006.166.006a5.148,5.148,0,0,0,1.221-.2l.023-.006a4.776,4.776,0,0,1,1.116-.19,1.48,1.48,0,0,1,.7.16.277.277,0,0,0,.182.025.274.274,0,0,0,.206-.347.277.277,0,0,0-.137-.164,1.988,1.988,0,0,0-.944-.222,5.2,5.2,0,0,0-1.243.2l-.011,0a4.347,4.347,0,0,1-1.194.19H111.9l-.156-.034a7.561,7.561,0,0,1-4.083-1.81l-.038-.038c-1.776-1.509-2.539-3.588-3.346-5.789l-.007-.019c-.159-.431-.315-.852-.475-1.265a.412.412,0,0,0-.019-.042c-.7-1.2-2.147-4.971-1.309-6.44a1.2,1.2,0,0,1,1.139-.584.24.24,0,0,0,.178-.066l.023-.021.027-.015a.617.617,0,0,1,.3-.063A5.217,5.217,0,0,1,107,30.958l0,0a.255.255,0,0,0,.024.029c2.508,2.569,5.1,5.223,7.516,7.975a.277.277,0,0,0,.207.093.272.272,0,0,0,.182-.069.271.271,0,0,0,.022-.383c-2.346-2.675-4.872-5.267-7.316-7.773l-.218-.225a5.852,5.852,0,0,0-3.078-1.42C104.273,29.185,104.207,29.182,104.145,29.182Z" transform="translate(-66.029 -18.835)" fill="#13b4f0"/><path d="M124.644,59.776a.52.52,0,0,0-.179-.718c-1.959-1.179-3.906-2.439-5.788-3.742a.523.523,0,1,0-.6.86c1.9,1.316,3.866,2.587,5.846,3.779a.538.538,0,0,0,.377.064.527.527,0,0,0,.341-.243" transform="translate(-76.728 -35.952)" fill="#14b4f0"/><path d="M124.2,60.279a.8.8,0,0,1-.4-.108c-2.007-1.209-3.978-2.484-5.863-3.79a.774.774,0,0,1-.195-1.076.78.78,0,0,1,.638-.332.768.768,0,0,1,.438.137c1.89,1.308,3.833,2.564,5.775,3.733a.77.77,0,0,1,.264,1.062.78.78,0,0,1-.5.358A.756.756,0,0,1,124.2,60.279Zm-5.819-4.806a.279.279,0,0,0-.228.118.273.273,0,0,0,.069.379c1.876,1.3,3.839,2.569,5.833,3.771a.291.291,0,0,0,.2.033.278.278,0,0,0,.179-.128.27.27,0,0,0-.093-.374c-1.953-1.176-3.9-2.437-5.8-3.751A.27.27,0,0,0,118.38,55.473Z" transform="translate(-76.728 -35.952)" fill="#13b4f0"/><path d="M126.971,70.422a.522.522,0,1,0-.312,1,13.278,13.278,0,0,0,2.776.551.452.452,0,0,0,.152-.007.524.524,0,0,0-.061-1.035,12.3,12.3,0,0,1-2.555-.5" transform="translate(-82.221 -45.831)" fill="#14b4f0"/><path d="M129.489,72.222a.662.662,0,0,1-.081,0,13.529,13.529,0,0,1-2.823-.561.759.759,0,0,1-.451-.371.772.772,0,0,1,.679-1.138.768.768,0,0,1,.235.037,12.04,12.04,0,0,0,2.5.494.774.774,0,0,1,.09,1.529A.729.729,0,0,1,129.489,72.222Zm-2.676-1.576a.272.272,0,0,0-.258.19.278.278,0,0,0,.02.213.264.264,0,0,0,.157.129,13.033,13.033,0,0,0,2.725.542h.011a.2.2,0,0,0,.067,0,.275.275,0,0,0,.217-.247.274.274,0,0,0-.248-.295,12.546,12.546,0,0,1-2.607-.515A.273.273,0,0,0,126.813,70.647Z" transform="translate(-82.221 -45.831)" fill="#13b4f0"/><path d="M83.658,103.218a20,20,0,0,1-5.547,2.4,8.73,8.73,0,0,1-2.423.348,9.371,9.371,0,0,1-2.444-.485,21.111,21.111,0,0,1-3.972-1.634,13.292,13.292,0,0,1-2.861-2.263,8.183,8.183,0,0,0-4.763-2.748.5.5,0,0,0-.4.1.512.512,0,0,0-.2.335.521.521,0,0,0,.439.6,7.262,7.262,0,0,1,4.193,2.465,14.08,14.08,0,0,0,3.084,2.426c.077.044.157.085.233.126-2.412.638-4.813,1.4-7.147,2.267a.523.523,0,0,0-.308.671.921.921,0,0,0,.043.087.523.523,0,0,0,.554.244.608.608,0,0,0,.077-.023,76.521,76.521,0,0,1,8.251-2.548c.553.237,1.137.457,1.759.668-1.764.72-3.55,1.419-5.33,2.075a.523.523,0,0,0,.285,1,.6.6,0,0,0,.078-.02c2.191-.809,4.4-1.679,6.557-2.582a8.569,8.569,0,0,0,1.839.284,8.42,8.42,0,0,0,1.951-.2c.277-.058.534-.123.768-.183a21.1,21.1,0,0,0,5.834-2.526.524.524,0,0,0-.554-.889" transform="translate(-39.743 -64.343)" fill="#14b4f0"/><path d="M67.077,109.593a.774.774,0,0,1-.725-.506.773.773,0,0,1,.46-.992c1.492-.55,3.075-1.162,4.711-1.823-.381-.139-.737-.279-1.075-.422a76.262,76.262,0,0,0-8.143,2.52l-.017.006a.727.727,0,0,1-.1.028.769.769,0,0,1-.156.016.778.778,0,0,1-.662-.376,1.142,1.142,0,0,1-.057-.113l-.007-.016a.773.773,0,0,1,.457-.992c2.111-.788,4.32-1.5,6.574-2.114a15.158,15.158,0,0,1-2.831-2.291,7.061,7.061,0,0,0-4.058-2.4.773.773,0,0,1,.233-1.529,8.384,8.384,0,0,1,4.9,2.815,13.1,13.1,0,0,0,2.809,2.225,20.877,20.877,0,0,0,3.925,1.614,9.181,9.181,0,0,0,2.378.474l.15,0a8.851,8.851,0,0,0,2.2-.342,19.769,19.769,0,0,0,5.478-2.372.779.779,0,0,1,.409-.116.773.773,0,0,1,.411,1.429,21.344,21.344,0,0,1-5.9,2.556c-.23.059-.5.126-.78.185a8.831,8.831,0,0,1-1.82.207l-.19,0a8.6,8.6,0,0,1-1.812-.272c-2.157.9-4.341,1.759-6.491,2.554l-.006,0a.841.841,0,0,1-.109.028A.769.769,0,0,1,67.077,109.593Zm3.414-4.27.077.033c.526.226,1.1.442,1.741.661l.633.215-.619.253c-1.859.759-3.655,1.458-5.339,2.078a.273.273,0,0,0-.163.351.271.271,0,0,0,.311.173l.046-.011c2.168-.8,4.369-1.668,6.544-2.577l.077-.032.081.02a8.265,8.265,0,0,0,1.786.277l.175,0a8.339,8.339,0,0,0,1.717-.2c.273-.058.524-.12.757-.18a20.84,20.84,0,0,0,5.763-2.5.275.275,0,0,0,.122-.172.274.274,0,0,0-.267-.334.277.277,0,0,0-.145.041,20.264,20.264,0,0,1-5.614,2.43,8.971,8.971,0,0,1-2.494.356,9.622,9.622,0,0,1-2.51-.5,21.369,21.369,0,0,1-4.02-1.654,13.489,13.489,0,0,1-2.912-2.3,7.983,7.983,0,0,0-4.629-2.683.257.257,0,0,0-.2.051l-.006,0a.263.263,0,0,0-.1.172.274.274,0,0,0,.05.206.27.27,0,0,0,.179.107,7.459,7.459,0,0,1,4.33,2.532,13.814,13.814,0,0,0,3.031,2.387c.056.032.111.061.165.089l.627.335-.615.163c-2.445.647-4.842,1.407-7.124,2.259a.273.273,0,0,0-.164.343c.01.021.018.04.027.055a.276.276,0,0,0,.287.126l.034-.011.01,0a76.786,76.786,0,0,1,8.275-2.556Z" transform="translate(-39.743 -64.343)" fill="#13b4f0"/></g></g><g transform="translate(60 3561.439)"><g transform="translate(0 0)"><g transform="translate(68.405 1.841)"><path d="M165.142,71.093l-.078.019c-7.81,1.879-15.5,3.732-23.2,5.569q7.812-2.267,15.543-4.844a.907.907,0,0,0,.277-.088c2.883-.966,5.75-1.954,8.6-2.995a40.916,40.916,0,0,1,2.308,5.755,9.971,9.971,0,0,0-1.952,1.658.921.921,0,0,0-.19.924l.067.187c.518,1.461,1.051,2.95,1.609,4.243a31.073,31.073,0,0,1-5.7,3.082,9.251,9.251,0,0,1-.661-5.434c.4-2.113.985-4.051,4.149-6.452a.918.918,0,0,0-.773-1.624" transform="translate(-141.864 -28.486)" fill="#fff"/><path d="M73.62,23.335c-.152-.018-.31-.036-.464-.067a.746.746,0,0,0-.243-.01A147.167,147.167,0,0,0,41.6,29.086c4.647-6.031,8.382-11.18,11.117-17.862a1.492,1.492,0,0,0,.051-.182,16.525,16.525,0,0,0,.2-2.037,8.774,8.774,0,0,1,.567-3.151,4.528,4.528,0,0,1,3.546-2.842,4.614,4.614,0,0,1,3.144,1.244A15.507,15.507,0,0,1,62.71,7.309Z" transform="translate(14.517 -3.005)" fill="#fff"/><path d="M140.13,81.2a39.883,39.883,0,0,1,.987,5.114c0-.006-.008-.012-.009-.017-.59-1.257-1.175-2.868-1.738-4.458a7.98,7.98,0,0,1,.759-.639" transform="translate(-112.859 -33.309)" fill="#fff"/><path d="M4.677,50.973c-.91-1.36-1.847-2.765-1.592-4.1.323-1.709,2.518-2.637,4.438-2.925,5.408-.818,11.465.56,18.526,4.22,2.366,1.228,4.715,2.621,6.987,3.963A96.983,96.983,0,0,0,43.524,57.78c4.944,2.168,12.193,4.233,19.143,2.1.29-.091.578-.187.872-.291a.919.919,0,1,0-.623-1.729c-6.641,2.39-13.81.361-18.653-1.761A97.432,97.432,0,0,1,33.97,50.549c-1.758-1.042-3.558-2.108-5.4-3.118a145.947,145.947,0,0,1,40.314-8.962,13.8,13.8,0,0,0,5.259-.434,16.383,16.383,0,0,1,3.818-.522,7.509,7.509,0,0,1,5.551,2.763,16.615,16.615,0,0,1,1.521,2.446,13.775,13.775,0,0,0,2.309,3.4,13.883,13.883,0,0,0,2.536,1.858c.441.269.849.526,1.247.8a4.646,4.646,0,0,1,2.055,2.675,5.393,5.393,0,0,1-.65,1,42.235,42.235,0,0,0-7.283,1.539,53.786,53.786,0,0,1-5.382,1.286l-.06.01c-.992.161-2.017.266-3.011.372-1.219.13-2.471.26-3.717.494a12.678,12.678,0,0,0-6.474,2.928,14.294,14.294,0,0,0-1.321,1.146c-.371.352-.943.879-1.1.979a.9.9,0,0,0-.154.118c-.258.092-.51.183-.769.268a128.285,128.285,0,0,1-40.7,7.1l-.576.007a29.094,29.094,0,0,0-5.646.423,11.4,11.4,0,0,0-4.614,2.041A42,42,0,0,0,4.758,51.09ZM71.2,50.217a2.4,2.4,0,0,0,.768,1.1,3.615,3.615,0,0,0,2.938.819,3.5,3.5,0,0,0,.969-.3,3.682,3.682,0,0,0,1.96-2.6,1.5,1.5,0,0,0-1.469-1.784c-.124,0-.254,0-.375.018a4.88,4.88,0,0,0-.807.187L75,47.712a5.237,5.237,0,0,1-1.5.176,2.294,2.294,0,0,0-1.962.605,1.792,1.792,0,0,0-.334,1.723m-3.5-2.893q.845-.184,1.687-.386a22.307,22.307,0,0,1,5.845-.845,10.634,10.634,0,0,1,6.573,2.6.925.925,0,0,0,.755.218.922.922,0,0,0,.453-1.6A12.46,12.46,0,0,0,75.3,44.257a23.814,23.814,0,0,0-6.327.893c-.557.128-1.107.255-1.652.374-2.136.453-4.882.845-7.183-.177a.918.918,0,1,0-.744,1.678c2.783,1.241,5.9.808,8.307.3" transform="translate(18.569 -16.378)" fill="#fff"/><path d="M9.671,71.406a10.838,10.838,0,0,1,5.6-2.507c1.168-.221,2.395-.347,3.572-.47,1.042-.114,2.116-.227,3.18-.4A54.773,54.773,0,0,0,27.595,66.7c1.277-.35,2.525-.69,3.765-.966a30.9,30.9,0,0,1-3.713,1.553l-6.905,2.52A63.33,63.33,0,0,1,9.053,71.916a4.823,4.823,0,0,1,.447-.377,1.122,1.122,0,0,0,.171-.133" transform="translate(76.712 -27.317)" fill="#fff"/><path d="M165.039,72.449a.694.694,0,0,1,.026-.488,1.888,1.888,0,0,1,1.574-.7,6.018,6.018,0,0,1,2.248.584l.06.028q-1.821.594-3.65,1.171a1.8,1.8,0,0,1-.258-.6" transform="translate(-156.392 -29.459)" fill="#fff"/></g><g transform="translate(0)"><path d="M.7,65.521l28.287-7.03c15.363-3.816,31.108-7.73,46.543-12.514a3.6,3.6,0,0,1-.275-.775,2.489,2.489,0,0,1,.29-1.877,3.662,3.662,0,0,1,3.116-1.519,7.791,7.791,0,0,1,2.954.723,7.063,7.063,0,0,1,.821.431,1.976,1.976,0,0,0,1.178.416q4.2-1.4,8.356-2.911-.818-1.477-1.761-2.89l-.075-.118c-1.015-1.51-2.27-3.391-1.877-5.472.429-2.248,2.66-3.9,5.968-4.4,5.68-.862,11.953.506,19.162,4.16a.021.021,0,0,0,.017-.009q3.992-1.553,8.059-2.869c5.3-6.831,9.5-12.255,12.439-19.417a15.4,15.4,0,0,0,.161-1.72,10.249,10.249,0,0,1,.727-3.8A5.776,5.776,0,0,1,144.357,1.7a16.952,16.952,0,0,1,2.788,3.406l11.568,16.975c.661-.095,1.333-.235,2.022-.385a17.714,17.714,0,0,1,4.259-.557,9.358,9.358,0,0,1,6.926,3.44,17.4,17.4,0,0,1,1.7,2.726,12.407,12.407,0,0,0,1.984,2.966,12.275,12.275,0,0,0,2.215,1.6c.442.276.9.555,1.339.868a5.978,5.978,0,0,1,2.856,4.245.948.948,0,0,1-.072.434,9.129,9.129,0,0,1-3.728,3.976,26.628,26.628,0,0,1-4.825,2.144l-6.958,2.541a69.666,69.666,0,0,1-14.718,2.408A130.175,130.175,0,0,1,129.065,54.3a130.671,130.671,0,0,1-19.514,1.687l-.583,0a27.5,27.5,0,0,0-5.285.388,8.682,8.682,0,0,0-4.748,2.51.915.915,0,0,1-1.274.1,10.177,10.177,0,0,1-2.155-2.448,31.937,31.937,0,0,1-6.671,3.425.918.918,0,0,1-1.11-.415A11.027,11.027,0,0,1,86.5,52.184a10.435,10.435,0,0,1,2.242-5.137c-28.59,6.88-55.865,13.416-87.631,20.268a.927.927,0,0,1-1.086-.692.916.916,0,0,1,.671-1.1m91.76-19.451c-3.165,2.4-3.749,4.34-4.15,6.453a9.254,9.254,0,0,0,.661,5.433,31.068,31.068,0,0,0,5.7-3.081c-.558-1.293-1.092-2.782-1.609-4.243l-.067-.187a.922.922,0,0,1,.19-.925,10.013,10.013,0,0,1,1.952-1.658,40.912,40.912,0,0,0-2.308-5.755c-2.853,1.041-5.72,2.029-8.6,2.994a.908.908,0,0,1-.277.089Q76.232,47.768,68.4,50.034c7.7-1.836,15.39-3.689,23.2-5.569l.078-.018a.918.918,0,0,1,.773,1.624m4.208,8.772a39.9,39.9,0,0,0-.987-5.114,8.069,8.069,0,0,0-.759.639c.563,1.59,1.148,3.2,1.737,4.458,0,.006.008.011.009.017M98.7,56.621a11.4,11.4,0,0,1,4.613-2.041,29.19,29.19,0,0,1,5.646-.423l.576-.007a128.282,128.282,0,0,0,40.7-7.1c.259-.086.511-.176.769-.268a.968.968,0,0,1,.155-.118c.157-.1.729-.627,1.1-.979a14.475,14.475,0,0,1,1.322-1.146,12.685,12.685,0,0,1,6.473-2.928c1.246-.233,2.5-.363,3.717-.493.995-.106,2.02-.211,3.011-.372l.06-.01a53.789,53.789,0,0,0,5.382-1.286,42.235,42.235,0,0,1,7.283-1.539,5.317,5.317,0,0,0,.65-1,4.642,4.642,0,0,0-2.055-2.675c-.4-.277-.807-.533-1.248-.8a13.911,13.911,0,0,1-2.536-1.858,13.775,13.775,0,0,1-2.309-3.4,16.549,16.549,0,0,0-1.521-2.446,7.509,7.509,0,0,0-5.55-2.764,16.38,16.38,0,0,0-3.818.522,13.8,13.8,0,0,1-5.26.434,145.97,145.97,0,0,0-40.314,8.963c1.84,1.01,3.639,2.076,5.4,3.117a97.445,97.445,0,0,0,10.292,5.554c4.844,2.122,12.012,4.151,18.653,1.761a.919.919,0,0,1,.623,1.729c-.293.1-.582.2-.872.291-6.95,2.13-14.2.064-19.143-2.1a97.313,97.313,0,0,1-10.488-5.652c-2.272-1.343-4.621-2.735-6.986-3.964-7.062-3.659-13.119-5.038-18.527-4.22-1.92.288-4.114,1.216-4.438,2.925-.254,1.338.682,2.743,1.592,4.1l.081.117A42,42,0,0,1,98.7,56.621m67.161-12.289,6.906-2.52a30.755,30.755,0,0,0,3.712-1.553c-1.24.276-2.487.616-3.764.966a54.459,54.459,0,0,1-5.567,1.328c-1.064.173-2.137.286-3.18.4-1.178.124-2.4.249-3.572.47a10.846,10.846,0,0,0-5.6,2.507,1.188,1.188,0,0,1-.171.134,4.874,4.874,0,0,0-.448.377,63.309,63.309,0,0,0,11.689-2.107M140.006,1.847a4.527,4.527,0,0,0-3.545,2.842,8.761,8.761,0,0,0-.567,3.151,16.526,16.526,0,0,1-.2,2.037,1.4,1.4,0,0,1-.051.183c-2.735,6.681-6.47,11.831-11.117,17.861a147.2,147.2,0,0,1,31.312-5.828.733.733,0,0,1,.244.01c.154.031.312.048.464.067L145.632,6.143a15.506,15.506,0,0,0-2.483-3.052,4.612,4.612,0,0,0-3.144-1.244M80.9,44.228a6.017,6.017,0,0,0-2.248-.584,1.888,1.888,0,0,0-1.574.7.7.7,0,0,0-.026.488,1.8,1.8,0,0,0,.258.6q1.833-.577,3.65-1.171l-.06-.028" transform="translate(0 0)" fill="#14b4f0"/><path d="M19.208,50.075a.926.926,0,0,1,1.215-.465c2.3,1.022,5.048.631,7.183.178.545-.119,1.1-.246,1.652-.374a23.761,23.761,0,0,1,6.327-.893A12.463,12.463,0,0,1,43.3,51.577a.923.923,0,0,1-.453,1.6.927.927,0,0,1-.755-.218,10.639,10.639,0,0,0-6.573-2.6,22.308,22.308,0,0,0-5.845.846q-.842.2-1.687.386c-2.406.509-5.524.943-8.308-.3a.919.919,0,0,1-.47-1.214" transform="translate(126.69 -18.801)" fill="#14b4f0"/><path d="M30.441,54.18a5.237,5.237,0,0,0,1.5-.176l.183-.055a4.819,4.819,0,0,1,.807-.187c.122-.013.252-.017.375-.018a1.5,1.5,0,0,1,1.469,1.784,3.682,3.682,0,0,1-1.96,2.6,3.525,3.525,0,0,1-.969.3,3.615,3.615,0,0,1-2.938-.819,2.4,2.4,0,0,1-.768-1.1,1.794,1.794,0,0,1,.334-1.723,2.293,2.293,0,0,1,1.962-.6" transform="translate(130.03 -20.828)" fill="#14b4f0"/></g></g></g></g></svg>