<svg xmlns="http://www.w3.org/2000/svg" width="286.3" height="200.617" viewBox="0 0 286.3 200.617"><g transform="translate(-44.829 -1346.835)"><g transform="matrix(0.809, -0.588, 0.588, 0.809, 83.507, 1455.143)"><g transform="translate(1.945 3.47)"><path d="M1328.263,603.479a2.357,2.357,0,0,0,.684.645,5.55,5.55,0,0,1,.834.729c1.146,1.263,1.029,2.911.925,4.37a14.068,14.068,0,0,0-.059,1.446c.078,1.921,1.25,3.732,2.286,5.327,1.928,2.976,3.92,6.05,6.766,8.154a5.461,5.461,0,0,0,3.1,1.283h.013a6.807,6.807,0,0,0,2.429-.625,85.268,85.268,0,0,0,12.914-6.324,3.86,3.86,0,0,0,1.485-1.244c.443-.807.091-1.993-.312-3.048a53.876,53.876,0,0,0-21.986-26.427,19.848,19.848,0,0,0-5.555-2.533,27.439,27.439,0,0,0-4.754-.567,28.347,28.347,0,0,1-4.9-.58.989.989,0,0,1-.137-.02.719.719,0,0,1-.208-.072,9,9,0,0,1-3.881-2.045.977.977,0,0,1,1.328-1.433,6.687,6.687,0,0,0,2.195,1.316,12.242,12.242,0,0,0-1.022-5.959,24.414,24.414,0,0,0-2.162-4.031,22.267,22.267,0,0,0-6.434-2.664,5.174,5.174,0,0,0-.176-2.761,31.487,31.487,0,0,0-1.485-4.2q-2.012-1.954-4.194-3.732a1.04,1.04,0,0,0,.156.612,29.629,29.629,0,0,1,3.471,7.887,4.534,4.534,0,0,1,.221,1.335,4.637,4.637,0,0,0-1.543-1.055c-.137-.072-.274-.137-.4-.208a9.435,9.435,0,0,1-3.028-3.445,19.546,19.546,0,0,0-1.967-2.716,14.93,14.93,0,0,0-3.282-2.566,11.664,11.664,0,0,0,1.791-3.25c-.573-.391-1.146-.768-1.732-1.133a1.047,1.047,0,0,0-.267.41,9.709,9.709,0,0,1-1.146,2.24c-2.5-2.019-6.063-2.26-8.968-2.221a2.936,2.936,0,0,1-1.192-.13,2.894,2.894,0,0,1-.716-.671l-.1-.124a15.33,15.33,0,0,0-2.325-2.123,33.577,33.577,0,0,1,10.433.358,1.031,1.031,0,0,0,.423-.006q-2.774-1.495-5.692-2.709a35.65,35.65,0,0,0-10.563,1.244l-.436.117a9.836,9.836,0,0,1-2.481.488,10.338,10.338,0,0,1-2.918-.547c-.475-.137-.964-.273-1.452-.391a11.765,11.765,0,0,0,.554-1.166,5.953,5.953,0,0,1,.736-1.381.9.9,0,0,0,.111-.163c-.072,0-.143.006-.215.006a7.9,7.9,0,0,1-2.058-.4,11.17,11.17,0,0,0-.527,1.1,3.248,3.248,0,0,1-1.068,1.635,3.4,3.4,0,0,1-1.472.208h-.085c-5.842.072-11.507,1.576-16.984,3.035-.664.182-1.309.345-1.934.508-3.582.912-6.682,1.706-10.062,4.044a29.516,29.516,0,0,1,3.211.541,32.183,32.183,0,0,1,7.379-2.527q.948-.234,1.954-.508c.7-.182,1.407-.371,2.116-.554a18.289,18.289,0,0,0,.241,5.926c.02.085.046.2.085.339-.274.163-.521.319-.768.475-.384.241-.755.475-1.2.736.2.1.4.2.593.306a14.319,14.319,0,0,1,1.465.938c2.976,2.143,5.112,5.229,7.033,8a.976.976,0,1,1-1.609,1.107c-2.032-2.937-4.337-6.245-7.548-8.154a1.111,1.111,0,0,1-.625-.358,27.166,27.166,0,0,0-2.931-1.257c-.514-.2-1.023-.4-1.531-.606-.456-.189-.911-.391-1.368-.593a25.165,25.165,0,0,0-3.028-1.2,19.049,19.049,0,0,0-2.826-.56,1.2,1.2,0,0,1-.267.039,1.088,1.088,0,0,1-.528-.143c-.176-.026-.365-.046-.54-.072l-9.43-1.127c-1.973-.241-4.012-.488-6.018-.547a67.924,67.924,0,0,0-12.152,1.114l-13.52,2.051a9.378,9.378,0,0,0-2.533.619,9.607,9.607,0,0,0-2.305,1.693c-.293.267-.593.534-.9.788a31.164,31.164,0,0,1-5.112,3.191c-2.631,1.413-5.112,2.755-6.636,5.034-.436.651-.593,1.452-.319,1.654a1.927,1.927,0,0,0,.866.137,23.433,23.433,0,0,0,8.369-1.6c.339-.13.684-.273,1.022-.41a11.512,11.512,0,0,1,5.653-1.276,12.019,12.019,0,0,1,2.774.762,6.493,6.493,0,0,0,6.662-.528,13.979,13.979,0,0,1,3.933-1.342,13.578,13.578,0,0,1,3.133.039,14.861,14.861,0,0,0,2.195.1,15.275,15.275,0,0,0,4.442-1.185,15.709,15.709,0,0,1,5.418-1.309h.039a15.878,15.878,0,0,1,5.828,1.485,16.151,16.151,0,0,0,4.591,1.335,15.8,15.8,0,0,0,2.7-.091,18.066,18.066,0,0,1,2.983-.1c3.8.293,6.929,2.774,9.449,4.767a.98.98,0,0,1-.606,1.745.989.989,0,0,1-.612-.215c-2.305-1.823-5.177-4.1-8.381-4.35a16.147,16.147,0,0,0-2.663.1,17.846,17.846,0,0,1-3.022.091,18.139,18.139,0,0,1-5.158-1.465,14.081,14.081,0,0,0-5.106-1.348h-.033a10.568,10.568,0,0,0-3.263.651,27.258,27.258,0,0,1,3.862,5.093c.215.332.43.664.638.99a56.948,56.948,0,0,0,11,12.517.983.983,0,0,1,.658.436.993.993,0,0,1,.078.169,45.268,45.268,0,0,0,15.617,8.355c1.667.488,3.406.879,5.086,1.263,1.335.3,2.716.612,4.064.97.345.091.684.189,1.023.28a14.058,14.058,0,0,0,7.86.7c.606-.091,1.231-.189,1.869-.241,3.855-.339,7.593.788,11.214,1.875,3.328,1,6.5,1.954,9.677,1.83-.6-.541-1.244-1.062-1.875-1.563-.664-.534-1.348-1.081-2-1.674a21.946,21.946,0,0,1-5.861-22.728.988.988,0,0,1,1.244-.612.953.953,0,0,1,.384.247.975.975,0,0,1,.221,1,19.937,19.937,0,0,0,5.327,20.651c.606.554,1.237,1.055,1.908,1.6s1.348,1.081,2,1.667c.7.638,1.355,1.322,1.993,1.98a27.28,27.28,0,0,0,2.677,2.553,8.7,8.7,0,0,0,3.543,1.765c-.052-.072-.1-.137-.143-.208l-.163-.221A28.243,28.243,0,0,0,1297,602.88c-2.989-2.364-6.076-4.806-7.444-8.512a.976.976,0,1,1,1.83-.677c1.178,3.191,3.92,5.36,6.825,7.659a29.618,29.618,0,0,1,6.115,5.855l.169.247a4.453,4.453,0,0,0,.847,1,4.2,4.2,0,0,0,2.2.482c1.472.072,2.989.065,3.875-.742a5.5,5.5,0,0,0,.925-1.3c.124-.208.241-.417.371-.625a18.021,18.021,0,0,1,2.169-2.651,14.4,14.4,0,0,0,2.149-2.7c1.342-2.436,1.048-5.835-.736-8.648-.143-.221-.293-.443-.443-.664a12.877,12.877,0,0,1-1.016-1.687,12.494,12.494,0,0,1-.684-1.954c-.078-.26-.15-.521-.234-.781a25.849,25.849,0,0,0-3.263-6.076c-1.12-1.719-2.527-3.849-4.539-4.715a.975.975,0,0,1-.508-1.283,1,1,0,0,1,.365-.436.988.988,0,0,1,.918-.078c2.553,1.1,4.129,3.5,5.4,5.438.5.762,1.009,1.53,1.485,2.325a19.867,19.867,0,0,1,2.006,4.233c.091.273.169.554.247.834a8.041,8.041,0,0,0,1.439,3.087c.163.234.326.469.475.71a11.956,11.956,0,0,1,1.843,5.483,10.885,10.885,0,0,1,4.611-.026,5.769,5.769,0,0,1,1.8.808,4.566,4.566,0,0,1,2.182,3.712,7.177,7.177,0,0,1-.1,1.088,2.3,2.3,0,0,0-.007,1.2m-73.746-32.634a.984.984,0,0,1-.775.378.959.959,0,0,1-.593-.2c-2.807-2.156-5.978-4.6-9.56-5.549a28.516,28.516,0,0,0-3.484-.625,22.27,22.27,0,0,1-4.989-1.075c-.625-.234-1.224-.521-1.8-.794a10.493,10.493,0,0,0-5.75-1.328l-8.876-.254a.971.971,0,0,1-.944-1,.956.956,0,0,1,1-.951l8.87.26a15.566,15.566,0,0,1,3.914.443,16.24,16.24,0,0,1,2.631,1.068c.56.274,1.094.528,1.641.736a20.718,20.718,0,0,0,4.565.964,30.489,30.489,0,0,1,3.725.671c3.953,1.055,7.294,3.621,10.238,5.887a.984.984,0,0,1,.182,1.374m34.2-.827a19.243,19.243,0,0,1,8.186-1.713.977.977,0,0,1-.013,1.954h-.02a17.423,17.423,0,0,0-7.346,1.537.891.891,0,0,1-.4.091.978.978,0,0,1-.4-1.869m-12.159-17.069h.091a11.938,11.938,0,0,0,3.022-.567l.417-.117c.56-.156,1.12-.287,1.68-.41a13.251,13.251,0,0,1,3.888,3.009l.1.117c.1.111.208.234.319.352-.443.332-.892.664-1.335,1a30.475,30.475,0,0,1-6.356,4.064c-2.1.886-5.132,1.361-7.528.2.006-.006.013-.019.02-.026a86.994,86.994,0,0,1,5.542-7.385.735.735,0,0,0,.143-.234m-20.429.736a53.3,53.3,0,0,1,12.113-1.836h.085a8.84,8.84,0,0,0,1.348-.091,1.189,1.189,0,0,0,.306.026,9.307,9.307,0,0,1,3.126.534c.339.1.69.2,1.042.287-1.785,2.175-3.484,4.448-5.047,6.786-.039.059-.078.111-.117.169a1.042,1.042,0,0,0-.853.371.581.581,0,0,0-.091.13c-.02.006-.046.006-.059.013a32.337,32.337,0,0,1-11.527-.046l-.169-.026a2.5,2.5,0,0,1-.065-.254,16.36,16.36,0,0,1-.091-6.063m45.6,41.894a2.112,2.112,0,0,1-1.074.977,1.813,1.813,0,0,1-.638.117,2.44,2.44,0,0,1-1.733-.853c-1.654-1.719-1.941-4.3-.664-5.874a1.047,1.047,0,0,1,.892-.391,4,4,0,0,1,3.217,6.024m3.869,6.532a5.97,5.97,0,0,1,2.13,3.81.978.978,0,0,1-.84,1.1.888.888,0,0,1-.13.006.974.974,0,0,1-.964-.847,4,4,0,0,0-1.426-2.559.974.974,0,1,1,1.231-1.511m-6.493-28.173a11.516,11.516,0,0,0-8.779,3.692.965.965,0,0,1-.723.319.983.983,0,0,1-.658-.254,1.484,1.484,0,0,1-.137-.156.973.973,0,0,1,.072-1.224,13.452,13.452,0,0,1,10.29-4.331.977.977,0,0,1-.007,1.954Zm28.908,22.565a.98.98,0,0,1,.944-1.009,31.7,31.7,0,0,1,20.534,6.695.924.924,0,0,1,.345.547.966.966,0,0,1-.182.821.966.966,0,0,1-1.374.163,29.675,29.675,0,0,0-19.251-6.271h-.039a.956.956,0,0,1-.534-.163.972.972,0,0,1-.443-.781" transform="translate(-1179.481 -546.776)" fill="#fff"/><path d="M1247.542,598.726c-2.247.534-3.3,3.2-3.569,4.012a26.538,26.538,0,0,0-.736,3.035,25.091,25.091,0,0,1-.879,3.523c-.267.749-.6,1.465-.918,2.162a13.963,13.963,0,0,0-1.192,3.237,6.477,6.477,0,0,0,.332,3.445,1.92,1.92,0,0,0,.241-.4c1.062-2.247,2.032-4.578,2.872-6.916l.072-.2a11.878,11.878,0,0,1,1.719-3.51,4.574,4.574,0,0,1,4.246-1.863.973.973,0,0,1,.8,1.088l-.827,6.148a4.19,4.19,0,0,0-.006,1.778,4.262,4.262,0,0,0,.879,1.283l1.075,1.237a22.394,22.394,0,0,1,.918-4.487,11.418,11.418,0,0,1,3.087-4.917,57.82,57.82,0,0,1-8.115-8.655" transform="translate(-1200.64 -564.894)" fill="#fff"/></g><g transform="translate(0 0)"><path d="M1327.651,608.883c.1,2.462,1.485,4.6,2.6,6.324,1.928,2.97,4.116,6.343,7.248,8.655a7.285,7.285,0,0,0,4.253,1.667h.02a8.634,8.634,0,0,0,3.139-.755,88.228,88.228,0,0,0,13.207-6.467,5.585,5.585,0,0,0,2.195-1.986c.827-1.5.358-3.217-.208-4.689a55.9,55.9,0,0,0-22.78-27.385,21.653,21.653,0,0,0-6.115-2.774,29.155,29.155,0,0,0-5.1-.612,34.442,34.442,0,0,1-3.81-.378c.528-3.966-1.022-8.368-4.734-13.409a66.379,66.379,0,0,0-33.363-23.822,15.256,15.256,0,0,0-6.688-.9,17.273,17.273,0,0,0-2.169.508,6.71,6.71,0,0,1-5.829-.326,19.62,19.62,0,0,0-1.947-.69c-4-1.114-7.945.339-11.761,1.745-.593.221-1.179.436-1.765.645-2.885,1.009-5.959,1.784-8.928,2.527-6.35,1.6-12.914,3.237-18.2,7.339-1.576-.182-3.191-.345-4.806-.4a69.228,69.228,0,0,0-12.5,1.133l-13.52,2.051a8.785,8.785,0,0,0-5.848,2.787c-.274.254-.554.5-.84.736a29.329,29.329,0,0,1-4.793,2.983c-2.729,1.465-5.542,2.983-7.339,5.672-.925,1.387-1.179,3.315.137,4.3a3.321,3.321,0,0,0,2.052.527,25.41,25.41,0,0,0,9.065-1.726c.352-.137.7-.28,1.062-.43a10.077,10.077,0,0,1,4.7-1.14,10.225,10.225,0,0,1,2.305.658,10.9,10.9,0,0,0,3,.781,10.573,10.573,0,0,0,5.158-1.368,12.46,12.46,0,0,1,3.386-1.185,11.643,11.643,0,0,1,2.683.052,17.336,17.336,0,0,0,2.481.1,15.189,15.189,0,0,0,4.409-1.075,21.773,21.773,0,0,1,4.311,5.386c.215.339.43.671.645,1,.475.736.97,1.452,1.472,2.156a7.947,7.947,0,0,0-4.207,5.041,27.756,27.756,0,0,0-.795,3.269,23.763,23.763,0,0,1-.807,3.256c-.234.664-.534,1.309-.853,1.993a15.526,15.526,0,0,0-1.335,3.712,8.3,8.3,0,0,0,.449,4.552,2.142,2.142,0,0,0,.944,1.172,1.669,1.669,0,0,0,1.3.1,3.012,3.012,0,0,0,1.57-1.6c1.094-2.305,2.084-4.7,2.944-7.092l.072-.2a10.329,10.329,0,0,1,1.413-2.95,3.381,3.381,0,0,1,1.42-1.062l-.671,4.956a5.877,5.877,0,0,0,.078,2.657,6.025,6.025,0,0,0,1.257,1.947l2.559,2.944a.976.976,0,0,0,1.713-.547,28.106,28.106,0,0,1,1.055-6.317,9.274,9.274,0,0,1,2.748-4.266,47.213,47.213,0,0,0,16.118,8.564c1.726.5,3.491.905,5.2,1.289,1.315.3,2.677.606,3.992.957l1,.273a20.813,20.813,0,0,0,5.933,1.035,21.931,21.931,0,0,0,2.742-.287c.6-.091,1.172-.182,1.745-.228,3.478-.306,6.884.716,10.485,1.8a34.011,34.011,0,0,0,9.7,1.928,15.933,15.933,0,0,0,2.344-.182c.039.046.085.085.13.13a30.767,30.767,0,0,0,2.859,2.729,9.476,9.476,0,0,0,5.783,2.286,6.89,6.89,0,0,0,1.042-.078.941.941,0,0,0,.326-.124,8.5,8.5,0,0,0,2.032.267c.365.019.736.033,1.107.033a5.9,5.9,0,0,0,4.174-1.276,7.031,7.031,0,0,0,1.3-1.771c.111-.189.215-.378.332-.56a16.6,16.6,0,0,1,1.947-2.364,16,16,0,0,0,2.423-3.087,8.8,8.8,0,0,0,1-3.158,10.059,10.059,0,0,1,4.175-.137,3.136,3.136,0,0,1,2.507,2.638,5.328,5.328,0,0,1-.085.794,3.156,3.156,0,0,0,1.433,3.693,4.455,4.455,0,0,1,.567.475c.58.645.508,1.7.417,2.917a15.572,15.572,0,0,0-.059,1.661m-2.5-13.259a5.765,5.765,0,0,0-1.8-.807,10.883,10.883,0,0,0-4.611.026,11.954,11.954,0,0,0-1.843-5.484c-.15-.241-.313-.475-.475-.71a8.04,8.04,0,0,1-1.439-3.087c-.078-.28-.156-.56-.247-.834a19.86,19.86,0,0,0-2.006-4.233c-.475-.795-.983-1.563-1.485-2.325-1.27-1.934-2.846-4.337-5.4-5.438a.988.988,0,0,0-.918.078,1,1,0,0,0-.365.436.974.974,0,0,0,.508,1.283c2.012.866,3.419,3,4.539,4.715a25.848,25.848,0,0,1,3.263,6.076c.085.26.156.521.234.781a12.51,12.51,0,0,0,.684,1.954,12.872,12.872,0,0,0,1.016,1.687c.15.221.3.443.443.664,1.784,2.813,2.077,6.213.736,8.648a14.391,14.391,0,0,1-2.149,2.7,18.029,18.029,0,0,0-2.169,2.651c-.13.208-.247.417-.371.625a5.5,5.5,0,0,1-.925,1.3c-.885.808-2.4.814-3.875.742a4.2,4.2,0,0,1-2.2-.482,4.453,4.453,0,0,1-.847-1l-.169-.247a29.618,29.618,0,0,0-6.115-5.855c-2.9-2.3-5.646-4.467-6.825-7.659a.976.976,0,1,0-1.83.677c1.367,3.706,4.454,6.148,7.444,8.512a28.238,28.238,0,0,1,5.731,5.457l.163.221c.045.072.091.137.143.208a8.7,8.7,0,0,1-3.543-1.765,27.28,27.28,0,0,1-2.677-2.553c-.638-.658-1.3-1.342-1.993-1.98-.651-.586-1.335-1.14-2-1.667s-1.3-1.042-1.908-1.6a19.937,19.937,0,0,1-5.327-20.651.974.974,0,0,0-.221-1,.954.954,0,0,0-.384-.247.988.988,0,0,0-1.244.612,21.946,21.946,0,0,0,5.861,22.728c.651.593,1.335,1.14,2,1.674.632.5,1.276,1.022,1.875,1.563-3.178.124-6.349-.827-9.677-1.83-3.621-1.088-7.359-2.214-11.215-1.876-.638.052-1.263.15-1.869.241a14.061,14.061,0,0,1-7.86-.7c-.339-.091-.677-.189-1.023-.28-1.348-.358-2.728-.671-4.064-.97-1.68-.384-3.419-.775-5.086-1.263A45.266,45.266,0,0,1,1236.021,587a1.008,1.008,0,0,0-.078-.169.983.983,0,0,0-.658-.436,56.946,56.946,0,0,1-11-12.517c-.208-.326-.423-.658-.638-.99a27.253,27.253,0,0,0-3.862-5.093,10.569,10.569,0,0,1,3.263-.651h.033a14.079,14.079,0,0,1,5.106,1.348,18.138,18.138,0,0,0,5.158,1.465,17.85,17.85,0,0,0,3.022-.091,16.162,16.162,0,0,1,2.664-.1c3.2.247,6.076,2.527,8.382,4.35a.988.988,0,0,0,.612.215.98.98,0,0,0,.606-1.745c-2.52-1.993-5.653-4.474-9.449-4.767a18.055,18.055,0,0,0-2.983.1,15.8,15.8,0,0,1-2.7.091,16.146,16.146,0,0,1-4.591-1.335,15.879,15.879,0,0,0-5.828-1.485h-.039a15.71,15.71,0,0,0-5.418,1.309,15.274,15.274,0,0,1-4.442,1.185,14.87,14.87,0,0,1-2.195-.1,13.573,13.573,0,0,0-3.132-.039,13.98,13.98,0,0,0-3.933,1.341,6.493,6.493,0,0,1-6.662.528,12.022,12.022,0,0,0-2.774-.762,11.513,11.513,0,0,0-5.653,1.276c-.339.137-.684.28-1.022.41a23.433,23.433,0,0,1-8.369,1.6,1.928,1.928,0,0,1-.866-.137c-.273-.2-.117-1,.319-1.654,1.524-2.279,4.005-3.621,6.636-5.034a31.16,31.16,0,0,0,5.112-3.191c.306-.254.606-.521.9-.788a9.6,9.6,0,0,1,2.305-1.693,9.379,9.379,0,0,1,2.533-.619l13.52-2.051a67.924,67.924,0,0,1,12.152-1.114c2.006.059,4.044.306,6.017.547l9.43,1.127c.176.026.365.046.541.072.267.033.534.065.795.1a19.056,19.056,0,0,1,2.826.56,25.172,25.172,0,0,1,3.028,1.2c.456.2.912.4,1.368.593.508.208,1.016.4,1.53.606a27.19,27.19,0,0,1,2.931,1.257c.111.059.221.111.332.169s.2.124.293.189c3.211,1.908,5.516,5.216,7.548,8.154a.976.976,0,1,0,1.609-1.107c-1.921-2.774-4.057-5.861-7.034-8a14.315,14.315,0,0,0-1.465-.938c-.2-.111-.391-.208-.593-.306.443-.26.814-.495,1.2-.736.247-.156.495-.313.769-.475-.039-.137-.065-.254-.085-.339a18.286,18.286,0,0,1-.241-5.926c-.71.182-1.413.371-2.117.554q-1.006.273-1.953.508a32.188,32.188,0,0,0-7.379,2.527,29.511,29.511,0,0,0-3.211-.541c3.38-2.338,6.48-3.132,10.062-4.044.625-.163,1.27-.326,1.934-.508,5.477-1.459,11.143-2.963,16.984-3.035h.084a3.4,3.4,0,0,0,1.472-.208,3.249,3.249,0,0,0,1.068-1.635,11.2,11.2,0,0,1,.527-1.1,7.9,7.9,0,0,0,2.058.4c.072,0,.143-.006.215-.006a.918.918,0,0,1-.111.163,5.956,5.956,0,0,0-.736,1.381,11.771,11.771,0,0,1-.554,1.166c.488.117.977.254,1.452.391a10.338,10.338,0,0,0,2.917.547,9.839,9.839,0,0,0,2.481-.488l.436-.117a35.649,35.649,0,0,1,10.563-1.244q2.911,1.211,5.692,2.709a1.027,1.027,0,0,1-.423.006,33.576,33.576,0,0,0-10.433-.358,15.324,15.324,0,0,1,2.325,2.123l.1.124a2.9,2.9,0,0,0,.716.671,2.937,2.937,0,0,0,1.192.13c2.9-.039,6.467.2,8.967,2.221a9.7,9.7,0,0,0,1.146-2.24,1.046,1.046,0,0,1,.267-.41c.586.365,1.159.742,1.732,1.133a11.663,11.663,0,0,1-1.791,3.25,14.928,14.928,0,0,1,3.282,2.566,19.548,19.548,0,0,1,1.967,2.716,9.436,9.436,0,0,0,3.028,3.445c.13.072.267.137.4.208a4.633,4.633,0,0,1,1.544,1.055,4.538,4.538,0,0,0-.221-1.335,29.625,29.625,0,0,0-3.471-7.887,1.041,1.041,0,0,1-.156-.612q2.179,1.778,4.194,3.732a31.515,31.515,0,0,1,1.485,4.2,5.175,5.175,0,0,1,.176,2.761,22.267,22.267,0,0,1,6.434,2.664,24.431,24.431,0,0,1,2.162,4.031,12.243,12.243,0,0,1,1.022,5.959,6.686,6.686,0,0,1-2.195-1.316.977.977,0,0,0-1.328,1.433,9,9,0,0,0,3.881,2.045.718.718,0,0,0,.208.072,1,1,0,0,0,.137.02,28.343,28.343,0,0,0,4.9.58,27.444,27.444,0,0,1,4.754.567,19.848,19.848,0,0,1,5.555,2.533,53.876,53.876,0,0,1,21.986,26.427c.4,1.055.755,2.24.313,3.048a3.861,3.861,0,0,1-1.485,1.244,85.28,85.28,0,0,1-12.914,6.324,6.809,6.809,0,0,1-2.429.625h-.013a5.461,5.461,0,0,1-3.1-1.283c-2.846-2.1-4.839-5.177-6.766-8.154-1.036-1.6-2.208-3.406-2.286-5.327a14.073,14.073,0,0,1,.059-1.446c.1-1.459.222-3.106-.925-4.37a5.559,5.559,0,0,0-.834-.729,2.355,2.355,0,0,1-.684-.645,2.3,2.3,0,0,1,.007-1.2,7.177,7.177,0,0,0,.1-1.088,4.566,4.566,0,0,0-2.182-3.712m-94.781-3.3a22.4,22.4,0,0,0-.918,4.487l-1.074-1.237a4.26,4.26,0,0,1-.879-1.283,4.194,4.194,0,0,1,.006-1.778l.827-6.148a.973.973,0,0,0-.8-1.088,4.574,4.574,0,0,0-4.246,1.863,11.878,11.878,0,0,0-1.719,3.51l-.072.2c-.84,2.338-1.81,4.669-2.872,6.916a1.926,1.926,0,0,1-.241.4,6.478,6.478,0,0,1-.332-3.445,13.96,13.96,0,0,1,1.192-3.237c.319-.7.651-1.413.918-2.162a25.1,25.1,0,0,0,.879-3.523,26.541,26.541,0,0,1,.736-3.035c.274-.814,1.322-3.478,3.569-4.012a57.816,57.816,0,0,0,8.114,8.655,11.42,11.42,0,0,0-3.087,4.917" transform="translate(-1176.494 -541.45)" fill="#14b4f0"/><path d="M1408.566,623.529a29.675,29.675,0,0,1,19.251,6.271.966.966,0,0,0,1.374-.163.967.967,0,0,0,.182-.821.924.924,0,0,0-.345-.547,31.7,31.7,0,0,0-20.534-6.695.974.974,0,0,0-.5,1.791.957.957,0,0,0,.534.163Z" transform="translate(-1257.077 -569.387)" fill="#14b4f0"/><path d="M1370.9,631.764a.975.975,0,0,0,.143,1.374,4,4,0,0,1,1.426,2.559.975.975,0,0,0,.964.847.868.868,0,0,0,.13-.007.978.978,0,0,0,.84-1.1,5.969,5.969,0,0,0-2.13-3.81.974.974,0,0,0-1.374.137" transform="translate(-1244.219 -572.822)" fill="#14b4f0"/><path d="M1361.346,612.464a1.046,1.046,0,0,0-.892.391c-1.276,1.57-.99,4.155.664,5.874a2.439,2.439,0,0,0,1.732.853,1.812,1.812,0,0,0,.638-.117,2.112,2.112,0,0,0,1.075-.977,4,4,0,0,0-3.217-6.024" transform="translate(-1240.374 -566.216)" fill="#14b4f0"/><path d="M1358.558,586.491a.976.976,0,0,0-.944-1.01,13.452,13.452,0,0,0-10.29,4.331.973.973,0,0,0-.072,1.224,1.451,1.451,0,0,0,.137.156.982.982,0,0,0,.658.254.965.965,0,0,0,.723-.319,11.516,11.516,0,0,1,8.779-3.693h.059a.972.972,0,0,0,.951-.944" transform="translate(-1235.984 -556.804)" fill="#14b4f0"/><path d="M1347.306,583.417a.89.89,0,0,0,.4-.091,17.423,17.423,0,0,1,7.346-1.537h.02a.977.977,0,0,0,.013-1.954,19.244,19.244,0,0,0-8.186,1.713.978.978,0,0,0,.4,1.869" transform="translate(-1235.725 -554.836)" fill="#14b4f0"/><path d="M1319.78,563.316c2.4,1.159,5.425.684,7.528-.2a30.462,30.462,0,0,0,6.356-4.064c.443-.332.892-.664,1.335-1-.111-.117-.215-.241-.319-.352l-.1-.117a13.246,13.246,0,0,0-3.888-3.009c-.56.124-1.12.254-1.68.41l-.417.117a11.943,11.943,0,0,1-3.022.567h-.091a.736.736,0,0,1-.143.234,86.971,86.971,0,0,0-5.542,7.385c-.007.007-.013.02-.02.026" transform="translate(-1226.467 -546.028)" fill="#14b4f0"/><path d="M1297.2,562.671l.169.026a32.335,32.335,0,0,0,11.527.046c.013-.006.039-.006.059-.013a.606.606,0,0,1,.09-.13,1.044,1.044,0,0,1,.854-.371c.039-.059.078-.111.117-.169,1.563-2.338,3.262-4.611,5.047-6.786-.352-.091-.7-.189-1.042-.287a9.305,9.305,0,0,0-3.126-.534,1.186,1.186,0,0,1-.306-.026,8.82,8.82,0,0,1-1.348.091h-.085a53.3,53.3,0,0,0-12.113,1.837,16.365,16.365,0,0,0,.091,6.063,2.37,2.37,0,0,0,.065.254" transform="translate(-1218.453 -545.975)" fill="#14b4f0"/><path d="M1274.826,576.254c-2.944-2.266-6.285-4.832-10.238-5.887a30.47,30.47,0,0,0-3.725-.671,20.726,20.726,0,0,1-4.565-.964c-.547-.208-1.081-.462-1.641-.736a16.225,16.225,0,0,0-2.631-1.068,15.565,15.565,0,0,0-3.914-.443l-8.87-.26a.956.956,0,0,0-1,.951.971.971,0,0,0,.944,1l8.876.254a10.493,10.493,0,0,1,5.75,1.328c.573.273,1.172.56,1.8.794a22.262,22.262,0,0,0,4.988,1.075,28.512,28.512,0,0,1,3.484.625c3.582.951,6.753,3.393,9.56,5.548a.959.959,0,0,0,.593.2.975.975,0,0,0,.593-1.752" transform="translate(-1198.028 -550.09)" fill="#14b4f0"/><path d="M1290.492,572.745c-.111-.059-.221-.111-.332-.169a1.11,1.11,0,0,0,.625.358c-.1-.065-.189-.13-.293-.189" transform="translate(-1216.136 -552.305)" fill="#14b4f0"/><path d="M1271.795,566.05c-.26-.039-.527-.072-.795-.1a1.087,1.087,0,0,0,.528.143,1.2,1.2,0,0,0,.267-.039" transform="translate(-1209.454 -549.993)" fill="#14b4f0"/></g></g><g transform="translate(255.267 1513.455) rotate(-21)"><g transform="translate(3.75 0.989)"><path d="M4.345,29.488a9.866,9.866,0,0,0,2.031-2.867,4.093,4.093,0,0,0,.449-1.781c0-.076-.006-.152-.013-.228a1.25,1.25,0,0,1,.013-.4,1.142,1.142,0,0,1,.31-.4q.574-.555,1.187-1.063c-.054.108-.108.215-.155.326a2.941,2.941,0,0,0,1.285,3.386,6.356,6.356,0,0,0,3.4.816h.006a.475.475,0,0,0,.006-.949,7.43,7.43,0,0,1-1.952-.241.918.918,0,0,0,.123-.62,2.615,2.615,0,0,0-.389-.981,1.177,1.177,0,0,1-.247-.658,1.237,1.237,0,0,1,.206-.37,1.854,1.854,0,0,0,.38-.854,1.934,1.934,0,0,0-.047-.579l-.016-.066a3.511,3.511,0,0,1,1.452-3.481.517.517,0,0,0,.19-.241c.193-.06.383-.127.566-.19a7.722,7.722,0,0,1,1.183-.342,1.65,1.65,0,0,1,1.69.535.475.475,0,1,0,.816-.484,2.558,2.558,0,0,0-2.664-.984,8.047,8.047,0,0,0-1.335.38,8.743,8.743,0,0,1-1.038.313c-.076.016-.155.028-.231.044a4.535,4.535,0,0,0-.465.1,5.664,5.664,0,0,0-1.693-4,16,16,0,0,0-2.848-2.158c-.49-.316-1-.642-1.465-.987A14.765,14.765,0,0,1,0,3.74a3.735,3.735,0,0,0,.244-.383A5.989,5.989,0,0,1,3.652,4.614a.46.46,0,0,0,.291.1.464.464,0,0,0,.373-.18.477.477,0,0,0-.079-.668A6.948,6.948,0,0,0,.671,2.433a3.234,3.234,0,0,1,.566-1.057A2,2,0,0,1,2.031.9a.012.012,0,0,1,.009,0,7.437,7.437,0,0,1,4.7,3.136.474.474,0,1,0,.791-.522A8.291,8.291,0,0,0,3.784.434,19.061,19.061,0,0,1,6.338,0,5.791,5.791,0,0,1,9.395,3.781a.473.473,0,0,0,.462.364.458.458,0,0,0,.111-.013.476.476,0,0,0,.351-.573A6.649,6.649,0,0,0,8.082,0,6.672,6.672,0,0,1,8.914.13c1.8.4,3.68,1.819,3.788,3.788a.472.472,0,0,0,.446.446,11.447,11.447,0,0,1,4.591,1.348c.623.326,1.24.7,1.838,1.07a13.41,13.41,0,0,1-.715,2.756c-.161.484-.329.984-.468,1.49a17.169,17.169,0,0,0-.408,6.759A22.193,22.193,0,0,0,21.03,26.27a7.474,7.474,0,0,1-3.389.864h-.006a.469.469,0,0,0-.44.3c-.8,2.016-1.639,3.819-2.446,5.566-.028.06-.057.123-.085.187a.167.167,0,0,1-.019-.032,1.124,1.124,0,0,0-.7-.405,4.281,4.281,0,0,0-1.759-.032.661.661,0,0,0-.123-.383,2.543,2.543,0,0,0-1.465-.715,3.748,3.748,0,0,1-.494-.146,1.476,1.476,0,0,0-.737-.13.959.959,0,0,0-.759.525c-.38-.456-.734-.937-1.085-1.411a1.516,1.516,0,0,1-.354-.674.452.452,0,0,0-.177-.326.477.477,0,0,0-.361-.1,14.472,14.472,0,0,1-2.285.13" transform="translate(30.222 0)" fill="#fff"/><path d="M11.775,8.05a1.207,1.207,0,0,1,.054.4,1.2,1.2,0,0,1-.171.364l-1.282,2.114c-1,.158-1.975.354-2.889.551a22.3,22.3,0,0,1-3.883.595c-.168-.1-.354-.218-.554-.339A8.786,8.786,0,0,1,.842,10.1,2.616,2.616,0,0,1,.2,8.69a3.42,3.42,0,0,1,.044-.6,4.3,4.3,0,0,0,.051-.794,4.31,4.31,0,0,0-.161-.864,4.5,4.5,0,0,1-.12-.554A3.255,3.255,0,0,1,1.08,3.415a1.472,1.472,0,0,0,.364-.585,1.387,1.387,0,0,0,.038-.481l0-.06A2.3,2.3,0,0,1,2.848.235.461.461,0,0,0,3.016.152,5.7,5.7,0,0,1,4.348,0a10.236,10.236,0,0,1,3.5.9c.32.12.636.241.952.354l0,0A8.86,8.86,0,0,1,10.75,4.462,30.118,30.118,0,0,1,11.775,8.05" transform="translate(0 12.641)" fill="#fff"/><path d="M3.87,16.929l.009-.047a18.124,18.124,0,0,0,.272-3.433,5.467,5.467,0,0,0-.335-2.006,6.98,6.98,0,0,0-.538-.981,2.356,2.356,0,0,1-.566-1.585.475.475,0,0,0-.127-.427.475.475,0,0,0-.57-.269A1.613,1.613,0,0,1,.617,7.9,1.89,1.89,0,0,1,0,7.129a.467.467,0,0,0,.108-.1,2.278,2.278,0,0,1,.775-.509,3.476,3.476,0,0,0,1-.649,3.382,3.382,0,0,0,.383-.487c.063-.092.127-.18.2-.266a3.9,3.9,0,0,1,1-.753A8.776,8.776,0,0,1,5.6,3.322l.054-.016c.595-.161,1.494-.4,1.623-1.269a1.6,1.6,0,0,0,.013-.291.714.714,0,0,1,0-.117c.016-.152.237-.332.449-.509A1.908,1.908,0,0,0,8.537,0a8.884,8.884,0,0,1,2.474.592,11.467,11.467,0,0,0,2.484.642.452.452,0,0,0,.12.111,2.99,2.99,0,0,1,.949,1.914c.047.187.095.377.146.557A14.119,14.119,0,0,0,15.9,6.522l.177.342c2.37,4.544,3.123,8.158,2.373,11.372a19.11,19.11,0,0,1-2.278,5.1.387.387,0,0,0-.032.076C14.5,24.6,12.793,25.773,10.9,25.934a10.68,10.68,0,0,1-2.566-.193,7.678,7.678,0,0,1-4.2-1.554,2.86,2.86,0,0,1-.845-2.206,1.667,1.667,0,0,1,.671-1.288c.43-.3.949-.668,1.038-1.187a.859.859,0,0,0-.158-.655,1.249,1.249,0,0,0-.962-.437.069.069,0,0,0-.025,0,2.753,2.753,0,0,1,.019-1.484" transform="translate(11.661 4.873)" fill="#fff"/><path d="M3.731,1.63a6.357,6.357,0,0,1,.468.848,4.618,4.618,0,0,1,.263,1.655A16.7,16.7,0,0,1,4.2,7.382l-.009.051a4.558,4.558,0,0,0-.082,1.6A21.413,21.413,0,0,0,1.183,9.2l.883-1.456a1.935,1.935,0,0,0,.3-.712,1.953,1.953,0,0,0-.07-.766,31.187,31.187,0,0,0-1.06-3.7A11.272,11.272,0,0,0,0,.139,5.6,5.6,0,0,0,3.019,0a4.191,4.191,0,0,0,.712,1.63" transform="translate(10.401 14.204)" fill="#fff"/><path d="M4.305,5.243c-.1.209-.215.411-.326.617a6.051,6.051,0,0,0-.8,2.012,3.783,3.783,0,0,0-.035.5,6.827,6.827,0,0,0,.32,1.835,40.383,40.383,0,0,0,2.367,6.338A25.125,25.125,0,0,1,3.087,18.5,20.507,20.507,0,0,1,.005,8.43,15.429,15.429,0,0,1,.534,3.962c.13-.481.294-.968.452-1.44A16.556,16.556,0,0,0,1.682,0c.5.3,1,.585,1.525.842.595.288,1.212.538,1.835.769a7.389,7.389,0,0,1-.737,3.633" transform="translate(49 7.316)" fill="#fff"/><path d="M2.13,6.743,1.949,6.4A13.191,13.191,0,0,1,.835,3.873C.785,3.7.74,3.525.7,3.345A5.578,5.578,0,0,0,0,1.519,5.744,5.744,0,0,0,3.073,0,15.75,15.75,0,0,0,8.284,6.673c.494.358,1.013.693,1.513,1.016A14.879,14.879,0,0,1,12.48,9.714a4.242,4.242,0,0,1,1.3,4,5.21,5.21,0,0,0-.538.753,5.12,5.12,0,0,0-.877,2.063c-.009.085-.016.171-.019.253a23.079,23.079,0,0,0-2.1,1.788,1.921,1.921,0,0,0-.557.791,1.959,1.959,0,0,0-.054.753c0,.063.009.123.009.187a3.188,3.188,0,0,1-.364,1.361A8.87,8.87,0,0,1,6.86,24.792a.289.289,0,0,0-.054.054,14.711,14.711,0,0,1-4.345-1.171,18.514,18.514,0,0,0,2.123-4.908c.794-3.4-.01-7.335-2.455-12.024" transform="translate(26.451 4.557)" fill="#fff"/><path d="M8.837,7.958A12.438,12.438,0,0,1,5.4,11.616L2.5,13.973A39.54,39.54,0,0,1,.284,7.993a4.875,4.875,0,0,1-.259-1.94A5.327,5.327,0,0,1,.714,4.36c.12-.218.237-.434.345-.655A8.321,8.321,0,0,0,1.907,0c.247.082.49.168.731.247,2.3.778,4.465,1.509,5.99,3.174,1.117,1.218.889,3.205.209,4.538M5.426,2.987A1.414,1.414,0,0,0,3.79,2.031,1.415,1.415,0,0,0,2.717,3.595a1.4,1.4,0,0,0,.848,1.066.97.97,0,0,0,.348.066.959.959,0,0,0,.623-.237A3.38,3.38,0,0,0,5.4,3.354a.508.508,0,0,0,.025-.367" transform="translate(53.098 9.271)" fill="#fff"/></g><g transform="translate(0 0)"><path d="M11.436,26.038a22.857,22.857,0,0,1-4.091.611.5.5,0,0,1-.2.047H7.133a4.55,4.55,0,0,1-.709-.063,6.48,6.48,0,0,1-3.054-.911A7.672,7.672,0,0,1,.216,20.687,6.092,6.092,0,0,1,.3,17.159c.693-1.819,2.544-2.842,3.876-3.452l.136-.06a10.309,10.309,0,0,1,2.019-.778.522.522,0,0,1,.209-.013,6.639,6.639,0,0,1,1.573-.174,11.165,11.165,0,0,1,3.829.962c.339.13.68.263,1.022.38a7.968,7.968,0,0,0,2.506.5,2.622,2.622,0,0,1-1.117-2.009A4.207,4.207,0,0,1,16.414,9.1a15.318,15.318,0,0,1,1.55-.918,13.114,13.114,0,0,0,1.607-.968c.282-.209.547-.44.832-.684A6.515,6.515,0,0,1,22.619,5.09a6.439,6.439,0,0,1,4.107.465,10.577,10.577,0,0,0,2.345.6,4.629,4.629,0,0,0,4.5-2.633c.066-.149.127-.3.187-.449a4.014,4.014,0,0,1,.756-1.364A4.076,4.076,0,0,1,36.586.727a14.383,14.383,0,0,1,6.5-.535c2.028.443,4.139,2.025,4.487,4.246a12.537,12.537,0,0,1,4.576,1.424c.677.351,1.332.753,1.965,1.142.731.449,1.487.911,2.259,1.288a29.177,29.177,0,0,0,3.414,1.316c2.31.782,4.7,1.589,6.386,3.433,1.424,1.55,1.18,4,.354,5.61a13.141,13.141,0,0,1-3.683,3.962l-3.209,2.6c-2.433,1.975-4.86,3.753-7.708,3.851-.775,1.924-1.573,3.645-2.345,5.316a3.866,3.866,0,0,1-.658,1.079,2.83,2.83,0,0,1-1.845.8c-.111.006-.225.013-.335.013a5.569,5.569,0,0,1-3.459-1.354,15.115,15.115,0,0,1-2.557-2.911,3.25,3.25,0,0,1-.411-.671,15.773,15.773,0,0,1-8.192-1.316c-1.753,1.269-3.579,2.535-5.74,2.718a11.378,11.378,0,0,1-2.794-.2,8.392,8.392,0,0,1-4.705-1.8,3.849,3.849,0,0,1-1.136-2.962,2.621,2.621,0,0,1,1.085-2.006,3.11,3.11,0,0,0,.608-.509,1.071,1.071,0,0,0-.234-.035,27.318,27.318,0,0,0-7.775.813m7.851-1.759a1.249,1.249,0,0,1,.962.437.859.859,0,0,1,.158.655c-.089.519-.608.883-1.038,1.187a1.667,1.667,0,0,0-.671,1.288,2.86,2.86,0,0,0,.845,2.206,7.677,7.677,0,0,0,4.2,1.554,10.681,10.681,0,0,0,2.566.193c1.9-.161,3.6-1.335,5.243-2.525a.388.388,0,0,1,.032-.076,19.11,19.11,0,0,0,2.278-5.1c.75-3.215,0-6.829-2.373-11.372l-.177-.342a14.118,14.118,0,0,1-1.19-2.705c-.051-.18-.1-.37-.146-.557a2.99,2.99,0,0,0-.949-1.914.453.453,0,0,1-.12-.111,11.469,11.469,0,0,1-2.484-.642,8.883,8.883,0,0,0-2.474-.592,1.908,1.908,0,0,1-.8,1.12c-.212.177-.434.358-.449.509a.714.714,0,0,0,0,.117,1.6,1.6,0,0,1-.013.291c-.13.864-1.028,1.108-1.623,1.269l-.054.016a8.773,8.773,0,0,0-2.136,1.041,3.9,3.9,0,0,0-1,.753c-.07.085-.133.174-.2.266a3.382,3.382,0,0,1-.383.487,3.477,3.477,0,0,1-1,.649,2.277,2.277,0,0,0-.775.509.466.466,0,0,1-.108.1,1.89,1.89,0,0,0,.617.769,1.613,1.613,0,0,0,1.4.282.475.475,0,0,1,.57.269.475.475,0,0,1,.127.427,2.356,2.356,0,0,0,.566,1.585,6.977,6.977,0,0,1,.538.981,5.467,5.467,0,0,1,.335,2.006,18.123,18.123,0,0,1-.272,3.433l-.009.047a2.753,2.753,0,0,0-.019,1.484.069.069,0,0,1,.025,0m21.675,6.17a.452.452,0,0,1,.177.326,1.516,1.516,0,0,0,.354.674c.351.475.706.956,1.085,1.411a.959.959,0,0,1,.759-.525,1.475,1.475,0,0,1,.737.13,3.749,3.749,0,0,0,.494.146,2.543,2.543,0,0,1,1.465.715.661.661,0,0,1,.123.383,4.281,4.281,0,0,1,1.759.032,1.124,1.124,0,0,1,.7.405.167.167,0,0,0,.019.032c.028-.063.057-.127.085-.187.807-1.747,1.642-3.55,2.446-5.566a.469.469,0,0,1,.44-.3h.006A7.474,7.474,0,0,0,55,27.259a22.193,22.193,0,0,1-3.044-8.483,17.169,17.169,0,0,1,.408-6.759c.139-.506.307-1.006.468-1.49a13.412,13.412,0,0,0,.715-2.756c-.6-.367-1.215-.744-1.838-1.07A11.447,11.447,0,0,0,47.12,5.353a.472.472,0,0,1-.446-.446c-.108-1.968-1.987-3.392-3.788-3.788a6.678,6.678,0,0,0-.832-.127,6.649,6.649,0,0,1,2.237,3.557.476.476,0,0,1-.351.573.458.458,0,0,1-.111.013.473.473,0,0,1-.462-.364A5.791,5.791,0,0,0,40.31.989a19.056,19.056,0,0,0-2.554.434A8.291,8.291,0,0,1,41.506,4.5a.474.474,0,1,1-.791.522,7.437,7.437,0,0,0-4.7-3.136.012.012,0,0,0-.009,0,2,2,0,0,0-.794.481,3.234,3.234,0,0,0-.566,1.057,6.948,6.948,0,0,1,3.566,1.433.477.477,0,0,1,.079.668.464.464,0,0,1-.373.18.459.459,0,0,1-.291-.1,5.99,5.99,0,0,0-3.408-1.256,3.735,3.735,0,0,1-.244.383,14.765,14.765,0,0,0,5.075,6.721c.468.345.975.671,1.465.987A16,16,0,0,1,43.361,14.6a5.664,5.664,0,0,1,1.693,4,4.543,4.543,0,0,1,.465-.1c.076-.016.155-.029.231-.044a8.749,8.749,0,0,0,1.038-.313,8.044,8.044,0,0,1,1.335-.38,2.558,2.558,0,0,1,2.664.984.475.475,0,0,1-.816.484,1.65,1.65,0,0,0-1.69-.535,7.726,7.726,0,0,0-1.183.342c-.184.063-.373.13-.566.19a.518.518,0,0,1-.19.24,3.511,3.511,0,0,0-1.452,3.481l.016.066a1.934,1.934,0,0,1,.047.579,1.854,1.854,0,0,1-.38.854,1.237,1.237,0,0,0-.206.37,1.177,1.177,0,0,0,.247.658,2.615,2.615,0,0,1,.389.981.918.918,0,0,1-.123.62,7.43,7.43,0,0,0,1.952.24.475.475,0,0,1-.006.949h-.006a6.356,6.356,0,0,1-3.4-.816,2.94,2.94,0,0,1-1.285-3.386c.047-.111.1-.218.155-.326q-.612.508-1.187,1.063a1.142,1.142,0,0,0-.31.4,1.251,1.251,0,0,0-.013.4c.006.076.009.152.013.228a4.093,4.093,0,0,1-.449,1.781,9.867,9.867,0,0,1-2.031,2.867,14.472,14.472,0,0,0,2.285-.13.477.477,0,0,1,.361.1M59.486,10.507c-.24-.079-.484-.165-.731-.247a8.321,8.321,0,0,1-.848,3.705c-.108.221-.225.437-.345.655a5.327,5.327,0,0,0-.69,1.693,4.874,4.874,0,0,0,.259,1.94,39.538,39.538,0,0,0,2.212,5.98l2.9-2.357a12.438,12.438,0,0,0,3.436-3.658c.68-1.332.908-3.319-.209-4.538-1.525-1.664-3.693-2.4-5.99-3.174m-5.053-2.2a16.559,16.559,0,0,1-.7,2.522c-.158.471-.323.959-.452,1.44a15.429,15.429,0,0,0-.528,4.468A20.507,20.507,0,0,0,55.837,26.8a25.126,25.126,0,0,0,2.747-1.956,40.383,40.383,0,0,1-2.367-6.338,6.827,6.827,0,0,1-.32-1.835,3.783,3.783,0,0,1,.035-.5,6.052,6.052,0,0,1,.8-2.012c.111-.206.225-.408.326-.617a7.389,7.389,0,0,0,.737-3.633c-.623-.231-1.24-.481-1.835-.769-.522-.256-1.028-.544-1.525-.842M37.007,30.392a.288.288,0,0,1,.054-.054,8.87,8.87,0,0,0,2.424-3.126,3.188,3.188,0,0,0,.364-1.361c0-.063-.006-.123-.009-.187a1.959,1.959,0,0,1,.054-.753,1.921,1.921,0,0,1,.557-.791,23.079,23.079,0,0,1,2.1-1.788c0-.082.009-.168.019-.253a5.12,5.12,0,0,1,.877-2.063,5.212,5.212,0,0,1,.538-.753,4.242,4.242,0,0,0-1.3-4A14.874,14.874,0,0,0,40,13.235c-.5-.323-1.019-.658-1.513-1.016a15.75,15.75,0,0,1-5.212-6.673A5.743,5.743,0,0,1,30.2,7.065a5.578,5.578,0,0,1,.7,1.826c.044.18.089.358.139.528a13.19,13.19,0,0,0,1.114,2.525l.18.345c2.446,4.689,3.25,8.623,2.455,12.024a18.514,18.514,0,0,1-2.123,4.908,14.712,14.712,0,0,0,4.345,1.171M14.151,15.333a11.274,11.274,0,0,1,1.237,2.424,31.19,31.19,0,0,1,1.06,3.7,1.588,1.588,0,0,1-.231,1.478l-.883,1.456a21.418,21.418,0,0,1,2.927-.165,4.558,4.558,0,0,1,.082-1.6l.009-.051a16.7,16.7,0,0,0,.259-3.25,4.618,4.618,0,0,0-.263-1.655,6.349,6.349,0,0,0-.468-.848,4.191,4.191,0,0,1-.712-1.63,5.6,5.6,0,0,1-3.019.139m-1.6-.449c-.316-.114-.633-.234-.952-.354a10.236,10.236,0,0,0-3.5-.9,5.7,5.7,0,0,0-1.332.152.461.461,0,0,1-.168.082,2.3,2.3,0,0,0-1.37,2.054l0,.06a1.387,1.387,0,0,1-.038.481,1.472,1.472,0,0,1-.364.585A3.255,3.255,0,0,0,3.763,19.5a4.5,4.5,0,0,0,.12.554,4.31,4.31,0,0,1,.161.864,4.3,4.3,0,0,1-.051.794,3.422,3.422,0,0,0-.044.6,2.616,2.616,0,0,0,.642,1.408A8.786,8.786,0,0,0,6.8,25.364c.2.12.386.234.554.339a22.312,22.312,0,0,0,3.883-.595c.914-.2,1.886-.392,2.889-.551l1.282-2.114a1.2,1.2,0,0,0,.171-.364,1.207,1.207,0,0,0-.054-.4A30.114,30.114,0,0,0,14.5,18.092a8.86,8.86,0,0,0-1.946-3.205Z" fill="#14b4f0"/><path d="M46.746,36.377A5.7,5.7,0,0,1,43.225,35a15.324,15.324,0,0,1-2.574-2.93l-.01-.013a3.509,3.509,0,0,1-.383-.61,15.579,15.579,0,0,1-1.613.084,15.91,15.91,0,0,1-6.505-1.392c-1.9,1.376-3.655,2.525-5.743,2.7-.192.017-.393.025-.6.025a14.083,14.083,0,0,1-2.219-.229,8.471,8.471,0,0,1-4.758-1.83,3.95,3.95,0,0,1-1.167-3.042,2.729,2.729,0,0,1,1.127-2.081,4.608,4.608,0,0,0,.467-.359l-.043,0c-.407-.033-.833-.049-1.267-.049a31.3,31.3,0,0,0-6.479.861l-.016,0a22.982,22.982,0,0,1-4.075.609.584.584,0,0,1-.225.048H7.133a4.625,4.625,0,0,1-.72-.064,6.532,6.532,0,0,1-3.1-.926,7.77,7.77,0,0,1-3.2-5.1A6.183,6.183,0,0,1,.2,17.123c.706-1.853,2.58-2.889,3.928-3.507l.068-.03.067-.03A10.349,10.349,0,0,1,6.3,12.771a.622.622,0,0,1,.229-.017,6.63,6.63,0,0,1,1.579-.173,11.217,11.217,0,0,1,3.853.965l.122.047c.3.114.6.232.907.336a8.377,8.377,0,0,0,2.177.485,2.676,2.676,0,0,1-.92-1.895,4.3,4.3,0,0,1,2.106-3.5A15.258,15.258,0,0,1,17.9,8.1l.044-.024a12.791,12.791,0,0,0,1.565-.944c.253-.188.494-.394.748-.612l.078-.067A6.567,6.567,0,0,1,22.588,5a4,4,0,0,1,1.242-.19,9.2,9.2,0,0,1,2.928.655l.011,0a10.454,10.454,0,0,0,2.31.6c.115.01.234.015.351.015a4.558,4.558,0,0,0,4.052-2.589c.056-.125.108-.254.159-.38l.027-.066a4.117,4.117,0,0,1,.776-1.395A4.156,4.156,0,0,1,36.561.63,19.669,19.669,0,0,1,41.219-.1,8.82,8.82,0,0,1,43.11.094a6.61,6.61,0,0,1,2.919,1.479,4.834,4.834,0,0,1,1.633,2.773A12.68,12.68,0,0,1,52.2,5.774c.69.358,1.371.776,1.971,1.146.684.421,1.46.9,2.251,1.283a28.87,28.87,0,0,0,3.376,1.3l.026.009c2.322.786,4.721,1.6,6.427,3.46,1.455,1.585,1.212,4.078.37,5.723a13.194,13.194,0,0,1-3.709,3.994L59.7,25.3c-2.427,1.969-4.843,3.747-7.7,3.871-.756,1.87-1.533,3.552-2.284,5.178l-.038.083A3.955,3.955,0,0,1,49,35.533a2.932,2.932,0,0,1-1.909.832C46.982,36.371,46.863,36.377,46.746,36.377Zm-6.363-5.144.029.069a3.109,3.109,0,0,0,.39.637l.01.013a15.17,15.17,0,0,0,2.539,2.893,5.5,5.5,0,0,0,3.4,1.332c.111,0,.227-.007.33-.013a2.732,2.732,0,0,0,1.778-.769,3.794,3.794,0,0,0,.64-1.052l.038-.083c.759-1.642,1.543-3.339,2.3-5.229l.024-.06.065,0c2.826-.1,5.231-1.867,7.649-3.829l3.209-2.6a13.041,13.041,0,0,0,3.657-3.93c.812-1.586,1.052-3.983-.339-5.5-1.672-1.825-4.046-2.629-6.342-3.406l-.028-.01a29.02,29.02,0,0,1-3.4-1.312c-.8-.39-1.579-.869-2.268-1.293-.6-.367-1.275-.784-1.959-1.139a12.445,12.445,0,0,0-4.539-1.413l-.077-.008-.012-.076A5.486,5.486,0,0,0,43.067.29,8.622,8.622,0,0,0,41.219.1,19.5,19.5,0,0,0,36.61.824a4,4,0,0,0-2.021.959,3.962,3.962,0,0,0-.736,1.331l-.027.067c-.051.127-.1.258-.162.387a4.764,4.764,0,0,1-4.234,2.707c-.123,0-.247-.005-.369-.016a10.6,10.6,0,0,1-2.357-.605l-.011,0a9.054,9.054,0,0,0-2.864-.645,3.8,3.8,0,0,0-1.181.18,6.416,6.416,0,0,0-2.18,1.423l-.079.068c-.258.221-.5.429-.759.621a12.938,12.938,0,0,1-1.589.96L18,8.28a15.1,15.1,0,0,0-1.527.9,4.112,4.112,0,0,0-2.021,3.33,2.523,2.523,0,0,0,1.076,1.931l.253.185-.313,0a8.1,8.1,0,0,1-2.538-.509c-.305-.1-.614-.223-.913-.338l-.121-.047a11.066,11.066,0,0,0-3.785-.952h-.1a6.564,6.564,0,0,0-1.453.172l-.018,0-.018,0a.423.423,0,0,0-.168.01,10.146,10.146,0,0,0-2,.771l-.006,0-.067.03-.069.03c-1.314.6-3.142,1.611-3.822,3.4a5.994,5.994,0,0,0-.078,3.471,7.575,7.575,0,0,0,3.11,4.971,6.34,6.34,0,0,0,3.007.9H6.44a4.436,4.436,0,0,0,.693.062h.009a.4.4,0,0,0,.161-.039l.018-.008h.02a22.725,22.725,0,0,0,4.058-.605l.016,0a31.475,31.475,0,0,1,6.521-.865c.439,0,.871.017,1.283.05a1.168,1.168,0,0,1,.258.04l.125.042-.073.109a2.73,2.73,0,0,1-.633.536,2.532,2.532,0,0,0-1.043,1.932,3.742,3.742,0,0,0,1.105,2.882,8.311,8.311,0,0,0,4.652,1.777,13.718,13.718,0,0,0,2.188.226c.2,0,.4-.008.582-.024,2.054-.174,3.792-1.326,5.69-2.7l.047-.034.053.024a15.7,15.7,0,0,0,6.475,1.4,15.361,15.361,0,0,0,1.665-.09Zm8.284,3.116-.1-.1a.165.165,0,0,1-.032-.047h0a1.035,1.035,0,0,0-.638-.362,4.2,4.2,0,0,0-1.719-.031l-.119.023v-.121a.559.559,0,0,0-.105-.326,2.475,2.475,0,0,0-1.405-.675,3.75,3.75,0,0,1-.512-.152,1.479,1.479,0,0,0-.565-.129,1.039,1.039,0,0,0-.12.007.855.855,0,0,0-.681.469l-.067.142-.1-.12c-.369-.443-.718-.914-1.055-1.369l-.034-.046a1.578,1.578,0,0,1-.374-.724.352.352,0,0,0-.138-.255.379.379,0,0,0-.288-.082,14.645,14.645,0,0,1-2.3.13l-.238,0,.17-.166a9.71,9.71,0,0,0,2.011-2.838,3.959,3.959,0,0,0,.44-1.737c0-.072-.006-.148-.012-.222V25.6a1.281,1.281,0,0,1,.018-.434,1.217,1.217,0,0,1,.335-.436c.383-.371.784-.73,1.193-1.069l.153.122c-.052.1-.106.213-.153.321a2.837,2.837,0,0,0,1.248,3.263,6.263,6.263,0,0,0,3.342.8h0a.374.374,0,0,0,.268-.635.37.37,0,0,0-.263-.114,7.576,7.576,0,0,1-1.979-.244l-.127-.037.071-.112a.822.822,0,0,0,.109-.554,2.533,2.533,0,0,0-.377-.944,1.229,1.229,0,0,1-.258-.726,1.177,1.177,0,0,1,.2-.384l.017-.024a1.773,1.773,0,0,0,.363-.809,1.834,1.834,0,0,0-.046-.548l-.015-.063a3.614,3.614,0,0,1,1.494-3.587.417.417,0,0,0,.152-.192l.017-.046.047-.015c.169-.053.337-.111.5-.167l.15-.052a7.172,7.172,0,0,1,1.114-.317,2.576,2.576,0,0,1,.427-.036,1.512,1.512,0,0,1,1.366.618A.375.375,0,1,0,50.7,18.8a2.308,2.308,0,0,0-2.014-.983,3.274,3.274,0,0,0-.548.046,7.971,7.971,0,0,0-1.319.375l-.029.01a8.568,8.568,0,0,1-1.021.307l-.118.023-.114.022a4.5,4.5,0,0,0-.459.1l-.133.037.007-.138a5.556,5.556,0,0,0-1.665-3.928,15.884,15.884,0,0,0-2.83-2.144l-.025-.016c-.483-.312-.982-.634-1.445-.975a14.876,14.876,0,0,1-5.11-6.767l-.019-.05.031-.043a3.622,3.622,0,0,0,.237-.373l.03-.055.062,0a6.1,6.1,0,0,1,3.465,1.277.374.374,0,0,0,.523-.061.376.376,0,0,0,.078-.278.37.37,0,0,0-.14-.25,6.814,6.814,0,0,0-3.515-1.413L34.5,3.509l.048-.122A3.321,3.321,0,0,1,35.137,2.3a2.074,2.074,0,0,1,.832-.506l.017-.006H36a.116.116,0,0,1,.042.008A7.544,7.544,0,0,1,40.8,4.969a.374.374,0,1,0,.624-.411,8.248,8.248,0,0,0-3.7-3.042l-.291-.12.307-.07A19.418,19.418,0,0,1,40.3.89l.027,0L40.353.9a5.906,5.906,0,0,1,3.111,3.848.371.371,0,0,0,.365.287.359.359,0,0,0,.087-.01.377.377,0,0,0,.278-.453,6.557,6.557,0,0,0-2.2-3.5L41.74.864l.322.029a6.746,6.746,0,0,1,.845.128c1.838.4,3.756,1.866,3.866,3.88a.371.371,0,0,0,.352.352,11.55,11.55,0,0,1,4.632,1.359c.65.34,1.312.746,1.845,1.073l.054.033-.007.063a13.533,13.533,0,0,1-.72,2.777l-.016.049c-.156.467-.316.949-.45,1.436a17,17,0,0,0-.405,6.719,22.218,22.218,0,0,0,3.031,8.445l.056.093-.1.048a7.555,7.555,0,0,1-3.4.874h-.04a.371.371,0,0,0-.346.236c-.792,1.987-1.614,3.766-2.409,5.487l-.04.086c-.029.06-.057.123-.085.186Zm-1.7-.818a4.345,4.345,0,0,1,.976.11,1.284,1.284,0,0,1,.673.343l.018-.038.039-.085c.794-1.718,1.615-3.5,2.4-5.475a.571.571,0,0,1,.533-.364h.04a7.3,7.3,0,0,0,3.214-.806,22.392,22.392,0,0,1-3-8.428,17.2,17.2,0,0,1,.411-6.8c.135-.492.3-.977.453-1.446l.016-.049a13.7,13.7,0,0,0,.7-2.673c-.52-.319-1.156-.708-1.778-1.033a11.351,11.351,0,0,0-4.551-1.337.57.57,0,0,1-.54-.541c-.1-1.914-1.945-3.308-3.709-3.7-.165-.036-.331-.066-.5-.089a6.749,6.749,0,0,1,2.025,3.4.577.577,0,0,1-.425.693.556.556,0,0,1-.134.015.57.57,0,0,1-.559-.441,5.7,5.7,0,0,0-2.978-3.7,18.07,18.07,0,0,0-2.213.362A8.322,8.322,0,0,1,41.59,4.446a.574.574,0,1,1-.958.632,7.339,7.339,0,0,0-4.622-3.09,1.853,1.853,0,0,0-.727.445,2.829,2.829,0,0,0-.5.9,7.01,7.01,0,0,1,3.487,1.44.577.577,0,0,1,.1.808.574.574,0,0,1-.806.095,5.9,5.9,0,0,0-3.288-1.231c-.055.1-.117.193-.188.295a14.675,14.675,0,0,0,5.022,6.626c.458.337.955.658,1.435.968l.025.016a16.036,16.036,0,0,1,2.865,2.172,5.88,5.88,0,0,1,1.725,3.943c.118-.028.234-.048.344-.067l.115-.022.113-.022a8.423,8.423,0,0,0,1-.3l.029-.01a8.126,8.126,0,0,1,1.351-.384,3.474,3.474,0,0,1,.581-.049,2.43,2.43,0,0,1,2.185,1.08.571.571,0,0,1-.2.786.574.574,0,0,1-.788-.2,1.39,1.39,0,0,0-1.194-.52,2.375,2.375,0,0,0-.393.033,7.027,7.027,0,0,0-1.082.309l-.15.051c-.149.052-.3.1-.46.155a.63.63,0,0,1-.206.24,3.408,3.408,0,0,0-1.412,3.381l.015.062a2.039,2.039,0,0,1,.05.612,1.94,1.94,0,0,1-.4.9l-.016.024a1.126,1.126,0,0,0-.173.308,1.189,1.189,0,0,0,.235.59,2.693,2.693,0,0,1,.4,1.019,1.045,1.045,0,0,1-.076.569,7.692,7.692,0,0,0,1.807.2.576.576,0,0,1,.567.582.576.576,0,0,1-.575.567h-.006a6.446,6.446,0,0,1-3.45-.833,3.06,3.06,0,0,1-1.352-3.429c-.286.248-.568.506-.84.769a1.134,1.134,0,0,0-.284.352,1.206,1.206,0,0,0-.009.362c.007.081.01.159.013.235a4.207,4.207,0,0,1-.458,1.827,9.9,9.9,0,0,1-1.885,2.728,14.314,14.314,0,0,0,2.033-.132.61.61,0,0,1,.075,0,.576.576,0,0,1,.363.127.549.549,0,0,1,.214.4,1.456,1.456,0,0,0,.335.622l.034.046c.307.415.624.843.956,1.249a1.071,1.071,0,0,1,.763-.45,1.238,1.238,0,0,1,.143-.008,1.673,1.673,0,0,1,.644.145,3.694,3.694,0,0,0,.479.141,2.607,2.607,0,0,1,1.522.754.779.779,0,0,1,.133.324A4.407,4.407,0,0,1,46.964,33.532ZM25.8,31.918a13.245,13.245,0,0,1-2.074-.216,7.76,7.76,0,0,1-4.252-1.58,2.961,2.961,0,0,1-.876-2.286,1.763,1.763,0,0,1,.713-1.362l.006,0c.426-.3.909-.642.99-1.117a.759.759,0,0,0-.141-.579,1.159,1.159,0,0,0-.889-.4l-.018,0H19.2l-.031-.06a2.843,2.843,0,0,1,.012-1.542l.01-.049a18.019,18.019,0,0,0,.27-3.412,5.369,5.369,0,0,0-.328-1.97,6.925,6.925,0,0,0-.53-.966,2.446,2.446,0,0,1-.58-1.658.375.375,0,0,0-.1-.338l-.013-.013L17.9,14.35a.375.375,0,0,0-.345-.227.381.381,0,0,0-.105.015,1.557,1.557,0,0,1-.433.061,1.786,1.786,0,0,1-1.052-.358,2,2,0,0,1-.65-.811l-.032-.075.067-.046a.365.365,0,0,0,.085-.08,2.361,2.361,0,0,1,.811-.538l.017-.008a3.35,3.35,0,0,0,.959-.621,3.27,3.27,0,0,0,.371-.473c.057-.083.125-.18.2-.273a3.964,3.964,0,0,1,1.023-.776l.02-.012a8.758,8.758,0,0,1,2.141-1.04l.052-.015c.572-.155,1.433-.389,1.553-1.188a1.5,1.5,0,0,0,.012-.272c0-.014,0-.023,0-.033a.56.56,0,0,1,0-.1c.022-.186.236-.366.464-.556l.02-.017a1.826,1.826,0,0,0,.763-1.059l.014-.087.088,0a9,9,0,0,1,2.5.6l.011,0A11.346,11.346,0,0,0,28.916,7l.043,0,.026.034a.351.351,0,0,0,.094.087A3.046,3.046,0,0,1,30.073,9.1l.018.069c.041.161.083.328.127.484a13.9,13.9,0,0,0,1.169,2.661l.191.367c2.381,4.565,3.138,8.2,2.382,11.441a19.146,19.146,0,0,1-2.288,5.122.309.309,0,0,0-.023.053l-.009.035-.03.021c-1.8,1.3-3.432,2.385-5.293,2.544C26.153,31.911,25.979,31.918,25.8,31.918Zm-6.468-7.736a1.305,1.305,0,0,1,1,.475.955.955,0,0,1,.176.73c-.1.558-.637.94-1.072,1.247l-.007,0a1.57,1.57,0,0,0-.629,1.213,2.754,2.754,0,0,0,.814,2.126A7.608,7.608,0,0,0,23.758,31.5a13.089,13.089,0,0,0,2.043.213c.173,0,.341-.007.5-.021,1.8-.153,3.407-1.216,5.167-2.488.008-.021.018-.041.027-.059l0-.005a18.992,18.992,0,0,0,2.267-5.07c.744-3.192-.007-6.783-2.364-11.3l-.19-.366a14.053,14.053,0,0,1-1.184-2.7c-.045-.159-.087-.327-.128-.489l-.018-.07a2.926,2.926,0,0,0-.906-1.855.537.537,0,0,1-.118-.1A11.68,11.68,0,0,1,26.4,6.552l-.011,0a9.254,9.254,0,0,0-2.361-.583,2.1,2.1,0,0,1-.815,1.093l-.02.017c-.17.142-.382.319-.394.426v.006a.39.39,0,0,0,0,.068c0,.011,0,.022,0,.033a1.672,1.672,0,0,1-.014.305c-.14.929-1.076,1.183-1.7,1.351l-.052.015A8.613,8.613,0,0,0,18.944,10.3l-.02.012a3.823,3.823,0,0,0-.972.731c-.071.087-.136.18-.191.259a3.445,3.445,0,0,1-.394.5,3.508,3.508,0,0,1-1.014.66l-.017.008a2.238,2.238,0,0,0-.741.482.533.533,0,0,1-.062.068,1.815,1.815,0,0,0,.553.659,1.587,1.587,0,0,0,.934.319,1.357,1.357,0,0,0,.378-.053.581.581,0,0,1,.161-.023.574.574,0,0,1,.521.332.575.575,0,0,1,.14.5,2.288,2.288,0,0,0,.553,1.513,7.081,7.081,0,0,1,.545,1,5.548,5.548,0,0,1,.343,2.043,18.225,18.225,0,0,1-.274,3.452l-.01.05A2.928,2.928,0,0,0,19.332,24.182ZM37.049,30.5,37,30.491a14.755,14.755,0,0,1-4.374-1.179l-.1-.045.055-.1a18.232,18.232,0,0,0,2.113-4.881c.788-3.377-.012-7.287-2.447-11.955l-.2-.377a13.08,13.08,0,0,1-1.1-2.513c-.051-.172-.1-.35-.14-.532a5.519,5.519,0,0,0-.682-1.793l-.09-.131.157-.024A5.644,5.644,0,0,0,33.2,5.473l.106-.1.056.136a15.722,15.722,0,0,0,5.178,6.631c.5.36,1.034.706,1.508,1.012a15.052,15.052,0,0,1,2.7,2.039,4.346,4.346,0,0,1,1.324,4.1l-.007.02-.014.016a5.115,5.115,0,0,0-.527.739,5.016,5.016,0,0,0-.862,2.022c-.009.081-.015.164-.018.245l0,.047-.038.029a23.038,23.038,0,0,0-2.089,1.78,1.844,1.844,0,0,0-.531.75,1.881,1.881,0,0,0-.049.716c0,.023,0,.044,0,.064,0,.042.006.084.006.13a3.31,3.31,0,0,1-.373,1.4,8.974,8.974,0,0,1-2.451,3.161l-.005,0a.206.206,0,0,0-.035.036ZM32.8,29.174a14.562,14.562,0,0,0,4.163,1.112A.3.3,0,0,1,37,30.259a8.774,8.774,0,0,0,2.394-3.089,3.128,3.128,0,0,0,.355-1.317c0-.04,0-.078-.005-.118,0-.022,0-.044,0-.066a2.042,2.042,0,0,1,.058-.788,2.018,2.018,0,0,1,.583-.833,23.236,23.236,0,0,1,2.069-1.767c0-.071.009-.142.017-.213a5.25,5.25,0,0,1,.891-2.1,5.369,5.369,0,0,1,.534-.751,4.039,4.039,0,0,0-1.283-3.882,14.9,14.9,0,0,0-2.666-2.011c-.476-.307-1.016-.656-1.517-1.019a15.929,15.929,0,0,1-5.19-6.583,5.855,5.855,0,0,1-2.869,1.421,6.116,6.116,0,0,1,.627,1.728c.044.18.088.355.138.524a12.934,12.934,0,0,0,1.09,2.475l.2.377c2.458,4.712,3.264,8.668,2.464,12.093A18.142,18.142,0,0,1,32.8,29.174Zm23-2.234-.051-.085a20.578,20.578,0,0,1-3.1-10.118,15.534,15.534,0,0,1,.532-4.5c.127-.469.286-.944.44-1.4l.014-.042a16.442,16.442,0,0,0,.692-2.507l.024-.145.126.075c.586.351,1.068.617,1.518.838.531.257,1.111.5,1.826.765l.062.023,0,.066a7.5,7.5,0,0,1-.747,3.682c-.078.162-.166.322-.25.477l-.078.144-.008.015a5.932,5.932,0,0,0-.778,1.964,3.666,3.666,0,0,0-.034.483,6.807,6.807,0,0,0,.316,1.808,40.3,40.3,0,0,0,2.361,6.322l.034.072-.062.049a25.326,25.326,0,0,1-2.758,1.963Zm-1.3-18.475a17.491,17.491,0,0,1-.675,2.393l-.014.043c-.153.456-.311.928-.437,1.392a15.335,15.335,0,0,0-.525,4.439,20.347,20.347,0,0,0,3.016,9.934,25.251,25.251,0,0,0,2.588-1.848,40.5,40.5,0,0,1-2.339-6.282,6.978,6.978,0,0,1-.323-1.862,3.868,3.868,0,0,1,.036-.51,6.085,6.085,0,0,1,.8-2.032l.008-.015.078-.144c.083-.153.169-.311.246-.469A7.3,7.3,0,0,0,57.7,9.986c-.693-.258-1.261-.5-1.782-.75C55.491,9.029,55.041,8.783,54.506,8.465ZM7.327,25.8,7.3,25.787c-.157-.1-.338-.209-.553-.338a8.82,8.82,0,0,1-2.237-1.661,2.7,2.7,0,0,1-.663-1.464,3.467,3.467,0,0,1,.045-.622l0-.032a4.053,4.053,0,0,0,.046-.744,4,4,0,0,0-.147-.8l-.011-.045a4.536,4.536,0,0,1-.123-.566,3.343,3.343,0,0,1,1.091-2.538,1.371,1.371,0,0,0,.342-.545,1.265,1.265,0,0,0,.035-.439l0-.07a2.38,2.38,0,0,1,1.443-2.155.365.365,0,0,0,.135-.066l.017-.013.021,0a5.879,5.879,0,0,1,1.289-.155H8.1a10.306,10.306,0,0,1,3.533.9l.149.056c.263.1.536.2.8.3l.021.008.016.016a8.947,8.947,0,0,1,1.972,3.244,30.381,30.381,0,0,1,1.029,3.6,1.276,1.276,0,0,1,.055.437,1.263,1.263,0,0,1-.184.4l-1.306,2.154-.046.007c-1.077.17-2.107.383-2.884.55a22.488,22.488,0,0,1-3.9.6ZM6.808,13.875a.553.553,0,0,1-.186.086,2.189,2.189,0,0,0-1.294,1.953l0,.069a1.45,1.45,0,0,1-.042.5,1.552,1.552,0,0,1-.384.622,3.163,3.163,0,0,0-1.043,2.382,4.39,4.39,0,0,0,.118.54l.012.045a4.159,4.159,0,0,1,.153.839,4.209,4.209,0,0,1-.047.78l0,.032a3.322,3.322,0,0,0-.044.587,2.521,2.521,0,0,0,.622,1.353,8.727,8.727,0,0,0,2.181,1.611c.2.123.377.229.529.323a22.524,22.524,0,0,0,3.835-.592c.768-.165,1.783-.375,2.849-.544l1.257-2.074a1.183,1.183,0,0,0,.158-.327,1.2,1.2,0,0,0-.052-.36,30.227,30.227,0,0,0-1.022-3.576A8.769,8.769,0,0,0,12.5,14.97c-.261-.094-.527-.194-.784-.291l-.149-.056A10.167,10.167,0,0,0,8.1,13.731H8.033A5.661,5.661,0,0,0,6.808,13.875Zm8.335,10.64,1-1.646a1.793,1.793,0,0,0,.278-.66,1.869,1.869,0,0,0-.068-.727l-.019-.078a30.466,30.466,0,0,0-1.037-3.612,11.111,11.111,0,0,0-1.226-2.4l-.14-.2.241.047a7.025,7.025,0,0,0,1.333.137,4.729,4.729,0,0,0,1.632-.272l.118-.043.016.125a4.067,4.067,0,0,0,.695,1.584l0,.005a6.518,6.518,0,0,1,.475.862,4.726,4.726,0,0,1,.27,1.691,16.8,16.8,0,0,1-.261,3.27l-.01.051a4.5,4.5,0,0,0-.082,1.564l.022.121-.123,0q-.162,0-.323,0a21.955,21.955,0,0,0-2.59.167Zm-.777-9.043a11.609,11.609,0,0,1,1.116,2.248,30.619,30.619,0,0,1,1.045,3.636l.019.078a2.033,2.033,0,0,1,.071.8,1.983,1.983,0,0,1-.3.733l-.009.016-.777,1.281a21.7,21.7,0,0,1,2.411-.145h.207a5,5,0,0,1,.1-1.517l.01-.052a16.593,16.593,0,0,0,.258-3.23,4.553,4.553,0,0,0-.255-1.618,6.372,6.372,0,0,0-.461-.834l0-.005a4.58,4.58,0,0,1-.7-1.543A5.655,5.655,0,0,1,14.366,15.473Zm44.941,8.919-.054-.116a39.665,39.665,0,0,1-2.217-6,4.944,4.944,0,0,1-.262-1.981,5.363,5.363,0,0,1,.7-1.717l.005-.01c.114-.208.235-.428.343-.651a8.265,8.265,0,0,0,.838-3.661v-.139l.132.044.33.112c.135.046.268.091.4.135l.022.007c2.3.779,4.473,1.516,6.011,3.194,1.147,1.251.92,3.288.224,4.651a12.51,12.51,0,0,1-3.462,3.69ZM58.854,10.4A8.466,8.466,0,0,1,58,14.01c-.11.227-.232.45-.347.659l0,.009a5.222,5.222,0,0,0-.674,1.65,4.784,4.784,0,0,0,.257,1.9,39.462,39.462,0,0,0,2.152,5.849L62.185,21.8a12.362,12.362,0,0,0,3.41-3.626c.666-1.3.889-3.244-.194-4.424-1.5-1.64-3.652-2.369-5.927-3.14l-.021-.007c-.132-.044-.267-.089-.4-.135Z" fill="#13b4f0"/><path d="M1.834,2.49a.959.959,0,0,1-.623.237.97.97,0,0,1-.348-.066A1.4,1.4,0,0,1,.014,1.595,1.415,1.415,0,0,1,1.087.032,1.414,1.414,0,0,1,2.723.987a.508.508,0,0,1-.025.367A3.379,3.379,0,0,1,1.834,2.49" transform="translate(59.55 12.26)" fill="#14b4f0"/><path d="M1.21,2.828a1.071,1.071,0,0,1-.384-.073A1.5,1.5,0,0,1-.085,1.61,1.516,1.516,0,0,1,1.065-.066,1.436,1.436,0,0,1,1.377-.1,1.509,1.509,0,0,1,2.819.959a.61.61,0,0,1-.031.439A3.484,3.484,0,0,1,1.9,2.567,1.059,1.059,0,0,1,1.21,2.828ZM1.377.1a1.235,1.235,0,0,0-.268.029,1.313,1.313,0,0,0-1,1.451A1.3,1.3,0,0,0,.9,2.567a.872.872,0,0,0,.314.06.861.861,0,0,0,.559-.214,3.282,3.282,0,0,0,.838-1.1.409.409,0,0,0,.021-.295A1.325,1.325,0,0,0,1.377.1Z" transform="translate(59.55 12.26)" fill="#13b4f0"/></g></g><g transform="translate(192.138 1480.275)"><path d="M57.779,13.02a38.935,38.935,0,0,1,4.354-.772,10.353,10.353,0,0,1,3.93.1,4.5,4.5,0,0,1,3.129,2.6c.066.174.114.348.165.513a2.778,2.778,0,0,0,.3.763c.471.709,1.626.731,2.648.753h.06a.476.476,0,0,1,.452.37.47.47,0,0,1-.247.528c-2.161,1.107-4.727.709-6.99.361-2.136-.329-4.55-.582-6.338.566a.824.824,0,0,0-.269.231c-.1.171-.006.5.079.794a18.927,18.927,0,0,1,.551,3.544c.07.759.139,1.544.272,2.3.225,1.266.88,3.519,2.737,4.376a.823.823,0,0,0,.351.1,1.214,1.214,0,0,0,.57-.361,23.4,23.4,0,0,1,4.712-2.971,17.005,17.005,0,0,1,4.345-1.753.51.51,0,0,1,.237-.041,6.3,6.3,0,0,1,2.516.044.476.476,0,0,1-.215.927A5.3,5.3,0,0,0,73.1,25.94a15.871,15.871,0,0,0-.892,2.952,13.343,13.343,0,0,1-1.338,3.873,11.7,11.7,0,0,1-5.164,4.148A37.561,37.561,0,0,1,62.1,38.442c2.443-.332,4.886-.873,7.256-1.4l8.338-1.851c1.038-.228,2.107-.465,3.145-.753A68.228,68.228,0,0,0,88.862,31.4a58.786,58.786,0,0,1,9.92-3.557c.642-.364,1.3-.715,1.962-1.032a.475.475,0,1,1,.408.858,30.354,30.354,0,0,0-4.911,2.936,6.276,6.276,0,0,0-1.468,1.373,7.346,7.346,0,0,0-.459.816,4.2,4.2,0,0,1-1.221,1.642,4.378,4.378,0,0,1-.823.434,2.43,2.43,0,0,0-.794.459,1.882,1.882,0,0,0-.418,1.06c.911-.826,1.87-1.551,2.807-2.256L98.557,30.6a53.45,53.45,0,0,0,9.167-8.072,51.794,51.794,0,0,0,4.731-7.161l-.509-.772a.483.483,0,0,1-.016-.5.729.729,0,0,0-.2-.456,2.44,2.44,0,0,0-.693-.443l-.237-.123a6.005,6.005,0,0,1-1.927-1.626l-.114-.152a2.728,2.728,0,0,0-.348-.411,2.817,2.817,0,0,0-.358-.253c-.079-.047-.155-.1-.234-.152a6.627,6.627,0,0,1-1.88-2.408A7.044,7.044,0,0,0,103.1,5.236a14.86,14.86,0,0,0-4.9-1.636,45.7,45.7,0,0,0-15.527.133q-1.979.337-3.993.829A84.232,84.232,0,0,0,60.3,11.7q-1.267.646-2.525,1.316M62.465,20.1a2.158,2.158,0,0,0-1.446.541.475.475,0,0,1-.525-.791,2.964,2.964,0,0,1,2.164-.68,3.005,3.005,0,0,1,.449.142,2,2,0,0,0,.275.092,2.306,2.306,0,0,0,.547.041l1.655,0a.475.475,0,1,1,0,.949l-1.655,0a3.186,3.186,0,0,1-.772-.066,3.057,3.057,0,0,1-.386-.13,2.255,2.255,0,0,0-.307-.1m5.7,3.174a.881.881,0,0,0-.256.155,2.259,2.259,0,0,1-.392.24,2.182,2.182,0,0,1-1.247.07l-.117-.019a5.409,5.409,0,0,0-2.588.256.473.473,0,0,1-.608-.288.476.476,0,0,1,.288-.608,6.418,6.418,0,0,1,3.044-.3l.127.019a1.4,1.4,0,0,0,.715,0,1.261,1.261,0,0,0,.218-.142,1.6,1.6,0,0,1,.636-.316.474.474,0,1,1,.18.93m0-2.474-.759.123a.308.308,0,0,1-.076.006.475.475,0,0,1-.076-.943l.756-.123a.475.475,0,1,1,.155.937m39.079-9.23a.523.523,0,0,1,.44-.377.954.954,0,0,1,.918.44.839.839,0,0,1-.253,1.123.771.771,0,0,1-.415.12.8.8,0,0,1-.329-.073.687.687,0,0,1-.405-.528,1.714,1.714,0,0,1,.044-.706m-.725,1.7a.473.473,0,0,1,.636-.215,1.212,1.212,0,0,0,1.2-.092.475.475,0,0,1,.544.778,2.143,2.143,0,0,1-1.228.383,2.121,2.121,0,0,1-.94-.218.473.473,0,0,1-.215-.636m-22.9,11.259a2.537,2.537,0,0,1,.168-1.861A2.082,2.082,0,0,0,84,21.516a1.954,1.954,0,0,0-.108-.275,1.706,1.706,0,0,1-.2-.861,1.8,1.8,0,0,1,.152-.509.632.632,0,0,0,.044-.547L83.549,17.6a.474.474,0,1,1,.93-.184l.345,1.728a1.791,1.791,0,0,1,.044.655,1.972,1.972,0,0,1-.146.449,1.035,1.035,0,0,0-.079.228.957.957,0,0,0,.12.386,3.414,3.414,0,0,1,.152.411,2.8,2.8,0,0,1-.234,1.721,1.792,1.792,0,0,0-.18,1.18.477.477,0,0,1-.263.62.518.518,0,0,1-.177.035.473.473,0,0,1-.44-.3m18.473-17.8a.47.47,0,0,1,.661.123,5,5,0,0,1,.554,1.054.473.473,0,0,1-.272.614.45.45,0,0,1-.168.032.47.47,0,0,1-.411-.237.629.629,0,0,1-.032-.066,3.979,3.979,0,0,0-.456-.858.477.477,0,0,1,.123-.661m-1.744,2.6a.446.446,0,0,1,.24-.066.476.476,0,0,1,.411.231,4.873,4.873,0,0,1,.541,1.323.477.477,0,0,1-.348.576.466.466,0,0,1-.114.013.473.473,0,0,1-.459-.361,3.924,3.924,0,0,0-.437-1.066.474.474,0,0,1,.165-.649m-3.743-.683a.476.476,0,0,1,.649.177,8.109,8.109,0,0,1,.49,1.016c.047.117.092.234.133.354a.473.473,0,0,1-.3.6.425.425,0,0,1-.152.025.519.519,0,0,1-.073-.006.468.468,0,0,1-.377-.313A7.011,7.011,0,0,0,96.434,9.3a.473.473,0,0,1,.174-.649m-2.326,4.421a1.477,1.477,0,0,1,.18-.361.938.938,0,0,1,.782-.4,1.792,1.792,0,0,1,.782.222,40.908,40.908,0,0,1,7.521,5.37.475.475,0,0,1-.538.778.561.561,0,0,1-.07-.051,40.2,40.2,0,0,0-7.344-5.25c-.259-.13-.345-.123-.361-.12a.626.626,0,0,0-.057.13,3.735,3.735,0,0,0,.415,2.459l.054.136a22.043,22.043,0,0,1,1.215,4.436l.009.054a2.8,2.8,0,0,0,.674,1.753,2,2,0,0,0,1.6.193c.228-.047.449-.114.687-.18a6.432,6.432,0,0,1,1.421-.294.474.474,0,1,1,.057.946,5.89,5.89,0,0,0-1.215.259c-.24.07-.49.142-.747.2a4,4,0,0,1-.88.1,2.356,2.356,0,0,1-1.516-.481,3.546,3.546,0,0,1-1.019-2.342l-.009-.051a20.97,20.97,0,0,0-1.164-4.243l-.054-.139a4.462,4.462,0,0,1-.424-3.12M92.51,10.023a.476.476,0,0,1,.62.259l.348.851a.47.47,0,0,1-.259.617.447.447,0,0,1-.177.038.476.476,0,0,1-.44-.294l-.351-.851a.476.476,0,0,1,.259-.62M82.694,6.543a.475.475,0,0,1,.551-.386,9.038,9.038,0,0,1,3.145.987A8.955,8.955,0,0,1,88.014,8.53a3.39,3.39,0,0,1,.816,1.085,2.983,2.983,0,0,1,.123.37,2.207,2.207,0,0,0,.111.32,2.062,2.062,0,0,0,.354.446c.085.092.174.187.253.285a3.141,3.141,0,0,1,.278.4,5.3,5.3,0,0,1,.5,1.221,22.051,22.051,0,0,1,.468,7.173,4.642,4.642,0,0,1-.88,3.022,4.628,4.628,0,0,1-.674.589,3.016,3.016,0,0,0-.614.557,3.557,3.557,0,0,0-.459,1.126,2.746,2.746,0,0,1-1.168,1.867,3.136,3.136,0,0,1-.465.184,1.229,1.229,0,0,0-.4.18,1.317,1.317,0,0,0-.18.256l-.06.095a3.791,3.791,0,0,1-1.351,1.278.466.466,0,0,1-.231.06.475.475,0,0,1-.231-.889,2.846,2.846,0,0,0,1.013-.956l.051-.085a1.6,1.6,0,0,1,1.095-.839,2.362,2.362,0,0,0,.316-.123c.389-.209.535-.709.7-1.291a4.249,4.249,0,0,1,.614-1.433,3.806,3.806,0,0,1,.8-.74,3.816,3.816,0,0,0,.541-.468,3.911,3.911,0,0,0,.639-2.43,21.368,21.368,0,0,0-.43-6.87,3.7,3.7,0,0,0-.6-1.285c-.066-.082-.139-.158-.212-.237a2.738,2.738,0,0,1-.513-.677,2.894,2.894,0,0,1-.171-.475,1.912,1.912,0,0,0-.089-.269,2.683,2.683,0,0,0-.611-.782,8.4,8.4,0,0,0-1.449-1.244,8.136,8.136,0,0,0-2.816-.861.473.473,0,0,1-.383-.551" transform="translate(-39.496 -2.051)" fill="#fff"/><g transform="translate(0 -0.001)"><path d="M215.517,31.4a.174.174,0,0,0,.006.171,1.033,1.033,0,0,1-.006-.171" transform="translate(-147.309 -21.463)" fill="#14b4f0"/><path transform="translate(-147.309 -21.463)" fill="#13b4f0"/><path d="M.7,20.495l13.448-7.3a.294.294,0,0,0,.041-.013,38.234,38.234,0,0,1,8.556-2.044,9.607,9.607,0,0,1,3.572.079,3.553,3.553,0,0,1,2.487,2.019c.054.146.1.294.139.443a3.659,3.659,0,0,0,.421,1.022,2.278,2.278,0,0,0,1.126.87,18.019,18.019,0,0,1-4.278-.323c-2.3-.354-4.917-.62-6.987.706a1.685,1.685,0,0,0-.576.557,1.965,1.965,0,0,0,0,1.56,17.717,17.717,0,0,1,.509,3.338c.07.778.142,1.585.285,2.376.256,1.449,1.022,4.034,3.272,5.076a1.776,1.776,0,0,0,.734.187h.07a1.946,1.946,0,0,0,1.161-.614,22.748,22.748,0,0,1,4.506-2.826,19.908,19.908,0,0,1,3.291-1.456,21.154,21.154,0,0,0-.687,2.474,12.464,12.464,0,0,1-1.231,3.6A10.881,10.881,0,0,1,25.8,34.009a37.4,37.4,0,0,1-9.505,3.126.474.474,0,0,0,.085.94.72.72,0,0,0,.082-.006c1.18-.206,2.4-.326,3.582-.44.683-.063,1.389-.133,2.082-.218,2.686-.326,5.357-.918,7.942-1.494L38.4,34.069c1.047-.231,2.133-.471,3.193-.766a69.17,69.17,0,0,0,8.139-3.079c2.269-.962,4.588-1.946,6.8-2.68-.117.082-.237.161-.354.247a6.976,6.976,0,0,0-1.687,1.6,7.7,7.7,0,0,0-.525.921,3.487,3.487,0,0,1-.927,1.3,3.491,3.491,0,0,1-.652.335,3.21,3.21,0,0,0-1.092.665,3.252,3.252,0,0,0-.731,1.943A4.545,4.545,0,0,1,50.35,35.6a.477.477,0,0,0,.19.576.488.488,0,0,0,.253.073.474.474,0,0,0,.348-.155,27.552,27.552,0,0,1,3.8-3.25l4.7-3.535a54,54,0,0,0,9.322-8.227,53.848,53.848,0,0,0,4.971-7.54.474.474,0,0,0-.013-.5l-.544-.829a1.627,1.627,0,0,0-.452-1.275,3.278,3.278,0,0,0-.952-.636c-.073-.038-.146-.073-.218-.114a5.042,5.042,0,0,1-1.62-1.37l-.1-.136a3.242,3.242,0,0,0-.481-.554,3.292,3.292,0,0,0-.478-.345c-.07-.044-.136-.085-.2-.133a5.875,5.875,0,0,1-1.585-2.073c-1.329-2.557-4.155-4.227-8.4-4.962a48.668,48.668,0,0,0-19.906.975,85.242,85.242,0,0,0-18.59,7.218c-2.209,1.123-4.414,2.323-6.55,3.481L.247,19.659a.476.476,0,0,0,.456.835M43.183,1.683A45.7,45.7,0,0,1,58.71,1.55a14.86,14.86,0,0,1,4.9,1.636A7.044,7.044,0,0,1,66.44,6.024a6.627,6.627,0,0,0,1.88,2.408c.079.054.155.1.234.152a2.818,2.818,0,0,1,.358.253,2.728,2.728,0,0,1,.348.411l.114.152A6.005,6.005,0,0,0,71.3,11.027l.237.123a2.44,2.44,0,0,1,.693.443.729.729,0,0,1,.2.456.483.483,0,0,0,.016.5l.509.772a51.8,51.8,0,0,1-4.731,7.161,53.45,53.45,0,0,1-9.167,8.072l-4.693,3.535c-.937.706-1.9,1.43-2.807,2.256a1.882,1.882,0,0,1,.418-1.06,2.43,2.43,0,0,1,.794-.459,4.378,4.378,0,0,0,.823-.434,4.2,4.2,0,0,0,1.221-1.642,7.346,7.346,0,0,1,.459-.816,6.276,6.276,0,0,1,1.468-1.373,30.354,30.354,0,0,1,4.911-2.936.475.475,0,1,0-.408-.858c-.664.316-1.319.668-1.962,1.032a58.786,58.786,0,0,0-9.92,3.557,68.228,68.228,0,0,1-8.021,3.038c-1.038.288-2.107.525-3.145.753l-8.338,1.851c-2.37.525-4.813,1.066-7.256,1.4a37.562,37.562,0,0,0,3.607-1.528,11.7,11.7,0,0,0,5.164-4.148,13.344,13.344,0,0,0,1.338-3.873,15.872,15.872,0,0,1,.892-2.952,5.3,5.3,0,0,1,2.022.054.476.476,0,0,0,.215-.927,6.3,6.3,0,0,0-2.516-.044.51.51,0,0,0-.237.041,17.005,17.005,0,0,0-4.345,1.753,23.4,23.4,0,0,0-4.712,2.971,1.214,1.214,0,0,1-.57.361.823.823,0,0,1-.351-.1c-1.857-.858-2.512-3.11-2.737-4.376-.133-.753-.2-1.538-.272-2.3a18.927,18.927,0,0,0-.551-3.544c-.085-.291-.18-.623-.079-.794a.824.824,0,0,1,.269-.231c1.788-1.149,4.2-.9,6.338-.566,2.262.348,4.829.747,6.99-.361a.47.47,0,0,0,.247-.528.476.476,0,0,0-.452-.37h-.06c-1.022-.022-2.177-.044-2.648-.753a2.778,2.778,0,0,1-.3-.763c-.051-.165-.1-.339-.165-.513a4.5,4.5,0,0,0-3.129-2.6,10.353,10.353,0,0,0-3.93-.1,38.936,38.936,0,0,0-4.354.772q1.258-.669,2.525-1.316A84.232,84.232,0,0,1,39.189,2.512q2.017-.494,3.993-.829" transform="translate(0 0)" fill="#14b4f0"/><path d="M16.378,38.175a.574.574,0,0,1-.1-1.138,37.286,37.286,0,0,0,9.48-3.118,10.785,10.785,0,0,0,4.72-3.739A12.374,12.374,0,0,0,31.694,26.6l.007-.029a22.79,22.79,0,0,1,.615-2.266A20.618,20.618,0,0,0,29.234,25.7a22.664,22.664,0,0,0-4.487,2.812,2.037,2.037,0,0,1-1.221.638H23.45a1.887,1.887,0,0,1-.776-.2c-2.291-1.06-3.069-3.681-3.329-5.149-.144-.8-.216-1.607-.286-2.385v-.006a17.613,17.613,0,0,0-.505-3.313,2.063,2.063,0,0,1,.013-1.638,1.783,1.783,0,0,1,.608-.591,7.155,7.155,0,0,1,3.967-1.01,20.637,20.637,0,0,1,3.09.29l.019,0a23.027,23.027,0,0,0,3.418.355c.146,0,.289,0,.429-.009a2.253,2.253,0,0,1-.813-.742,3.607,3.607,0,0,1-.422-1.011l-.011-.037c-.034-.123-.08-.281-.137-.437a3.451,3.451,0,0,0-2.419-1.957,6.61,6.61,0,0,0-1.727-.2,15.768,15.768,0,0,0-1.808.127,38.126,38.126,0,0,0-8.534,2.039.322.322,0,0,1-.039.013L.75,20.582a.559.559,0,0,1-.273.069.581.581,0,0,1-.508-.3A.583.583,0,0,1,.2,19.572l13.848-7.516c2.048-1.111,4.166-2.259,6.284-3.336A85.332,85.332,0,0,1,38.941,1.494,53.3,53.3,0,0,1,51.548-.1a43.05,43.05,0,0,1,7.34.618c4.279.739,7.131,2.426,8.476,5.014l.006.011a5.761,5.761,0,0,0,1.547,2.026c.055.039.11.074.167.11l.07.044a3.118,3.118,0,0,1,.454.332,3.335,3.335,0,0,1,.494.568l.1.134A4.939,4.939,0,0,0,71.793,10.1c.049.028.095.051.144.076l.074.038.009,0a3.329,3.329,0,0,1,.97.651,1.726,1.726,0,0,1,.484,1.321l.524.8a.572.572,0,0,1,.016.605,53.806,53.806,0,0,1-4.981,7.554,54.055,54.055,0,0,1-9.335,8.24l-4.741,3.568a27.189,27.189,0,0,0-3.742,3.206.571.571,0,0,1-.422.187.586.586,0,0,1-.3-.087.576.576,0,0,1-.232-.7,4.435,4.435,0,0,0,.216-1.018l0-.013a2.671,2.671,0,0,1,1.88-2.673l.011,0a2.367,2.367,0,0,0,1.511-1.572l.008-.016a7.816,7.816,0,0,1,.532-.932,6.556,6.556,0,0,1,1.51-1.477c-2.009.7-4.1,1.588-6.128,2.448l-.023.01A69.987,69.987,0,0,1,41.624,33.4c-1.082.3-2.206.548-3.2.767l-8.338,1.848c-2.451.546-5.229,1.165-7.952,1.5-.735.091-1.466.161-2.085.219-1.109.107-2.367.229-3.574.439l-.014,0A.738.738,0,0,1,16.378,38.175ZM32.641,24l-.069.189a20.871,20.871,0,0,0-.676,2.434l-.007.029a12.52,12.52,0,0,1-1.242,3.632,10.963,10.963,0,0,1-4.8,3.817,37.486,37.486,0,0,1-9.531,3.135.374.374,0,0,0,.067.741.559.559,0,0,0,.063,0h0c1.213-.211,2.474-.333,3.587-.44.618-.057,1.347-.128,2.079-.218,2.713-.329,5.486-.947,7.933-1.492l8.338-1.848c.989-.218,2.11-.465,3.188-.764A69.846,69.846,0,0,0,49.7,30.133l.023-.01c2.25-.954,4.577-1.94,6.788-2.673l.089.177-.138.1c-.071.049-.145.1-.215.151a6.908,6.908,0,0,0-1.663,1.577,7.65,7.65,0,0,0-.518.909l-.009.017a2.551,2.551,0,0,1-1.609,1.664l-.011,0a3.117,3.117,0,0,0-1.06.642,3.157,3.157,0,0,0-.7,1.875l0,.012a4.582,4.582,0,0,1-.227,1.064.375.375,0,0,0,.15.455.387.387,0,0,0,.2.058.376.376,0,0,0,.274-.122A27.343,27.343,0,0,1,54.836,32.8l.042-.031,4.7-3.535a53.922,53.922,0,0,0,9.305-8.211,53.654,53.654,0,0,0,4.961-7.527.373.373,0,0,0-.01-.395l-.566-.862.006-.038a1.523,1.523,0,0,0-.426-1.19,3.171,3.171,0,0,0-.915-.61l-.01-.005-.073-.037c-.049-.025-.1-.05-.149-.079a5.137,5.137,0,0,1-1.65-1.4l-.1-.136a3.136,3.136,0,0,0-.467-.539,2.966,2.966,0,0,0-.429-.312l-.069-.044c-.06-.038-.117-.074-.175-.116A5.906,5.906,0,0,1,67.2,5.639l-.007-.013c-1.316-2.532-4.12-4.183-8.334-4.911A42.85,42.85,0,0,0,51.548.1a53.1,53.1,0,0,0-12.56,1.588A85.14,85.14,0,0,0,20.42,8.9c-2.115,1.076-4.232,2.224-6.279,3.334l-.269.146L.294,19.747a.381.381,0,0,0-.149.51.38.38,0,0,0,.332.194.374.374,0,0,0,.178-.045L14.114,13.1l.012,0a.2.2,0,0,0,.028-.008,38.331,38.331,0,0,1,8.581-2.051,15.956,15.956,0,0,1,1.831-.128,6.805,6.805,0,0,1,1.779.21A3.65,3.65,0,0,1,28.9,13.2c.06.163.108.327.142.452l.011.035a3.451,3.451,0,0,0,.4.958,2.166,2.166,0,0,0,1.079.832l-.027.193c-.263.024-.544.037-.835.037a23.173,23.173,0,0,1-3.448-.357l-.019,0a20.455,20.455,0,0,0-3.059-.287,6.962,6.962,0,0,0-3.858.978,1.576,1.576,0,0,0-.543.522,1.875,1.875,0,0,0,.005,1.48,17.76,17.76,0,0,1,.513,3.354V21.4c.069.774.141,1.574.284,2.368.253,1.43,1.007,3.98,3.215,5a1.7,1.7,0,0,0,.692.177h.067a1.856,1.856,0,0,0,1.1-.589,22.813,22.813,0,0,1,4.526-2.839,19.7,19.7,0,0,1,3.308-1.463ZM22.619,36.491l-.048-.193a37.638,37.638,0,0,0,3.6-1.524,11.6,11.6,0,0,0,5.122-4.109,13.244,13.244,0,0,0,1.325-3.837l0-.008a16.059,16.059,0,0,1,.9-2.971l.022-.049.054-.008a6.084,6.084,0,0,1,.919-.073,5.051,5.051,0,0,1,1.141.128.372.372,0,0,0,.449-.282.369.369,0,0,0-.046-.282.374.374,0,0,0-.234-.168,5.8,5.8,0,0,0-1.306-.147,6.969,6.969,0,0,0-1.17.1l-.012,0h-.012a.4.4,0,0,0-.191.034l-.019.006a17.158,17.158,0,0,0-4.318,1.744A23.244,23.244,0,0,0,24.1,27.813a1.25,1.25,0,0,1-.63.385h-.022a.951.951,0,0,1-.377-.111c-1.9-.876-2.565-3.164-2.793-4.449-.129-.732-.2-1.493-.266-2.229l-.008-.085a18.805,18.805,0,0,0-.546-3.517c-.091-.31-.194-.661-.069-.873a.861.861,0,0,1,.3-.265,6.246,6.246,0,0,1,3.459-.859,19.514,19.514,0,0,1,2.947.279l.018,0a23.44,23.44,0,0,0,3.546.362,7.237,7.237,0,0,0,3.365-.715.368.368,0,0,0,.2-.416.376.376,0,0,0-.358-.293h-.072c-1.04-.023-2.219-.048-2.717-.8a2.777,2.777,0,0,1-.3-.772l-.005-.018-.036-.119c-.038-.126-.077-.257-.126-.386A4.394,4.394,0,0,0,26.541,10.4a7.482,7.482,0,0,0-1.969-.237,16.506,16.506,0,0,0-1.924.136,38.962,38.962,0,0,0-4.343.77l-.07-.186c.894-.476,1.72-.906,2.527-1.317a84.324,84.324,0,0,1,18.4-7.15c1.331-.326,2.677-.605,4-.83A50.055,50.055,0,0,1,51.557.849a42.1,42.1,0,0,1,7.17.6A15.006,15.006,0,0,1,63.655,3.1a7.172,7.172,0,0,1,2.874,2.879A6.54,6.54,0,0,0,68.377,8.35c.083.057.155.1.229.148l.033.021a2.621,2.621,0,0,1,.34.244,2.483,2.483,0,0,1,.329.383l.146.195a5.906,5.906,0,0,0,1.894,1.6l.237.123a2.472,2.472,0,0,1,.719.463.816.816,0,0,1,.23.532l0,.021-.01.019a.384.384,0,0,0,.012.394l.543.823-.031.054a52.62,52.62,0,0,1-4.74,7.174,53.471,53.471,0,0,1-9.174,8.081l-.01.007-4.693,3.535c-.88.663-1.877,1.414-2.8,2.25l-.211.192.046-.282a1.951,1.951,0,0,1,.445-1.114,2.521,2.521,0,0,1,.826-.48,4.293,4.293,0,0,0,.8-.423,4.1,4.1,0,0,0,1.186-1.6l0-.009a7.375,7.375,0,0,1,.465-.827,6.365,6.365,0,0,1,1.492-1.4,30.461,30.461,0,0,1,4.927-2.946.375.375,0,0,0-.16-.714.371.371,0,0,0-.162.037c-.593.282-1.233.619-1.956,1.028l-.013.008-.015,0A58.371,58.371,0,0,0,49.46,29.42l-.112.048a67.739,67.739,0,0,1-7.977,3.018c-1,.278-2.02.506-3.151.754l-8.338,1.851C27.516,35.615,25.069,36.158,22.619,36.491Zm11.058-12.51a16.214,16.214,0,0,0-.864,2.884l0,.008a13.4,13.4,0,0,1-1.348,3.894,11.775,11.775,0,0,1-5.206,4.187c-.9.437-1.82.841-2.752,1.206,2.137-.333,4.267-.805,6.335-1.264l8.338-1.851c1.128-.248,2.142-.475,3.14-.752a67.605,67.605,0,0,0,7.952-3.009l.112-.048A58.624,58.624,0,0,1,59.25,25.7c.722-.409,1.361-.745,1.955-1.027a.573.573,0,0,1,.766.273.575.575,0,0,1-.272.765,30.262,30.262,0,0,0-4.9,2.927,6.193,6.193,0,0,0-1.445,1.35,7.224,7.224,0,0,0-.452.8l0,.009a4.257,4.257,0,0,1-1.248,1.669,4.452,4.452,0,0,1-.841.444,2.389,2.389,0,0,0-.762.437,1.424,1.424,0,0,0-.337.72c.866-.764,1.78-1.452,2.594-2.066l4.7-3.542a53.322,53.322,0,0,0,9.141-8.049,52.1,52.1,0,0,0,4.69-7.093l-.475-.72a.584.584,0,0,1-.032-.577.68.68,0,0,0-.175-.362,2.335,2.335,0,0,0-.665-.423l-.239-.124a6.11,6.11,0,0,1-1.96-1.654l-.147-.2a2.346,2.346,0,0,0-.3-.354,2.485,2.485,0,0,0-.316-.225l-.03-.019c-.075-.045-.149-.094-.236-.153a6.7,6.7,0,0,1-1.911-2.442,6.978,6.978,0,0,0-2.8-2.8,14.81,14.81,0,0,0-4.862-1.624,41.9,41.9,0,0,0-7.136-.6,49.856,49.856,0,0,0-8.357.732c-1.318.224-2.659.5-3.986.828a84.131,84.131,0,0,0-18.36,7.134c-.6.307-1.215.625-1.86.964,1.206-.261,2.424-.465,3.631-.608a16.692,16.692,0,0,1,1.947-.137,7.677,7.677,0,0,1,2.021.244,4.593,4.593,0,0,1,3.2,2.659c.052.135.092.27.131.4l.036.119.006.02a2.642,2.642,0,0,0,.279.717c.441.663,1.564.687,2.555.708h.07a.576.576,0,0,1,.252,1.088,7.431,7.431,0,0,1-3.456.737,23.59,23.59,0,0,1-3.576-.364l-.018,0a19.335,19.335,0,0,0-2.917-.276,6.056,6.056,0,0,0-3.352.828.692.692,0,0,0-.236.2c-.081.137.021.486.088.716a18.958,18.958,0,0,1,.553,3.555l.008.085c.067.732.136,1.489.264,2.212.221,1.247.864,3.464,2.681,4.3a.788.788,0,0,0,.3.092c.139-.008.344-.19.509-.336A23.4,23.4,0,0,1,28.7,24.678a17.357,17.357,0,0,1,4.362-1.761.608.608,0,0,1,.261-.046,7.163,7.163,0,0,1,1.192-.1,6,6,0,0,1,1.351.152.576.576,0,1,1-.261,1.122,4.85,4.85,0,0,0-1.1-.123A5.846,5.846,0,0,0,33.677,23.981Z" transform="translate(0 0)" fill="#13b4f0"/><path d="M211.926,35.249a2.121,2.121,0,0,0,.94.218,2.143,2.143,0,0,0,1.228-.383.475.475,0,0,0-.544-.778,1.212,1.212,0,0,1-1.2.092.475.475,0,1,0-.421.851" transform="translate(-144.686 -22.555)" fill="#14b4f0"/><path d="M212.866,35.568a2.231,2.231,0,0,1-.984-.229.575.575,0,1,1,.509-1.03,1.07,1.07,0,0,0,.473.108,1.105,1.105,0,0,0,.628-.192.576.576,0,0,1,.895.574.564.564,0,0,1-.237.369A2.254,2.254,0,0,1,212.866,35.568Zm-.73-1.119a.375.375,0,0,0-.166.711,2.03,2.03,0,0,0,.9.208,2.053,2.053,0,0,0,1.17-.365.366.366,0,0,0,.154-.24.376.376,0,0,0-.584-.375,1.307,1.307,0,0,1-.742.228,1.271,1.271,0,0,1-.562-.128A.374.374,0,0,0,212.136,34.449Z" transform="translate(-144.686 -22.555)" fill="#13b4f0"/><path d="M214.335,30.486a.8.8,0,0,0,.329.073.771.771,0,0,0,.415-.12.839.839,0,0,0,.253-1.123.954.954,0,0,0-.918-.44.523.523,0,0,0-.44.377,1.713,1.713,0,0,0-.044.706.687.687,0,0,0,.405.528m.1-.816a1.029,1.029,0,0,0,.006.171.174.174,0,0,1-.006-.171" transform="translate(-146.224 -19.459)" fill="#14b4f0"/><path d="M214.664,30.659a.9.9,0,0,1-.37-.082.787.787,0,0,1-.463-.606,1.814,1.814,0,0,1,.047-.746.62.62,0,0,1,.524-.449,1.057,1.057,0,0,1,1.016.488.938.938,0,0,1-.285,1.259A.866.866,0,0,1,214.664,30.659Zm-.144-1.689a.852.852,0,0,0-.095.005.42.42,0,0,0-.355.3,1.614,1.614,0,0,0-.042.664.589.589,0,0,0,.348.452.69.69,0,0,0,.648-.041.737.737,0,0,0,.221-.989A.852.852,0,0,0,214.52,28.969Z" transform="translate(-146.224 -19.459)" fill="#13b4f0"/><path d="M173.3,36.43a20.97,20.97,0,0,1,1.164,4.243l.009.051a3.546,3.546,0,0,0,1.019,2.342,2.356,2.356,0,0,0,1.516.481,4,4,0,0,0,.88-.1c.256-.054.506-.127.747-.2a5.89,5.89,0,0,1,1.215-.259.474.474,0,1,0-.057-.946,6.432,6.432,0,0,0-1.421.294c-.237.066-.459.133-.687.18a2,2,0,0,1-1.6-.193,2.8,2.8,0,0,1-.674-1.753l-.009-.054a22.043,22.043,0,0,0-1.215-4.436l-.054-.136a3.734,3.734,0,0,1-.415-2.459.627.627,0,0,1,.057-.13c.016,0,.1-.009.361.12a40.2,40.2,0,0,1,7.344,5.25.563.563,0,0,0,.07.051.475.475,0,0,0,.538-.778,40.908,40.908,0,0,0-7.521-5.37,1.792,1.792,0,0,0-.782-.222.938.938,0,0,0-.782.4,1.478,1.478,0,0,0-.18.361,4.462,4.462,0,0,0,.424,3.12Z" transform="translate(-118.033 -22.153)" fill="#14b4f0"/><path d="M173.781,32.308a1.885,1.885,0,0,1,.823.23,40.925,40.925,0,0,1,7.544,5.384.574.574,0,0,1,.2.39.566.566,0,0,1-.131.419.574.574,0,0,1-.724.133.672.672,0,0,1-.085-.061l-.023-.019a39.987,39.987,0,0,0-7.3-5.217,1.281,1.281,0,0,0-.257-.1c-.006.015-.013.033-.021.056a3.659,3.659,0,0,0,.41,2.384l.056.143A22.134,22.134,0,0,1,175.5,40.5l.009.053a2.735,2.735,0,0,0,.638,1.692,1.352,1.352,0,0,0,.865.25,3.1,3.1,0,0,0,.652-.077c.185-.039.365-.09.556-.144l.155-.044a6.377,6.377,0,0,1,1.413-.289h.035a.574.574,0,0,1,.033,1.147,5.815,5.815,0,0,0-1.193.256l-.015,0c-.238.069-.484.14-.739.194a4.083,4.083,0,0,1-.9.1,2.442,2.442,0,0,1-1.579-.5,3.621,3.621,0,0,1-1.055-2.4l-.009-.048a20.879,20.879,0,0,0-1.159-4.225l-.054-.14a4.538,4.538,0,0,1-.425-3.189,1.561,1.561,0,0,1,.193-.386,1.038,1.038,0,0,1,.863-.444Zm8,6.431a.376.376,0,0,0,.242-.663,40.773,40.773,0,0,0-7.5-5.357,1.708,1.708,0,0,0-.736-.211.838.838,0,0,0-.7.36,1.368,1.368,0,0,0-.168.337,4.384,4.384,0,0,0,.422,3.046l.055.143a21.072,21.072,0,0,1,1.17,4.263l.009.048a3.471,3.471,0,0,0,.983,2.282,2.248,2.248,0,0,0,1.453.459,3.887,3.887,0,0,0,.858-.1c.249-.052.492-.122.726-.19l.015,0a5.961,5.961,0,0,1,1.236-.263.374.374,0,1,0-.045-.746,6.223,6.223,0,0,0-1.369.282l-.155.044c-.194.055-.378.107-.569.147a3.3,3.3,0,0,1-.694.081,1.544,1.544,0,0,1-.99-.294,2.852,2.852,0,0,1-.71-1.815l-.009-.052a21.937,21.937,0,0,0-1.21-4.417l-.056-.142a3.787,3.787,0,0,1-.413-2.522.762.762,0,0,1,.051-.122v-.056l.08-.016a.823.823,0,0,1,.425.129,40.136,40.136,0,0,1,7.34,5.242l.024.02a.467.467,0,0,0,.059.043A.364.364,0,0,0,181.778,38.739Z" transform="translate(-118.033 -22.153)" fill="#13b4f0"/><path d="M197.715,16.132a.631.631,0,0,0,.032.066.47.47,0,0,0,.411.237.45.45,0,0,0,.168-.032.473.473,0,0,0,.272-.614,5,5,0,0,0-.554-1.054.47.47,0,0,0-.661-.123.477.477,0,0,0-.123.661,3.979,3.979,0,0,1,.456.858" transform="translate(-134.785 -9.931)" fill="#14b4f0"/><path d="M198.158,16.536a.568.568,0,0,1-.5-.289.715.715,0,0,1-.036-.075,3.9,3.9,0,0,0-.446-.839.579.579,0,0,1,.474-.9.573.573,0,0,1,.475.253,5.093,5.093,0,0,1,.564,1.074.573.573,0,0,1-.33.743A.545.545,0,0,1,198.158,16.536Zm-.506-1.908a.379.379,0,0,0-.31.59,4.083,4.083,0,0,1,.466.878.533.533,0,0,0,.025.053.373.373,0,0,0,.325.187.349.349,0,0,0,.13-.024.373.373,0,0,0,.217-.485,4.9,4.9,0,0,0-.543-1.033A.373.373,0,0,0,197.652,14.628Z" transform="translate(-134.785 -9.931)" fill="#13b4f0"/><path d="M192.092,24.579a.473.473,0,0,0,.459.361.466.466,0,0,0,.114-.013.477.477,0,0,0,.348-.576,4.873,4.873,0,0,0-.541-1.323.476.476,0,0,0-.411-.231.446.446,0,0,0-.24.066.474.474,0,0,0-.165.649,3.924,3.924,0,0,1,.437,1.066" transform="translate(-130.965 -15.584)" fill="#14b4f0"/><path d="M192.551,25.04a.575.575,0,0,1-.556-.438,3.826,3.826,0,0,0-.425-1.038.574.574,0,0,1,.2-.785.543.543,0,0,1,.292-.081.573.573,0,0,1,.5.28,4.965,4.965,0,0,1,.552,1.35.577.577,0,0,1-.421.7A.564.564,0,0,1,192.551,25.04Zm-.49-2.142a.348.348,0,0,0-.187.051.377.377,0,0,0-.184.323.373.373,0,0,0,.053.19,4.026,4.026,0,0,1,.447,1.093.373.373,0,0,0,.362.284.363.363,0,0,0,.09-.01.377.377,0,0,0,.275-.455,4.766,4.766,0,0,0-.53-1.3A.374.374,0,0,0,192.06,22.9Z" transform="translate(-130.965 -15.584)" fill="#13b4f0"/><path d="M180.347,22.568a.468.468,0,0,0,.377.313.52.52,0,0,0,.073.006.425.425,0,0,0,.152-.025.473.473,0,0,0,.3-.6c-.041-.12-.085-.237-.133-.354a8.106,8.106,0,0,0-.49-1.016.474.474,0,1,0-.823.471,7.011,7.011,0,0,1,.547,1.206" transform="translate(-122.862 -14.116)" fill="#14b4f0"/><path d="M180.8,22.987a.617.617,0,0,1-.087-.007.565.565,0,0,1-.457-.381,6.909,6.909,0,0,0-.539-1.188.566.566,0,0,1-.058-.436.575.575,0,0,1,1.054-.135,8.209,8.209,0,0,1,.5,1.028c.051.125.095.243.135.359a.565.565,0,0,1-.027.435.574.574,0,0,1-.333.293A.52.52,0,0,1,180.8,22.987Zm-.588-2.236a.373.373,0,0,0-.361.277.368.368,0,0,0,.038.283,7.114,7.114,0,0,1,.556,1.224.366.366,0,0,0,.3.247.427.427,0,0,0,.058.005.324.324,0,0,0,.117-.019.378.378,0,0,0,.221-.193.366.366,0,0,0,.017-.282c-.039-.113-.081-.227-.131-.35a8.01,8.01,0,0,0-.485-1A.376.376,0,0,0,180.209,20.751Z" transform="translate(-122.862 -14.116)" fill="#13b4f0"/><path d="M166.994,26.593a.476.476,0,0,0,.44.294.447.447,0,0,0,.177-.038.47.47,0,0,0,.259-.617l-.348-.851a.475.475,0,0,0-.88.361Z" transform="translate(-113.889 -17.149)" fill="#14b4f0"/><path d="M167.434,26.988a.574.574,0,0,1-.532-.356l-.351-.851a.573.573,0,0,1,.314-.751.577.577,0,0,1,.751.313l.348.852a.562.562,0,0,1,0,.437.568.568,0,0,1-.315.311A.543.543,0,0,1,167.434,26.988Zm-.351-1.8a.381.381,0,0,0-.143.028.375.375,0,0,0-.2.49l.351.85a.375.375,0,0,0,.347.232.349.349,0,0,0,.137-.029.372.372,0,0,0,.208-.2.364.364,0,0,0,0-.283l-.348-.852A.376.376,0,0,0,167.083,25.187Z" transform="translate(-113.889 -17.149)" fill="#13b4f0"/><path d="M136.885,13.9a8.136,8.136,0,0,1,2.816.861A8.4,8.4,0,0,1,141.15,16a2.683,2.683,0,0,1,.611.782,1.909,1.909,0,0,1,.089.269,2.9,2.9,0,0,0,.171.475,2.738,2.738,0,0,0,.513.677c.073.079.146.155.212.237a3.7,3.7,0,0,1,.6,1.285,21.367,21.367,0,0,1,.43,6.87,3.911,3.911,0,0,1-.639,2.43,3.816,3.816,0,0,1-.541.468,3.807,3.807,0,0,0-.8.74,4.248,4.248,0,0,0-.614,1.433c-.165.582-.31,1.082-.7,1.291a2.361,2.361,0,0,1-.316.123,1.6,1.6,0,0,0-1.095.839l-.051.085a2.846,2.846,0,0,1-1.013.956.475.475,0,0,0,.231.889.466.466,0,0,0,.231-.06,3.791,3.791,0,0,0,1.351-1.278l.06-.095a1.317,1.317,0,0,1,.18-.256,1.229,1.229,0,0,1,.4-.18,3.136,3.136,0,0,0,.465-.184,2.746,2.746,0,0,0,1.168-1.867,3.557,3.557,0,0,1,.459-1.126,3.016,3.016,0,0,1,.614-.557,4.629,4.629,0,0,0,.674-.589,4.642,4.642,0,0,0,.88-3.022,22.051,22.051,0,0,0-.468-7.173,5.3,5.3,0,0,0-.5-1.221,3.139,3.139,0,0,0-.278-.4c-.079-.1-.168-.193-.253-.285a2.062,2.062,0,0,1-.354-.446,2.208,2.208,0,0,1-.111-.32,2.985,2.985,0,0,0-.123-.37,3.39,3.39,0,0,0-.816-1.085A8.954,8.954,0,0,0,140.2,13.95a9.038,9.038,0,0,0-3.145-.987.475.475,0,0,0-.551.386.473.473,0,0,0,.383.551" transform="translate(-93.304 -8.856)" fill="#14b4f0"/><path d="M138.242,35.953a.574.574,0,0,1-.28-1.077,2.747,2.747,0,0,0,.977-.922l.049-.083a1.693,1.693,0,0,1,1.15-.883l.057-.02a1.758,1.758,0,0,0,.243-.1c.357-.191.493-.673.65-1.23a4.332,4.332,0,0,1,.63-1.466,3.863,3.863,0,0,1,.811-.756l.005,0a3.744,3.744,0,0,0,.527-.455,3.849,3.849,0,0,0,.614-2.368v-.027a21.211,21.211,0,0,0-.428-6.81,3.607,3.607,0,0,0-.583-1.249c-.052-.064-.107-.124-.166-.187l-.043-.046a2.835,2.835,0,0,1-.529-.7,2.975,2.975,0,0,1-.177-.491,1.824,1.824,0,0,0-.084-.256,2.564,2.564,0,0,0-.577-.738l-.054-.054a8.066,8.066,0,0,0-1.391-1.189A8.02,8.02,0,0,0,136.867,14a.574.574,0,0,1-.372-.24.566.566,0,0,1-.091-.427.575.575,0,0,1,.665-.466l.019,0a9.068,9.068,0,0,1,3.161,1,9.113,9.113,0,0,1,1.642,1.4,3.465,3.465,0,0,1,.838,1.118,3.079,3.079,0,0,1,.127.381l.006.022a1.958,1.958,0,0,0,.1.281,1.99,1.99,0,0,0,.337.42l.006.006c.085.092.173.186.253.285a3.208,3.208,0,0,1,.287.414,5.391,5.391,0,0,1,.51,1.244,22.05,22.05,0,0,1,.473,7.183v.023a4.717,4.717,0,0,1-.9,3.084,4.654,4.654,0,0,1-.68.6l-.008.006a2.947,2.947,0,0,0-.594.537,3.53,3.53,0,0,0-.443,1.095l0,.008a2.814,2.814,0,0,1-1.214,1.92,3.123,3.123,0,0,1-.467.186l-.025.008a1.154,1.154,0,0,0-.356.157,1.261,1.261,0,0,0-.157.227l-.065.1a3.894,3.894,0,0,1-1.387,1.312A.562.562,0,0,1,138.242,35.953Zm-1.274-22.9a.335.335,0,0,0-.061.005.372.372,0,0,0-.306.3.368.368,0,0,0,.059.279.375.375,0,0,0,.243.157,8.291,8.291,0,0,1,2.85.874,8.212,8.212,0,0,1,1.427,1.218l.055.055a2.7,2.7,0,0,1,.618.8,1.989,1.989,0,0,1,.092.28,2.79,2.79,0,0,0,.165.458,2.638,2.638,0,0,0,.5.652l.043.047c.058.063.118.128.174.2a3.788,3.788,0,0,1,.619,1.319,21.359,21.359,0,0,1,.436,6.875V26.6a3.993,3.993,0,0,1-.664,2.492,3.885,3.885,0,0,1-.555.481l-.006,0a3.707,3.707,0,0,0-.772.717,4.169,4.169,0,0,0-.6,1.4c-.164.579-.317,1.123-.749,1.355a1.89,1.89,0,0,1-.272.109l-.058.02a1.825,1.825,0,0,0-.7.353,1.8,1.8,0,0,0-.339.442l-.051.085a2.95,2.95,0,0,1-1.05.992.375.375,0,0,0,.183.7.365.365,0,0,0,.182-.047,3.694,3.694,0,0,0,1.316-1.245l.063-.1a1.344,1.344,0,0,1,.193-.27,1.242,1.242,0,0,1,.428-.2l.025-.008a2.965,2.965,0,0,0,.437-.173,2.66,2.66,0,0,0,1.116-1.8l0-.007a3.663,3.663,0,0,1,.475-1.158,3.082,3.082,0,0,1,.634-.577l.008-.006a4.5,4.5,0,0,0,.652-.57,4.557,4.557,0,0,0,.854-2.96v-.023a21.9,21.9,0,0,0-.465-7.118,5.207,5.207,0,0,0-.49-1.2,3.018,3.018,0,0,0-.27-.389c-.076-.094-.162-.186-.245-.275l0,0a2.131,2.131,0,0,1-.37-.469,2.089,2.089,0,0,1-.111-.313l-.007-.023a2.9,2.9,0,0,0-.12-.36,3.309,3.309,0,0,0-.8-1.054,8.958,8.958,0,0,0-1.605-1.372,8.914,8.914,0,0,0-3.093-.971l-.018,0A.413.413,0,0,0,136.968,13.055Z" transform="translate(-93.304 -8.856)" fill="#13b4f0"/><path d="M139.807,55.1a.477.477,0,0,0,.263-.62,1.792,1.792,0,0,1,.18-1.18,2.8,2.8,0,0,0,.234-1.721,3.411,3.411,0,0,0-.152-.411.957.957,0,0,1-.12-.386,1.033,1.033,0,0,1,.079-.228,1.972,1.972,0,0,0,.146-.449,1.791,1.791,0,0,0-.044-.655l-.345-1.728a.474.474,0,0,0-.93.184l.345,1.728a.632.632,0,0,1-.044.547,1.8,1.8,0,0,0-.152.509,1.706,1.706,0,0,0,.2.861,1.955,1.955,0,0,1,.108.275,2.082,2.082,0,0,1-.212,1.152,2.538,2.538,0,0,0-.168,1.861.473.473,0,0,0,.44.3.518.518,0,0,0,.177-.035" transform="translate(-95.065 -32.36)" fill="#14b4f0"/><path d="M139.63,55.236a.57.57,0,0,1-.533-.361,2.609,2.609,0,0,1,.165-1.927,2.037,2.037,0,0,0,.211-1.1,1.888,1.888,0,0,0-.1-.26,1.79,1.79,0,0,1-.2-.911,1.857,1.857,0,0,1,.156-.531l0-.008a1.057,1.057,0,0,0,.073-.2,1.076,1.076,0,0,0-.034-.289l-.345-1.729a.574.574,0,1,1,1.126-.222l.345,1.728a1.894,1.894,0,0,1,.045.69,1.959,1.959,0,0,1-.143.45l-.01.023a1.116,1.116,0,0,0-.072.2.991.991,0,0,0,.112.334l.023.056a3,3,0,0,1,.134.37,2.877,2.877,0,0,1-.237,1.782l-.007.019a1.7,1.7,0,0,0-.175,1.089.577.577,0,0,1-.318.751A.619.619,0,0,1,139.63,55.236Zm-.047-7.8a.375.375,0,0,0-.072.007.373.373,0,0,0-.295.439l.345,1.728a.723.723,0,0,1-.051.608l0,.006a1.691,1.691,0,0,0-.141.474,1.622,1.622,0,0,0,.188.808,2.044,2.044,0,0,1,.113.291,2.142,2.142,0,0,1-.215,1.212,2.46,2.46,0,0,0-.169,1.789.371.371,0,0,0,.347.235.417.417,0,0,0,.143-.029.37.37,0,0,0,.2-.2.376.376,0,0,0,0-.288,1.811,1.811,0,0,1,.172-1.232l.007-.02a2.724,2.724,0,0,0,.232-1.662,2.8,2.8,0,0,0-.126-.346l-.022-.054a.984.984,0,0,1-.127-.434,1.03,1.03,0,0,1,.087-.257l.009-.022a1.769,1.769,0,0,0,.13-.4,1.7,1.7,0,0,0-.043-.618l-.345-1.729A.375.375,0,0,0,139.583,47.439Z" transform="translate(-95.065 -32.36)" fill="#13b4f0"/><path d="M87.625,56.275l-.756.123a.475.475,0,0,0,.076.943.308.308,0,0,0,.076-.006l.759-.123a.475.475,0,1,0-.155-.937" transform="translate(-59.109 -38.464)" fill="#14b4f0"/><path d="M86.944,57.441a.575.575,0,0,1-.092-1.142l.756-.123a.588.588,0,0,1,.092-.007A.574.574,0,0,1,87.8,57.31l-.756.123A.412.412,0,0,1,86.944,57.441Zm.756-1.072a.386.386,0,0,0-.06,0l-.756.123a.369.369,0,0,0-.242.149.374.374,0,0,0,.3.6.234.234,0,0,0,.052,0l.008,0,.759-.123a.374.374,0,0,0-.063-.744Z" transform="translate(-59.109 -38.464)" fill="#13b4f0"/><path d="M79.107,64.109a1.6,1.6,0,0,0-.636.316,1.262,1.262,0,0,1-.218.142,1.4,1.4,0,0,1-.715,0l-.127-.019a6.418,6.418,0,0,0-3.044.3.476.476,0,0,0,.158.924.482.482,0,0,0,.161-.028,5.409,5.409,0,0,1,2.588-.256l.117.019a2.182,2.182,0,0,0,1.247-.07,2.259,2.259,0,0,0,.392-.24.881.881,0,0,1,.256-.155.474.474,0,1,0-.18-.93" transform="translate(-50.619 -43.817)" fill="#14b4f0"/><path d="M74.525,65.87a.576.576,0,0,1-.192-1.118,6.529,6.529,0,0,1,2.172-.372,6.412,6.412,0,0,1,.92.066l.127.019a2.88,2.88,0,0,0,.436.048.552.552,0,0,0,.224-.037,1.228,1.228,0,0,0,.2-.131,1.7,1.7,0,0,1,.677-.335.575.575,0,0,1,.586.888.565.565,0,0,1-.368.239,1,1,0,0,0-.215.137l-.012.008a2.28,2.28,0,0,1-.4.243,1.652,1.652,0,0,1-.689.136,4.072,4.072,0,0,1-.6-.057l-.13-.021a5.309,5.309,0,0,0-2.539.252A.585.585,0,0,1,74.525,65.87Zm1.98-1.29a6.328,6.328,0,0,0-2.105.36.375.375,0,0,0,.253.707,5.509,5.509,0,0,1,2.636-.261l.129.021a3.914,3.914,0,0,0,.573.055,1.457,1.457,0,0,0,.607-.119,2.119,2.119,0,0,0,.365-.223l.01-.007a.867.867,0,0,1,.295-.172.367.367,0,0,0,.24-.155.374.374,0,0,0-.382-.579,1.506,1.506,0,0,0-.6.3,1.35,1.35,0,0,1-.236.153.743.743,0,0,1-.306.055,3.022,3.022,0,0,1-.466-.05l-.126-.019A6.21,6.21,0,0,0,76.505,64.58Z" transform="translate(-50.619 -43.817)" fill="#13b4f0"/><path d="M69.337,55.245l1.655,0a.475.475,0,0,0,0-.949l-1.655,0a2.306,2.306,0,0,1-.547-.041,2,2,0,0,1-.275-.092,3.005,3.005,0,0,0-.449-.142,2.964,2.964,0,0,0-2.164.68.475.475,0,0,0,.525.791,2.158,2.158,0,0,1,1.446-.541,2.254,2.254,0,0,1,.307.1,3.058,3.058,0,0,0,.386.13,3.186,3.186,0,0,0,.772.066" transform="translate(-44.902 -36.902)" fill="#14b4f0"/><path d="M66.163,55.671a.577.577,0,0,1-.478-.256.575.575,0,0,1,.16-.8,3.494,3.494,0,0,1,1.862-.733,1.881,1.881,0,0,1,.378.038,3.126,3.126,0,0,1,.465.147,1.91,1.91,0,0,0,.261.088,2.23,2.23,0,0,0,.526.039l1.655,0a.575.575,0,0,1,0,1.149l-1.655,0a3.265,3.265,0,0,1-.8-.069,3.115,3.115,0,0,1-.4-.133,2.159,2.159,0,0,0-.294-.094.737.737,0,0,0-.147-.014,2.52,2.52,0,0,0-1.223.541A.572.572,0,0,1,66.163,55.671Zm1.544-1.587a3.329,3.329,0,0,0-1.751.7.374.374,0,0,0-.161.239.371.371,0,0,0,.055.281.375.375,0,0,0,.52.1,2.659,2.659,0,0,1,1.334-.574.938.938,0,0,1,.187.018,2.292,2.292,0,0,1,.322.1,2.99,2.99,0,0,0,.375.126,3.106,3.106,0,0,0,.748.064l1.655,0a.375.375,0,0,0,0-.749l-1.655,0a2.364,2.364,0,0,1-.572-.044,2.047,2.047,0,0,1-.287-.1,2.913,2.913,0,0,0-.434-.138A1.679,1.679,0,0,0,67.707,54.084Z" transform="translate(-44.902 -36.902)" fill="#13b4f0"/></g></g></g></svg>