<svg xmlns="http://www.w3.org/2000/svg" width="34" height="34" viewBox="0 0 34 34"><g transform="translate(-1096 -893)"><circle cx="17" cy="17" r="17" transform="translate(1096 893)" fill="#dff4fc"/><g transform="translate(242.779 -342.416)"><path d="M10.107.75H0A.75.75,0,0,1-.75,0,.75.75,0,0,1,0-.75H10.107a.75.75,0,0,1,.75.75A.75.75,0,0,1,10.107.75Z" transform="translate(865.167 1252.627)" fill="#3fbdeb"/><path d="M0,9.173a.748.748,0,0,1-.53-.22.75.75,0,0,1,0-1.061L3.151,4.211-.53.53A.75.75,0,0,1-.53-.53.75.75,0,0,1,.53-.53L4.742,3.681a.75.75,0,0,1,0,1.061L.53,8.953A.748.748,0,0,1,0,9.173Z" transform="translate(871.063 1248.416)" fill="#3fbdeb"/></g></g></svg>