<svg xmlns="http://www.w3.org/2000/svg" width="27.315" height="26" viewBox="0 0 27.315 26"><g transform="translate(0)"><path d="M12.935,26a.433.433,0,0,1-.484-.393,3.058,3.058,0,0,1,.1-.974l0-.01a6.379,6.379,0,0,0,.171-1.361c0-.417-.208-1.07-.756-1.149C5.148,21.43,0,16.7,0,11.1,0,4.98,6.126,0,13.656,0S27.315,4.98,27.315,11.1a10,10,0,0,1-3.464,7.38l-.05.048a49.353,49.353,0,0,1-10.014,7.22A2.05,2.05,0,0,1,12.935,26ZM12.441,8.237a.154.154,0,0,0-.155.154v5.417a.153.153,0,0,0,.155.153h.917a.153.153,0,0,0,.155-.153V10.436l2.4,3.46a.166.166,0,0,0,.128.061h1a.15.15,0,0,0,.108-.043.173.173,0,0,0,.046-.107l0-5.417a.152.152,0,0,0-.15-.154h-.922a.154.154,0,0,0-.155.154v3.372L13.559,8.3a.164.164,0,0,0-.128-.064Zm5.851,0a.153.153,0,0,0-.154.154v5.417a.151.151,0,0,0,.154.15h3.426a.149.149,0,0,0,.151-.15v-.922a.156.156,0,0,0-.151-.155H19.365V11.712h2.353a.154.154,0,0,0,.151-.154v-.918a.153.153,0,0,0-.151-.156H19.365V9.463h2.353a.154.154,0,0,0,.151-.154V8.391a.153.153,0,0,0-.151-.154Zm-8.027,0a.153.153,0,0,0-.154.154v5.417a.151.151,0,0,0,.154.15h.919a.151.151,0,0,0,.154-.15V8.391a.153.153,0,0,0-.154-.154Zm-4.629,0a.15.15,0,0,0-.151.154v5.417a.164.164,0,0,0,.043.107.146.146,0,0,0,.108.043H9.008a.151.151,0,0,0,.154-.15v-.922a.156.156,0,0,0-.154-.155h-2.3V8.391a.153.153,0,0,0-.154-.154Z" transform="translate(0 0)" fill="#0db1ef"/></g></svg>