<svg xmlns="http://www.w3.org/2000/svg" width="22.578" height="22.577" viewBox="0 0 22.578 22.577"><path d="M21.332,0H1.245A1.245,1.245,0,0,0,0,1.245V21.329a1.246,1.246,0,0,0,1.245,1.249h9.687V15.035H7.652v-3.8h3.281v-2.8a6.565,6.565,0,0,1,.2-1.668c0-.015.009-.029.014-.044q.058-.213.13-.413c.038-.1.083-.2.127-.3.018-.042.035-.085.054-.126q.1-.2.21-.385l.01-.018a4.168,4.168,0,0,1,.549-.708l.014-.016c.089-.091.184-.176.281-.258.022-.018.042-.039.064-.057.076-.062.158-.119.24-.176.048-.034.095-.07.145-.1s.109-.063.164-.094c.085-.049.169-.1.258-.142l.048-.021a5.534,5.534,0,0,1,2.378-.493,26.785,26.785,0,0,1,2.932.152v3.4H16.739c-1.577,0-1.884.751-1.884,1.852v2.427h3.764l-.49,3.8H14.855v7.542h6.477a1.246,1.246,0,0,0,1.245-1.249V1.245A1.245,1.245,0,0,0,21.332,0Z" fill="#0db1ef"/></svg>