<svg xmlns="http://www.w3.org/2000/svg" width="23.981" height="24.389" viewBox="0 0 23.981 24.389"><path d="M21.37,0h-10.2A6.893,6.893,0,0,0,4.281,6.892V17.5a6.892,6.892,0,0,0,6.893,6.892h10.2A6.892,6.892,0,0,0,28.262,17.5V6.892A6.892,6.892,0,0,0,21.37,0ZM6.728,6.892a4.45,4.45,0,0,1,4.445-4.445h10.2a4.45,4.45,0,0,1,4.445,4.445V17.5a4.45,4.45,0,0,1-4.445,4.445h-10.2A4.45,4.45,0,0,1,6.728,17.5Z" transform="translate(-4.281 0)" fill="#0db1ef"/><path d="M130.43,136.707a6.281,6.281,0,1,0-6.281-6.281A6.288,6.288,0,0,0,130.43,136.707Zm0-10.6a4.323,4.323,0,1,1-4.323,4.323A4.328,4.328,0,0,1,130.43,126.1Z" transform="translate(-118.439 -118.232)" fill="#0db1ef"/><ellipse cx="1.407" cy="1.407" rx="1.407" ry="1.407" transform="translate(17.048 4.323)" fill="#0db1ef"/></svg>