<svg xmlns="http://www.w3.org/2000/svg" width="24" height="24" viewBox="0 0 24 24"><g transform="translate(-860 -1241)"><circle cx="12" cy="12" r="12" transform="translate(860 1241)" fill="#fff"/><g transform="translate(1.779 0.373)"><path d="M10.107.75H0A.75.75,0,0,1-.75,0,.75.75,0,0,1,0-.75H10.107a.75.75,0,0,1,.75.75A.75.75,0,0,1,10.107.75Z" transform="translate(865.167 1252.627)" fill="#195672"/><path d="M0,9.173a.748.748,0,0,1-.53-.22.75.75,0,0,1,0-1.061L3.151,4.211-.53.53A.75.75,0,0,1-.53-.53.75.75,0,0,1,.53-.53L4.742,3.681a.75.75,0,0,1,0,1.061L.53,8.953A.748.748,0,0,1,0,9.173Z" transform="translate(871.063 1248.416)" fill="#195672"/></g></g></svg>