<svg xmlns="http://www.w3.org/2000/svg" width="17" height="17" viewBox="0 0 17 17"><g transform="translate(-60 -630)"><circle cx="8.5" cy="8.5" r="8.5" transform="translate(60 630)" fill="#14b4f0"/><path d="M60.46.461c-.749.486-.9,2.005-.614,3.244a11.184,11.184,0,0,0,1.479,3.476A11.615,11.615,0,0,0,63.9,9.949c1.015.763,2.462,1.248,3.212.762a3.8,3.8,0,0,0,.968-1.038l-.4-.621L66.565,7.345c-.082-.127-.6-.011-.86.138a2.5,2.5,0,0,0-.679.738c-.242.14-.445,0-.87-.195a5.166,5.166,0,0,1-1.574-1.66,5.166,5.166,0,0,1-.874-2.115c-.005-.467-.05-.709.177-.874a2.5,2.5,0,0,0,.951-.319c.242-.179.559-.6.476-.729L62.2.622,61.8,0A3.8,3.8,0,0,0,60.46.461Z" transform="translate(4.606 633.047)" fill="#fff"/></g></svg>