<svg xmlns="http://www.w3.org/2000/svg" width="14.499" height="13.57" viewBox="0 0 14.499 13.57"><g transform="translate(17557.75 21580.25)"><path d="M2.88-.75h7.239a3.634,3.634,0,0,1,3.63,3.63V9.19a3.634,3.634,0,0,1-3.63,3.63H2.88A3.634,3.634,0,0,1-.75,9.19V2.88A3.634,3.634,0,0,1,2.88-.75Zm7.239,12.07a2.132,2.132,0,0,0,2.13-2.13V2.88A2.132,2.132,0,0,0,10.119.75H2.88A2.132,2.132,0,0,0,.75,2.88V9.19a2.132,2.132,0,0,0,2.13,2.13Z" transform="translate(-17557 -21579.5)" fill="#f0a04a"/><path d="M17.87,22.739a2.163,2.163,0,0,1-1.324-.452L13.02,19.642a.75.75,0,0,1,.9-1.2l3.531,2.649.01.008a.666.666,0,0,0,.818,0l.009-.007L21.86,18.4a.75.75,0,0,1,.9,1.2l-3.568,2.688A2.163,2.163,0,0,1,17.87,22.739Z" transform="translate(-17568.184 -21594.785)" fill="#f0a04a"/></g></svg>