<svg xmlns="http://www.w3.org/2000/svg" width="13.266" height="13.178" viewBox="0 0 13.266 13.178"><g transform="translate(17961.75 21594.75)"><path d="M17.112,21.209H6.654a1.405,1.405,0,0,1-1.4-1.4V10.654a1.405,1.405,0,0,1,1.4-1.4H9.268a.75.75,0,1,1,0,1.5H6.75v8.959H17.016V10.75h-.557a.75.75,0,0,1,0-1.5h.654a1.405,1.405,0,0,1,1.4,1.4v9.151A1.405,1.405,0,0,1,17.112,21.209Z" transform="translate(-17967 -21602.781)" fill="#fff"/><path d="M2.616.75H0A.75.75,0,0,1-.75,0,.75.75,0,0,1,0-.75H2.616a.75.75,0,0,1,.75.75A.75.75,0,0,1,2.616.75Z" transform="translate(-17955.768 -21592.691)" fill="#fff"/><path d="M0,3.184a.75.75,0,0,1-.75-.75V0A.75.75,0,0,1,0-.75.75.75,0,0,1,.75,0V2.434A.75.75,0,0,1,0,3.184Z" transform="translate(-17957.674 -21594)" fill="#fff"/><path d="M0,3.184a.75.75,0,0,1-.75-.75V0A.75.75,0,0,1,0-.75.75.75,0,0,1,.75,0V2.434A.75.75,0,0,1,0,3.184Z" transform="translate(-17952.805 -21594)" fill="#fff"/><path d="M8.721.75H0A.75.75,0,0,1-.75,0,.75.75,0,0,1,0-.75H8.721a.75.75,0,0,1,.75.75A.75.75,0,0,1,8.721.75Z" transform="translate(-17961 -21588.332)" fill="#fff"/></g></svg>