<svg xmlns="http://www.w3.org/2000/svg" width="29.861" height="20.939" viewBox="0 0 29.861 20.939"><g transform="translate(0 0)"><path d="M21.048,118.181c-3.2.018-6.393-.024-9.584-.2a7,7,0,0,1-3.017-.66,3.14,3.14,0,0,1-1.421-1.487,10.034,10.034,0,0,1-.774-3.49,59.016,59.016,0,0,1-.108-7.425,20.124,20.124,0,0,1,.408-3.928,6.778,6.778,0,0,1,.528-1.463,3.54,3.54,0,0,1,2.669-1.871,19.459,19.459,0,0,1,2.957-.228c3.353-.138,6.711-.21,10.07-.174,2.585.03,5.176.1,7.761.228a7.874,7.874,0,0,1,2.363.336A3.558,3.558,0,0,1,35.112,99.9a10.509,10.509,0,0,1,.642,3.125,59.936,59.936,0,0,1,.048,8.744,15.184,15.184,0,0,1-.39,2.933,3.951,3.951,0,0,1-4,3.227c-2.171.144-4.348.222-6.525.252C23.609,118.193,22.325,118.181,21.048,118.181ZM17.9,112.045l8.684-4.756c-2.921-1.6-5.787-3.167-8.684-4.756Z" transform="translate(-6.076 -97.247)" fill="#0db1ef"/><path d="M203.2,195.006V185.5c2.9,1.583,5.764,3.155,8.684,4.756C208.969,191.851,206.1,193.417,203.2,195.006Z" transform="translate(-191.377 -180.207)" fill="#fefdfd"/></g></svg>