<svg xmlns="http://www.w3.org/2000/svg" width="126.566" height="73.007" viewBox="0 0 126.566 73.007"><g transform="translate(0.751 0.75)"><path d="M94.269,824.878c-.194.1-.382.2-.569.308l-2.061-1.57a.467.467,0,0,0-.07-.044,2.7,2.7,0,0,1-.312-.671c1.222.242,2.44.506,3.65.807a1.293,1.293,0,0,1-.638,1.17" transform="translate(-2.05 -820.286)" fill="#fff"/><g transform="translate(1.267 1.109)"><path d="M7.28,863.554a.934.934,0,0,0,.143-.011.965.965,0,0,0,.752-.558,3.088,3.088,0,0,0,.22-1.038c.051-.785.062-1.592.037-2.4a1.292,1.292,0,0,0-.781-1.13,1.1,1.1,0,0,0-.609-.062c1.346-2.957,4.424-4.622,7.558-5.848a11.282,11.282,0,0,0,.807,2.531.552.552,0,0,0,.51.341.591.591,0,0,0,.209-.04.552.552,0,0,0,.319-.352.574.574,0,0,0-.018-.367,9.3,9.3,0,0,1-.77-2.513c.635-.231,1.262-.448,1.867-.657l.792-.279a.588.588,0,0,0,.128-.062c4.032-2.737,4.032-3.335,2.792-7.212-.125-.385-.257-.807-.4-1.273-.264-2.451.205-4.109,1.475-5.209.293-.206.591-.407.884-.605a110.852,110.852,0,0,1,13.846-7.987,36.861,36.861,0,0,0,2.766,14.458c.33.818.227,1.009.224,1.016a2.284,2.284,0,0,1-.664-.227c-.147-.066-.293-.128-.433-.176a3.7,3.7,0,0,0-3.295.723,4.545,4.545,0,0,1-1.8.767c-1.075.092-2.447-.69-3.867-2.22-.349-.374-.7-.781-1.046-1.174-1.405-1.614-2.862-3.287-4.78-3.834a.551.551,0,0,0-.3,1.06c1.607.455,2.95,2,4.252,3.5.345.4.708.814,1.068,1.2,1.112,1.2,2.766,2.575,4.487,2.575a2.575,2.575,0,0,0,.29-.015,5.377,5.377,0,0,0,2.26-.917c.954-.569,1.578-.906,2.363-.627.114.04.238.1.36.147.521.224,1.233.536,1.805.066a1.164,1.164,0,0,0,.411-.836,3.375,3.375,0,0,0-.316-1.442A35.629,35.629,0,0,1,38.145,828.6a.578.578,0,0,0-.07-.275,104.783,104.783,0,0,1,12.877-5.074,95.9,95.9,0,0,1,9.994-2.616q1.948-.4,3.882-.708A88.366,88.366,0,0,1,78.684,818.8a27.417,27.417,0,0,1,8.357,4.82,1.844,1.844,0,0,1,.528.587c.11.264.018.565-.316,1.042a13.011,13.011,0,0,1-2.6,3.027,12.6,12.6,0,0,1-1.629.98,8.945,8.945,0,0,0-2.583,1.816.551.551,0,0,0,.044.778.552.552,0,0,0,.778-.044,8.053,8.053,0,0,1,2.282-1.581c.426-.227.862-.462,1.28-.734l1.878,1.673a.549.549,0,0,0,.363.139.534.534,0,0,0,.411-.187.674.674,0,0,0,.062-.081.551.551,0,0,0-.106-.693l-1.71-1.523a15.789,15.789,0,0,0,2.436-2.939,2.156,2.156,0,0,0,.426-2.1,2.7,2.7,0,0,0-.833-1.005,29.32,29.32,0,0,0-6.1-3.929,80.458,80.458,0,0,1,11.575,1.236,3.643,3.643,0,0,0,.378,1.182l-2.719,1.225a.551.551,0,0,0,.451,1.005l3.067-1.383,1.453,1.108a30.424,30.424,0,0,0-5.118,4.982c-.932,1.064-1.893,2.161-2.913,3.133-.1.1-.205.2-.312.3a35.271,35.271,0,0,1-10.419,6.152L75.716,835.9a.551.551,0,0,0-.444-.227.566.566,0,0,0-.323.106.547.547,0,0,0-.121.767l1.218,1.68q-.93.385-1.86.763c-2.917,1.185-5.863,2.377-8.853,3.492l-2.271-3.251a25.133,25.133,0,0,0,11.344-4.6c.216-.161.433-.326.646-.5a2.019,2.019,0,0,0,.785-1.042c.286-1.064-.591-2.091-1.277-2.77-2.964-2.942-5.995-5.9-9.007-8.768a.545.545,0,0,0-.488-.143.582.582,0,0,0-.29.158.555.555,0,0,0,.018.781c3,2.869,6.031,5.815,8.992,8.753.994.987,1.046,1.493.987,1.706a1.051,1.051,0,0,1-.4.462A23.962,23.962,0,0,1,62.41,838.2a6.264,6.264,0,0,0-.323-1.1,29.031,29.031,0,0,0-10.639-13.6.558.558,0,0,0-.44-.077.568.568,0,0,0-.323.227.546.546,0,0,0,.147.763,27.921,27.921,0,0,1,10.225,13.068,2.732,2.732,0,0,1,.268,1.446c-.088.359-.437.594-.847.836a27.532,27.532,0,0,1-11,4.1,22.389,22.389,0,0,1-5.973-.117.555.555,0,0,0-.627.462.6.6,0,0,0-.007.081.551.551,0,0,0,.47.543,23.911,23.911,0,0,0,3.625.279,22.558,22.558,0,0,0,2.645-.154,28.619,28.619,0,0,0,11.428-4.245,3.276,3.276,0,0,0,1.079-.917l2.146,3.071c-7.488,2.722-15.277,4.861-23.66,4.967a.55.55,0,0,0,.007,1.1h.007c12.353-.154,23.348-4.619,33.98-8.933,4.8-1.948,9.751-3.958,13.659-7.565a46,46,0,0,0,3.306-3.514c1.988-2.264,3.863-4.4,6.343-5.665a2.3,2.3,0,0,0,1.222-1.871c1.17.3,2.337.627,3.493.987a2.75,2.75,0,0,0,1.445.088,6.132,6.132,0,0,1,.675-.055.586.586,0,0,0,.158-.022,31.688,31.688,0,0,1,19.341,0,.589.589,0,0,0,.139.026,8.42,8.42,0,0,1,4.641,1.728,1.1,1.1,0,0,1-.136,1.251,1.574,1.574,0,0,1-1.655.51c-3.419-1.163-5.69-.1-7.884.932-2.308,1.078-4.692,2.2-8.706.814a.553.553,0,0,0-.609.18.547.547,0,0,0-.04.631c1.126,1.823,4.208,3.14,6.927,4.3,1.823.781,4.322,1.849,4.38,2.531.015.161-.209.4-.6.657a7.874,7.874,0,0,1-6.681.928,23.4,23.4,0,0,0-6.941-.3,29.549,29.549,0,0,0-3.808.227c-.613.062-1.244.128-1.867.172-1.2.084-2.432.051-3.628.022a35.234,35.234,0,0,0-4.124.055,18.486,18.486,0,0,0-6.472,1.963.568.568,0,0,0-.066.037,176.431,176.431,0,0,1-32.486,17.808,65.633,65.633,0,0,1-9,2.847c-.715.1-1.427.2-2.143.3a40.555,40.555,0,0,1-8.519.646.593.593,0,0,0-.18.018c-2.895.792-3.254,4.461-3.493,6.886l-.029.29c-.833,4.85,1.3,9.825,6.167,14.392a1,1,0,0,1,.066.451c-.07.165-.147.334-.224.51-.462,1.016-1.024,2.26-.374,3.419-2.11,2.638-6.248,1.042-7.5.473-2.641-1.251-10.834-6.262-11.626-20.361a.546.546,0,0,0,0-.334c0-.011-.011-.026-.015-.037q-.066-1.431-.029-2.983a15.519,15.519,0,0,1,1.372-7.187,17.372,17.372,0,0,1,2.524-3.214,10.792,10.792,0,0,1,4.1-1.768.551.551,0,0,0-.286-1.064,11.679,11.679,0,0,0-4.524,1.992.449.449,0,0,0-.044.04,18.616,18.616,0,0,0-2.44,3.012c-.1.15-.194.3-.282.451a.328.328,0,0,1-.022.037,16.492,16.492,0,0,0-1.5,7.686c-.026.957-.015,1.9.026,2.817-2.524.741-5.7.825-7.851-.235a6.222,6.222,0,0,1,2.818-1.684.55.55,0,1,0-.294-1.06,7.3,7.3,0,0,0-3.368,2.033.532.532,0,0,0-.081.128c-.048-.04-.1-.077-.15-.117a4.008,4.008,0,0,1-1.266-2.062,1.164,1.164,0,0,0,.822.367m21.268-12.176a8.048,8.048,0,0,1,4.043,4.608.546.546,0,0,0,.521.378.563.563,0,0,0,.172-.026.552.552,0,0,0,.349-.7A9.045,9.045,0,0,0,29,850.376a.55.55,0,0,0-.455,1m-4.182-4.443a.549.549,0,0,0,.73.268c1.086-.506,2.652.3,3.661,1.134a20.29,20.29,0,0,1,1.988,1.985c.5.543,1.016,1.108,1.57,1.622a.542.542,0,0,0,.374.147.55.55,0,0,0,.374-.954c-.521-.484-1.024-1.031-1.508-1.559a22.065,22.065,0,0,0-2.095-2.087c-1.71-1.416-3.515-1.9-4.832-1.284a.549.549,0,0,0-.264.73" transform="translate(-6.458 -818.8)" fill="#fff"/><path d="M170.276,929.105c.719-.1,1.435-.2,2.146-.3s1.434-.213,2.154-.308a.289.289,0,0,0,.051-.007,65.652,65.652,0,0,0,8.794-2.755,11.03,11.03,0,0,0,3.914,4.006,10.646,10.646,0,0,1,3.5,3.43c.161.3.3.609.444.943a8.475,8.475,0,0,0,.836,1.592,6.577,6.577,0,0,0,2.832,2.047c.242.11.481.224.712.341,1.075.55,2.2,1.709,2.176,2.77-.011.51-.227,1.013-1.7,1.251a17.312,17.312,0,0,1-5.353.3,18.5,18.5,0,0,1-7.216-3.14,107.422,107.422,0,0,1-13.288-10.166" transform="translate(-135.236 -886.501)" fill="#fff"/></g><g transform="translate(0 0)"><path d="M15.43,848.492l.723-.25c3.445-2.34,3.419-2.429,2.3-5.925-.128-.4-.268-.848-.418-1.335a.465.465,0,0,1-.022-.1c-.316-2.847.294-4.887,1.867-6.237l.044-.033a107.054,107.054,0,0,1,39.068-16.968,84.955,84.955,0,0,1,38,.583.014.014,0,0,0,.011,0q2.141.539,4.252,1.192l.084.033a1.987,1.987,0,0,0,.869,0,7.1,7.1,0,0,1,.723-.059,32.765,32.765,0,0,1,19.859,0,9.478,9.478,0,0,1,5.283,2.04.533.533,0,0,1,.125.147,2.2,2.2,0,0,1-.191,2.583,2.674,2.674,0,0,1-2.862.855c-3-1.016-4.883-.136-7.062.884-2,.939-4.226,1.985-7.506,1.394a29.388,29.388,0,0,0,5.044,2.528c2.755,1.178,4.931,2.109,5.044,3.452.051.605-.319,1.167-1.1,1.673a8.923,8.923,0,0,1-7.6,1.053,23.012,23.012,0,0,0-6.538-.25.49.49,0,0,1-.073,0,28.849,28.849,0,0,0-3.7.22c-.62.066-1.262.132-1.9.176-1.251.088-2.513.055-3.735.026a34.575,34.575,0,0,0-4,.051,17.328,17.328,0,0,0-6.046,1.831A177.738,177.738,0,0,1,53.937,855.7a10.2,10.2,0,0,0,3.526,3.526,11.658,11.658,0,0,1,3.83,3.8c.183.337.338.69.484,1.027a7.9,7.9,0,0,0,.723,1.394,5.566,5.566,0,0,0,2.4,1.688c.253.117.5.235.748.36,1.361.7,2.81,2.179,2.774,3.775-.044,1.9-1.988,2.208-2.627,2.315a25.044,25.044,0,0,1-3.984.422,11.753,11.753,0,0,1-1.7-.121,19.512,19.512,0,0,1-7.664-3.309C49.006,868.321,42.171,863.5,38.4,859.7c-.011-.011-.015-.026-.026-.037a30.26,30.26,0,0,1-5.122.191c-2.087.646-2.385,3.68-2.6,5.907l-.033.308c0,.015,0,.026,0,.041-.543,3.118.029,7.979,5.844,13.431a1.9,1.9,0,0,1,.4,1.35.531.531,0,0,1-.037.2c-.084.213-.183.433-.286.653-.521,1.152-.822,1.959-.275,2.638a.551.551,0,0,1,.026.649,5.126,5.126,0,0,1-4.373,2.256h-.143a11.435,11.435,0,0,1-4.575-1.1c-7.081-3.357-11.5-10.98-12.217-20.783-3.17.87-7.341.84-9.715-1.233-1.082-.943-2.245-2.737-1.647-5.918.961-6,6.974-8.082,11.81-9.755M6.141,863.453a.536.536,0,0,1,.081-.129,7.3,7.3,0,0,1,3.368-2.032.55.55,0,1,1,.294,1.06,6.222,6.222,0,0,0-2.818,1.684c2.154,1.06,5.327.976,7.851.235-.04-.921-.051-1.86-.026-2.818a16.492,16.492,0,0,1,1.5-7.686.333.333,0,0,0,.022-.037c.088-.151.183-.3.282-.451a18.613,18.613,0,0,1,2.44-3.012.423.423,0,0,1,.044-.04,11.674,11.674,0,0,1,4.524-1.992.551.551,0,1,1,.286,1.064,10.8,10.8,0,0,0-4.1,1.768,17.379,17.379,0,0,0-2.524,3.214,15.518,15.518,0,0,0-1.372,7.187q-.039,1.552.029,2.983c0,.011.011.026.015.037a.547.547,0,0,1,0,.334c.792,14.1,8.985,19.11,11.626,20.361,1.251.569,5.389,2.165,7.5-.473-.649-1.159-.088-2.4.374-3.419.077-.176.154-.345.224-.51a1,1,0,0,0-.066-.451c-4.868-4.568-7-9.542-6.167-14.392l.029-.29c.238-2.425.6-6.094,3.493-6.886a.6.6,0,0,1,.18-.018,40.551,40.551,0,0,0,8.519-.646c.715-.106,1.427-.209,2.143-.3a65.651,65.651,0,0,0,9-2.847,176.424,176.424,0,0,0,32.486-17.808.577.577,0,0,1,.066-.037,18.484,18.484,0,0,1,6.472-1.963,35.221,35.221,0,0,1,4.124-.055c1.2.029,2.429.062,3.628-.022.624-.044,1.255-.11,1.867-.172a29.626,29.626,0,0,1,3.808-.227,23.407,23.407,0,0,1,6.941.3,7.874,7.874,0,0,0,6.681-.928c.389-.253.613-.5.6-.657-.059-.682-2.557-1.75-4.38-2.531-2.719-1.163-5.8-2.48-6.927-4.3a.547.547,0,0,1,.04-.631.553.553,0,0,1,.609-.18c4.014,1.383,6.4.264,8.706-.814,2.194-1.031,4.465-2.095,7.884-.932a1.574,1.574,0,0,0,1.655-.51,1.1,1.1,0,0,0,.136-1.251,8.419,8.419,0,0,0-4.641-1.728.586.586,0,0,1-.139-.026,31.686,31.686,0,0,0-19.341,0,.586.586,0,0,1-.158.022,6.131,6.131,0,0,0-.675.055,2.747,2.747,0,0,1-1.445-.088c-1.156-.359-2.322-.682-3.493-.987a2.3,2.3,0,0,1-1.222,1.871c-2.48,1.262-4.355,3.4-6.343,5.664a45.974,45.974,0,0,1-3.306,3.515c-3.907,3.606-8.864,5.617-13.659,7.565-10.632,4.314-21.627,8.779-33.98,8.933h-.007a.55.55,0,0,1-.007-1.1c8.383-.106,16.172-2.245,23.66-4.967l-2.146-3.071a3.277,3.277,0,0,1-1.079.917,28.62,28.62,0,0,1-11.428,4.245,22.518,22.518,0,0,1-2.645.154,23.9,23.9,0,0,1-3.625-.279.551.551,0,0,1-.47-.543.6.6,0,0,1,.007-.081.556.556,0,0,1,.627-.462,22.376,22.376,0,0,0,5.973.117,27.529,27.529,0,0,0,11-4.1c.411-.242.759-.477.847-.837a2.732,2.732,0,0,0-.268-1.446A27.922,27.922,0,0,0,49.1,822.507a.546.546,0,0,1-.147-.763.569.569,0,0,1,.323-.228.557.557,0,0,1,.44.077,29.032,29.032,0,0,1,10.639,13.6,6.262,6.262,0,0,1,.323,1.1,23.963,23.963,0,0,0,11.96-4.938,1.05,1.05,0,0,0,.4-.462c.059-.213.007-.719-.987-1.706-2.961-2.939-5.987-5.885-8.992-8.753a.555.555,0,0,1-.018-.781.579.579,0,0,1,.29-.158.545.545,0,0,1,.488.143c3.012,2.872,6.042,5.826,9.007,8.768.686.679,1.563,1.706,1.277,2.77a2.019,2.019,0,0,1-.785,1.042c-.213.169-.429.334-.646.5a25.135,25.135,0,0,1-11.344,4.6l2.271,3.25c2.99-1.115,5.936-2.308,8.853-3.493q.93-.38,1.86-.763l-1.218-1.68a.547.547,0,0,1,.121-.767.566.566,0,0,1,.323-.106.551.551,0,0,1,.444.228l1.376,1.889a35.277,35.277,0,0,0,10.419-6.152c.106-.1.209-.195.312-.3,1.02-.972,1.981-2.069,2.913-3.133a30.415,30.415,0,0,1,5.118-4.982L92.668,820.2,89.6,821.582a.551.551,0,0,1-.451-1.005l2.719-1.225a3.644,3.644,0,0,1-.378-1.181,80.441,80.441,0,0,0-11.575-1.236,29.322,29.322,0,0,1,6.1,3.929,2.7,2.7,0,0,1,.833,1.005,2.156,2.156,0,0,1-.426,2.1,15.8,15.8,0,0,1-2.436,2.939l1.71,1.523a.551.551,0,0,1,.106.693.683.683,0,0,1-.062.081.534.534,0,0,1-.411.187.55.55,0,0,1-.363-.139l-1.878-1.673c-.418.271-.855.506-1.28.734a8.053,8.053,0,0,0-2.282,1.581.551.551,0,0,1-.822-.734,8.942,8.942,0,0,1,2.583-1.816,12.612,12.612,0,0,0,1.629-.979,13.011,13.011,0,0,0,2.6-3.027c.334-.477.426-.778.316-1.042a1.843,1.843,0,0,0-.528-.587,27.413,27.413,0,0,0-8.357-4.821,88.41,88.41,0,0,0-13.857,1.126q-1.937.314-3.882.708a95.9,95.9,0,0,0-9.994,2.616,104.705,104.705,0,0,0-12.877,5.074.578.578,0,0,1,.07.275,35.629,35.629,0,0,0,2.682,14.264,3.374,3.374,0,0,1,.316,1.442,1.164,1.164,0,0,1-.411.837c-.572.469-1.284.158-1.805-.066-.121-.051-.246-.106-.36-.147-.785-.279-1.409.059-2.363.627a5.377,5.377,0,0,1-2.26.917,2.6,2.6,0,0,1-.29.015c-1.721,0-3.375-1.38-4.487-2.575-.36-.389-.723-.8-1.068-1.2-1.3-1.493-2.645-3.041-4.252-3.5a.551.551,0,1,1,.3-1.06c1.919.547,3.375,2.22,4.78,3.834.341.392.7.8,1.046,1.174,1.42,1.53,2.792,2.311,3.867,2.219a4.546,4.546,0,0,0,1.8-.767,3.7,3.7,0,0,1,3.295-.723c.139.048.286.11.433.176a2.279,2.279,0,0,0,.664.227c0-.007.106-.2-.224-1.016a36.862,36.862,0,0,1-2.766-14.458,110.858,110.858,0,0,0-13.846,7.987c-.294.2-.591.4-.884.605-1.269,1.1-1.739,2.759-1.475,5.209.143.466.275.888.4,1.273,1.24,3.878,1.24,4.476-2.792,7.213a.589.589,0,0,1-.128.062l-.792.279c-.605.209-1.233.425-1.867.657a9.294,9.294,0,0,0,.77,2.513.574.574,0,0,1,.018.367.552.552,0,0,1-.319.352.587.587,0,0,1-.209.04.552.552,0,0,1-.51-.341,11.28,11.28,0,0,1-.807-2.531c-3.133,1.225-6.211,2.891-7.558,5.848a1.1,1.1,0,0,1,.609.062,1.292,1.292,0,0,1,.781,1.13c.026.811.015,1.618-.037,2.4a3.088,3.088,0,0,1-.22,1.038.994.994,0,0,1-.9.569,1.166,1.166,0,0,1-.822-.367,4.007,4.007,0,0,0,1.266,2.062c.048.041.1.077.15.118M65.622,872.5c1.475-.238,1.691-.741,1.7-1.251.026-1.06-1.1-2.22-2.176-2.77-.231-.117-.47-.231-.712-.341a6.579,6.579,0,0,1-2.832-2.047,8.482,8.482,0,0,1-.836-1.592c-.143-.334-.282-.646-.444-.943a10.646,10.646,0,0,0-3.5-3.43,11.033,11.033,0,0,1-3.915-4.006,65.665,65.665,0,0,1-8.794,2.755.29.29,0,0,1-.051.008c-.719.1-1.434.2-2.154.308s-1.427.209-2.146.3a107.421,107.421,0,0,0,13.288,10.166,18.5,18.5,0,0,0,7.216,3.141,17.323,17.323,0,0,0,5.353-.3m27.042-54.105a2.725,2.725,0,0,0,.312.671.449.449,0,0,1,.07.044l2.062,1.57c.187-.106.374-.213.569-.308a1.292,1.292,0,0,0,.638-1.17c-1.211-.3-2.429-.565-3.65-.807" transform="translate(-3.458 -815.778)" fill="#14b4f0"/><path d="M31.925,888.035h-.151a12.219,12.219,0,0,1-4.885-1.171l-.011-.005C19.8,883.5,15.246,876.049,14.309,866.333a15.973,15.973,0,0,1-3.3.354,9.529,9.529,0,0,1-6.231-1.957c-1.228-1.07-2.553-3.085-1.893-6.611a10.09,10.09,0,0,1,4.776-7,33.16,33.16,0,0,1,7.527-3.339l.629-.217c1.461-.994,2.3-1.589,2.5-2.118.192-.508-.08-1.358-.574-2.9-.142-.447-.279-.884-.419-1.337a1.207,1.207,0,0,1-.053-.251c-.344-3.111.351-5.363,2.125-6.885l.038-.03.068-.05a107.816,107.816,0,0,1,39.345-17.086,91.3,91.3,0,0,1,18.2-1.88A82.646,82.646,0,0,1,97.172,817.5l.2.05c1.385.352,2.766.741,4.107,1.157l.051.018.079.031h.038c.128,0,.322-.023.477-.041h.01c.2-.023.434-.05.683-.06a36.925,36.925,0,0,1,10.326-1.541,31.426,31.426,0,0,1,9.8,1.55,10.246,10.246,0,0,1,5.608,2.2,1.285,1.285,0,0,1,.3.343l.006.011a2.963,2.963,0,0,1-.26,3.434,3.474,3.474,0,0,1-2.659,1.256,3.178,3.178,0,0,1-1.024-.167,7.083,7.083,0,0,0-2.293-.411,9.778,9.778,0,0,0-4.211,1.264l-.008,0a14.982,14.982,0,0,1-4.727,1.561c.746.347,1.519.677,2.25.988,2.987,1.277,5.346,2.285,5.5,4.079a2.553,2.553,0,0,1-1.44,2.366l0,0a9.884,9.884,0,0,1-5.315,1.589,9.652,9.652,0,0,1-2.908-.452,17.512,17.512,0,0,0-3.9-.332,22.361,22.361,0,0,0-2.339.111l-.04,0h-.031a1,1,0,0,1-.13,0c-.118,0-.24,0-.362,0a31.224,31.224,0,0,0-3.139.214l-.079.008c-.61.065-1.266.133-1.928.178-.56.039-1.173.059-1.871.059-.625,0-1.247-.015-1.849-.029l-.151,0c-.595-.015-1.21-.03-1.815-.03-.786,0-1.43.026-2.027.08a16.557,16.557,0,0,0-5.733,1.732,178.684,178.684,0,0,1-31.331,17.341,11.756,11.756,0,0,0,2.878,2.563,12.4,12.4,0,0,1,4.052,4.053c.2.375.375.768.512,1.085l.017.039a7.13,7.13,0,0,0,.629,1.219,4.924,4.924,0,0,0,2.1,1.439l.008,0c.246.114.51.238.771.371a6.789,6.789,0,0,1,2.156,1.75,4.21,4.21,0,0,1,1.028,2.711,2.789,2.789,0,0,1-1.453,2.454,5.243,5.243,0,0,1-1.788.581l-.123.02a25,25,0,0,1-4,.414,12.426,12.426,0,0,1-1.81-.129,20.223,20.223,0,0,1-7.966-3.424c-3.414-2.239-10.118-6.977-13.945-10.761a33.951,33.951,0,0,1-3.463.2c-.431,0-.856-.011-1.266-.033-1.51.593-1.769,3.261-1.96,5.222l-.032.3v.045l-.011.064c-.926,5.32,2.544,9.873,5.618,12.755l.017.017a2.584,2.584,0,0,1,.62,1.88,1.273,1.273,0,0,1-.09.481c-.1.25-.213.5-.3.687-.527,1.165-.607,1.564-.373,1.854l.006.007a1.294,1.294,0,0,1,.058,1.531,5.849,5.849,0,0,1-4.979,2.587ZM27.981,884.5a9.991,9.991,0,0,0,3.795.93,3.479,3.479,0,0,0,2.5-.867,4.835,4.835,0,0,1,.573-3.582l.083-.188.048-.108c-4.91-4.688-7.053-9.819-6.2-14.852l.027-.264a17.422,17.422,0,0,1,.793-4.239,4.832,4.832,0,0,1,3.248-3.3l.015,0a1.341,1.341,0,0,1,.409-.04c.448.03.915.045,1.393.045a48.668,48.668,0,0,0,6.966-.684c.826-.123,1.5-.219,2.12-.3a64.894,64.894,0,0,0,8.859-2.8,175.7,175.7,0,0,0,32.34-17.729l.007,0a1.279,1.279,0,0,1,.148-.084,19.236,19.236,0,0,1,6.739-2.039c.681-.062,1.429-.091,2.288-.091.637,0,1.274.016,1.925.034l.084,0c.588.014,1.2.029,1.794.029.632,0,1.18-.017,1.677-.052.567-.04,1.148-.1,1.711-.157l.133-.014a33.623,33.623,0,0,1,3.476-.236c.127,0,.254,0,.378,0a25.489,25.489,0,0,1,2.551-.118,19.283,19.283,0,0,1,4.642.452,7.119,7.119,0,0,0,2.135.331,7.31,7.31,0,0,0,3.919-1.173l.054-.036a8.3,8.3,0,0,0-1.154-.671c-.787-.4-1.722-.8-2.547-1.15l-.03-.013c-2.819-1.206-6.014-2.572-7.264-4.6a1.3,1.3,0,0,1,1.525-1.916l.007,0a9.994,9.994,0,0,0,3.277.6,10.94,10.94,0,0,0,4.858-1.383l.009,0a12.021,12.021,0,0,1,5.322-1.509,9.577,9.577,0,0,1,3.121.547.573.573,0,0,0,.186.029.874.874,0,0,0,.649-.306.347.347,0,0,0,.093-.306,7.723,7.723,0,0,0-4.066-1.447h-.011a1.315,1.315,0,0,1-.319-.062,28.809,28.809,0,0,0-9.139-1.47,34.4,34.4,0,0,0-9.753,1.482l-.007,0a1.342,1.342,0,0,1-.364.051,5.046,5.046,0,0,0-.535.044l-.071.008a6.758,6.758,0,0,1-.764.056,2.568,2.568,0,0,1-1.011-.186c-.815-.253-1.7-.507-2.685-.771a2.95,2.95,0,0,1-1.429,1.62c-2.344,1.193-4.169,3.27-6.1,5.47l-.05.057a46.085,46.085,0,0,1-3.329,3.535c-4,3.693-9.014,5.73-13.863,7.7l-.043.018c-10.691,4.338-21.745,8.824-34.231,8.98h-.017a1.3,1.3,0,0,1-.017-2.6c8.622-.109,16.466-2.444,22.493-4.591l-1.069-1.53a5.767,5.767,0,0,1-.6.395,29.33,29.33,0,0,1-11.723,4.345,23.332,23.332,0,0,1-2.733.159,24.7,24.7,0,0,1-3.739-.288,1.289,1.289,0,0,1-1.091-1.471l0-.011a1.3,1.3,0,0,1,1.478-1.087,22.311,22.311,0,0,0,3.342.256,20.892,20.892,0,0,0,2.433-.141,26.819,26.819,0,0,0,10.7-4c.382-.226.485-.328.5-.374l0-.008a2.166,2.166,0,0,0-.244-.992,27.158,27.158,0,0,0-9.943-12.711,1.278,1.278,0,0,1-.505-.662,104.632,104.632,0,0,0-11.015,4.391,34.918,34.918,0,0,0,2.631,13.811,4.041,4.041,0,0,1,.368,1.782,1.911,1.911,0,0,1-.681,1.356,1.8,1.8,0,0,1-1.174.416,3.552,3.552,0,0,1-1.39-.366l-.075-.032c-.093-.04-.181-.077-.253-.1a.9.9,0,0,0-.3-.056,3.352,3.352,0,0,0-1.424.621l-.006,0a6.041,6.041,0,0,1-2.562,1.016,3.367,3.367,0,0,1-.366.018c-1.1,0-2.874-.488-5.036-2.815-.4-.432-.79-.881-1.086-1.224l-.022-.025c-1.221-1.4-2.484-2.848-3.866-3.239a1.3,1.3,0,0,1-.9-1.608,1.285,1.285,0,0,1,.257-.484l-.231.16c-1.036.917-1.418,2.339-1.2,4.467.142.462.265.853.375,1.193.641,2,1.011,3.294.574,4.518-.427,1.194-1.52,2.1-3.658,3.547l-.019.013a1.334,1.334,0,0,1-.287.139l-.846.3c-.4.137-.8.277-1.211.422a12.422,12.422,0,0,0,.617,1.733l0,.012a1.316,1.316,0,0,1,.042.845l-.005.019a1.3,1.3,0,0,1-.752.825l-.011,0a1.34,1.34,0,0,1-.482.092,1.3,1.3,0,0,1-1.2-.8,16.738,16.738,0,0,1-.653-1.789c-3.567,1.514-5.1,3.023-5.894,4.3A2.062,2.062,0,0,1,7.448,857.6c.027.852.014,1.685-.038,2.48a3.778,3.778,0,0,1-.285,1.3,1.75,1.75,0,0,1-.226.367,8.089,8.089,0,0,1,2.489-1.179,1.3,1.3,0,0,1,1.6.909,1.3,1.3,0,0,1-.91,1.6,5.5,5.5,0,0,0-1.547.707,9.756,9.756,0,0,0,2.491.3,13.266,13.266,0,0,0,3.119-.378c-.022-.762-.024-1.52,0-2.258a17.169,17.169,0,0,1,1.576-8.011l.02-.04.025-.039c.086-.147.182-.3.3-.482a19.256,19.256,0,0,1,2.539-3.134,1.135,1.135,0,0,1,.111-.1,12.322,12.322,0,0,1,4.792-2.126,1.328,1.328,0,0,1,.336-.044,1.3,1.3,0,0,1,.333,2.558,10.262,10.262,0,0,0-3.788,1.6,16.646,16.646,0,0,0-2.366,3.014,14.9,14.9,0,0,0-1.28,6.826v.019c-.024.958-.016,1.908.024,2.824a1.3,1.3,0,0,1,.029.574c.345,5.835,2.012,10.7,4.956,14.474A17.75,17.75,0,0,0,27.981,884.5Zm13.456-24.49a116.742,116.742,0,0,0,12.026,9.016,17.809,17.809,0,0,0,6.913,3.026,9.948,9.948,0,0,0,1.439.1,22.789,22.789,0,0,0,3.686-.4,2.062,2.062,0,0,0,1.015-.337c.033-.03.055-.051.058-.19.015-.633-.794-1.588-1.767-2.086-.207-.1-.436-.215-.68-.326l-.006,0a7.289,7.289,0,0,1-3.126-2.291,9.062,9.062,0,0,1-.9-1.7l-.013-.03c-.145-.339-.271-.618-.414-.88a9.914,9.914,0,0,0-3.268-3.171l-.011-.008a12.828,12.828,0,0,1-3.823-3.683,64.471,64.471,0,0,1-8.279,2.554l-.022,0a1.075,1.075,0,0,1-.125.019c-.673.089-1.357.191-2.02.289l-.556.081Zm-37.226-.328,1.047,1.063a.427.427,0,0,0,.287.143l.031,0,.012,0a.215.215,0,0,0,.17-.127,2.479,2.479,0,0,0,.154-.775c.049-.747.061-1.531.035-2.33a.545.545,0,0,0-.315-.459.354.354,0,0,0-.187-.02l-.856.161a8.54,8.54,0,0,0-.23,1.029l0,.02A8.351,8.351,0,0,0,4.212,859.684Zm18.053-24.218a1.3,1.3,0,0,1,.356.051c2.133.608,3.662,2.364,5.14,4.063.349.4.691.792,1.029,1.155,1.173,1.264,2.319,1.988,3.145,1.988.036,0,.071,0,.105,0a3.967,3.967,0,0,0,1.459-.651l.021-.013a5.372,5.372,0,0,1,2.761-.991,3.443,3.443,0,0,1,.914.125,37.912,37.912,0,0,1-2.643-13.079,110.42,110.42,0,0,0-12.672,7.4l-.032.022A1.293,1.293,0,0,1,22.265,835.467Zm40.359,2.39,1.258,1.8c2.7-1.016,5.359-2.091,8.289-3.281l.976-.4-.659-.909a1.293,1.293,0,0,1-.177-1.184A26,26,0,0,1,62.624,837.856ZM50.987,821.573a29.924,29.924,0,0,1,10.069,13.353c.063.17.127.346.184.529a23.155,23.155,0,0,0,10.931-4.691q.063-.05.106-.087a3.367,3.367,0,0,0-.752-.962c-2.95-2.928-5.971-5.869-8.982-8.743a1.31,1.31,0,0,1-.044-1.841l.014-.014a1.322,1.322,0,0,1,.642-.356c-1.27.207-2.546.44-3.792.693C56.572,820.026,53.762,820.737,50.987,821.573Zm22.552,11.432a1.3,1.3,0,0,1,1.051.538l1.023,1.4a35.41,35.41,0,0,0,8.89-5.107l-.036-.031-1.462-1.3c-.3.174-.591.33-.843.465l-.023.013a7.324,7.324,0,0,0-2.052,1.406l-.005.006a1.3,1.3,0,0,1-1.822.107l-.008-.007a1.3,1.3,0,0,1-.107-1.837,9.638,9.638,0,0,1,2.789-1.979,12.073,12.073,0,0,0,1.534-.919,12.425,12.425,0,0,0,2.439-2.855,1.888,1.888,0,0,0,.211-.357,2.8,2.8,0,0,0-.29-.268,26.7,26.7,0,0,0-8-4.645,88.057,88.057,0,0,0-13.508,1.1c.042,0,.084-.006.127-.006a1.288,1.288,0,0,1,.9.363c2.933,2.8,5.966,5.75,9.015,8.776.818.809,1.861,2.053,1.473,3.5a2.743,2.743,0,0,1-1.045,1.436l-.258.2Zm11.554-6.119,1.1.982a1.3,1.3,0,0,1,.185.2c.707-.735,1.39-1.515,2.057-2.277l.012-.013a35.975,35.975,0,0,1,4.428-4.479l-.309-.236-2.659,1.2a1.3,1.3,0,0,1-1.72-.657,1.3,1.3,0,0,1,.654-1.716l2.058-.927q-.022-.072-.042-.145c-2.528-.441-5.106-.761-7.7-.957a30.3,30.3,0,0,1,3.34,2.424,3.405,3.405,0,0,1,1.045,1.293,2.893,2.893,0,0,1-.505,2.818l-.006.009A20.367,20.367,0,0,1,85.093,826.886Zm24.169-.253a6.263,6.263,0,0,0,1.038.909l.249-.6A12.538,12.538,0,0,1,109.262,826.633Zm-31.113-10.1q.775.309,1.541.673l.155-.633Q79,816.546,78.149,816.535Z" transform="translate(-3.458 -815.778)" fill="#14b4f0"/><path d="M268.224,893.049c1.317-.613,3.122-.132,4.832,1.284a22.077,22.077,0,0,1,2.095,2.087c.484.528.987,1.075,1.508,1.559a.55.55,0,0,1-.374.954.542.542,0,0,1-.374-.147c-.554-.514-1.071-1.079-1.57-1.621a20.3,20.3,0,0,0-1.988-1.985c-1.009-.837-2.575-1.64-3.661-1.134a.551.551,0,0,1-.466-1" transform="translate(-248.785 -864.536)" fill="#14b4f0"/><path d="M276.284,899.684a1.294,1.294,0,0,1-.885-.348c-.562-.521-1.077-1.082-1.576-1.624l-.035-.038a19.89,19.89,0,0,0-1.915-1.915,4.381,4.381,0,0,0-2.422-1.119,1.046,1.046,0,0,0-.444.087,1.3,1.3,0,0,1-1.1-2.357,3.654,3.654,0,0,1,1.554-.331,6.649,6.649,0,0,1,4.073,1.717,22.442,22.442,0,0,1,2.151,2.138l.018.02c.448.489.956,1.043,1.466,1.517a1.3,1.3,0,0,1-.885,2.253Z" transform="translate(-248.785 -864.536)" fill="#14b4f0"/><path d="M267.537,904.785a9.045,9.045,0,0,1,4.63,5.265.552.552,0,0,1-.348.7.563.563,0,0,1-.173.026.546.546,0,0,1-.521-.378,8.048,8.048,0,0,0-4.043-4.608.55.55,0,0,1,.455-1" transform="translate(-243.726 -872.1)" fill="#14b4f0"/><path d="M271.646,911.523a1.29,1.29,0,0,1-1.234-.894,7.267,7.267,0,0,0-3.642-4.159,1.3,1.3,0,0,1,1.077-2.367,9.822,9.822,0,0,1,5.032,5.712,1.309,1.309,0,0,1-.817,1.642l-.019.006A1.31,1.31,0,0,1,271.646,911.523Z" transform="translate(-243.726 -872.1)" fill="#14b4f0"/></g></g></svg>