<svg xmlns="http://www.w3.org/2000/svg" width="114.492" height="90.992" viewBox="0 0 114.492 90.992"><g transform="translate(0 41.081) rotate(-24)"><path d="M131.94,60.593l-.234.02v.1a.711.711,0,0,0,.234-.12" transform="translate(-43.594 -20.055)"/><g transform="translate(2.005 2.083)"><path d="M105.762,64.186a7.368,7.368,0,0,0-1.485-.542c-.294-.06-.582-.14-.843-.221a3.5,3.5,0,0,1-2.944,1.525,3.768,3.768,0,0,1-.475-.027A4.4,4.4,0,0,1,97.473,63.6a23.633,23.633,0,0,1-8.4.355l-.181-.027a3.987,3.987,0,0,0-.943-.074,3.942,3.942,0,0,0-.856.408A7.739,7.739,0,0,1,85.5,65a3.967,3.967,0,0,1-3.312-.522A9.211,9.211,0,0,1,76.3,64.9c-.248-.067-.488-.14-.729-.214a4.715,4.715,0,0,0-1.057-.254,4.673,4.673,0,0,0-1.164.294,6.223,6.223,0,0,1-3.2.408,6.335,6.335,0,0,1-1.82-.709,3.333,3.333,0,0,0-.676-.314,3.629,3.629,0,0,0-1.2.141c-.629.147-1.264.294-1.9.442-3.7.863-7.513,1.759-11.433,1.378a4.671,4.671,0,0,1-4.228,1.211,5.814,5.814,0,0,1-.642-.187,2.459,2.459,0,0,0-.248-.074,4.366,4.366,0,0,0-.468.181l-.181.074a13.067,13.067,0,0,1-9.032.3c-.355-.12-.7-.254-1.05-.395a9.121,9.121,0,0,0-1.626-.529,1.534,1.534,0,0,0-.95.087,11.426,11.426,0,0,0,4.4,2.2,24.176,24.176,0,0,0,8.082.114,25.953,25.953,0,0,1,8.744.161,1,1,0,0,1,.5,1.652c-.261.281-.535.549-.83.816a86.982,86.982,0,0,0,46.951-2.937,51.267,51.267,0,0,0,7.078-3.024c.154-.248.281-.482.395-.7a7.559,7.559,0,0,1-4.248-.843m-34.32,5.9c-1.98-.127-3.987-.2-5.961-.227a9.245,9.245,0,0,0-3.646.455,1.008,1.008,0,0,1-.388.08,1,1,0,0,1-.388-1.927,10.9,10.9,0,0,1,4.442-.615c2.014.027,4.054.1,6.068.227a1.006,1.006,0,1,1-.127,2.007" transform="translate(-13.486 -23.075)" fill="#fff"/><path d="M34.263,57.957a12.226,12.226,0,0,1,2.388.749c.294.114.582.227.883.328a8.974,8.974,0,0,0,6.208-.207l.147-.067a4.9,4.9,0,0,1,2.228-.5,4.8,4.8,0,0,1,1.311.288c.094.027.187.06.288.087a.659.659,0,0,0,.622-.308,2.029,2.029,0,0,1,2.141-1.117c3.552.6,7.212-.261,11.079-1.164.649-.154,1.3-.308,1.94-.448a6.627,6.627,0,0,1,3-.134,6.5,6.5,0,0,1,1.639.676,3.426,3.426,0,0,0,.682.308,3.567,3.567,0,0,0,1.2-.274,7.565,7.565,0,0,1,2.422-.5h.013a7.748,7.748,0,0,1,2.248.435c.181.06.361.12.549.167a5.214,5.214,0,0,0,4.335-.83,2,2,0,0,1,3.031.816c.141-.074.294-.161.448-.248a6.761,6.761,0,0,1,2.094-.85,6.837,6.837,0,0,1,2.241.047l.167.027a19.487,19.487,0,0,0,6.65-.227,2.168,2.168,0,0,1,.756-1.6c1.853-1.572,4.489-.823,5.867.769.033.04.06.087.094.127.375.1.729.221,1.044.334A6.617,6.617,0,0,0,103,54.96a11.054,11.054,0,0,1,2.321.81,3.64,3.64,0,0,0,2.148.522l-3.914-7.2a7.912,7.912,0,0,1-3.653.723,5.642,5.642,0,0,0-2,.261,4.334,4.334,0,0,0-.381.221,4.968,4.968,0,0,1-1.907.809,4.838,4.838,0,0,1-1.86-.134c-.127-.027-.294-.06-.388-.074-.1.047-.274.167-.4.248a5.41,5.41,0,0,1-1.552.783,5.608,5.608,0,0,1-2.415.054l-.221-.033a9.618,9.618,0,0,0-4.068.334l-.408.127c-1.452.462-3.532,1.124-5.325.167a4.026,4.026,0,0,1-2.141,1.057,3.277,3.277,0,0,1-2.161-.475A4.048,4.048,0,0,1,73.4,53.4a3.479,3.479,0,0,1-2-.609,6.014,6.014,0,0,1-3.994.636,7.229,7.229,0,0,1-1.111-.361,4.15,4.15,0,0,0-.529-.181,4.286,4.286,0,0,0-1.465.194,7.409,7.409,0,0,1-4.79-.161,5.442,5.442,0,0,0-1.479-.314,5.585,5.585,0,0,0-1.652.5c-.348.147-.7.288-1.044.408a10.536,10.536,0,0,1-7.827-.428c-.254-.127-.508-.254-.763-.388a4.613,4.613,0,0,0-1.3-.549,4.744,4.744,0,0,0-2.3.763c-.241.114-.475.234-.716.341-3,1.4-6.824,1.726-10.356,1.726-1.264,0-2.5-.04-3.639-.087a11.369,11.369,0,0,0,.7,2.5,10.825,10.825,0,0,0,.816,1.592,5.186,5.186,0,0,1,4.315-1.03" transform="translate(-11.418 -18.332)" fill="#fff"/><path d="M4.261,41.122a2.611,2.611,0,0,0,1.171-.381L20.11,33.783a1,1,0,0,1,1.318,1.371,13.584,13.584,0,0,0-1.392,4.195c3.947.161,9,.268,12.276-1.258.214-.1.421-.2.636-.308a7.871,7.871,0,0,1,4.616-1.144,7.768,7.768,0,0,1,2.636.977c.2.107.4.214.6.308a6.539,6.539,0,0,0,4.81.261c.274-.094.549-.207.83-.321a8.517,8.517,0,0,1,3.071-.8,8.6,8.6,0,0,1,2.73.482,5.961,5.961,0,0,0,1.425.314,6.138,6.138,0,0,0,1.3-.214,7.132,7.132,0,0,1,3.191-.214,6.948,6.948,0,0,1,1.171.368,3.789,3.789,0,0,0,.522.181c.682.147,1.726-.488,2.649-1.09a2,2,0,0,1,2.221,0,2.09,2.09,0,0,1,.629.676c.054-.047.114-.094.181-.147a2,2,0,0,1,2.348-.181,2.223,2.223,0,0,1,.408.335,2.67,2.67,0,0,1,1.947-1.07,2.764,2.764,0,0,1,2.127.923l.06.06c.227.214,1.746-.268,2.248-.428l.435-.134a13.584,13.584,0,0,1,5.794-.475l.254.033a4.219,4.219,0,0,0,.729.067,3.7,3.7,0,0,0,.448-.274,4.881,4.881,0,0,1,2-.876,4.829,4.829,0,0,1,1.86.127,3.615,3.615,0,0,0,.395.074c.087-.04.254-.147.381-.227.241-.147.482-.294.729-.421a8.437,8.437,0,0,1,3.686-.676,5.038,5.038,0,0,0,1.84-.234l-.475-.87a1.027,1.027,0,0,1-.114-.562,15.312,15.312,0,0,0-.1-3.178,61.029,61.029,0,0,1-11.346,2.964,5.3,5.3,0,0,1-3.392-.348c-.147-.08-.294-.174-.442-.274-.161.114-.368.268-.522.388-.254.2-.542.428-.85.629a5.342,5.342,0,0,1-2.9.83,5.7,5.7,0,0,1-1.458-.187,5.644,5.644,0,0,1-2.783-1.652,3.523,3.523,0,0,1-3.967.629,4.014,4.014,0,0,1-1-.769L51.6,32.271a29.935,29.935,0,0,1-5.466-.054c-.435-.054-.876-.127-1.318-.2a11.536,11.536,0,0,0-2.248-.248,12.151,12.151,0,0,0-1.512.181,8.977,8.977,0,0,1-4.027,0,9.279,9.279,0,0,1-1.974-.876,3.677,3.677,0,0,0-1.351-.549,3.587,3.587,0,0,0-.816.368,9.765,9.765,0,0,1-1.177.555,2.214,2.214,0,0,1-.281.08,1.87,1.87,0,0,1-.455.248,3.262,3.262,0,0,1-1.1.154,13.653,13.653,0,0,1-3.338-.562c-.174-.06-.348-.127-.515-.2-.127-.04-.254-.08-.375-.114l.007-.027a4.042,4.042,0,0,0-.381-.14,4.534,4.534,0,0,0-1.86.161,2.007,2.007,0,0,1-.917-3.907A7.77,7.77,0,0,1,26.265,27a8.578,8.578,0,0,1,1.07.375,5.1,5.1,0,0,0,2.977.314,6.671,6.671,0,0,0,.669-.328,6.061,6.061,0,0,1,2.255-.823,6.128,6.128,0,0,1,3.74,1.01,6.156,6.156,0,0,0,1.151.542,5.845,5.845,0,0,0,2.295-.1,14.526,14.526,0,0,1,2.027-.234,15.267,15.267,0,0,1,3.051.3c.381.067.763.134,1.144.181a27.431,27.431,0,0,0,4.75.027l12.37-.642a3.706,3.706,0,0,1,1.479.161,3.344,3.344,0,0,1,1.211.769c.234-.207.5-.488.636-.622a2.75,2.75,0,0,1,1.619-.9c1.2-.174,2.181.435,2.93,1.813a1.677,1.677,0,0,0,2.168.562c.181-.12.368-.268.555-.415.883-.682,2.362-1.84,4.221-1.131a4.461,4.461,0,0,1,.957.535c.054.04.1.074.154.107a3.849,3.849,0,0,0,.856-.08,57.042,57.042,0,0,0,10.972-2.9,19.727,19.727,0,0,0-2.95-5.1,8.68,8.68,0,0,1-3.479,1,8.229,8.229,0,0,0-1.652.335,2.943,2.943,0,0,1-2.107.321A2.824,2.824,0,0,1,80.02,21.3a1.391,1.391,0,0,0-.428.1,8.321,8.321,0,0,0-.789.381,9.208,9.208,0,0,1-1.646.716,9.412,9.412,0,0,1-4.315.033,9.721,9.721,0,0,0-1.92-.194,9.893,9.893,0,0,0-3.332,1l-.977.4a11.1,11.1,0,0,1-4.088.9,6.285,6.285,0,0,1-2.522-.5,9.6,9.6,0,0,1-1.151-.609,4.074,4.074,0,0,0-.843-.421,4.276,4.276,0,0,0-1.739.281L55.9,23.5a20.308,20.308,0,0,1-10.664.04c-.187-.054-.368-.1-.555-.154a5.682,5.682,0,0,0-2.094-.355,6.257,6.257,0,0,0-1.479.555,5.975,5.975,0,0,1-4.643.649,6.151,6.151,0,0,1-2.034-1.351,3.7,3.7,0,0,0-.7-.549,3.81,3.81,0,0,0-.97.14l-.261.06a15.974,15.974,0,0,1-8.075-.395.993.993,0,0,1-1.679.569A39.829,39.829,0,0,0,12,15.285a7.322,7.322,0,0,0-4.308-.963l4.315,2.556a1,1,0,0,1-.508,1.867.966.966,0,0,1-.515-.14l-5.071-3a5.372,5.372,0,0,0-.488,3.338,20.3,20.3,0,0,0,.656,2.643,25.422,25.422,0,0,1,.649,2.576l4.75.482a.992.992,0,0,1,.9,1.1,1,1,0,0,1-1,.9.506.506,0,0,1-.1-.007L6.924,26.2A20.184,20.184,0,0,1,4.9,34.224l5.145-2.6a1,1,0,1,1,.9,1.793l-7.2,3.633a1.4,1.4,0,0,1-.154.054A5.433,5.433,0,0,0,3,39.536c.054.743.6,1.579,1.258,1.586" transform="translate(-2.998 -6.802)" fill="#fff"/><path d="M35.556,17.334a11.873,11.873,0,0,0,6.884.6l.227-.047A5.822,5.822,0,0,1,45.6,17.8a5.684,5.684,0,0,1,2.281,1.425,3.591,3.591,0,0,0,.709.555c.274.1,1.01-.241,1.606-.515a9.536,9.536,0,0,1,2.562-.876,8.722,8.722,0,0,1,3.787.455q.251.08.5.14a16.286,16.286,0,0,0,8.557-.027l.334-.094a7.147,7.147,0,0,1,3.827-.321,6.885,6.885,0,0,1,1.9.863,5.952,5.952,0,0,0,.682.368c.8.341,1.96.194,3.552-.442.3-.12.6-.241.9-.368a13.417,13.417,0,0,1,4.737-1.318,14.223,14.223,0,0,1,2.709.241,6.058,6.058,0,0,0,2.515.094,5.979,5.979,0,0,0,.95-.435,10.052,10.052,0,0,1,1.2-.562A4.394,4.394,0,0,1,93,17.247a12.118,12.118,0,0,1,2.3-.475c.288-.04.669-.094,1.017-.161a24.753,24.753,0,0,0-3.787-2.669c-.5-.288-1.01-.549-1.525-.809-1.05,1.311-3.031,1.505-4.329,1.632a8.305,8.305,0,0,0-1.157.154,8.248,8.248,0,0,1-2.937.723,40.824,40.824,0,0,1-4.5.294A15.035,15.035,0,0,1,70.2,14.049l-.187-.107c-.094-.06-.234-.147-.335-.2-.14.08-.361.234-.522.341a7.207,7.207,0,0,1-1.565.87,6.4,6.4,0,0,1-4.335-.268,6.322,6.322,0,0,0-1.545-.375,5.74,5.74,0,0,0-1.933.5,9.994,9.994,0,0,1-2.944.729,9.992,9.992,0,0,1-3.372-.529,7.664,7.664,0,0,0-1.893-.395,9.639,9.639,0,0,0-1.131.107c-.294.04-.589.08-.89.107a16.232,16.232,0,0,1-9.62-2.622,41.927,41.927,0,0,0-3.017,3.251,12.659,12.659,0,0,0-1.351,1.88" transform="translate(-13.774 -6.122)" fill="#fff"/><path d="M52.9,7.823c.234-.02.468-.054.7-.087a11.5,11.5,0,0,1,1.746-.147,11.347,11.347,0,0,1,2.937.549,6.758,6.758,0,0,0,2.04.381,6.789,6.789,0,0,0,1.8-.5,8.867,8.867,0,0,1,3.425-.729,9.24,9.24,0,0,1,2.649.562,3.709,3.709,0,0,0,1.733.314,3.658,3.658,0,0,0,.669-.408A4.721,4.721,0,0,1,73.724,6.7a4.663,4.663,0,0,1,2.1.809l.154.094c2.77,1.652,6.563,1.4,9.895,1.044A5.229,5.229,0,0,0,87.479,8.3a4.906,4.906,0,0,1,1.458-.415,67.889,67.889,0,0,0-14.6-2.248c-1.458-.094-2.924-.174-4.389-.254-6.095-.335-12.383-.676-18.4-2.275a44.347,44.347,0,0,0-4.743,3.3,12.627,12.627,0,0,0,6.1,1.4" transform="translate(-17.495 -3.113)" fill="#fff"/></g><g transform="translate(0 0)"><path d="M3.242,38.409h.033a4.752,4.752,0,0,0,2.02-.575L17.612,32a14.5,14.5,0,0,0,.248,9.908A13.734,13.734,0,0,0,27.126,49.9a25.993,25.993,0,0,0,8.751.161,33.487,33.487,0,0,1,6.135-.207c-.241.2-.482.395-.723.589a1,1,0,0,0,.395,1.753,87.5,87.5,0,0,0,20.632,2.442,88.609,88.609,0,0,0,29.41-4.984,52.258,52.258,0,0,0,7.593-3.278,1.022,1.022,0,0,0,.375-.341,6.305,6.305,0,0,0,1.3-3.813,7.378,7.378,0,0,0-1.064-2.924L93.659,27.745c.468-7.506-4.175-15.166-11.9-19.582C74.719,4.136,66.29,3.092,58.977,2.611c-1.465-.094-2.944-.181-4.415-.261C48.434,2.022,42.1,1.674,36.164.035a.989.989,0,0,0-.776.107A45.11,45.11,0,0,0,23.593,10.13,11.9,11.9,0,0,0,21.5,13.422a6.29,6.29,0,0,0-.348,1.318,41.449,41.449,0,0,0-9.286-5.988C8.755,7.267,6.373,7.133,4.587,8.337c-2.047,1.385-2.449,4.1-2.141,6.175a22.117,22.117,0,0,0,.716,2.917,19.843,19.843,0,0,1,.662,2.683c.535,3.7-1.211,7.479-2.756,10.811A8.391,8.391,0,0,0,.011,34.957a3.577,3.577,0,0,0,3.231,3.452m-.636-6.021a1.4,1.4,0,0,0,.154-.054l7.2-3.633a1,1,0,1,0-.9-1.793L3.911,29.5a20.184,20.184,0,0,0,2.02-8.028l4.355.435a.506.506,0,0,0,.1.007,1,1,0,0,0,1-.9.992.992,0,0,0-.9-1.1l-4.75-.482a25.422,25.422,0,0,0-.649-2.576,20.3,20.3,0,0,1-.656-2.643,5.372,5.372,0,0,1,.488-3.338l5.071,3a.966.966,0,0,0,.515.14,1,1,0,0,0,.508-1.867L6.7,9.6a7.322,7.322,0,0,1,4.308.963,39.829,39.829,0,0,1,10.744,7.426.993.993,0,0,0,1.679-.569,15.974,15.974,0,0,0,8.075.395l.261-.06a3.81,3.81,0,0,1,.97-.14,3.7,3.7,0,0,1,.7.549,6.151,6.151,0,0,0,2.034,1.351,5.975,5.975,0,0,0,4.643-.649,6.257,6.257,0,0,1,1.479-.555,5.682,5.682,0,0,1,2.094.355c.187.054.368.1.555.154a20.308,20.308,0,0,0,10.664-.04l.375-.107a4.276,4.276,0,0,1,1.739-.281,4.075,4.075,0,0,1,.843.421,9.6,9.6,0,0,0,1.151.609,6.285,6.285,0,0,0,2.522.5,11.1,11.1,0,0,0,4.088-.9l.977-.4a9.893,9.893,0,0,1,3.332-1,9.721,9.721,0,0,1,1.92.194,9.412,9.412,0,0,0,4.315-.033,9.209,9.209,0,0,0,1.646-.716,8.322,8.322,0,0,1,.789-.381,1.391,1.391,0,0,1,.428-.1,2.824,2.824,0,0,0,1.311.783,2.943,2.943,0,0,0,2.107-.321,8.23,8.23,0,0,1,1.652-.335,8.68,8.68,0,0,0,3.479-1,19.728,19.728,0,0,1,2.95,5.1,57.043,57.043,0,0,1-10.972,2.9,3.848,3.848,0,0,1-.856.08c-.054-.033-.1-.067-.154-.107a4.461,4.461,0,0,0-.957-.535c-1.86-.709-3.338.448-4.221,1.131-.187.147-.375.294-.555.415a1.677,1.677,0,0,1-2.168-.562c-.749-1.378-1.733-1.987-2.93-1.813a2.75,2.75,0,0,0-1.619.9c-.134.134-.4.415-.636.622a3.344,3.344,0,0,0-1.211-.769,3.706,3.706,0,0,0-1.479-.161l-12.37.642a27.431,27.431,0,0,1-4.75-.027c-.381-.047-.763-.114-1.144-.181a15.267,15.267,0,0,0-3.051-.3,14.527,14.527,0,0,0-2.027.234,5.845,5.845,0,0,1-2.295.1,6.156,6.156,0,0,1-1.151-.542,6.128,6.128,0,0,0-3.74-1.01,6.061,6.061,0,0,0-2.255.823,6.671,6.671,0,0,1-.669.328,5.1,5.1,0,0,1-2.977-.314,8.578,8.578,0,0,0-1.07-.375,7.77,7.77,0,0,0-3.773.14,2.007,2.007,0,0,0,.917,3.907,4.534,4.534,0,0,1,1.86-.161,4.043,4.043,0,0,1,.381.14l-.007.027c.12.033.248.074.375.114.167.074.341.14.515.2a13.653,13.653,0,0,0,3.338.562,3.262,3.262,0,0,0,1.1-.154,1.87,1.87,0,0,0,.455-.248,2.215,2.215,0,0,0,.281-.08,9.764,9.764,0,0,0,1.177-.555,3.587,3.587,0,0,1,.816-.368,3.677,3.677,0,0,1,1.351.549,9.279,9.279,0,0,0,1.974.876,8.977,8.977,0,0,0,4.027,0,12.152,12.152,0,0,1,1.512-.181,11.536,11.536,0,0,1,2.248.248c.442.074.883.147,1.318.2a29.934,29.934,0,0,0,5.466.054l12.263-.636a4.014,4.014,0,0,0,1,.769,3.523,3.523,0,0,0,3.967-.629,5.644,5.644,0,0,0,2.783,1.652,5.7,5.7,0,0,0,1.458.187,5.342,5.342,0,0,0,2.9-.83c.308-.2.6-.428.85-.629.154-.12.361-.274.522-.388.147.1.294.194.442.274a5.3,5.3,0,0,0,3.392.348,61.029,61.029,0,0,0,11.346-2.964,15.312,15.312,0,0,1,.1,3.178,1.027,1.027,0,0,0,.114.562l.475.87a5.038,5.038,0,0,1-1.84.234,8.437,8.437,0,0,0-3.686.676c-.248.127-.488.274-.729.421-.127.08-.294.187-.381.227A3.617,3.617,0,0,1,85.2,30.8a4.829,4.829,0,0,0-1.86-.127,4.881,4.881,0,0,0-2,.876,3.7,3.7,0,0,1-.448.274,4.219,4.219,0,0,1-.729-.067l-.254-.033a13.584,13.584,0,0,0-5.794.475l-.435.134c-.5.161-2.02.642-2.248.428l-.06-.06a2.764,2.764,0,0,0-2.127-.923,2.67,2.67,0,0,0-1.947,1.07,2.223,2.223,0,0,0-.408-.335,2,2,0,0,0-2.348.181c-.067.054-.127.1-.181.147a2.089,2.089,0,0,0-.629-.676,2,2,0,0,0-2.221,0c-.923.6-1.967,1.238-2.649,1.09a3.787,3.787,0,0,1-.522-.181,6.947,6.947,0,0,0-1.171-.368,7.132,7.132,0,0,0-3.191.214,6.139,6.139,0,0,1-1.3.214,5.961,5.961,0,0,1-1.425-.314,8.6,8.6,0,0,0-2.73-.482,8.517,8.517,0,0,0-3.071.8c-.281.114-.555.227-.83.321a6.539,6.539,0,0,1-4.81-.261c-.2-.094-.4-.2-.6-.308a7.768,7.768,0,0,0-2.636-.977,7.871,7.871,0,0,0-4.616,1.144c-.214.107-.421.207-.636.308-3.271,1.525-8.329,1.418-12.276,1.258a13.585,13.585,0,0,1,1.392-4.195,1,1,0,0,0-1.318-1.371L4.44,36.021a2.611,2.611,0,0,1-1.171.381c-.656-.007-1.2-.843-1.258-1.586a5.433,5.433,0,0,1,.6-2.428M54.455,4.357c1.465.08,2.93.161,4.389.254a67.889,67.889,0,0,1,14.6,2.248,4.906,4.906,0,0,0-1.458.415,5.229,5.229,0,0,1-1.606.341c-3.332.361-7.125.609-9.895-1.044l-.154-.094a4.663,4.663,0,0,0-2.1-.809,4.721,4.721,0,0,0-3.124,1.064,3.658,3.658,0,0,1-.669.408,3.709,3.709,0,0,1-1.733-.314,9.24,9.24,0,0,0-2.649-.562,8.867,8.867,0,0,0-3.425.729,6.789,6.789,0,0,1-1.8.5,6.758,6.758,0,0,1-2.04-.381,11.347,11.347,0,0,0-2.937-.549,11.5,11.5,0,0,0-1.746.147c-.234.033-.468.067-.7.087a12.627,12.627,0,0,1-6.1-1.4,44.346,44.346,0,0,1,4.743-3.3c6.021,1.6,12.31,1.94,18.4,2.275M37.776,10.786c.3-.027.6-.067.89-.107a9.639,9.639,0,0,1,1.131-.107,7.664,7.664,0,0,1,1.893.395,9.992,9.992,0,0,0,3.372.529,9.994,9.994,0,0,0,2.944-.729,5.74,5.74,0,0,1,1.933-.5,6.322,6.322,0,0,1,1.545.375,6.4,6.4,0,0,0,4.335.268,7.207,7.207,0,0,0,1.565-.87c.161-.107.381-.261.522-.341.1.054.241.14.335.2l.187.107A15.036,15.036,0,0,0,66.316,11.9a40.823,40.823,0,0,0,4.5-.294,8.248,8.248,0,0,0,2.937-.723,8.306,8.306,0,0,1,1.157-.154c1.3-.127,3.278-.321,4.328-1.632.515.261,1.024.522,1.525.809a24.753,24.753,0,0,1,3.787,2.669c-.348.067-.729.12-1.017.161a12.118,12.118,0,0,0-2.3.475,4.394,4.394,0,0,0-4.088-.268,10.056,10.056,0,0,0-1.2.562,5.978,5.978,0,0,1-.95.435,6.058,6.058,0,0,1-2.516-.094,14.223,14.223,0,0,0-2.709-.241,13.417,13.417,0,0,0-4.737,1.318c-.3.127-.6.248-.9.368-1.592.636-2.756.783-3.552.442a5.954,5.954,0,0,1-.682-.368A6.885,6.885,0,0,0,58,14.5a7.147,7.147,0,0,0-3.827.321l-.335.094a16.286,16.286,0,0,1-8.557.027q-.251-.06-.5-.14a8.722,8.722,0,0,0-3.787-.455,9.536,9.536,0,0,0-2.562.876c-.6.274-1.331.615-1.606.515a3.592,3.592,0,0,1-.709-.555,5.684,5.684,0,0,0-2.281-1.425,5.822,5.822,0,0,0-2.937.087l-.227.047a11.873,11.873,0,0,1-6.884-.6,12.659,12.659,0,0,1,1.351-1.88,41.927,41.927,0,0,1,3.017-3.251,16.232,16.232,0,0,0,9.62,2.623M98.135,44.731a51.267,51.267,0,0,1-7.078,3.024,86.983,86.983,0,0,1-46.951,2.937c.294-.268.569-.535.83-.816a1,1,0,0,0-.5-1.652,25.953,25.953,0,0,0-8.744-.161,24.176,24.176,0,0,1-8.082-.114,11.426,11.426,0,0,1-4.4-2.2,1.534,1.534,0,0,1,.95-.087,9.119,9.119,0,0,1,1.626.529c.348.14.7.274,1.05.395a13.067,13.067,0,0,0,9.032-.3l.181-.074a4.366,4.366,0,0,1,.468-.181,2.459,2.459,0,0,1,.248.074,5.812,5.812,0,0,0,.642.187,4.671,4.671,0,0,0,4.228-1.211c3.92.381,7.734-.515,11.433-1.378.636-.147,1.271-.294,1.9-.442a3.629,3.629,0,0,1,1.2-.14,3.331,3.331,0,0,1,.676.314,6.335,6.335,0,0,0,1.82.709,6.223,6.223,0,0,0,3.2-.408,4.673,4.673,0,0,1,1.164-.294,4.715,4.715,0,0,1,1.057.254c.241.074.482.147.729.214a9.211,9.211,0,0,0,5.887-.428A3.967,3.967,0,0,0,74.017,44a7.738,7.738,0,0,0,1.6-.729,3.942,3.942,0,0,1,.856-.408,3.987,3.987,0,0,1,.943.074l.181.027a23.634,23.634,0,0,0,8.4-.355,4.4,4.4,0,0,0,2.542,1.318,3.769,3.769,0,0,0,.475.027,3.5,3.5,0,0,0,2.944-1.525c.261.08.549.161.843.221a7.368,7.368,0,0,1,1.485.542,7.559,7.559,0,0,0,4.248.843c-.114.214-.241.448-.395.7M19.72,41.145a11.369,11.369,0,0,1-.7-2.5c1.144.047,2.375.087,3.639.087,3.532,0,7.352-.321,10.356-1.726.241-.107.475-.227.716-.341a4.744,4.744,0,0,1,2.3-.763,4.613,4.613,0,0,1,1.3.549c.254.134.508.261.763.388a10.536,10.536,0,0,0,7.827.428c.348-.12.7-.261,1.044-.408a5.586,5.586,0,0,1,1.652-.5,5.442,5.442,0,0,1,1.479.314,9.035,9.035,0,0,0,2.522.482,9.079,9.079,0,0,0,2.268-.321,4.286,4.286,0,0,1,1.465-.194,4.151,4.151,0,0,1,.529.181,7.229,7.229,0,0,0,1.111.361,6.014,6.014,0,0,0,3.994-.636,3.479,3.479,0,0,0,2,.609,4.049,4.049,0,0,0,1.271-.241,3.277,3.277,0,0,0,2.161.475,4.026,4.026,0,0,0,2.141-1.057c1.793.957,3.874.294,5.325-.167l.408-.127a9.618,9.618,0,0,1,4.068-.334l.221.033A5.607,5.607,0,0,0,82,35.68,5.41,5.41,0,0,0,83.55,34.9c.127-.08.3-.2.4-.248.094.013.261.047.388.074a4.838,4.838,0,0,0,1.86.134,4.968,4.968,0,0,0,1.907-.809,4.339,4.339,0,0,1,.381-.221,5.642,5.642,0,0,1,2-.261,7.912,7.912,0,0,0,3.653-.723l3.914,7.2a3.64,3.64,0,0,1-2.148-.522,11.055,11.055,0,0,0-2.321-.81,6.618,6.618,0,0,1-1.017-.314c-.314-.114-.669-.234-1.044-.334-.033-.04-.06-.087-.094-.127-1.378-1.592-4.014-2.342-5.867-.769a2.168,2.168,0,0,0-.756,1.6,19.487,19.487,0,0,1-6.65.227l-.167-.027a6.837,6.837,0,0,0-2.241-.047,6.761,6.761,0,0,0-2.094.85c-.154.087-.308.174-.448.248a2,2,0,0,0-3.031-.816,5.214,5.214,0,0,1-4.335.83c-.187-.047-.368-.107-.549-.167a7.748,7.748,0,0,0-2.248-.435h-.013a7.564,7.564,0,0,0-2.422.5,3.567,3.567,0,0,1-1.2.274,3.427,3.427,0,0,1-.682-.308,6.5,6.5,0,0,0-1.639-.676,6.627,6.627,0,0,0-3,.134c-.642.14-1.291.294-1.94.448-3.867.9-7.526,1.759-11.079,1.164a2.029,2.029,0,0,0-2.141,1.117.659.659,0,0,1-.622.308c-.1-.027-.194-.06-.288-.087a4.8,4.8,0,0,0-1.311-.288,4.9,4.9,0,0,0-2.228.5l-.147.067a8.974,8.974,0,0,1-6.208.207c-.3-.1-.589-.214-.883-.328a12.225,12.225,0,0,0-2.388-.749,5.186,5.186,0,0,0-4.315,1.03,10.824,10.824,0,0,1-.816-1.592m68.627-.609a.711.711,0,0,1-.234.12v-.1Z" transform="translate(0 0.001)" fill="#14b4f0"/><path d="M84.311,70.269c-2.014-.127-4.054-.2-6.068-.227a10.9,10.9,0,0,0-4.442.615,1,1,0,0,0,.388,1.927,1.008,1.008,0,0,0,.388-.08,9.246,9.246,0,0,1,3.646-.455c1.974.027,3.981.1,5.961.227a1.006,1.006,0,1,0,.127-2.007" transform="translate(-24.223 -23.182)" fill="#14b4f0"/></g></g></svg>