<svg xmlns="http://www.w3.org/2000/svg" width="250.309" height="22.74" viewBox="0 0 250.309 22.74"><text transform="translate(0 15.37)" fill="#1b4278" font-size="12" font-family="HiraginoSans-W3, Hiragino Sans"><tspan x="0" y="0">Powerd by</tspan></text><g transform="translate(73)"><path d="M73.666,20.283c0,3.4-2.094,5.333-5.441,5.333H63.03V6.574h4.842a4.662,4.662,0,0,1,5.059,5.061c0,2.067-.842,3.563-2.148,4.162C72.577,16.367,73.666,18,73.666,20.283ZM65.26,8.67v6.173h2.5c1.932,0,2.883-1.087,2.883-3.154S69.7,8.67,67.708,8.67Zm6.148,11.613c0-2.2-1.415-3.345-3.563-3.345H65.26v6.585h2.775C70.293,23.522,71.408,22.516,71.408,20.283Z" transform="translate(-21.121 -4.494)" fill="#1b4278"/><path d="M86.532,6.574V25.616H84.3V6.574Z" transform="translate(-28.249 -4.494)" fill="#1b4278"/><path d="M102.614,8.67H98.535V25.616H96.276V8.67H92.2v-2.1h10.419Z" transform="translate(-30.894 -4.494)" fill="#1b4278"/><path d="M116.539,17.863l-1.17,1.823v5.93h-3.292V6.574h3.292v7.808l1.115-2.231,3.183-5.577h3.862l-5.113,8.3,5.929,10.743h-3.807Z" transform="translate(-37.556 -4.494)" fill="#1b4278"/><path d="M145.23,6.574V25.616h-3.321l-3.67-8.269c-.572-1.5-1.253-3.237-1.769-4.652l-.08.082c.245,2.148.409,5.384.409,7.37v5.468h-3.292V6.574h3.318l3.971,8.95c.488,1.223,1.061,2.72,1.524,3.889l.08-.081a66.357,66.357,0,0,1-.462-6.962v-5.8Z" transform="translate(-44.737 -4.494)" fill="#1b4278"/><path d="M188.751,9.758h-3.837V25.616h-3.428V9.758h-3.835V6.574h11.1Z" transform="translate(-59.53 -4.494)" fill="#1b4278"/><g transform="translate(102.148 1.754)"><path d="M163.738,25.146c0,2.067-.844,3.209-2.529,3.209s-2.557-1.142-2.557-3.209V23.435h-5.024v3.278h1.7a5.5,5.5,0,0,0,5.886,4.88c3.754,0,5.983-2.421,5.983-6.448V23.435h-3.454Z" transform="translate(-153.628 -11.898)" fill="#1b4278"/><path d="M167.875,11.063A5.5,5.5,0,0,0,162,6.084c-3.783,0-6.013,2.422-6.013,6.446v1.812h3.456V12.53c0-2.067.87-3.209,2.557-3.209s2.529,1.142,2.529,3.209v1.812h5.155V11.063Z" transform="translate(-154.418 -6.084)" fill="#1b4278"/></g><path d="M203.608,9.416a9.774,9.774,0,0,0,3.639-1.483l.665.942c-.058.023-.308.142-.749.358a14.124,14.124,0,0,1-3.555,1.15v1.1a.576.576,0,0,0-.008.108c0,.483.033.674.15.791.142.149.616.215,1.424.215a15.833,15.833,0,0,0,1.93-.132,4.771,4.771,0,0,0,.949-.2l.051,1.108c-.176,0-.217.009-1.1.092-.491.049-1.539.1-2.047.1a3.332,3.332,0,0,1-1.948-.358,1.154,1.154,0,0,1-.408-.848,6.3,6.3,0,0,1-.025-.768l-.007-3.86a4.179,4.179,0,0,0-.035-.768h1.116a4.227,4.227,0,0,0-.043.775Zm3.955-2.847a5.3,5.3,0,0,1,.832,1.265l-.6.274a5.324,5.324,0,0,0-.824-1.273Zm1.248,1.057a6.225,6.225,0,0,0-.8-1.24l.574-.267a4.941,4.941,0,0,1,.815,1.207Z" transform="translate(-67.868 -4.342)" fill="#1b4278"/><path d="M215.062,9.7a9.617,9.617,0,0,1,.816,1.973l-.941.3a8.231,8.231,0,0,0-.758-2.014Zm4.777.059a1.783,1.783,0,0,0-.115.425,7.091,7.091,0,0,1-1.15,2.772,6.394,6.394,0,0,1-2.537,2.007,3.035,3.035,0,0,0-.668-.826,5.373,5.373,0,0,0,1.417-.765,4.78,4.78,0,0,0,1.888-2.887,3.688,3.688,0,0,0,.15-.957Zm-3-.4a8.159,8.159,0,0,1,.808,1.914l-.924.292a9.149,9.149,0,0,0-.757-1.956Z" transform="translate(-71.77 -5.429)" fill="#1b4278"/><path d="M226.263,14.05a5.6,5.6,0,0,0,.051-.934V7.782a5.291,5.291,0,0,0-.051-.85h1.14a5.493,5.493,0,0,0-.034.874V9.355a24.468,24.468,0,0,1,3.779,1.755l-.582.983a19.908,19.908,0,0,0-2.945-1.59,2.356,2.356,0,0,1-.285-.142,4.293,4.293,0,0,1,.033.568v2.2a9.246,9.246,0,0,0,.034.924Z" transform="translate(-75.82 -4.614)" fill="#1b4278"/><path d="M242.252,7.587a4.721,4.721,0,0,0-.291.715,10.2,10.2,0,0,1-2.248,3.622,10.357,10.357,0,0,1-2.88,2,3.54,3.54,0,0,0-.741-1.008,7.731,7.731,0,0,0,4.178-3.6A7.346,7.346,0,0,0,241.1,7.2Z" transform="translate(-79.114 -4.702)" fill="#1b4278"/><path d="M248.368,9.7a9.616,9.616,0,0,1,.816,1.973l-.941.3a8.257,8.257,0,0,0-.757-2.014Zm4.778.059a1.769,1.769,0,0,0-.116.425,7.132,7.132,0,0,1-1.148,2.772,6.419,6.419,0,0,1-2.539,2.007,3.029,3.029,0,0,0-.666-.826,5.32,5.32,0,0,0,1.415-.765,4.771,4.771,0,0,0,1.89-2.887,3.717,3.717,0,0,0,.15-.957Zm-3-.4a8.062,8.062,0,0,1,.806,1.914l-.924.292a9.066,9.066,0,0,0-.755-1.956Z" transform="translate(-82.931 -5.429)" fill="#1b4278"/><path d="M259.318,14.05a5.617,5.617,0,0,0,.05-.934V7.782a5.383,5.383,0,0,0-.05-.85h1.141a5.718,5.718,0,0,0-.033.874V9.355A24.453,24.453,0,0,1,264.2,11.11l-.582.983a19.834,19.834,0,0,0-2.946-1.59,2.271,2.271,0,0,1-.283-.142,4.813,4.813,0,0,1,.033.568v2.2a8.749,8.749,0,0,0,.033.924Z" transform="translate(-86.896 -4.614)" fill="#1b4278"/><path d="M207.611,26.9h1.232a6.585,6.585,0,0,0,.891-.051v.941c-.275-.026-.54-.042-.9-.042H207.9a5.436,5.436,0,0,0,2.074,2.072,2.149,2.149,0,0,0-.582.868,5.353,5.353,0,0,1-.934-.875,5.935,5.935,0,0,1-.89-1.273c.025.282.033.582.033.824v1.048a7.61,7.61,0,0,0,.049.965h-.957a7.443,7.443,0,0,0,.05-.965v-.991c0-.231.009-.532.036-.858a5.969,5.969,0,0,1-1.973,2.157,3.7,3.7,0,0,0-.518-.791,5.431,5.431,0,0,0,2.124-2.18h-.55a7.157,7.157,0,0,0-.907.049v-.34a2.606,2.606,0,0,0-.356.7,4.766,4.766,0,0,1-.508-1.041c.017.275.033.732.033,1.1v2.131a8.177,8.177,0,0,0,.05,1.024h-.965a8.669,8.669,0,0,0,.049-1.024v-1.79a9.391,9.391,0,0,1,.061-1.074,6.578,6.578,0,0,1-.875,1.963,3.068,3.068,0,0,0-.382-.923A7.667,7.667,0,0,0,203.174,26h-.332a2.569,2.569,0,0,0-.558.042v-.9a2.44,2.44,0,0,0,.558.042h.414v-.674a5.255,5.255,0,0,0-.049-.858h.957a6.966,6.966,0,0,0-.042.858v.674h.249a2.275,2.275,0,0,0,.45-.034v.826a5.337,5.337,0,0,0,.631-2.024l.85.217a4.158,4.158,0,0,0-.125.449c-.051.191-.067.25-.108.409h.673v-.576a4.648,4.648,0,0,0-.05-.789h.966a4.946,4.946,0,0,0-.05.789v.576h.983a6.04,6.04,0,0,0,.891-.051V25.9a6.455,6.455,0,0,0-.891-.051h-.983ZM205.8,25.845a5.385,5.385,0,0,1-.466.925,3.062,3.062,0,0,0-.682-.541,2.283,2.283,0,0,0,.138-.2,2.929,2.929,0,0,0-.4-.026h-.209a5.622,5.622,0,0,0,.782,1.316v-.475a6.7,6.7,0,0,0,.907.051h.882V25.845Z" transform="translate(-67.709 -10.218)" fill="#1b4278"/><path d="M226.514,25.164a4.017,4.017,0,0,0,.807-.049v.932a7.626,7.626,0,0,0-.974-.048h-1.215a9.427,9.427,0,0,0,.584,3.2,2.7,2.7,0,0,0,.5.824.6.6,0,0,0,.191.15c.1,0,.2-.4.309-1.265a3.555,3.555,0,0,0,.789.463,3.835,3.835,0,0,1-.474,1.567.715.715,0,0,1-.574.348,1.717,1.717,0,0,1-1.107-.805,6.089,6.089,0,0,1-.924-2.507,13.166,13.166,0,0,1-.2-1.979H220.9a9.09,9.09,0,0,0-.975.048v-.932a7.817,7.817,0,0,0,.975.049h3.3c-.026-.432-.026-.432-.026-.682a4.718,4.718,0,0,0-.049-.648h1.006a5.918,5.918,0,0,0-.033.674c0,.142,0,.383.009.656h.982a5.206,5.206,0,0,0-.791-.983l.725-.339a7.327,7.327,0,0,1,.822.941l-.672.381Zm-5.452,2.665c-.316,0-.606.016-.841.04v-.881a7.3,7.3,0,0,0,.858.043h2.015a6.923,6.923,0,0,0,.838-.043v.881c-.241-.024-.515-.04-.83-.04h-.575v1.89c.584-.117.908-.184,1.706-.386v.851c-1.406.34-2.723.607-3.835.775-.076.017-.168.033-.309.056l-.15-.94a11.9,11.9,0,0,0,1.676-.19V27.829Z" transform="translate(-73.695 -10.278)" fill="#1b4278"/><path d="M239.079,26.409a7.8,7.8,0,0,1-1.333.715,3.79,3.79,0,0,0-.482-.848,7.825,7.825,0,0,0,2.089-1.158,5.5,5.5,0,0,0,1.315-1.4h.991a5.09,5.09,0,0,0,1.406,1.382,8.875,8.875,0,0,0,2.14,1.123,3.779,3.779,0,0,0-.459.933,8.911,8.911,0,0,1-1.422-.759v.65a6.451,6.451,0,0,0-.749-.033h-2.78a6.746,6.746,0,0,0-.715.033Zm-.459,2.148a8.276,8.276,0,0,0-.983.048v-.966a8.152,8.152,0,0,0,.983.052h5.185a7.769,7.769,0,0,0,.973-.052V28.6a8.189,8.189,0,0,0-.973-.048h-2.862a9.18,9.18,0,0,1-.865,1.615c1.473-.084,1.473-.084,2.639-.21-.267-.29-.409-.44-.875-.923l.822-.366a16.741,16.741,0,0,1,1.923,2.222l-.8.525c-.275-.409-.356-.525-.5-.725-.691.092-1.19.151-1.5.184-.824.076-2.473.225-2.807.25a9.646,9.646,0,0,0-1.073.117l-.134-1.016c.223.016.366.025.483.025.059,0,.309-.009.733-.032a8.791,8.791,0,0,0,.891-1.666Zm3.945-2.406c.134,0,.209,0,.366-.009a6.783,6.783,0,0,1-1.739-1.614,7.118,7.118,0,0,1-1.732,1.614c.142.009.191.009.343.009Z" transform="translate(-79.506 -10.24)" fill="#1b4278"/><path d="M257.29,30.49a5.54,5.54,0,0,0,.043.85h-1.01a4.9,4.9,0,0,0,.05-.866V28.385a5.752,5.752,0,0,1-.924.708,3.166,3.166,0,0,0-.424-.867,5.783,5.783,0,0,0,1.433-1.124,5.007,5.007,0,0,0,.906-1.281h-1.358a5.71,5.71,0,0,0-.7.033v-.924a5.458,5.458,0,0,0,.66.033h.416v-.7a3.829,3.829,0,0,0-.05-.634h1.007a3.55,3.55,0,0,0-.049.65v.682h.342a3.325,3.325,0,0,0,.482-.025l.4.432a2.511,2.511,0,0,0-.185.352,6.807,6.807,0,0,1-.831,1.421,4.941,4.941,0,0,0,1.323,1.059,3.549,3.549,0,0,0-.456.815,4.584,4.584,0,0,1-1.074-.94Zm3.529-.39h1a7.02,7.02,0,0,0,.948-.05v1.007a6.986,6.986,0,0,0-.948-.059h-2.848a6.912,6.912,0,0,0-.942.059V30.05a7.46,7.46,0,0,0,.959.05h.907V26.845h-.625c-.282,0-.549.016-.815.042v-.94a5.829,5.829,0,0,0,.815.041h.625V24.523a5.86,5.86,0,0,0-.058-.866h1.041a4.813,4.813,0,0,0-.059.866v1.465h.88a5.621,5.621,0,0,0,.818-.041v.94a8.169,8.169,0,0,0-.818-.042h-.88Z" transform="translate(-85.458 -10.21)" fill="#1b4278"/><path d="M16.509,20.143h3.306v3.306Z" transform="translate(-5.532 -9.041)" fill="#1b4278"/><path d="M24.787,20.143H21.481V23.45Z" transform="translate(-7.198 -9.041)" fill="#9dcfe5"/><path d="M16.509,18.477h3.306V15.17Z" transform="translate(-5.532 -7.375)" fill="#4ea8d2"/><path d="M24.787,18.477H21.481V15.171Z" transform="translate(-7.198 -7.375)" fill="#306e9d"/><path d="M21.481,15.171h3.306v3.306Z" transform="translate(-7.198 -7.375)" fill="#1b4278"/><path d="M29.76,15.171H26.454v3.306Z" transform="translate(-8.864 -7.375)" fill="#9dcfe5"/><path d="M21.481,13.5h3.306V10.2Z" transform="translate(-7.198 -5.708)" fill="#4ea8d2"/><path d="M29.76,13.5H26.454V10.2Z" transform="translate(-8.864 -5.708)" fill="#306e9d"/><path d="M26.454,10.2H29.76V13.5Z" transform="translate(-8.864 -5.708)" fill="#1b4278"/><path d="M34.733,10.2H31.426V13.5Z" transform="translate(-10.531 -5.708)" fill="#306e9d"/><path d="M26.454,8.532H29.76V5.226Z" transform="translate(-8.864 -4.042)" fill="#9dcfe5"/><path d="M34.733,8.532H31.426V5.226Z" transform="translate(-10.531 -4.042)" fill="#4ea8d2"/><path d="M34.11,6.814V3.507H30.8Z" transform="translate(-10.322 -3.466)" fill="#306e9d"/><path d="M36.4,8.532V5.226h3.306Z" transform="translate(-12.197 -4.042)" fill="#9dcfe5"/><path d="M37.195,9.328H40.5V6.021Z" transform="translate(-12.464 -4.309)" fill="#4ea8d2"/><path d="M37.195,10.994H40.5V14.3Z" transform="translate(-12.464 -5.975)" fill="#1b4278"/><path d="M45.473,9.328H42.167V6.021Z" transform="translate(-14.13 -4.309)" fill="#306e9d"/><path d="M45.473,10.994H42.167V14.3Z" transform="translate(-14.13 -5.975)" fill="#9dcfe5"/><path d="M42.167,14.3h3.307V10.994Z" transform="translate(-14.13 -5.975)" fill="#4ea8d2"/><path d="M42.167,15.966h3.307v3.306Z" transform="translate(-14.13 -7.641)" fill="#1b4278"/><path d="M51.241,13.5H47.935V10.2Z" transform="translate(-16.063 -5.708)" fill="#306e9d"/><path d="M50.446,15.966H47.14v3.306Z" transform="translate(-15.796 -7.641)" fill="#9dcfe5"/><path d="M47.935,20.068h3.306V16.763Z" transform="translate(-16.063 -7.908)" fill="#4ea8d2"/><path d="M47.935,21.734h3.306v3.306Z" transform="translate(-16.063 -9.574)" fill="#1b4278"/><path d="M51.241,25.041H47.935V21.734Z" transform="translate(-16.063 -9.574)" fill="#306e9d"/><path d="M42.963,25.041h3.306V21.734Z" transform="translate(-14.397 -9.574)" fill="#4ea8d2"/><path d="M52.226,27.691H48.919V31Z" transform="translate(-16.393 -11.57)" fill="#9dcfe5"/><path d="M42.963,26.707h3.306v3.306Z" transform="translate(-14.397 -11.241)" fill="#1b4278"/><path d="M46.269,30.013H42.963V26.707Z" transform="translate(-14.397 -11.241)" fill="#306e9d"/><path d="M37.991,30.013H41.3V26.707Z" transform="translate(-12.73 -11.241)" fill="#9dcfe5"/><path d="M46.269,31.68H42.962v3.306Z" transform="translate(-14.396 -12.907)" fill="#4ea8d2"/><path d="M37.991,31.68H41.3v3.306Z" transform="translate(-12.73 -12.907)" fill="#306e9d"/><path d="M41.3,34.986H37.991V31.68Z" transform="translate(-12.73 -12.907)" fill="#1b4278"/><path d="M33.018,34.986h3.306V31.68Z" transform="translate(-11.064 -12.907)" fill="#4ea8d2"/><path d="M36.324,31.68H33.018v3.306Z" transform="translate(-11.064 -12.907)" fill="#9dcfe5"/><path d="M36.324,30.013H33.018V26.707Z" transform="translate(-11.064 -11.241)" fill="#306e9d"/><path d="M28.045,31.68h3.306v3.306Z" transform="translate(-9.398 -12.907)" fill="#1b4278"/><path d="M28.045,30.013h3.306V26.707Z" transform="translate(-9.398 -11.241)" fill="#4ea8d2"/><path d="M35.529,19.273H32.222V15.967Z" transform="translate(-10.797 -7.642)" fill="#306e9d"/><path d="M35.529,20.94H32.222v3.306Z" transform="translate(-10.797 -9.308)" fill="#9dcfe5"/><path d="M27.25,19.273h3.306V15.967Z" transform="translate(-9.131 -7.642)" fill="#4ea8d2"/><path d="M27.25,20.939h3.306v3.306Z" transform="translate(-9.131 -9.308)" fill="#1b4278"/><path d="M30.556,24.246H27.25V20.939Z" transform="translate(-9.131 -9.308)" fill="#306e9d"/><path d="M22.277,24.246h3.306V20.939Z" transform="translate(-7.465 -9.308)" fill="#4ea8d2"/><path d="M30.556,25.912H27.25v3.306Z" transform="translate(-9.131 -10.974)" fill="#1b4278"/><path d="M22.277,25.912h3.306v3.306Z" transform="translate(-7.465 -10.974)" fill="#9dcfe5"/><path d="M25.583,29.218H22.277V25.912Z" transform="translate(-7.465 -10.974)" fill="#306e9d"/><path d="M17.3,29.218h3.307V25.912Z" transform="translate(-5.799 -10.974)" fill="#4ea8d2"/><path d="M25.583,30.885H22.277V34.19Z" transform="translate(-7.465 -12.64)" fill="#9dcfe5"/><path d="M17.3,30.885h3.307V34.19Z" transform="translate(-5.799 -12.64)" fill="#1b4278"/><path d="M21.207,35.98H17.9V32.674Z" transform="translate(-5.998 -13.24)" fill="#306e9d"/><path d="M12.332,34.19h3.306V30.884Z" transform="translate(-4.132 -12.64)" fill="#4ea8d2"/><path d="M14.843,30.088H11.537v3.306Z" transform="translate(-3.866 -12.373)" fill="#9dcfe5"/><path d="M14.843,28.422H11.537V25.116Z" transform="translate(-3.866 -10.707)" fill="#306e9d"/><path d="M6.564,30.088H9.87v3.306Z" transform="translate(-2.2 -12.373)" fill="#1b4278"/><path d="M6.564,28.422H9.87V25.116Z" transform="translate(-2.2 -10.707)" fill="#4ea8d2"/><path d="M9.87,25.116H6.564v3.306Z" transform="translate(-2.2 -10.707)" fill="#9dcfe5"/><path d="M9.87,23.45H6.564V20.143Z" transform="translate(-2.2 -9.041)" fill="#306e9d"/><path d="M.6,26.11H3.9v3.306Z" transform="translate(-0.2 -11.041)" fill="#1b4278"/><path d="M1.591,23.45H4.9V20.143Z" transform="translate(-0.533 -9.041)" fill="#4ea8d2"/><path d="M4.1,19.348H.8v3.306Z" transform="translate(-0.267 -8.774)" fill="#9dcfe5"/><path d="M4.1,17.682H.8V14.375Z" transform="translate(-0.267 -7.108)" fill="#306e9d"/><path d="M.8,14.375H4.1v3.306Z" transform="translate(-0.267 -7.108)" fill="#1b4278"/><path d="M9.074,14.375H5.768v3.306Z" transform="translate(-1.933 -7.108)" fill="#9dcfe5"/><path d="M0,11.913H3.306V8.607Z" transform="translate(0 -5.175)" fill="#4ea8d2"/><path d="M9.074,12.709H5.768V9.4Z" transform="translate(-1.933 -5.442)" fill="#306e9d"/><path d="M5.768,9.4H9.074v3.307Z" transform="translate(-1.933 -5.442)" fill="#1b4278"/><path d="M14.047,9.4H10.741v3.307Z" transform="translate(-3.599 -5.442)" fill="#9dcfe5"/><path d="M5.768,7.736H9.074V4.43Z" transform="translate(-1.933 -3.776)" fill="#4ea8d2"/><path d="M14.047,7.736H10.741V4.43Z" transform="translate(-3.599 -3.776)" fill="#306e9d"/><path d="M14.047,7.736V4.43H10.741Z" transform="translate(-3.599 -3.775)" fill="#9dcfe5"/><path d="M15.713,7.736V4.43h3.306Z" transform="translate(-5.265 -3.776)" fill="#306e9d"/><path d="M15.713,7.736h3.306V4.43Z" transform="translate(-5.265 -3.776)" fill="#4ea8d2"/><path d="M15.713,9.4h3.306v3.307Z" transform="translate(-5.265 -5.442)" fill="#1b4278"/><path d="M24.976,6.752H21.67V3.446Z" transform="translate(-7.261 -3.446)" fill="#9dcfe5"/><path d="M23.992,9.4H20.685v3.307Z" transform="translate(-6.932 -5.442)" fill="#306e9d"/></g></svg>