<svg id="_03" data-name="03" xmlns="http://www.w3.org/2000/svg" viewBox="0 0 140.12 46.9"><defs><style>.cls-1{fill:#231815;}</style></defs><path class="cls-1" d="M5.09,12.31c-.19.4-.39.83-.6,1.3a13.11,13.11,0,0,0-.58,1.44,11.59,11.59,0,0,0-.4,1.51,4.75,4.75,0,0,0-.06,1.5,2,2,0,0,1-.52.09,5,5,0,0,1-.55,0,2,2,0,0,1-.58-.08,1,1,0,0,1-.58-.26A.87.87,0,0,1,1,17.3a1.62,1.62,0,0,1,.07-.63A4.43,4.43,0,0,1,1.4,16l1.54-3.11c.78-1.57,1.71-3.74,2.77-6.52.18-.48.34-.91.48-1.27s.26-.68.36-.93A4.89,4.89,0,0,1,6,3.5a3.5,3.5,0,0,1-.41-.63A2.43,2.43,0,0,1,6,2.49c.27-.21.58-.43.92-.65a9.86,9.86,0,0,1,1-.59,1.42,1.42,0,0,1,.77-.2A.59.59,0,0,1,9,1.22a3.18,3.18,0,0,1,.3.33,1.33,1.33,0,0,1,.23.37.59.59,0,0,1,0,.31Z" transform="translate(-1 -1.04)"/><path class="cls-1" d="M10.88,17.12a.71.71,0,0,0,.29.13,1,1,0,0,0,.38,0,1.56,1.56,0,0,0,.39-.15.86.86,0,0,0,.3-.3,1.25,1.25,0,0,0,.11-.61,7.82,7.82,0,0,0-.09-.9c-.06-.32-.12-.65-.2-1s-.13-.64-.18-.91-.07-.4-.1-.57,0-.3-.07-.45,0-.24-.05-.3l-.43.45-.65.63q-.35.33-.66.6l-.42.38a.58.58,0,0,1-.34.15.26.26,0,0,1-.23-.1.39.39,0,0,1-.06-.27.65.65,0,0,1,.21-.37l.44-.44.59-.61.53-.56a2.11,2.11,0,0,0,.28-.31.59.59,0,0,0,0-.42.69.69,0,0,1,.06-.59A1.94,1.94,0,0,1,11.4,10a3.74,3.74,0,0,1,.75-.53A3.12,3.12,0,0,1,13,9.19a.85.85,0,0,1,.69.14,1.63,1.63,0,0,1,.35.41.45.45,0,0,1,.05.4l-.16.23a3.74,3.74,0,0,1-.3.33c-.13.13-.31.3-.54.5a4.62,4.62,0,0,0,0,.84c0,.25.06.48.09.67s.09.45.14.65.16.51.25.78.15.53.22.78.1.5.13.72a1.13,1.13,0,0,1,0,.53,2.51,2.51,0,0,1-.48.73,5.4,5.4,0,0,1-.86.78,4.67,4.67,0,0,1-1.08.58,2.24,2.24,0,0,1-1.17.11A1.48,1.48,0,0,1,9.56,18a2.7,2.7,0,0,1-.53-.7,3,3,0,0,1-.27-.74A.63.63,0,0,1,8.82,16a3.87,3.87,0,0,1,.28-.33,2.31,2.31,0,0,1,.34-.25l.22-.11a1.45,1.45,0,0,1,.29-.06l.43-.07c.06.42.12.76.18,1l.16.58A1.69,1.69,0,0,0,10.88,17.12Z" transform="translate(-1 -1.04)"/><path class="cls-1" d="M24.29,13.74a.41.41,0,0,1,.23-.11.26.26,0,0,1,.2.07.28.28,0,0,1,.05.21.73.73,0,0,1-.17.35,13.22,13.22,0,0,1-1.29,1.4A20.17,20.17,0,0,1,21.7,17a11.1,11.1,0,0,1-1.57,1,2.14,2.14,0,0,1-1.19.29,2.08,2.08,0,0,1-1-.44,2,2,0,0,1-.56-.74,2.51,2.51,0,0,1-.2-.86,2.68,2.68,0,0,1,.09-.82c0-.2.16-.56.33-1.08s.38-1.13.63-1.81l.84-2.19c.3-.77.61-1.52.92-2.24l-.67,0A5.48,5.48,0,0,1,18.69,8a5.05,5.05,0,0,1-1.14-.35,5.16,5.16,0,0,1-.77-.43.21.21,0,0,1-.1-.25.81.81,0,0,1,.17-.27,1.1,1.1,0,0,1,.28-.2.48.48,0,0,1,.28-.07l.79.21c.28.07.59.13.92.18l.72.06c.23,0,.46,0,.68,0q.42-.88.78-1.53a4.2,4.2,0,0,1,.61-.88.57.57,0,0,1,.29-.12,3.24,3.24,0,0,1,.45,0,1.91,1.91,0,0,1,.44.08.5.5,0,0,1,.29.2,2.09,2.09,0,0,1-.06.81,11.87,11.87,0,0,1-.5,1.59,10.25,10.25,0,0,1,1.42.34c.41.13.76.26,1,.38a7.08,7.08,0,0,1,.68.34l.38.22a.18.18,0,0,1,.11.22.83.83,0,0,1-.11.31.78.78,0,0,1-.27.24.41.41,0,0,1-.36,0A2.47,2.47,0,0,1,25.28,9a5,5,0,0,0-.56-.2l-.79-.22c-.3-.08-.66-.16-1.08-.23l-.26,0-.3,0c-.09.2-.17.39-.25.59a4.69,4.69,0,0,1-.3.59c-.26.49-.55,1-.88,1.58s-.62,1.06-1,1.7-.83,1.31-1.3,2A3,3,0,0,0,18.36,16a1.39,1.39,0,0,0,.24.69,1,1,0,0,0,.58.34,1.17,1.17,0,0,0,.74-.07,5.35,5.35,0,0,0,1-.5c.34-.22.7-.47,1.06-.73s.69-.54,1-.8l.82-.73C24,14,24.2,13.83,24.29,13.74Z" transform="translate(-1 -1.04)"/><path class="cls-1" d="M41,15.05l-.86.83-1.09,1c-.37.32-.72.62-1.07.89a5.52,5.52,0,0,1-.84.54,2.4,2.4,0,0,1-.48.11,3.15,3.15,0,0,1-.53,0,1.85,1.85,0,0,1-.49-.12,1.12,1.12,0,0,1-.38-.24,1,1,0,0,1-.22-.43,3.85,3.85,0,0,1-.09-.6,3.79,3.79,0,0,1,.09-.88,4,4,0,0,1-1.24,1,4.62,4.62,0,0,1-1.17.42,4.43,4.43,0,0,1-1.2.05,1.14,1.14,0,0,1-.55-.29,1.38,1.38,0,0,1-.42-.67,2.57,2.57,0,0,1-.09-1.07,4.48,4.48,0,0,1,.42-1.48,7.19,7.19,0,0,1,1.24-2A8.31,8.31,0,0,1,33.6,10.7a5.55,5.55,0,0,1,1.55-.79,2.25,2.25,0,0,1,1.18-.12,2.52,2.52,0,0,1,.8.46,1,1,0,0,1,.25.64,1.4,1.4,0,0,1-.49.94h.47l.28,0a.28.28,0,0,1,.15.05.34.34,0,0,1,0,.17,3.21,3.21,0,0,1-.13.44c-.08.21-.19.5-.34.86l-.56,1.4-.13.3c0,.1-.07.19-.1.28l-.13.33-.18.47a2,2,0,0,0-.08.37,1.27,1.27,0,0,0,0,.39.59.59,0,0,0,.14.32.52.52,0,0,0,.33.16.84.84,0,0,0,.55-.15,5.8,5.8,0,0,0,.77-.5c.27-.21.56-.45.87-.71s.59-.51.86-.75l.73-.65.46-.42a.56.56,0,0,1,.34-.15.21.21,0,0,1,.22.13.44.44,0,0,1,0,.35A1.53,1.53,0,0,1,41,15.05Zm-5.82-.15.39-.87c.16-.33.29-.66.41-1s.22-.57.29-.77.08-.31,0-.31l-.22,0a.73.73,0,0,1-.26,0h-.32a1.73,1.73,0,0,0,.27-.48.93.93,0,0,0,.07-.32.53.53,0,0,0,0-.23c-.12-.14-.39-.09-.8.15a7,7,0,0,0-1.52,1.46,5.13,5.13,0,0,0-.65,1,6.14,6.14,0,0,0-.43,1,3.69,3.69,0,0,0-.19.88.88.88,0,0,0,.07.52.66.66,0,0,0,.45.29,1.49,1.49,0,0,0,.58-.06,3.06,3.06,0,0,0,.62-.28,4.31,4.31,0,0,0,.59-.39,4.83,4.83,0,0,0,.45-.4A1.13,1.13,0,0,0,35.17,14.9Z" transform="translate(-1 -1.04)"/><path class="cls-1" d="M46,18.6a1.65,1.65,0,0,1-.74-.3,1.37,1.37,0,0,1-.43-.53,1.35,1.35,0,0,1-.14-.67,1.94,1.94,0,0,1,.17-.76c.07-.17.18-.4.32-.69s.3-.6.46-.94.31-.67.45-1a7.32,7.32,0,0,0,.34-.94,2,2,0,0,0,.09-.73.33.33,0,0,0-.28-.33,1.19,1.19,0,0,0-.68.09,3.3,3.3,0,0,0-.76.43,8,8,0,0,0-.82.68c-.28.27-.56.54-.83.82s-.36.79-.5,1.1-.25.61-.36.86-.2.48-.28.67-.17.37-.24.54a.73.73,0,0,1-.42.32,2.88,2.88,0,0,1-.67.19,2,2,0,0,1-.59,0c-.16,0-.22-.1-.17-.21a4,4,0,0,1,.22-.5c.11-.26.25-.57.42-.92s.33-.72.5-1.12.35-.77.5-1.13l.39-.94c.12-.3.26-.65.43-1s.36-.82.58-1.29a1,1,0,0,1,.31-.13,1.8,1.8,0,0,1,.32-.06,1.27,1.27,0,0,1,.34,0l.31.08a1,1,0,0,1,.27.11.87.87,0,0,1,.23.19l-.2.36-.24.48c-.09.2-.19.4-.31.61a8.75,8.75,0,0,1,.7-.61,4.86,4.86,0,0,1,.81-.52,4.11,4.11,0,0,1,.88-.34,2.33,2.33,0,0,1,.91,0,1.21,1.21,0,0,1,.62.33,1.48,1.48,0,0,1,.35.67,2.63,2.63,0,0,1,0,.94,3.43,3.43,0,0,1-.34,1.11l-.37.82c-.11.26-.25.56-.41.91s-.35.74-.57,1.15a2.15,2.15,0,0,0-.22.72.34.34,0,0,0,.33.38,1.59,1.59,0,0,0,.95-.27,9.5,9.5,0,0,0,1.26-.84c.43-.34.84-.69,1.24-1.05s.7-.66.91-.89a1.25,1.25,0,0,1,.39-.27.26.26,0,0,1,.25,0c0,.05.06.14,0,.27a1.33,1.33,0,0,1-.25.49c-.12.16-.3.38-.54.64s-.52.54-.83.83-.66.58-1,.87A8.65,8.65,0,0,1,48,18a5.81,5.81,0,0,1-1.08.51A2,2,0,0,1,46,18.6Z" transform="translate(-1 -1.04)"/><path class="cls-1" d="M56.39,18.6a1.61,1.61,0,0,1-.73-.3,1.39,1.39,0,0,1-.44-.53,1.46,1.46,0,0,1-.14-.67,1.94,1.94,0,0,1,.17-.76c.08-.17.18-.4.33-.69l.45-.94c.16-.34.31-.67.46-1a7.32,7.32,0,0,0,.34-.94,2.25,2.25,0,0,0,.08-.73.33.33,0,0,0-.28-.33,1.16,1.16,0,0,0-.67.09,3.35,3.35,0,0,0-.77.43,9.19,9.19,0,0,0-.82.68l-.83.82c-.19.42-.36.79-.49,1.1s-.26.61-.36.86-.2.48-.29.67-.16.37-.24.54a.74.74,0,0,1-.41.32,3.19,3.19,0,0,1-.67.19,2,2,0,0,1-.59,0c-.17,0-.22-.1-.18-.21s.1-.25.22-.5l.42-.92.51-1.12.5-1.13.38-.94c.12-.3.27-.65.44-1l.57-1.29a1.08,1.08,0,0,1,.32-.13,1.65,1.65,0,0,1,.32-.06,1.27,1.27,0,0,1,.34,0l.3.08a1,1,0,0,1,.27.11,1.12,1.12,0,0,1,.24.19c-.06.09-.12.21-.2.36l-.25.48c-.09.2-.19.4-.3.61a8.54,8.54,0,0,1,.69-.61,5.85,5.85,0,0,1,.81-.52,4.19,4.19,0,0,1,.89-.34,2.28,2.28,0,0,1,.9,0,1.17,1.17,0,0,1,.62.33,1.39,1.39,0,0,1,.35.67,2.62,2.62,0,0,1,0,.94,3.46,3.46,0,0,1-.35,1.11l-.36.82c-.11.26-.25.56-.41.91s-.35.74-.57,1.15a2.15,2.15,0,0,0-.22.72c0,.21.09.34.32.38a1.63,1.63,0,0,0,1-.27,10.13,10.13,0,0,0,1.25-.84c.43-.34.85-.69,1.25-1.05s.7-.66.91-.89a1.14,1.14,0,0,1,.39-.27.24.24,0,0,1,.24,0,.28.28,0,0,1,0,.27,1.15,1.15,0,0,1-.24.49c-.12.16-.3.38-.54.64a11.05,11.05,0,0,1-.84.83c-.32.29-.65.58-1,.87a9.44,9.44,0,0,1-1.09.77,5.81,5.81,0,0,1-1.08.51A2,2,0,0,1,56.39,18.6Z" transform="translate(-1 -1.04)"/><path class="cls-1" d="M64,10.43a.77.77,0,0,1,.4-.13,3.71,3.71,0,0,1,.58,0,4.39,4.39,0,0,1,.54,0,.75.75,0,0,1,.28.06,1.2,1.2,0,0,1-.17.39c-.12.24-.27.53-.45.86s-.36.66-.55,1a9.44,9.44,0,0,0-.45.85l-.37.74c-.14.27-.28.54-.4.81a5.47,5.47,0,0,0-.28.76,1.06,1.06,0,0,0,0,.57.76.76,0,0,0,.16.35.37.37,0,0,0,.23.14,1.9,1.9,0,0,0,1.06-.26,10.5,10.5,0,0,0,1.37-.8c.48-.32.93-.66,1.35-1s.73-.63.94-.84a.8.8,0,0,1,.37-.2.31.31,0,0,1,.27.07.33.33,0,0,1,.07.27.74.74,0,0,1-.2.38,9.36,9.36,0,0,1-1.14,1.13,16.61,16.61,0,0,1-1.53,1.21,12,12,0,0,1-1.53.94,2.16,2.16,0,0,1-1.14.31,1.49,1.49,0,0,1-.63-.22,2,2,0,0,1-.52-.45,2,2,0,0,1-.34-.6,1.51,1.51,0,0,1-.09-.66,7.75,7.75,0,0,1,.24-1.33q.21-.83.51-1.68a14.73,14.73,0,0,1,.7-1.61A3.41,3.41,0,0,1,64,10.43Zm3.39-3.65a1.24,1.24,0,0,1-.29.38,1.76,1.76,0,0,1-.43.26,1.19,1.19,0,0,1-.44.09.4.4,0,0,1-.34-.14.94.94,0,0,1-.31-.74,1.18,1.18,0,0,1,.3-.65,1.82,1.82,0,0,1,.58-.45,1.34,1.34,0,0,1,.55-.18.42.42,0,0,1,.34.15.82.82,0,0,1,.16.37,1.47,1.47,0,0,1,0,.47A1.34,1.34,0,0,1,67.43,6.78Z" transform="translate(-1 -1.04)"/><path class="cls-1" d="M74.16,14.72c-.42.43-.85.84-1.28,1.25S72,16.72,71.63,17a7.31,7.31,0,0,1-1.07.73,1.19,1.19,0,0,1-.72.22,1.12,1.12,0,0,1-.88-.74,4.26,4.26,0,0,1-.33-1.52,9.62,9.62,0,0,1,.06-1.84A15.61,15.61,0,0,1,69,12.17,11.61,11.61,0,0,1,69.39,11a2.45,2.45,0,0,1,.37-.66.92.92,0,0,1,.41-.31,2,2,0,0,1,.55-.1H71a1.07,1.07,0,0,1,.32.07.38.38,0,0,1,.2.17.29.29,0,0,1,0,.29c0,.11-.11.27-.21.49s-.21.46-.32.73-.23.56-.34.86a8.72,8.72,0,0,0-.28.87,7.12,7.12,0,0,0-.23,1.28,5,5,0,0,0,0,1,2,2,0,0,0,.15.62c.07.15.13.22.18.23s.2-.05.4-.2a7,7,0,0,0,.72-.58,11.61,11.61,0,0,0,.89-.86,13.13,13.13,0,0,0,.92-1,1.76,1.76,0,0,1,0-.75,3.69,3.69,0,0,1,.5-1.14,4,4,0,0,1,.69-.8,2.69,2.69,0,0,1,.72-.47,1.2,1.2,0,0,1,.61-.1c.33.06.53.19.58.37a.93.93,0,0,1,0,.55,3.81,3.81,0,0,1-.55,1,14.44,14.44,0,0,1-1.1,1.4l.2.11a1,1,0,0,0,.27.09,4.64,4.64,0,0,0,1.22.05,5.24,5.24,0,0,0,1-.2,4.13,4.13,0,0,0,.76-.34l.52-.31a.34.34,0,0,1,.25-.08.31.31,0,0,1,.19.09.21.21,0,0,1,0,.19.34.34,0,0,1-.16.23,5.4,5.4,0,0,1-1.93,1.08,5,5,0,0,1-2.43.11l-.28-.07A2.67,2.67,0,0,1,74.16,14.72Z" transform="translate(-1 -1.04)"/><path class="cls-1" d="M87.12,14.78a14.84,14.84,0,0,1-1.61,1.42,11.78,11.78,0,0,1-1.81,1.16,8.91,8.91,0,0,1-1.86.72,4.16,4.16,0,0,1-1.74.09,2.38,2.38,0,0,1-.89-.37,2.66,2.66,0,0,1-.79-.78A3.1,3.1,0,0,1,78,15.8a4,4,0,0,1,.14-1.67,5.35,5.35,0,0,1,.79-1.59,7.45,7.45,0,0,1,1.31-1.43,6.05,6.05,0,0,1,1.59-1,3,3,0,0,1,1.63-.21,1.38,1.38,0,0,1,1,.55,1.23,1.23,0,0,1,.13,1A2.84,2.84,0,0,1,84,12.48a4.71,4.71,0,0,1-.82.79,8,8,0,0,1-1,.59q-.49.25-.93.45c-.31.15-.62.28-.91.41l-.76.36a2.3,2.3,0,0,0,0,.84,1.69,1.69,0,0,0,.3.6,1.37,1.37,0,0,0,.48.38,2.17,2.17,0,0,0,.59.2,2.71,2.71,0,0,0,1.45-.18,9.42,9.42,0,0,0,1.58-.75,16.35,16.35,0,0,0,1.5-1q.69-.52,1.17-.93a.47.47,0,0,1,.31-.13.26.26,0,0,1,.22.08.27.27,0,0,1,0,.24A.82.82,0,0,1,87.12,14.78Zm-4.43-3.86a1.06,1.06,0,0,0-.59.14,2.91,2.91,0,0,0-.75.56,5.75,5.75,0,0,0-.77,1A6.72,6.72,0,0,0,79.92,14l.57-.27.61-.3a5.72,5.72,0,0,0,1.36-.92,1.82,1.82,0,0,0,.51-.77.78.78,0,0,0,0-.54A.4.4,0,0,0,82.69,10.92Z" transform="translate(-1 -1.04)"/><path class="cls-1" d="M85.58,17a.71.71,0,0,1-.35.23.44.44,0,0,1-.29,0,.26.26,0,0,1-.13-.23.6.6,0,0,1,.14-.38l.36-.48.65-.89c.26-.34.53-.72.83-1.13l.85-1.16.74-1,.49-.62a4.09,4.09,0,0,1-.24-.34.75.75,0,0,1,0-.39,1.43,1.43,0,0,1,.23-.64,4.1,4.1,0,0,1,.55-.71A3.06,3.06,0,0,1,90,8.68a1,1,0,0,1,.65-.17.85.85,0,0,1,.7.49,1.58,1.58,0,0,1,.14.76,1.77,1.77,0,0,1-.15.63A2,2,0,0,1,91,11a.77.77,0,0,0,.13.12.74.74,0,0,0,.31.1,1.58,1.58,0,0,0,.44,0,1.58,1.58,0,0,1,.4,0,.89.89,0,0,1,.51.26,1.25,1.25,0,0,1,.28.47,2.06,2.06,0,0,1,.11.56,4.68,4.68,0,0,1,0,.53,1.6,1.6,0,0,1-.43,1c-.27.31-.59.65-1,1-.22.22-.45.48-.69.77a1.53,1.53,0,0,0-.39.83,1.08,1.08,0,0,0,.07.43c0,.12.21.2.51.25a1.47,1.47,0,0,0,.77-.11,5.44,5.44,0,0,0,.92-.48,11.43,11.43,0,0,0,1-.68c.33-.26.63-.51.91-.76s.53-.48.73-.68.35-.35.45-.44a.51.51,0,0,1,.29-.17.34.34,0,0,1,.27,0,.3.3,0,0,1,.1.26.7.7,0,0,1-.22.43c-.1.12-.27.3-.51.55s-.52.53-.85.83-.68.61-1.06.92a10.3,10.3,0,0,1-1.2.83,7.42,7.42,0,0,1-1.19.56,2.27,2.27,0,0,1-1.07.11,1.61,1.61,0,0,1-1.25-.91,2,2,0,0,1-.18-.67,2.18,2.18,0,0,1,0-.64,1.52,1.52,0,0,1,.22-.47,4.91,4.91,0,0,1,.34-.5l.41-.51c.14-.17.28-.33.4-.5.29-.33.52-.62.7-.86a1.56,1.56,0,0,0,.32-.63.72.72,0,0,0,0-.33.27.27,0,0,0-.23-.18.53.53,0,0,0-.17,0h-.09l-.14,0-.26,0a1,1,0,0,1-.42-.16,1.87,1.87,0,0,0-.3-.17l-.46.52-.81.93c-.31.36-.63.74-1,1.13l-1,1.1-.76.86C85.75,16.79,85.63,16.93,85.58,17Z" transform="translate(-1 -1.04)"/><path class="cls-1" d="M98.47,17.12a.71.71,0,0,0,.29.13,1,1,0,0,0,.38,0,1.56,1.56,0,0,0,.39-.15.86.86,0,0,0,.3-.3,1.25,1.25,0,0,0,.11-.61,7.82,7.82,0,0,0-.09-.9c-.06-.32-.13-.65-.2-1s-.13-.64-.18-.91-.07-.4-.1-.57-.05-.3-.07-.45,0-.24,0-.3l-.43.45-.65.63q-.35.33-.66.6l-.42.38a.58.58,0,0,1-.34.15.26.26,0,0,1-.23-.1.34.34,0,0,1-.06-.27.65.65,0,0,1,.21-.37l.44-.44.59-.61.53-.56a3.07,3.07,0,0,0,.28-.31.59.59,0,0,0,0-.42.73.73,0,0,1,0-.59A2.33,2.33,0,0,1,99,10a4.12,4.12,0,0,1,.76-.53,3.12,3.12,0,0,1,.83-.31.85.85,0,0,1,.69.14,1.63,1.63,0,0,1,.35.41.45.45,0,0,1,0,.4l-.16.23a3.74,3.74,0,0,1-.3.33c-.13.13-.31.3-.55.5a5.69,5.69,0,0,0,0,.84,5.46,5.46,0,0,0,.09.67,5.7,5.7,0,0,0,.14.65l.24.78c.09.26.16.53.22.78a5.66,5.66,0,0,1,.14.72,1.28,1.28,0,0,1,0,.53,2.51,2.51,0,0,1-.48.73,5.4,5.4,0,0,1-.86.78,4.67,4.67,0,0,1-1.08.58,2.24,2.24,0,0,1-1.17.11,1.48,1.48,0,0,1-.74-.39,2.8,2.8,0,0,1-.8-1.44.59.59,0,0,1,.06-.51,2.63,2.63,0,0,1,.28-.33,2.31,2.31,0,0,1,.34-.25l.22-.11a1.45,1.45,0,0,1,.29-.06l.43-.07c.06.42.12.76.18,1l.16.58A1.26,1.26,0,0,0,98.47,17.12Z" transform="translate(-1 -1.04)"/><path class="cls-1" d="M114.48,15.05l-.86.83-1.08,1c-.37.32-.73.62-1.08.89a4.69,4.69,0,0,1-.84.54,2.12,2.12,0,0,1-.48.11,3.13,3.13,0,0,1-.53,0,1.85,1.85,0,0,1-.49-.12,1.23,1.23,0,0,1-.38-.24,1,1,0,0,1-.22-.43,3,3,0,0,1-.08-.6,3.25,3.25,0,0,1,.08-.88,4.12,4.12,0,0,1-1.23,1,4.91,4.91,0,0,1-1.17.42,4.52,4.52,0,0,1-1.21.05,1.18,1.18,0,0,1-.55-.29,1.54,1.54,0,0,1-.42-.67,3,3,0,0,1-.09-1.07,5,5,0,0,1,.42-1.48,7.19,7.19,0,0,1,1.24-2,8.31,8.31,0,0,1,1.58-1.43,5.59,5.59,0,0,1,1.56-.79,2.21,2.21,0,0,1,1.17-.12,2.41,2.41,0,0,1,.8.46,1,1,0,0,1,.26.64,1.42,1.42,0,0,1-.5.94h.47l.28,0a.37.37,0,0,1,.16.05,1.39,1.39,0,0,1,0,.17,3.79,3.79,0,0,1-.14.44l-.33.86c-.15.36-.33.83-.57,1.4,0,.11-.09.21-.12.3s-.08.19-.11.28l-.13.33-.18.47a3.41,3.41,0,0,0-.08.37,2.54,2.54,0,0,0,0,.39.67.67,0,0,0,.14.32.52.52,0,0,0,.34.16.82.82,0,0,0,.54-.15,5.22,5.22,0,0,0,.77-.5c.28-.21.57-.45.87-.71s.6-.51.86-.75l.73-.65.46-.42a.56.56,0,0,1,.35-.15.2.2,0,0,1,.21.13.44.44,0,0,1,0,.35A1.4,1.4,0,0,1,114.48,15.05Zm-5.82-.15c.11-.25.24-.54.4-.87s.28-.66.41-1,.21-.57.28-.77.08-.31,0-.31l-.23,0a.7.7,0,0,1-.26,0H109a2.14,2.14,0,0,0,.28-.48,1.16,1.16,0,0,0,.06-.32.53.53,0,0,0,0-.23c-.12-.14-.38-.09-.79.15A6.73,6.73,0,0,0,107,12.6a5.13,5.13,0,0,0-.65,1,7.11,7.11,0,0,0-.43,1,3.69,3.69,0,0,0-.19.88,1,1,0,0,0,.07.52.66.66,0,0,0,.45.29,1.47,1.47,0,0,0,.58-.06,3.39,3.39,0,0,0,.63-.28,5,5,0,0,0,.59-.39c.17-.14.32-.28.44-.4A.92.92,0,0,0,108.66,14.9Z" transform="translate(-1 -1.04)"/><path class="cls-1" d="M113.07,17a.67.67,0,0,1-.35.23.45.45,0,0,1-.29,0,.29.29,0,0,1-.13-.23.6.6,0,0,1,.14-.38c.06-.07.17-.23.36-.48l.65-.89c.26-.34.53-.72.83-1.13l.85-1.16.75-1,.48-.62-.24-.34a.88.88,0,0,1-.05-.39,1.34,1.34,0,0,1,.24-.64,4,4,0,0,1,.54-.71,2.88,2.88,0,0,1,.68-.55.93.93,0,0,1,.64-.17.87.87,0,0,1,.71.49,1.7,1.7,0,0,1,.13.76,1.77,1.77,0,0,1-.15.63,1.85,1.85,0,0,1-.41.64.58.58,0,0,0,.14.12.74.74,0,0,0,.3.1,1.58,1.58,0,0,0,.44,0,1.58,1.58,0,0,1,.4,0,1,1,0,0,1,.52.26,1.37,1.37,0,0,1,.27.47,1.74,1.74,0,0,1,.11.56,2.34,2.34,0,0,1,0,.53,1.6,1.6,0,0,1-.43,1c-.27.31-.58.65-1,1a9.09,9.09,0,0,0-.7.77,1.53,1.53,0,0,0-.39.83,1.08,1.08,0,0,0,.07.43c0,.12.22.2.51.25a1.47,1.47,0,0,0,.77-.11,5.44,5.44,0,0,0,.92-.48,10,10,0,0,0,1-.68c.33-.26.63-.51.92-.76s.52-.48.72-.68l.45-.44a.51.51,0,0,1,.29-.17.34.34,0,0,1,.27,0,.28.28,0,0,1,.1.26.7.7,0,0,1-.22.43c-.1.12-.27.3-.51.55s-.52.53-.84.83-.69.61-1.07.92a10.3,10.3,0,0,1-1.2.83,7,7,0,0,1-1.19.56,2.27,2.27,0,0,1-1.07.11,1.78,1.78,0,0,1-.8-.34,1.86,1.86,0,0,1-.45-.57,2,2,0,0,1-.18-.67,1.87,1.87,0,0,1,0-.64,1.75,1.75,0,0,1,.21-.47,5.05,5.05,0,0,1,.35-.5c.12-.17.26-.34.4-.51a5.84,5.84,0,0,0,.4-.5c.29-.33.52-.62.7-.86a1.44,1.44,0,0,0,.32-.63.61.61,0,0,0,0-.33.26.26,0,0,0-.23-.18.48.48,0,0,0-.16,0h-.1l-.14,0-.26,0a.9.9,0,0,1-.41-.16,1.94,1.94,0,0,0-.31-.17l-.45.52c-.24.26-.51.58-.82.93l-1,1.13-1,1.1-.77.86A4.16,4.16,0,0,1,113.07,17Z" transform="translate(-1 -1.04)"/><path class="cls-1" d="M129.47,11a2.3,2.3,0,0,1,.54-.21,2.24,2.24,0,0,1,.46-.07,1.29,1.29,0,0,1,.44,0c.34.09.54.23.59.44a1.88,1.88,0,0,1-.14.94,4.91,4.91,0,0,1-.38.79l-.62,1.15c-.24.46-.5,1-.79,1.57s-.57,1.26-.86,2-.56,1.31-.89,2.1l-1,2.52c-.39,1-.83,2.11-1.3,3.38-.12.31-.3.47-.52.49a1,1,0,0,1-.65-.2,1.15,1.15,0,0,1-.22-.22c-.06-.07-.11-.16-.18-.26a1.06,1.06,0,0,1-.13-.37c.49-1,.92-2,1.31-2.82s.72-1.59,1-2.22.62-1.37.9-1.95l.32-.77.33-.76a8.72,8.72,0,0,1-.68.68,3.67,3.67,0,0,1-.75.53,2.85,2.85,0,0,1-.82.28,1.6,1.6,0,0,1-.84-.05,2,2,0,0,1-1.34-1,2.62,2.62,0,0,1-.09-1.73,5.12,5.12,0,0,1,.28-.87c.12-.31.24-.61.37-.89s.25-.54.37-.76.19-.39.25-.49A11.86,11.86,0,0,0,125,11a1,1,0,0,0,0-.9,2.23,2.23,0,0,1,.56-.15l.45,0a2.17,2.17,0,0,1,.43.08c.34.11.52.28.54.49a2.09,2.09,0,0,1-.23.92c-.1.21-.23.48-.4.8l-.56,1c-.19.34-.37.65-.52.93a3,3,0,0,0-.29.62,2.91,2.91,0,0,0-.26,1.34.67.67,0,0,0,.6.6,1.05,1.05,0,0,0,.6-.13,3.79,3.79,0,0,0,.73-.48,7.44,7.44,0,0,0,.78-.73c.26-.28.51-.56.74-.86s.44-.58.63-.86a6.84,6.84,0,0,0,.45-.78c.17-.46.29-.83.37-1.09A1,1,0,0,0,129.47,11Z" transform="translate(-1 -1.04)"/><path class="cls-1" d="M134.7,16.21a1.28,1.28,0,0,1,.79.23.58.58,0,0,1,.17.66.78.78,0,0,1-.3.43,2,2,0,0,1-.52.32,2.66,2.66,0,0,1-.59.18,1.77,1.77,0,0,1-.51,0,1.38,1.38,0,0,1-.67-.3.55.55,0,0,1-.15-.61.89.89,0,0,1,.24-.42,1.66,1.66,0,0,1,.43-.3,2.41,2.41,0,0,1,.54-.16A2.73,2.73,0,0,1,134.7,16.21ZM140,3.67a2,2,0,0,1,.41,0,2.15,2.15,0,0,1,.38.1,1.08,1.08,0,0,1,.35.22l-4.87,10.38a.81.81,0,0,1-.42.36,2.42,2.42,0,0,1-.67.23,1.77,1.77,0,0,1-.59,0c-.16,0-.22-.09-.17-.22s.3-.68.62-1.45l.52-1.23.74-1.78c.29-.69.62-1.5,1-2.42l1.34-3.17.09-.26a.78.78,0,0,0,0-.21.56.56,0,0,0,0-.19,2.23,2.23,0,0,1,.4-.24,2.64,2.64,0,0,1,.4-.13Z" transform="translate(-1 -1.04)"/><path class="cls-1" d="M10.59,32.15a.52.52,0,0,1-.35,0,.39.39,0,0,1-.14-.23.65.65,0,0,1,0-.31c0-.11.05-.21.08-.32s.07-.18.12-.29a1.92,1.92,0,0,1,.18-.31,1.25,1.25,0,0,1,.23-.23.54.54,0,0,1,.31-.09c.61,0,1.2,0,1.77.07l1.54.15q.79.07,1.5.21a2.84,2.84,0,0,1,.31.06l.31.06a1.17,1.17,0,0,1,.29,0,.49.49,0,0,1,.17.06c.38.08.76.16,1.15.26l1.12.29c.41.1.82.22,1.23.34a.81.81,0,0,1,0,.39l-.08.23a.43.43,0,0,1-.14.19.87.87,0,0,1-.17.16.7.7,0,0,1-.23.11l-1.26-.25-1.08-.2-1-.18-1,2.08c-.4.83-.81,1.7-1.23,2.62s-.83,1.83-1.22,2.74-.72,1.73-1,2.47l-.77,2.1c-.11.28-.22.59-.33.9s-.22.62-.32.92-.2.59-.29.87l-.23.75a3.19,3.19,0,0,1-.62.14,3.25,3.25,0,0,1-.51,0,2.36,2.36,0,0,1-.47,0c-.31-.06-.5-.12-.56-.21s0-.22.05-.42.27-.64.61-1.41c.13-.32.31-.72.52-1.21s.47-1.08.76-1.78l1.05-2.45,1.39-3.22,2.24-5.15q-.59,0-1.17,0c-.38,0-.75,0-1.09,0l-.92,0Z" transform="translate(-1 -1.04)"/><path class="cls-1" d="M27.69,41.48a.45.45,0,0,1,.31-.11.29.29,0,0,1,.22.12.31.31,0,0,1,0,.27.81.81,0,0,1-.23.36c-.31.29-.65.59-1,.89s-.79.58-1.22.85-.85.52-1.28.75a9,9,0,0,1-1.21.55,2.06,2.06,0,0,1-1,.15c-.27,0-.5-.26-.7-.64a1.49,1.49,0,0,1-.17-1,5.79,5.79,0,0,1,.45-1.24c.15-.31.34-.67.58-1.09A9.91,9.91,0,0,0,23,40.1a3,3,0,0,0,.28-1,.46.46,0,0,0-.43-.52,1.28,1.28,0,0,0-.7.09,3.81,3.81,0,0,0-.82.43,6.75,6.75,0,0,0-.82.64c-.27.25-.51.49-.73.73q-.28.74-.57,1.44c-.16.39-.33.83-.52,1.29s-.35.88-.5,1.24a.71.71,0,0,1-.28.09h-.26l-.27-.07a2,2,0,0,1-.27-.17,1.68,1.68,0,0,1-.19-.24,1,1,0,0,1-.12-.37c1-2.29,1.8-4.12,2.39-5.51s1-2.44,1.36-3.17.62-1.47.76-1.8.15-.47.22-.7a5.81,5.81,0,0,0,.15-.63,3.41,3.41,0,0,0,0-.61,1.36,1.36,0,0,1,.36-.1l.38,0,.44,0a1.64,1.64,0,0,1,.4,0,.9.9,0,0,1,.28.08.19.19,0,0,1,.15.15.48.48,0,0,1,0,.41c0,.19-.09.39-.15.59s-.2.49-.32.76c-.45,1-.93,2-1.44,2.89s-1,1.93-1.49,3a7.15,7.15,0,0,1,.74-.69,6.18,6.18,0,0,1,.9-.61,4.51,4.51,0,0,1,1-.4,2.24,2.24,0,0,1,1-.05,1.64,1.64,0,0,1,.5.17,1.09,1.09,0,0,1,.37.37,1.47,1.47,0,0,1,.19.59,3,3,0,0,1-.07.86,3.9,3.9,0,0,1-.18.62c-.09.21-.19.45-.32.7s-.27.52-.45.83l-.63,1c-.17.28-.31.51-.41.71a.68.68,0,0,0-.06.55c.08.22.3.31.67.26a5.88,5.88,0,0,0,1.71-.72c.18-.1.38-.23.61-.39s.45-.33.66-.5.42-.32.61-.48Z" transform="translate(-1 -1.04)"/><path class="cls-1" d="M38.07,41.93c-.22.23-.51.51-.86.84s-.71.66-1.08,1-.73.63-1.08.89a4.29,4.29,0,0,1-.84.54,1.88,1.88,0,0,1-.48.12,2.35,2.35,0,0,1-.53,0,1.53,1.53,0,0,1-.49-.11,1.12,1.12,0,0,1-.38-.24,1,1,0,0,1-.22-.44,2.8,2.8,0,0,1-.08-.59,3.22,3.22,0,0,1,.08-.88,4.28,4.28,0,0,1-1.23,1,4.82,4.82,0,0,1-1.18.42,4.05,4.05,0,0,1-1.2,0,1.11,1.11,0,0,1-.55-.28,1.38,1.38,0,0,1-.42-.67,2.6,2.6,0,0,1-.09-1.08A4.49,4.49,0,0,1,27.86,41a7.4,7.4,0,0,1,1.24-2,8.59,8.59,0,0,1,1.58-1.42,5.89,5.89,0,0,1,1.55-.8,2.23,2.23,0,0,1,1.18-.11,2.52,2.52,0,0,1,.8.46,1,1,0,0,1,.26.64,1.47,1.47,0,0,1-.5.94h.47l.28,0a.48.48,0,0,1,.15,0,.34.34,0,0,1,0,.17,2.88,2.88,0,0,1-.13.45l-.33.86-.57,1.39c0,.12-.09.22-.12.31s-.08.19-.11.28l-.13.33-.18.46a2.12,2.12,0,0,0-.08.38,1.27,1.27,0,0,0,0,.39.56.56,0,0,0,.14.31.48.48,0,0,0,.34.17.9.9,0,0,0,.54-.15,6.18,6.18,0,0,0,.77-.5c.27-.21.57-.45.87-.71s.59-.51.86-.75l.73-.66.46-.41a.56.56,0,0,1,.34-.15.21.21,0,0,1,.22.13.45.45,0,0,1,0,.35A1.51,1.51,0,0,1,38.07,41.93Zm-5.82-.15.39-.86c.16-.34.29-.66.41-1s.22-.57.29-.78.08-.31,0-.3l-.22,0a1,1,0,0,1-.26,0h-.32a1.73,1.73,0,0,0,.27-.48,1,1,0,0,0,.07-.32.53.53,0,0,0,0-.23c-.12-.14-.39-.09-.79.15a6.73,6.73,0,0,0-1.53,1.46,5.13,5.13,0,0,0-.65,1,5.81,5.81,0,0,0-.43,1,3.69,3.69,0,0,0-.19.88.89.89,0,0,0,.07.52.7.7,0,0,0,.45.29,1.49,1.49,0,0,0,.58-.06,3.73,3.73,0,0,0,.62-.28,3.77,3.77,0,0,0,.59-.39c.18-.15.33-.28.45-.4A1,1,0,0,0,32.25,41.78Z" transform="translate(-1 -1.04)"/><path class="cls-1" d="M43,45.49a1.92,1.92,0,0,1-.74-.3,1.55,1.55,0,0,1-.43-.53,1.37,1.37,0,0,1-.14-.67,1.94,1.94,0,0,1,.17-.76c.07-.17.18-.41.32-.69s.3-.6.46-.94.31-.68.46-1a8.25,8.25,0,0,0,.33-.94,2,2,0,0,0,.09-.72.34.34,0,0,0-.28-.34,1.4,1.4,0,0,0-.68.09,4.09,4.09,0,0,0-.76.44,8,8,0,0,0-.82.68c-.28.26-.56.54-.83.82s-.36.79-.5,1.1l-.36.86c-.1.25-.2.47-.28.66l-.24.55a.78.78,0,0,1-.41.32,3.11,3.11,0,0,1-.68.19,1.69,1.69,0,0,1-.59,0c-.16,0-.22-.09-.17-.21s.1-.24.22-.5l.42-.91c.16-.35.33-.72.5-1.12s.35-.77.5-1.13.25-.6.39-1,.26-.64.43-1,.36-.83.58-1.29a1.06,1.06,0,0,1,.31-.14,1.77,1.77,0,0,1,.32,0,1.3,1.3,0,0,1,.34,0l.31.07a1.59,1.59,0,0,1,.27.12.71.71,0,0,1,.23.19c-.05.09-.12.2-.2.36l-.24.48c-.09.2-.19.4-.31.61a7.12,7.12,0,0,1,.7-.61,4.91,4.91,0,0,1,.81-.53,4,4,0,0,1,.89-.33,2.28,2.28,0,0,1,.9,0,1.08,1.08,0,0,1,.62.33,1.48,1.48,0,0,1,.35.67,2.58,2.58,0,0,1,0,.93A3.41,3.41,0,0,1,45,40.32l-.37.82c-.11.26-.24.56-.41.91s-.35.73-.57,1.15a1.91,1.91,0,0,0-.21.72c0,.21.09.33.32.37a1.59,1.59,0,0,0,1-.27A9.39,9.39,0,0,0,46,43.19c.43-.34.85-.69,1.24-1s.7-.66.92-.89A.9.9,0,0,1,48.5,41a.28.28,0,0,1,.25,0s.06.14,0,.28a1.19,1.19,0,0,1-.25.49c-.12.16-.3.38-.54.64s-.52.54-.83.83-.66.58-1,.87a9.43,9.43,0,0,1-1.1.76,6.06,6.06,0,0,1-1.07.51A1.92,1.92,0,0,1,43,45.49Z" transform="translate(-1 -1.04)"/><path class="cls-1" d="M58.42,41.93c-.38.43-.81.88-1.28,1.33a11.73,11.73,0,0,1-1.47,1.22,7.61,7.61,0,0,1-1.5.85,2.6,2.6,0,0,1-1.43.18,1.12,1.12,0,0,1-.9-.62,1.7,1.7,0,0,1-.1-1.07,1.75,1.75,0,0,1,.13-.44c.05-.12.11-.23.16-.33l.19-.29a3,3,0,0,0,.19-.36A.76.76,0,0,0,52.5,42a2.22,2.22,0,0,0-.1-.39,1.92,1.92,0,0,1-.46.27,1,1,0,0,1-.58.05.58.58,0,0,1-.38-.3.78.78,0,0,1-.1-.58.75.75,0,0,1,.2-.43,1.16,1.16,0,0,1,.34-.22,1.21,1.21,0,0,1,.37-.07,1.28,1.28,0,0,1,.29,0l.24.06.39.13a4.66,4.66,0,0,0,1.17-.84.71.71,0,0,0,.2-.82.49.49,0,0,0-.34-.32.9.9,0,0,0-.51,0,2.81,2.81,0,0,0-.55.23l-.5.29c-.3.21-.64.47-1,.77l-.94.74c-.16.37-.32.76-.49,1.17L49.25,43l-.56,1.41a1.09,1.09,0,0,1-.26,0H48.2a.86.86,0,0,1-.23,0l-.29-.06a.38.38,0,0,1-.21-.13.4.4,0,0,1,0-.3,1.48,1.48,0,0,1,.2-.53c.16-.31.37-.74.62-1.27s.53-1.12.81-1.76.58-1.32.88-2,.59-1.37.87-2,.51-1.21.71-1.73.36-.92.47-1.22.19-.65.28-.95.14-.5.19-.76a2.21,2.21,0,0,0,0-.58.94.94,0,0,1,.3-.12,1.77,1.77,0,0,1,.41-.05,4.28,4.28,0,0,1,.52,0,3.26,3.26,0,0,1,.55.08.39.39,0,0,1,.29.25,1.09,1.09,0,0,1-.07.66c-.1.29-.26.7-.5,1.22s-.6,1.26-.89,1.8-.56,1.05-.83,1.53-.51.93-.76,1.37-.47.9-.69,1.36a11.58,11.58,0,0,1,1.18-1,5.17,5.17,0,0,1,1.5-.8,3,3,0,0,1,1.35-.18,1,1,0,0,1,.82.57,1.67,1.67,0,0,1,.07,1,1.84,1.84,0,0,1-.36.79,4,4,0,0,1-.62.61,3.86,3.86,0,0,1-.72.44l-.63.29a1.41,1.41,0,0,1,.4.5.91.91,0,0,1,.07.68,2.33,2.33,0,0,1-.36.88,1.74,1.74,0,0,0-.31.69.66.66,0,0,0,0,.39q.06.13.36.18A1.85,1.85,0,0,0,54.8,44a7.6,7.6,0,0,0,1.25-.84c.41-.32.78-.65,1.13-1s.62-.58.81-.73.46-.22.59-.09S58.65,41.66,58.42,41.93Z" transform="translate(-1 -1.04)"/><path class="cls-1" d="M60.67,44a.46.46,0,0,0,.28.13.81.81,0,0,0,.38,0,1.43,1.43,0,0,0,.39-.15.69.69,0,0,0,.3-.31,1.09,1.09,0,0,0,.11-.6,6,6,0,0,0-.09-.9c-.06-.32-.12-.65-.2-1s-.13-.64-.18-.91-.07-.4-.09-.58,0-.3-.08-.44,0-.24-.05-.3l-.43.44c-.2.21-.42.42-.65.64s-.45.42-.66.6-.34.31-.42.37a.65.65,0,0,1-.34.16.28.28,0,0,1-.23-.11.36.36,0,0,1-.06-.27.68.68,0,0,1,.21-.37c.1-.09.25-.23.44-.43l.59-.61c.19-.22.37-.4.54-.57a2,2,0,0,0,.27-.3.59.59,0,0,0,0-.42.73.73,0,0,1,.06-.59,1.94,1.94,0,0,1,.46-.57,3.41,3.41,0,0,1,.75-.54,2.88,2.88,0,0,1,.83-.3.83.83,0,0,1,.7.14,1.43,1.43,0,0,1,.34.41.43.43,0,0,1,.05.39,1.64,1.64,0,0,1-.16.23,2.7,2.7,0,0,1-.3.34c-.13.13-.31.29-.54.49a4.57,4.57,0,0,0,0,.84c0,.26.06.49.09.68a5,5,0,0,0,.15.64q.11.39.24.78c.08.27.16.54.22.79s.1.5.13.71a1.16,1.16,0,0,1,0,.54,2.65,2.65,0,0,1-.48.73,5,5,0,0,1-.86.78,4.29,4.29,0,0,1-1.08.57,2.12,2.12,0,0,1-1.16.12,1.41,1.41,0,0,1-.74-.39,2.74,2.74,0,0,1-.54-.7,3.19,3.19,0,0,1-.27-.74.67.67,0,0,1,.06-.51,3.87,3.87,0,0,1,.28-.33,2.94,2.94,0,0,1,.34-.26l.22-.1a1.37,1.37,0,0,1,.29-.07l.43-.06a7.83,7.83,0,0,0,.19,1c.06.24.11.44.15.58A1,1,0,0,0,60.67,44Z" transform="translate(-1 -1.04)"/><path class="cls-1" d="M83.51,41.93c-.22.23-.51.51-.86.84l-1.08,1c-.38.33-.73.63-1.08.89a4.29,4.29,0,0,1-.84.54,1.88,1.88,0,0,1-.48.12,2.35,2.35,0,0,1-.53,0,1.53,1.53,0,0,1-.49-.11,1.12,1.12,0,0,1-.38-.24,1,1,0,0,1-.22-.44,3.53,3.53,0,0,1-.09-.59,3.74,3.74,0,0,1,.09-.88,4.18,4.18,0,0,1-1.24,1,4.62,4.62,0,0,1-1.17.42,4.05,4.05,0,0,1-1.2,0,1.11,1.11,0,0,1-.55-.28,1.38,1.38,0,0,1-.42-.67,2.6,2.6,0,0,1-.09-1.08A4.49,4.49,0,0,1,73.3,41a7.4,7.4,0,0,1,1.24-2,8.59,8.59,0,0,1,1.58-1.42,5.89,5.89,0,0,1,1.55-.8,2.23,2.23,0,0,1,1.18-.11,2.52,2.52,0,0,1,.8.46,1,1,0,0,1,.26.64,1.47,1.47,0,0,1-.5.94h.47l.28,0a.48.48,0,0,1,.15,0,.34.34,0,0,1,0,.17,2.88,2.88,0,0,1-.13.45c-.08.21-.19.5-.34.86s-.33.82-.56,1.39c0,.12-.09.22-.12.31s-.08.19-.11.28l-.13.33-.18.46a2.12,2.12,0,0,0-.08.38,1.27,1.27,0,0,0,0,.39.56.56,0,0,0,.14.31.48.48,0,0,0,.34.17.9.9,0,0,0,.54-.15,6.18,6.18,0,0,0,.77-.5c.27-.21.57-.45.87-.71s.59-.51.86-.75l.73-.66.46-.41A.56.56,0,0,1,83.7,41a.21.21,0,0,1,.22.13.45.45,0,0,1,0,.35A1.51,1.51,0,0,1,83.51,41.93Zm-5.82-.15.39-.86c.16-.34.29-.66.41-1s.22-.57.29-.78.08-.31,0-.3l-.22,0a1.06,1.06,0,0,1-.26,0H78a1.73,1.73,0,0,0,.27-.48,1,1,0,0,0,.07-.32.53.53,0,0,0,0-.23c-.12-.14-.39-.09-.79.15A6.73,6.73,0,0,0,76,39.49a5.13,5.13,0,0,0-.65,1,5.81,5.81,0,0,0-.43,1,3.69,3.69,0,0,0-.19.88.89.89,0,0,0,.07.52.7.7,0,0,0,.45.29,1.49,1.49,0,0,0,.58-.06,3.73,3.73,0,0,0,.62-.28,4.31,4.31,0,0,0,.59-.39c.18-.15.33-.28.45-.4A1,1,0,0,0,77.69,41.78Z" transform="translate(-1 -1.04)"/><path class="cls-1" d="M89.42,44.05c1-2.29,1.78-4.12,2.37-5.51s1.06-2.44,1.37-3.17.62-1.46.76-1.8.15-.47.22-.7a5.81,5.81,0,0,0,.15-.63,2.64,2.64,0,0,0,0-.61,1.18,1.18,0,0,1,.37-.09l.37,0,.44,0a2.41,2.41,0,0,1,.4,0,1.15,1.15,0,0,1,.28.08.23.23,0,0,1,.16.16.49.49,0,0,1,0,.4c0,.19-.09.39-.15.59l-.31.77c-.26.52-.61,1.29-1.07,2.28s-.91,2-1.58,3.48-1.5,3.31-2.5,5.54a.74.74,0,0,1-.26.1,1.11,1.11,0,0,1-.26,0L90,44.83a1.32,1.32,0,0,1-.25-.16,1.29,1.29,0,0,1-.2-.25A.81.81,0,0,1,89.42,44.05Z" transform="translate(-1 -1.04)"/><path class="cls-1" d="M101.54,42a6.79,6.79,0,0,1-.77,1.28,4.69,4.69,0,0,1-1,1,3.71,3.71,0,0,1-1.16.54,2.94,2.94,0,0,1-1.29,0,2,2,0,0,1-1.19-.56,2.12,2.12,0,0,1-.53-1,3.62,3.62,0,0,1-.08-1.15c0-.4.09-.78.15-1.13a5.26,5.26,0,0,1,.23-.8,7.41,7.41,0,0,1,.41-.86,5.48,5.48,0,0,1,.56-.86,4.26,4.26,0,0,1,.72-.75,1.53,1.53,0,0,1,.46-.52,2.08,2.08,0,0,1,.63-.32,3.23,3.23,0,0,1,1.47-.09l.1,0,.1.06a1.92,1.92,0,0,1,.59.3,2.86,2.86,0,0,1,.65.65,3.22,3.22,0,0,1,.45,1,3.09,3.09,0,0,1,0,1.33c0,.11,0,.23-.09.38l-.11.37a9,9,0,0,0,1-.27c.35-.11.7-.23,1-.36s.65-.28.94-.42a6,6,0,0,0,.72-.42.63.63,0,0,1,.36-.13.18.18,0,0,1,.18.11.34.34,0,0,1,0,.27,1,1,0,0,1-.28.35,5.76,5.76,0,0,1-.58.38c-.3.19-.66.38-1.07.59a13.43,13.43,0,0,1-1.32.58A5.75,5.75,0,0,1,101.54,42ZM97,41.71a5.4,5.4,0,0,0-.08.69,2.14,2.14,0,0,0,0,.63,1.21,1.21,0,0,0,.24.48.75.75,0,0,0,.47.25,1.26,1.26,0,0,0,.67,0,2,2,0,0,0,.6-.33,3.27,3.27,0,0,0,.52-.53,4.94,4.94,0,0,0,.44-.65h-.26l-.28,0a2,2,0,0,1-1.2-.65,3,3,0,0,1-.62-1.26,7,7,0,0,0-.33.76A3.61,3.61,0,0,0,97,41.71Zm1.84-3.19a1.4,1.4,0,0,0-.13.36,6.47,6.47,0,0,0-.07.65,1.41,1.41,0,0,0,.09.65,1.15,1.15,0,0,0,.41.54,2,2,0,0,0,.9.35l.2,0h.2c.07-.16.13-.31.18-.44a1.46,1.46,0,0,0,.12-.35,3.68,3.68,0,0,0,.13-.75,3.48,3.48,0,0,0,0-.73,1.66,1.66,0,0,0-.18-.57.52.52,0,0,0-.36-.28,1.45,1.45,0,0,0-.74.08A2.41,2.41,0,0,0,98.79,38.52Z" transform="translate(-1 -1.04)"/><path class="cls-1" d="M112.35,40.63a.36.36,0,0,1,.23-.11.24.24,0,0,1,.2.07.25.25,0,0,1,0,.21.71.71,0,0,1-.17.34,11.49,11.49,0,0,1-1.29,1.41,16.82,16.82,0,0,1-1.61,1.36,10.38,10.38,0,0,1-1.57,1,2,2,0,0,1-1.19.28,2.08,2.08,0,0,1-1-.43,2,2,0,0,1-.56-.74,2.57,2.57,0,0,1-.2-.86,2.61,2.61,0,0,1,.09-.82c0-.2.16-.56.33-1.09s.38-1.12.64-1.8.53-1.41.83-2.19.61-1.52.92-2.24l-.67,0a5.07,5.07,0,0,1-.6-.06,4.55,4.55,0,0,1-1.15-.36,4.49,4.49,0,0,1-.77-.42.21.21,0,0,1-.1-.25.81.81,0,0,1,.17-.27,1.46,1.46,0,0,1,.28-.21.54.54,0,0,1,.28-.06l.79.21a7.56,7.56,0,0,0,.92.17c.25,0,.49.06.72.07l.69,0c.27-.59.53-1.1.77-1.53a4.63,4.63,0,0,1,.61-.88.46.46,0,0,1,.29-.12,2.2,2.2,0,0,1,.45,0,2.11,2.11,0,0,1,.45.08.51.51,0,0,1,.28.2,1.91,1.91,0,0,1-.06.81,11.87,11.87,0,0,1-.5,1.59,9.91,9.91,0,0,1,1.42.34c.41.13.76.26,1,.38A5.32,5.32,0,0,1,114,35l.38.22a.17.17,0,0,1,.11.21.72.72,0,0,1-.11.31.57.57,0,0,1-.27.24.38.38,0,0,1-.36,0,3.74,3.74,0,0,1-.43-.15,3.56,3.56,0,0,0-.56-.2l-.79-.22c-.3-.08-.66-.16-1.08-.23l-.26,0-.3,0-.25.58a4.79,4.79,0,0,1-.3.6c-.26.49-.55,1-.87,1.58s-.63,1.06-1,1.7-.83,1.31-1.3,2a3,3,0,0,0-.19,1.28,1.54,1.54,0,0,0,.24.69,1.1,1.1,0,0,0,.58.34,1.12,1.12,0,0,0,.74-.08,5.27,5.27,0,0,0,1-.49c.35-.22.7-.47,1.06-.74s.69-.53,1-.8.59-.5.82-.72Z" transform="translate(-1 -1.04)"/><path class="cls-1" d="M123.8,29.8l12-.49-2.23,12.63a3.49,3.49,0,0,1-4.22,2.72c-.91-.16-1.75-.82-1.58-1.79.25-1.41,2.29-2.41,3.91-2.13a2.93,2.93,0,0,1,1.2.48l1.59-9-10.39.42-1.75,9.9a3.5,3.5,0,0,1-4.22,2.73c-.92-.16-1.76-.82-1.59-1.79.25-1.41,2.29-2.42,3.91-2.13a3,3,0,0,1,1.21.48Z" transform="translate(-1 -1.04)"/></svg>